<?xml version="1.0" encoding="utf-8"?>
<!-- Generator: Adobe Illustrator 27.5.0, SVG Export Plug-In . SVG Version: 6.00 Build 0)  -->
<svg version="1.1" xmlns="http://www.w3.org/2000/svg" xmlns:xlink="http://www.w3.org/1999/xlink" x="0px" y="0px"
	 viewBox="0 0 500 500" style="enable-background:new 0 0 500 500;" xml:space="preserve">
<g id="BACKGROUND">
	<rect style="fill:#FFFFFF;" width="500" height="500"/>
</g>
<g id="OBJECTS">
	<ellipse style="fill:#EEEFFF;" cx="269.964" cy="442.403" rx="150.431" ry="15.981"/>
	<g>
		<path style="fill:#D2D3FF;" d="M396.454,309.193c-0.444,2.685-0.93,5.359-1.446,8.032c-3.591,18.47-9.502,37.535-23.227,50.397
			c-14.199,13.312-34.34,17.789-53.526,21.028c-36.029,6.064-72.488,9.6-109.009,10.566c-21.484,0.565-44.911-0.425-61.358-14.254
			c-10.304-8.664-16.271-21.113-20.596-34.042c-1.1-3.287-2.096-6.61-3.026-9.909c-8.652-30.603-13.907-61.996-18.075-93.559
			c-1.817-13.713-3.427-27.456-5.025-41.187c-0.516-4.417-1.021-8.883-1.391-13.36c-0.48-5.693-0.735-11.404-0.51-17.042
			c0.292-7.303,1.404-14.491,3.901-21.386c8.147-22.498,29.686-37.56,51.923-46.381c25.73-10.201,55.009-20.73,82.768-15.9
			c15.219,2.649,30.494,4.921,45.768,7.2c17.619,2.625,35.245,5.249,52.785,8.463c1.798,0.328,3.591,0.662,5.383,1.003
			c15.031,2.862,30.931,6.422,41.807,17.182c0.285,0.286,0.571,0.571,0.844,0.863c13.379,14.029,14.989,35.482,15.754,54.972
			C401.873,224.377,403.441,267.301,396.454,309.193z"/>
		<circle style="fill:#EEEFFF;" cx="253.909" cy="341.246" r="24.897"/>
		<path style="fill:#EEEFFF;" d="M336.408,107.858c-7.534,32.535-27.474,62.069-54.918,81.116
			c-28.574,19.825-64.949,28.063-99.276,22.468c-22.48-3.658-43.732-12.917-66.158-16.89c-5.371-0.948-10.827-1.531-16.283-1.646
			c-0.48-5.693-0.735-11.404-0.51-17.042c17.796,0.31,40.367,8.427,52.354,9.606c28.659,2.807,57.864-6.544,81.213-23.391
			c22.036-15.906,39.036-38.149,50.792-62.682C301.242,102.02,318.868,104.644,336.408,107.858z"/>
		<path style="fill:#EEEFFF;" d="M396.454,309.193c-10.875,0.656-21.824-0.559-32.675-1.744
			c-36.344-3.949-72.968-7.491-109.41-4.569c-36.442,2.916-73.017,12.649-103.213,33.264c-7.686,5.249-15.39,11.343-23.865,14.776
			c-1.1-3.287-2.096-6.61-3.026-9.909c-8.652-30.603-13.907-61.996-18.075-93.559c10.723,2.655,21.034,7.315,31.053,12.109
			c14.138,6.774,28.355,14.01,43.811,16.647c31.557,5.383,63.6-9.429,87.829-30.348c24.224-20.918,42.548-47.663,63.187-72.13
			c15.135-17.941,32.268-35.148,52.372-46.825c13.379,14.029,14.989,35.482,15.754,54.972
			C401.873,224.377,403.441,267.301,396.454,309.193z"/>
		<circle style="fill:#EEEFFF;" cx="321.689" cy="341.641" r="19.51"/>
		
			<ellipse transform="matrix(0.2278 -0.9737 0.9737 0.2278 52.3356 264.7859)" style="fill:#EEEFFF;" cx="193.118" cy="99.395" rx="19.51" ry="19.51"/>
		<circle style="fill:#EEEFFF;" cx="174.771" cy="150.801" r="15.125"/>
	</g>
	<g>
		<path style="fill:#020B2A;" d="M296.462,367.966c-1.702-2.855-3.249-5.755-4.378-8.89c-2.261-6.278-3.016-13.104-2.153-19.721
			c0.022-0.172,0.093-0.327,0.204-0.438c0.013-0.044,0.034-0.085,0.048-0.128c-2.626,1.075-5.314,1.996-8.033,2.802
			c-3.074,0.912-6.191,1.754-9.349,2.322c-3.384,0.608-6.902,0.872-10.388,0.696c0.135,0.441,0.276,0.88,0.409,1.323
			c1.506,5.032,3.415,9.918,5.886,14.557c2.452,4.604,5.38,8.903,8.708,12.916c1.627,1.962,3.289,3.924,4.607,6.114
			c0.653,1.085,1.213,2.23,1.635,3.426c0.477,1.353,0.741,2.765,0.93,4.183c0.386,2.898,0.576,5.833,0.702,8.754
			c0.128,2.95,0.152,5.905,0.071,8.858c-0.081,2.978-0.268,5.952-0.561,8.917c-0.29,2.933-0.627,5.887-1.217,8.777
			c-0.042,0.206-0.229,0.348-0.431,0.391c-0.42,0.831-0.949,1.628-1.419,2.435c-1.125,1.931-1.714,4.098-1.732,6.323
			c2.117,0.296,4.248,0.473,6.386,0.502c1.141,0.016,2.283-0.003,3.423-0.061c0.533-0.027,1.067-0.059,1.598-0.108
			c0.352-0.033,0.786-0.083,1.005-0.395c0.217-0.309,0.252-0.766,0.29-1.13c0.046-0.436,0.061-0.876,0.064-1.314
			c0.006-0.88-0.042-1.761-0.014-2.641c0.028-0.884,0.128-1.789,0.432-2.624c0.308-0.845,0.901-1.564,1.168-2.42
			c0.276-0.888,0.283-1.849,0.365-2.769c0.09-1.002,0.188-2.002,0.295-3.002c0.211-1.98,0.455-3.957,0.728-5.93
			c1.093-7.884,2.702-15.694,4.804-23.37c0.035-0.261,0.067-0.522,0.108-0.783c0.162-1.012,0.303-2.029,0.382-3.051
			c0.151-1.958,0.07-3.929-0.424-5.836C299.801,373.52,298.103,370.72,296.462,367.966z"/>
		<path style="fill:#020B2A;" d="M181.892,173.01c-1.141-0.028-2.274,0.19-3.391,0.395c-1.029,0.189-2.053,0.405-3.059,0.693
			c-1.96,0.562-3.823,1.441-5.34,2.826c-0.037,0.034-0.076,0.051-0.114,0.071c3.425,3.449,6.22,7.537,8.824,11.609
			c0.016,0.025,0.032,0.051,0.049,0.076c0.085-2.012,0.682-4.01,1.459-5.845c0.894-2.109,2.053-4.088,3.22-6.054
			c0.289-0.487,0.584-0.971,0.865-1.463c0.226-0.396,0.434-0.814,0.173-1.244C184.059,173.221,182.796,173.033,181.892,173.01z"/>
		<path style="fill:#020B2A;" d="M336.503,124.139c-1.531-2.684-4.267-4.49-7.122-5.519c-3.297-1.188-6.854-0.947-10.16-2.024
			c-1.822-0.594-3.567-1.783-4.52-3.423c-0.998-1.335-1.099-3.233-0.617-4.8c0.356-1.158,0.971-2.214,1.615-3.232
			c0.67-1.059,1.34-2.116,1.96-3.206c0.64-1.127,1.241-2.276,1.801-3.444c0.509-1.063,1.071-2.152,1.369-3.298
			c0.24-0.923,0.237-2.031-0.724-2.527c-0.883-0.455-1.916-0.153-2.71,0.336c-0.965,0.594-1.781,1.462-2.549,2.285
			c-0.754,0.809-1.457,1.664-2.099,2.565c-1.299,1.824-2.379,3.814-3.169,5.909c-0.401,1.064-0.733,2.153-0.993,3.259
			c-0.261,1.112-0.479,2.239-0.987,3.272c-1.071,2.177-3.539,3.119-5.762,3.649c-2.437,0.58-4.967,0.635-7.457,0.503
			c-1.244-0.066-2.486-0.178-3.726-0.296c-1.133-0.107-2.323-0.202-3.332-0.78c-1.864-1.068-2.248-3.337-2.253-5.306
			c-0.007-2.5,0.22-5.023,0.488-7.506c0.275-2.548,0.654-5.086,1.139-7.603c0.977-5.068,2.383-10.053,4.204-14.882
			c0.895-2.374,1.934-4.696,2.715-7.112c0.75-2.32,1.29-4.806,0.989-7.255c-0.106-0.863-0.404-1.922-1.293-2.278
			c-0.911-0.365-1.952,0.154-2.696,0.662c-0.857,0.585-1.587,1.401-2.236,2.204c-0.636,0.787-1.186,1.647-1.669,2.536
			c-2.039,3.744-2.847,8.038-3.52,12.204c-0.854,5.29-1.655,10.589-2.481,15.884c-0.738,4.731-1.298,9.712-4.13,13.733
			c-2.343,3.326-5.795,5.811-9.668,7.043c-1.92,0.611-3.961,0.906-5.975,0.824c-1.108-0.045-2.323-0.126-3.207-0.872
			c-0.84-0.709-1.106-1.846-1.307-2.875c-1.028-5.256-1.087-10.591-0.354-15.888c0.699-5.056,1.953-10.132,1.553-15.269
			c-0.097-1.239-0.302-2.468-0.633-3.667c-0.189-0.685-0.55-1.993-1.406-2.135c-0.429-0.071-0.745,0.323-0.941,0.646
			c-0.293,0.48-0.506,1.016-0.697,1.543c-0.415,1.149-0.68,2.347-0.857,3.554c-0.37,2.521-0.406,5.1-0.498,7.642
			c-0.096,2.655-0.163,5.311-0.255,7.967c-0.185,5.293-0.479,10.591-1.305,15.828c-0.148,0.938-0.315,1.88-0.5,2.82
			c-0.142,0.508-0.301,1.011-0.489,1.504c-0.505,1.322-1.159,2.599-1.854,3.83c-0.482,0.854-1.02,1.678-1.571,2.492
			c-0.559,0.576-1.15,1.122-1.748,1.657c-1.356,1.214-2.713,2.41-3.848,3.841c-1.227,1.548-2.29,3.218-3.566,4.727
			c-1.213,1.434-2.552,2.764-3.992,3.969c-1.441,1.206-3.022,2.417-4.795,3.107c-0.174-0.04-0.347-0.096-0.518-0.185
			c-1.017-0.531-1.494-1.836-1.909-2.831c-0.474-1.138-0.83-2.323-1.056-3.535c-0.457-2.454-0.42-4.977,0.138-7.412
			c0.585-2.553,1.687-4.971,2.103-7.565c0.184-1.143,0.226-2.35,0-3.491c-0.21-1.06-0.648-2.272-1.516-2.974
			c-0.876-0.709-1.958-0.404-2.81,0.174c-0.934,0.633-1.603,1.587-2.162,2.549c-2.351,4.045-2.466,9.022-1.755,13.531
			c0.428,2.714,1.124,5.375,1.789,8.038c0.329,1.32,0.652,2.643,0.932,3.975c0.273,1.301,0.608,2.675,0.497,4.014
			c-0.201,2.417-2.003,4.005-3.877,5.303c-2.034,1.409-4.183,2.65-6.41,3.727c-4.471,2.163-9.237,3.685-14.111,4.627
			c-5.269,1.019-10.653,1.383-16.014,1.232c-5.326-0.15-10.649-0.726-15.866-1.809c0.224,1.088,0.372,2.192,0.444,3.291
			c0.298,4.52-0.794,9.204-3.497,12.886c-1.227,1.671-2.723,3.126-4.451,4.274c-0.843,0.56-1.737,1.031-2.67,1.421
			c-0.954,0.399-1.919,0.733-2.959,0.756c-0.582,0.013-0.604-0.762-0.128-0.946c0.445-0.172,0.881-0.318,1.338-0.457
			c3.579-1.091,6.635-3.622,8.591-6.787c2.264-3.664,2.965-8.096,2.459-12.335c-0.253-2.118-0.796-4.299-1.744-6.217
			c-0.458-0.925-1.022-1.798-1.746-2.537c-0.098-0.1-0.259-0.323-0.401-0.324c-0.175-0.001-0.49,0.321-0.623,0.417
			c-0.508,0.367-1.016,0.734-1.524,1.102c-1.962,1.418-3.935,2.823-5.884,4.26c-1.76,1.298-3.485,2.664-4.985,4.262
			c-1.438,1.532-2.648,3.297-3.352,5.288c-0.699,1.977-0.852,3.966-0.515,6.032c0.086,0.526-0.596,0.71-0.792,0.218
			c-0.21-0.527-0.334-1.049-0.411-1.611c-0.627-4.617,2.152-8.918,5.38-11.937c0.153-0.143,0.314-0.275,0.47-0.415
			c-0.626-1.282-0.796-2.746-0.619-4.162c0.452-3.616,3.027-6.459,4.117-9.854c1.184-3.687,0.272-7.573-1.018-11.101
			c-1.294-3.536-3.263-6.936-3.657-10.738c-0.186-1.795,0.103-3.574,0.785-5.24c0.658-1.607,1.57-3.081,2.455-4.569
			c0.908-1.526,1.718-3.084,2.33-4.753c0.615-1.677,1.077-3.406,1.48-5.144c0.811-3.5,1.385-7.062,2.482-10.491
			c1.039-3.245,2.518-6.643,5.604-8.414c1.508-0.865,3.203-1.349,4.87-1.802c1.927-0.524,3.872-0.982,5.83-1.374
			c3.908-0.782,7.888-1.343,11.87-1.548c3.912-0.201,7.816,0.102,11.565,1.287c3.593,1.136,6.956,2.878,10.271,4.645
			c3.576,1.906,7.161,3.791,10.761,5.651c3.521,1.82,7.033,3.665,10.591,5.412c3.391,1.664,6.865,3.195,10.511,4.21
			c1.78,0.495,3.598,0.872,5.437,1.057c0.715,0.072,1.769,0.22,2.114-0.598c0.259-0.613,0.051-1.326-0.333-1.833
			c-0.485-0.641-1.202-1.067-1.877-1.48c-0.849-0.519-1.703-1.032-2.559-1.54c-1.685-1.001-3.381-1.984-5.088-2.947
			c-6.8-3.839-13.769-7.378-20.881-10.602c-6.591-2.987-13.586-5.507-19.154-10.278c-0.093-0.079-0.14-0.167-0.168-0.257
			c-0.478-0.474-0.811-1.109-0.949-1.77c-0.325-1.545,0.369-3.088,1.035-4.445c3.059-6.233,6.581-12.231,10.459-17.989
			c1.946-2.889,3.995-5.702,6.107-8.471c1.632-2.139,3.78-5.041,2.398-7.83c-0.5-1.009-1.419-1.942-2.618-1.931
			c-1.436,0.012-2.767,1.267-3.749,2.194c-2.111,1.992-3.636,4.498-4.894,7.093c-1.29,2.662-2.306,5.442-3.428,8.177
			c-1.33,3.241-2.801,6.424-4.418,9.532c-1.589,3.056-3.255,6.152-5.238,8.973c-0.902,1.284-1.93,2.468-3.212,3.385
			c-1.269,0.909-2.744,1.51-4.239,1.933c-1.489,0.42-3.023,0.676-4.552,0.894c-1.283,0.183-2.634,0.294-3.9-0.055
			c-1.272-0.351-2.333-1.259-2.663-2.568c-0.374-1.486,0.185-3.023,0.721-4.394c0.645-1.649,1.188-3.324,1.557-5.058
			c0.276-1.297,0.755-3.157-0.242-4.273c-0.698-0.781-1.856-0.712-2.753-0.361c-1.166,0.457-1.971,1.388-2.36,2.564
			c-0.959,2.893-0.055,6.041-1.027,8.947c-0.406,1.213-1.074,2.36-2.134,3.109c-1.05,0.743-2.663,1.13-3.54-0.067
			c-0.797-1.088-0.502-2.601-0.329-3.831c0.243-1.729,0.539-3.45,0.887-5.161c0.69-3.392,1.584-6.743,2.675-10.028
			c1.089-3.277,2.374-6.49,3.841-9.616c0.868-1.849,3.258-6.216-0.105-7.053c-2.825-0.703-5.495,1.794-6.697,4.081
			c-0.792,1.506-1.207,3.182-1.486,4.851c-0.294,1.76-0.46,3.546-0.567,5.326c-0.112,1.857-0.14,3.72-0.083,5.58
			c0.053,1.719,0.214,3.432,0.287,5.15c0.138,3.227-0.201,6.408-2.116,9.109c-0.891,1.257-1.96,2.371-2.889,3.599
			c-0.956,1.264-1.638,2.635-2.038,4.17c-0.415,1.594-0.57,3.237-0.736,4.872c-0.17,1.674-0.384,3.341-0.678,4.998
			c-1.173,6.624-3.47,13.054-6.75,18.927c-1.477,2.645-3.177,5.344-6.219,6.314c-2.64,0.842-5.626,0.295-7.991-1.07
			c-5.466-3.154-7.308-10.232-7.765-16.084c-0.275-3.52-0.001-7.088,0.795-10.528c0.201-0.868,0.448-1.722,0.702-2.575
			c0.243-0.818,0.515-1.708,0.377-2.57c-0.096-0.604-0.447-1.257-1.013-1.537c-0.69-0.342-1.398,0.105-1.931,0.539
			c-2.271,1.851-3.267,4.796-3.795,7.58c-0.521,2.745-0.652,5.568-0.47,8.353c0.36,5.518,2.027,10.943,4.742,15.755
			c1.891,3.351,4.31,6.389,7.151,8.971c0.415,0.54,0.868,1.041,1.316,1.554c0.918,1.05,1.87,2.078,2.827,3.093
			c1.821,1.93,3.619,3.891,4.917,6.224c0.161,0.29,0.31,0.585,0.451,0.884c1.184,2.866,1.849,5.923,1.905,9.029
			c0.07,3.845-0.601,7.719-1.514,11.443c-0.897,3.661-2.103,7.238-3.432,10.762c-0.13,0.131-0.251,0.277-0.363,0.416
			c-0.072,0.04-0.134,0.106-0.173,0.2c-0.004,0.01-0.008,0.021-0.012,0.032c-0.26,0.322-0.503,0.658-0.712,1.016
			c-0.445,0.764-0.741,1.604-0.838,2.484c-0.077,0.702,0.011,1.401,0.225,2.056c-0.019,0.021-0.045,0.047-0.061,0.066
			c-0.023,0.031-0.038,0.049-0.049,0.066c0.056,0.021,0.111,0.042,0.167,0.062c0.092,0.246,0.203,0.486,0.335,0.713
			c0.19,0.549,0.445,1.077,0.714,1.587c-0.148,0.05-0.308,0.082-0.461,0.118c-0.368,0.087-0.737,0.175-1.105,0.26
			c-0.763,0.177-1.534,0.322-2.301,0.479c-2.769,0.569-5.544,1.11-8.319,1.653c-1.068,0.209-2.266,0.428-3.059,1.24
			c-0.368,0.377-0.63,0.858-0.827,1.344c-0.204,0.505-0.275,1.151-0.602,1.59c-0.149,0.201-0.373,0.271-0.571,0.234
			c-0.273,0.262-0.623,0.459-0.969,0.611c-0.899,0.396-1.816,0.749-2.728,1.114c-1.893,0.757-3.788,1.509-5.684,2.258
			c-1.709,0.675-3.416,1.353-5.126,2.024c-1.611,0.633-3.228,1.347-4.954,1.597c-1.66,0.241-3.363,0.061-5.004,0.439
			c-1.341,0.309-2.618,0.913-3.701,1.764c-2.34,1.839-3.633,4.726-3.515,7.694c0.026,0.664,0.065,1.49,0.359,2.098
			c0.151,0.311,0.484,0.396,0.797,0.469c0.384,0.09,0.776,0.154,1.165,0.218c1.758,0.291,3.542,0.409,5.323,0.385
			c0.74-0.01,0.748,0.947,0.161,1.189c-1.573,0.649-3.205,1.128-4.872,1.45c-0.065,0.156-0.224,0.276-0.414,0.215
			c-0.766-0.246-1.393,0.59-1.409,1.284c-0.022,0.925,0.541,1.82,0.957,2.611c0.737,1.401,1.56,2.864,2.826,3.859
			c1.282,1.007,2.855,1.217,4.43,0.937c0.876-0.156,1.731-0.414,2.579-0.682c0.814-0.258,1.643-0.595,2.495-0.7
			c0.915-0.113,1.714,0.252,2.462,0.744c0.722,0.475,1.432,0.967,2.156,1.439c1.493,0.972,3.023,1.895,4.636,2.655
			c3.042,1.432,6.568,2.249,9.898,1.422c0.798-0.198,1.515-0.523,2.266-0.846c0.446-0.191,0.923-0.251,1.368-0.019
			c0.362,0.189,0.633,0.522,0.911,0.813c0.894,0.938,1.787,1.876,2.68,2.814c-0.287-1.389-0.55-2.784-0.786-4.187
			c-0.056-0.334,0.44-0.484,0.517-0.143c0.415,1.842,0.885,3.678,1.386,5.502c0.091,0.096,0.183,0.192,0.274,0.288
			c0.241,0.255,0.191,0.563,0.022,0.777c0.125,0.442,0.249,0.884,0.377,1.325c1.341,4.611,2.87,9.157,4.681,13.606
			c0.684,1.681,1.422,3.339,2.186,4.985c-0.027,0.042-0.038,0.094-0.018,0.151c1.015,2.888,2.099,5.752,3.225,8.599
			c0.555,1.404,1.122,2.802,1.69,4.201c0.458,1.127,0.933,2.341,2.066,2.951c0.423,0.228,0.843-0.066,0.889-0.51
			c0.102-0.986,0.135-1.973,0.113-2.958c0.906,2.763,2.104,5.416,3.536,7.953c3.061,5.422,7.024,10.318,11.35,14.779
			c2.091,2.156,4.322,4.206,6.832,5.868c1.205,0.798,2.476,1.512,3.808,2.075c0.834,0.352,1.685,0.611,2.548,0.838
			c1.795,1.234,3.081,3.118,3.801,5.167c0.999,2.845,1.145,5.889,1.844,8.806c0.186,0.776,0.414,1.54,0.709,2.282
			c0.002,0.005,0.005,0.011,0.007,0.016c0.098,0.417,0.209,0.832,0.346,1.244c1.501,4.518,4.908,8.071,8.087,11.479
			c1.667,1.787,3.33,3.58,4.82,5.52c1.634,2.128,2.904,4.414,3.889,6.91c1.152,2.92,2.163,5.882,3.43,8.757
			c1.267,2.873,2.663,5.688,4.142,8.458c1.482,2.776,3.047,5.508,4.651,8.215c0.791,1.334,1.592,2.663,2.398,3.988
			c0.828,1.363,1.718,2.7,2.44,4.122c0.112,0.22,0.075,0.418-0.031,0.561c2.696,5.776,4.404,11.885,5.191,18.211
			c0.387,3.111,0.683,6.352,2.152,9.178c0.722,1.389,1.652,2.658,2.368,4.05c0.747,1.452,1.155,3.003,1.445,4.602
			c0.627,3.454,1.187,6.921,1.779,10.382c0.588,3.441,1.277,6.885,1.649,10.357c0.36,3.36,0.207,6.733-0.653,10.01
			c-0.21,0.8-0.489,1.573-0.739,2.36c-0.096,0.302-0.199,0.65-0.005,0.935c0.13,0.191,0.348,0.315,0.555,0.408
			c0.611,0.275,1.332,0.339,1.986,0.437c0.85,0.128,1.705,0.224,2.562,0.295c1.723,0.143,3.455,0.177,5.182,0.103
			c0.444-0.019,0.888-0.045,1.331-0.079c0.244-0.018,0.615,0.032,0.706-0.233c0.128-0.372,0.113-0.842,0.148-1.231
			c0.038-0.415,0.068-0.83,0.091-1.246c0.093-1.713,0.054-3.432-0.115-5.139c-0.082-0.825-0.197-1.645-0.343-2.46
			c-0.068-0.379-0.103-0.813-0.258-1.169c-0.03-0.07-0.143-0.193-0.157-0.264c0.001,0.002-0.013-0.013-0.026-0.029
			c-0.008,0.003-0.013,0.005-0.022,0.008c-0.408,0.154-0.901-0.327-0.739-0.739c0.357-0.907,0.033-1.96-0.12-2.882
			c-0.178-1.069-0.357-2.139-0.536-3.208c-1.19-7.13-2.445-14.253-3.58-21.392c-0.2-0.701-0.332-1.431-0.422-2.142
			c-0.127-0.998-0.242-2.015-0.287-3.02c-0.09-2.006-0.092-4.017-0.215-6.022c-0.456-7.431-2.422-14.697-4.03-21.938
			c-0.297-1.339-0.594-2.677-0.892-4.016c0.035-0.045,0.06-0.098,0.066-0.157c0.126-1.237-0.218-2.568-0.436-3.785
			c-0.222-1.238-0.471-2.472-0.708-3.708c-0.477-2.494-0.999-4.981-1.501-7.471c-0.25-1.24-0.479-2.533-1.076-3.662
			c0.015-0.007,0.027-0.018,0.042-0.023c-0.023-0.009-0.046-0.019-0.069-0.028c-0.028-0.052-0.053-0.106-0.082-0.157
			c-0.112-0.193-0.343-0.186-0.479-0.069c-2.459-0.982-4.887-2.04-7.275-3.188c-2.604-1.252-5.478-2.515-7.319-4.837
			c-0.237-0.299,0.167-0.728,0.43-0.43c1.054,1.198,2.436,1.946,3.85,2.642c2.827,1.392,5.72,2.669,8.637,3.863
			c1.473,0.603,2.954,1.189,4.446,1.746c1.479,0.552,2.986,1.027,4.462,1.582c-0.405-3.394-0.688-6.803-0.672-10.223
			c0.001-0.306,0.435-0.291,0.465,0c0.113,1.089,0.238,2.174,0.346,3.263c0.879,8.927,2.666,17.744,4.006,26.606
			c0.663,4.389,1.235,8.796,1.532,13.227c0.15,2.234,0.23,4.474,0.217,6.714c-0.012,2.187-0.223,4.375-0.185,6.562
			c0.038,2.183,0.588,4.108,1.631,6.017c0.946,1.732,2.035,3.377,2.725,5.237c1.471,3.971,1.301,8.295,1.995,12.421
			c0.713,4.237,2.093,8.328,2.822,12.562c0.349,2.031,0.559,4.1,0.434,6.162c-0.063,1.042-0.209,2.08-0.441,3.099
			c-0.227,0.996-0.618,2.16-0.158,3.147c0.654,1.404,2.625,1.58,3.97,1.634c1.91,0.077,4.222,0.188,5.752-1.173
			c0.707-0.629,1.082-1.441,1.017-2.395c-0.07-1.03-0.539-1.988-0.763-2.986c-0.248-1.104-0.213-2.413,0.431-3.341
			c-1.463-0.822-1.686-3.292-1.875-4.778c-0.403-3.168-0.79-6.339-1.161-9.512c-0.66-5.64-1.271-11.286-1.834-16.936
			c-0.557-5.595-1.065-11.205-0.658-16.829c0.776-10.711,4.143-21.404,2.489-32.195c-0.028-0.182,0.02-0.337,0.107-0.461
			c-0.127-0.503-0.269-1.001-0.412-1.5c-0.953-3.348-0.944-6.775-1.022-10.226c-0.04-1.789-0.079-3.577-0.112-5.366
			c-0.017-0.882-0.033-1.763-0.05-2.645c-0.008-0.453-0.017-0.907-0.025-1.36c-0.004-0.223-0.026-0.459,0.006-0.68
			c0.032-0.222,0.153-0.408,0.199-0.625c0.074-0.349,0.608-0.334,0.691,0c0.069,0.277,0.213,0.483,0.234,0.776
			c0.018,0.251,0.012,0.504,0.016,0.756c0.008,0.504,0.016,1.008,0.024,1.511c0.016,1.008,0.032,2.015,0.049,3.023
			c0.029,1.814,0.051,3.628,0.073,5.441c0.021,1.733,0.006,3.473,0.132,5.202c0.126,1.727,0.546,3.368,0.926,5.051
			c0.03,0.133,0.06,0.27,0.09,0.407c0.12,0.067,0.212,0.187,0.24,0.374c0.088,0.577,0.152,1.155,0.213,1.732
			c0.604,0.114,1.208,0.225,1.813,0.332c3.12,0.553,6.305,0.816,9.473,0.739c3.222-0.078,6.389-0.548,9.527-1.267
			c5.883-1.349,11.755-3.123,17.244-5.651c5.035-2.319,9.693-5.348,13.676-9.216c3.704-3.597,6.8-7.798,9.165-12.387
			c1.174-2.279,2.161-4.649,2.947-7.089c0.401-1.244,0.749-2.504,1.043-3.778c0.29-1.254,0.493-2.524,0.776-3.779
			c0.133-0.589,1.093-0.459,1.054,0.143c-0.044,0.68-0.132,1.34-0.256,2.01c-0.963,5.191-2.836,10.213-5.438,14.803
			c-2.602,4.59-5.953,8.774-9.891,12.287c-0.781,0.697-1.592,1.353-2.416,1.99c0.475,1.497,0.929,2.999,1.371,4.506
			c2.085,7.111,3.965,14.286,6.16,21.365c1.066,3.436,2.309,6.792,3.585,10.154c1.283,3.378,2.09,6.808,2.719,10.361
			c1.276,7.217,2.546,14.435,3.813,21.653c1.282,7.302,2.726,14.599,3.72,21.947c0.487,3.597,0.826,7.22,0.824,10.852
			c-0.002,3.611-0.401,7.197-0.949,10.762c-0.152,0.991-0.315,1.98-0.482,2.968c-0.065,0.38-0.13,0.76-0.195,1.14
			c-0.058,0.336-0.297,0.892,0.04,1.099c0.339,0.208,0.969,0.191,1.351,0.248c0.406,0.061,0.813,0.117,1.22,0.168
			c0.918,0.114,1.84,0.204,2.763,0.269c0.905,0.064,1.814,0.114,2.721,0.122c0.759,0.007,1.549-0.018,2.263-0.305
			c1.188-0.478,1.804-1.607,2.034-2.811c0.561-2.942-1.102-5.601-1.759-8.37c-0.185-0.78-0.306-1.59-0.282-2.393
			c0.024-0.837,0.239-1.63,0.44-2.438c0.222-0.892,0.314-1.717-0.084-2.576c-0.306-0.659-0.68-1.276-0.949-1.953
			c-1.229-3.09-1.103-6.663-1.291-9.93c-0.216-3.755-0.432-7.509-0.648-11.264c-0.211-3.667-0.478-7.337-0.576-11.009
			c-0.049-1.831-0.044-3.664,0.068-5.492c0.11-1.78,0.313-3.564,0.194-5.349c-0.401-6.023-4.086-11.514-3.32-17.638
			c-0.018-0.127-0.04-0.252-0.057-0.379c-0.493-3.663-0.266-7.436,0.134-11.096c0.408-3.734,1.065-7.434,1.62-11.148
			c1.132-7.576,1.949-15.197,2.617-22.827c0.667-7.613,1.175-15.238,1.683-22.863c0.256-3.837,0.512-7.683,0.37-11.53
			c-0.134-3.628-0.628-7.231-1.379-10.781c-1.501-7.095-3.987-13.936-6.7-20.647c-0.262-0.377-0.529-0.751-0.805-1.119
			c-1.171-1.562-2.321-3.131-3.556-4.645c-1.214-1.487-2.484-2.928-3.779-4.344c-2.503-2.738-5.024-5.476-7.663-8.083
			c-2.512-2.482-5.19-4.833-8.233-6.648c-3.15-1.879-6.588-2.991-10.242-3.319c-3.903-0.351-7.822-0.018-11.73,0.031
			c-3.943,0.049-7.801-0.289-11.546-1.589c-1.809-0.628-3.582-1.367-5.427-1.889c-0.939-0.266-1.897-0.481-2.87-0.573
			c-1.031-0.098-2.067-0.062-3.101-0.088c-1.571-0.039-3.094-0.305-4.551-0.902c-1.266-0.519-2.444-1.207-3.558-1.997
			c-4.166-2.955-7.744-7.552-12.842-8.888c-0.009-0.001-0.017,0-0.026-0.001c-0.749-0.121-1.489-0.274-2.238-0.396
			c-6.201-1.016-12.336,1.068-18.252,2.635c-2.86,0.758-5.749,1.191-8.705,0.842c-2.707-0.32-5.314-1.147-7.762-2.338
			c-5.093-2.478-9.232-6.455-12.681-10.886c-3.536-4.542-6.43-9.524-9.562-14.341c-1.554-2.389-3.146-4.755-4.928-6.981
			c-0.889-1.11-1.818-2.18-2.78-3.227c-0.473-0.514-0.967-1.007-1.473-1.488c-0.462-0.44-0.902-0.903-1.366-1.341
			c-0.269,0.179-0.533,0.368-0.796,0.557c-0.037,0.075-0.106,0.13-0.205,0.146c-0.086,0.063-0.175,0.121-0.26,0.185
			c-0.32,0.24-0.686-0.275-0.417-0.541c1.211-1.196,2.533-2.174,4.029-2.988c6.282-3.422,13.678-4.407,20.697-5.095
			c7.458-0.732,15.008-0.967,22.324-2.722c7.003-1.68,13.341-5.005,19.038-9.372c2.821-2.163,5.472-4.546,8.006-7.037
			c2.619-2.574,5.06-5.32,7.689-7.883c2.626-2.561,5.478-4.826,8.695-6.602c3.172-1.752,6.565-3.081,9.991-4.243
			c7.158-2.427,14.531-4.31,22.021-5.368c7.428-1.049,14.979-1.283,22.426-0.277c3.67,0.496,7.293,1.292,10.823,2.413
			c3.609,1.147,7.171,2.599,10.943,3.13c1.564,0.22,3.81,0.564,5.241-0.31C338.24,127.766,337.246,125.441,336.503,124.139z"/>
	</g>
</g>
</svg>
