<?xml version="1.0" encoding="utf-8"?>
<!-- Generator: Adobe Illustrator 27.5.0, SVG Export Plug-In . SVG Version: 6.00 Build 0)  -->
<svg version="1.1" xmlns="http://www.w3.org/2000/svg" xmlns:xlink="http://www.w3.org/1999/xlink" x="0px" y="0px"
	 viewBox="0 0 500 500" style="enable-background:new 0 0 500 500;" xml:space="preserve">
<g id="BACKGROUND">
	<rect style="fill:#FFFFFF;" width="500" height="500"/>
</g>
<g id="OBJECTS">
	<ellipse style="fill:#F7E9E9;" cx="257.598" cy="414.397" rx="190.835" ry="24.066"/>
	<g>
		<path style="fill:#FFDFDE;" d="M445.927,202.602c-0.054,2.297-0.183,4.581-0.387,6.858c-1.111,12.76-4.431,25.249-9.5,37.046
			c-6.81,15.891-16.812,30.534-28.888,42.935c-22.647,23.25-52.158,39.025-83.092,48.831c-29.66,9.399-60.953,13.37-92.03,12.042
			c-29.22-1.24-58.25-7.156-85.538-17.632c-7.854-3.009-15.565-6.397-23.094-10.165c-8.01-4.005-15.931-8.545-23.372-13.695h-0.007
			c-16.29-11.283-30.311-25.499-38.097-43.511c-8.301-19.177-8.674-40.733-5.401-61.543c0.63-4.079,1.409-8.132,2.297-12.13
			c2.087-9.439,4.777-18.798,8.179-27.864c5.38-14.359,12.543-27.993,21.962-40.062c15.355-19.699,37.074-35.013,61.577-39.865
			c32.696-6.465,65.805,2.771,98.983,10.002c19.943,4.337,39.906,7.956,59.815,6.993c7.122-0.346,14.352-0.562,21.59-0.501
			c26.211,0.21,52.476,4.052,73.93,18.466c5.936,3.984,11.289,8.708,16.013,14C437.612,151.515,446.544,177.306,445.927,202.602z"/>
		<ellipse style="fill:#FFFAFA;" cx="110.846" cy="109.922" rx="29.086" ry="28.262"/>
		<ellipse style="fill:#FFFAFA;" cx="185.897" cy="115.057" rx="18.267" ry="17.749"/>
		<ellipse style="fill:#FFFAFA;" cx="110.846" cy="263.989" rx="18.267" ry="17.749"/>
		<path style="fill:#FDFAFA;" d="M330.925,100.34c-1.68,0.928-3.307,1.931-4.872,3.002c-11.94,8.138-21.176,19.55-31.049,30.101
			c-31.104,33.245-70.054,59.097-112.766,74.852c-23.575,8.694-48.675,14.373-73.734,12.604
			c-18.378-1.294-36.782-6.919-51.981-17.131c0.63-4.079,1.409-8.132,2.297-12.13c2.087-9.439,4.777-18.798,8.179-27.864
			c3.476,2.982,7.312,5.516,11.405,7.488c24.734,11.879,54.814,6.627,79.107-6.133c24.287-12.76,44.263-32.188,65.026-50.118
			c8.606-7.434,17.558-14.725,26.984-21.163c19.943,4.337,39.906,7.956,59.815,6.993
			C316.457,100.496,323.688,100.279,330.925,100.34z"/>
		<path style="fill:#FDFAFA;" d="M445.927,202.602c-0.054,2.297-0.183,4.581-0.387,6.858c-23.236,0.264-46.337,3.144-68.753,9.399
			c-44.589,12.428-84.407,37.473-123.94,61.543c-33.821,20.587-68.624,40.957-106.355,52.28
			c-7.854-3.009-15.565-6.397-23.094-10.165c-8.01-4.005-15.931-8.545-23.372-13.695c29.965-5.645,57.877-20.715,83.431-37.765
			c40.767-27.207,77.576-59.984,118.187-87.415c36.098-24.388,76.349-44.785,119.224-50.836
			C437.612,151.515,446.544,177.306,445.927,202.602z"/>
		<path style="fill:#FDFAFA;" d="M436.04,246.507c-6.81,15.891-16.812,30.534-28.888,42.935
			c-22.647,23.25-52.158,39.025-83.092,48.831c-29.66,9.399-60.953,13.37-92.03,12.042c33.929-41.851,79.575-74.174,130.425-92.05
			C385.881,250.03,411.442,244.996,436.04,246.507z"/>
	</g>
	<g>
		<path style="fill:#020B2A;" d="M109.825,204.344c-0.255,0.008-0.511,0.021-0.767,0.044c-1.06,0.099-2.083,0.351-3.027,0.853
			c-0.972,0.517-1.812,1.258-2.635,1.981c-2.138,1.878-4.275,3.759-6.412,5.638c-0.012-0.191-0.027-0.383-0.035-0.577
			c-0.024-0.561-0.033-1.123-0.024-1.684c0.017-1.105,0.094-2.213,0.267-3.305c0.296-1.872,0.827-3.715,1.687-5.408
			c0.775-1.525,1.946-3.545,3.68-4.111c1.775-0.579,3.549,1.146,4.577,2.397c0.589,0.717,1.066,1.52,1.54,2.315
			C109.051,203.113,109.44,203.727,109.825,204.344z"/>
		<path style="fill:#020B2A;" d="M270.255,338.026c0.162-0.985,0.341-1.967,0.536-2.946c0.199-1.001,0.531-2.013,0.477-3.036
			c0-0.008-0.004-0.015-0.005-0.023c0.918,0.086,1.836,0.172,2.754,0.259c2.16,0.205,4.32,0.412,6.479,0.629
			c7.661,0.767,15.32,1.66,22.876,3.167c3.713,0.741,7.391,1.638,11.022,2.715c1.593,0.473,3.162,1.006,4.676,1.693
			c0.302,0.137,0.604,0.283,0.904,0.431c0.049,0.066,0.107,0.13,0.188,0.184c0.788,0.529,1.58,1.057,2.355,1.604
			c5.471,3.855,9.737,9.09,13.955,14.25c-1.769,4.679-4.796,8.656-8.312,12.167c-1.607,1.605-3.297,3.116-5.02,4.594
			c-1.718,1.474-3.43,2.965-4.79,4.789c-1.464,1.964-2.192,4.225-2.468,6.64c-0.298,2.606-0.228,5.28-0.086,7.894
			c0.074,1.359,0.19,2.716,0.347,4.068c0.14,1.202,0.342,2.399,0.419,3.608c0.07,1.1,0.05,2.239-0.354,3.28
			c-0.397,1.022-1.197,1.79-2.076,2.412c-1.98,1.4-4.199,2.475-6.446,3.37c-1.147,0.457-2.31,0.872-3.48,1.266
			c-1.048,0.353-2.107,0.659-3.113,1.115c-0.565,0.081-1.127,0.182-1.692,0.276c-0.979,0.163-1.959,0.321-2.941,0.469
			c-2.013,0.302-4.041,0.512-6.072,0.644c-3.597,0.234-7.212,0.202-10.805-0.096c-1.789-0.148-3.573-0.363-5.345-0.648
			c-0.861-0.139-1.738-0.264-2.587-0.469c-0.269-0.065-0.529-0.13-0.634-0.407c-0.11-0.288-0.065-0.638-0.05-0.938
			c0.081-1.581,0.16-3.294,0.893-4.733c0.57-1.119,1.63-2.208,2.958-2.28c1.58-0.086,3.154,1.034,4.4,1.884
			c0.676,0.461,1.321,0.961,1.937,1.5c0.626,0.549,1.178,1.157,1.868,1.625c0.537,0.365,1.161-0.341,0.86-0.86
			c-0.522-0.905-1.372-1.595-2.172-2.254c-0.793-0.653-1.625-1.26-2.497-1.803c-1.119-0.697-2.393-1.385-3.711-1.544
			c0.016-0.033,0.027-0.068,0.044-0.101c0.196-0.38,0.454-0.708,0.778-0.987c0.691-0.595,1.589-0.814,2.484-0.678
			c1.134,0.171,2.188,0.733,3.176,1.285c1.003,0.559,2,1.133,3.01,1.68c0.472,0.256,0.937-0.349,0.569-0.737
			c-1.141-1.205-2.564-2.132-4.05-2.856c-0.818-0.398-1.704-0.736-2.608-0.857c0.605-0.426,1.384-0.582,2.154-0.474
			c1.201,0.169,2.209,0.879,3.267,1.438c0.045,0.309,0.133,0.6,0.336,0.829c0.294,0.333,0.806,0.196,1.025-0.132
			c0.368-0.55,0.094-1.501,0.013-2.125c-0.087-0.663-0.19-1.324-0.319-1.98c-0.264-1.341-0.623-2.665-1.09-3.951
			c-0.468-1.291-1.024-2.554-1.667-3.767c-0.307-0.58-0.646-1.142-1.01-1.689c-0.085-0.127-0.172-0.258-0.261-0.389
			c0.365,0.149,0.763-0.341,0.449-0.696c-0.655-0.741-1.2-1.593-1.776-2.397c-0.576-0.803-1.173-1.587-1.739-2.398
			c-1.104-1.581-2.099-3.236-3.001-4.939c-3.361-6.341-5.252-13.405-5.853-20.541c-0.336-3.999-0.291-8.027,0.062-12.023
			C269.67,342.023,269.926,340.019,270.255,338.026z"/>
		<path style="fill:#020B2A;" d="M138.223,285.041c0.069-0.108,0.056-0.22,0.004-0.311c1.976,0.873,3.835,2.03,5.525,3.36
			c1.615,1.271,3.109,2.692,4.527,4.177c0.734,0.768,1.448,1.554,2.151,2.35c0.549,0.622,1.066,1.285,1.66,1.865
			c0.599,0.87,1.124,1.789,1.611,2.728c1.243,2.397,2.335,4.848,3.807,7.121c5.285,8.158,13.211,14.084,21.261,19.299
			c3.974,2.575,8.024,5.032,11.973,7.645c-0.659,0.673-1.273,1.386-1.814,2.16c-4.87,6.966-5.463,15.861-9.368,23.288
			c-3.948,7.51-11.122,12.598-18.718,15.984c-8.897,3.965-18.594,5.593-27.965,8.034c-4.623,1.204-9.277,2.553-13.602,4.61
			c-3.621,1.722-7.066,4.039-9.478,7.293c-1.199,1.618-2.006,3.432-2.551,5.364c-0.521,1.849-0.906,3.975-2.397,5.325
			c-1.605,1.453-4.118,1.441-6.135,1.194c-2.34-0.288-4.586-1.142-6.562-2.418c-0.366-0.236-0.718-0.104-0.924,0.16
			c-1.367-0.19-2.878,0.221-4.154,0.543c-2.064,0.519-4.145,0.678-6.269,0.697c-4.03,0.035-8.062-0.018-12.092-0.03
			c-1.801-0.005-3.617,0.007-5.407-0.229c-0.864-0.114-1.724-0.293-2.556-0.554c-0.438-0.138-0.87-0.296-1.287-0.491
			c-0.298-0.139-0.718-0.291-0.893-0.591c-0.192-0.328-0.142-0.83-0.132-1.193c0.009-0.346,0.04-0.69,0.102-1.031
			c0.141-0.774,0.388-1.527,0.753-2.224c0.718-1.374,1.816-2.492,3.198-3.199c1.379-0.705,3.011-0.975,4.543-0.748
			c0.829,0.123,1.625,0.402,2.38,0.759c0.841,0.398,1.625,0.897,2.512,1.188c0.772,0.253,1.074-0.802,0.512-1.214
			c-0.9-0.658-1.949-1.161-2.977-1.59c-0.95-0.396-1.936-0.636-2.964-0.703c-1.921-0.125-3.927,0.393-5.534,1.458
			c-1.173,0.778-2.127,1.837-2.817,3.056c0.027-0.491,0.079-0.981,0.201-1.473c0.298-1.207,0.94-2.275,2.006-2.949
			c0.056-0.036,0.116-0.065,0.173-0.099c0.371,0.11,0.8-0.088,1.052-0.478c0.827-0.281,1.71-0.394,2.588-0.388
			c1.667,0.011,3.301,0.369,4.931,0.681c1.578,0.302,3.245,0.773,4.859,0.752c0.456-0.006,0.73-0.724,0.252-0.93
			c-0.959-0.411-1.985-0.595-3-0.817c-1.002-0.219-2.007-0.423-3.011-0.629c-1.927-0.395-4.009-0.7-5.943-0.367
			c0.069-0.148,0.143-0.295,0.226-0.439c0.727-1.264,1.849-2.005,3.341-1.887c1.69,0.134,3.331,1.004,4.876,1.637
			c0.862,0.353,1.728,0.698,2.598,1.031c0.517,0.198,1.037,0.413,1.566,0.589c-0.182,0.473,0.17,1.114,0.814,0.949
			c0.916-0.234,1.785-0.57,2.624-1.007c7.822-4.072,10.246-13.217,13.134-20.829c3.112-8.205,7.611-15.905,13.234-22.642
			c2.925-3.504,6.203-6.702,9.024-10.294c2.45-3.12,4.489-6.523,6.212-10.093c3.448-7.145,5.714-14.765,8.276-22.25
			c1.272-3.715,2.613-7.412,4.254-10.982c0.819-1.78,1.7-3.533,2.675-5.233C136.085,288.325,137.169,286.691,138.223,285.041z"/>
		<path style="fill:#020B2A;" d="M62.713,272.083c1.072-0.758,1.692-2.336,1.954-3.487c0.797-3.507,0.225-7.737-1.947-10.661
			c-0.068-0.091-0.149-0.165-0.238-0.227c2.02-1.56,3.953-3.236,5.798-4.993c1.361-1.296,2.695-2.62,4.012-3.959
			c0.797-0.81,1.771-1.673,2.262-2.729c0.149,0.049,0.31,0.06,0.447,0.023c0.427-0.117,0.583-0.524,0.526-0.926
			c-0.334-2.363-0.668-4.725-1.001-7.087c-0.142-1.006-0.465-2.134,0.208-3.013c0.676-0.883,1.545-1.668,2.332-2.451
			c2.938-2.923,6.13-5.591,9.241-8.327l9.536-8.385c1.577-1.387,3.155-2.774,4.732-4.162c1.561-1.372,3.095-2.786,4.693-4.113
			c0.672-0.558,1.411-1.081,2.245-1.366c0.872-0.298,1.78-0.381,2.696-0.379c1.653,0.004,3.267,0.227,4.901,0.048
			c-0.041,1.101-0.081,2.202-0.121,3.302c-0.035,0.963,1.458,0.958,1.494,0c0.062-1.68,0.105-3.363,0.19-5.042
			c0.07-1.399,0.227-2.838,0.933-4.076c1.017-1.783,2.888-2.912,4.857-3.35c2.198-0.488,4.49,0.023,6.452,1.068
			c2.185,1.163,3.997,2.914,5.456,4.898c0.794,1.08,1.523,2.215,2.225,3.355c0.382,0.621,0.749,1.251,1.12,1.879
			c0.328,0.556,0.658,1.124,1.125,1.575c0.245,0.237,0.573-0.011,0.528-0.307c-0.122-0.812-0.52-1.573-0.871-2.309
			c-0.362-0.76-0.742-1.514-1.147-2.252c-0.347-0.633-0.724-1.246-1.121-1.845c0.764-0.282,1.536-0.539,2.314-0.784
			c3.829-1.207,7.847-1.753,11.859-1.62c4.201,0.14,8.173,1.349,12.279,2.1c2.097,0.384,4.212,0.593,6.344,0.472
			c2.115-0.121,4.21-0.489,6.285-0.904c4.21-0.842,8.411-1.666,12.676-2.191c8.444-1.04,17.053-1.222,25.492-0.031
			c8.483,1.197,16.482,4.146,24.692,6.455c8.055,2.265,16.618,3.759,24.895,1.781c0.138-0.033,0.239-0.097,0.322-0.173
			c0.825-0.066,1.648-0.144,2.474-0.237c10.399-1.166,20.764-2.519,31.256-2.116c10.085,0.387,19.953,2.55,29.541,5.623
			c4.758,1.525,9.447,3.259,14.097,5.087c4.55,1.789,9.094,3.615,13.551,5.625c4.417,1.992,8.748,4.212,12.769,6.927
			c3.77,2.545,7.219,5.534,10.41,8.77c3.188,3.233,6.12,6.709,8.912,10.287c2.076,2.661,3.985,5.475,6.052,8.151
			c0.404,0.713,0.943,1.369,1.471,1.951c0.234,0.258,0.479,0.506,0.729,0.746c0.002,0.002,0.004,0.005,0.006,0.007
			c0.004,0.004,0.009,0.005,0.013,0.01c0.714,0.681,1.487,1.296,2.284,1.883c1.132,0.835,2.315,1.6,3.46,2.417
			c0.566,0.404,1.128,0.814,1.663,1.26c0.249,0.208,0.493,0.422,0.731,0.642c0.09,0.084,0.301,0.247,0.47,0.407
			c-0.018,0.009-0.035,0.02-0.054,0.029c-0.131,0.067-0.262,0.125-0.399,0.178c-0.345,0.132-0.705,0.227-1.067,0.299
			c-0.681,0.135-1.383,0.158-2.076,0.141c-1.319-0.032-2.62-0.272-3.873-0.683c-1.279-0.419-2.487-1.032-3.593-1.797
			c-0.517-0.357-1.004-0.753-1.464-1.181c-0.253-0.235-0.497-0.48-0.732-0.734c-0.247-0.267-0.538-0.421-0.804-0.659
			c-0.474-0.424-1.204,0.112-0.886,0.683c0.18,0.323,0.285,0.639,0.533,0.923c0.195,0.222,0.405,0.434,0.617,0.64
			c0.471,0.458,0.975,0.879,1.5,1.274c0.517,0.389,1.059,0.74,1.621,1.056c2.296,2.225,4.511,4.517,6.527,7.008
			c2.311,2.857,4.367,5.928,6.186,9.119c1.805,3.165,3.348,6.478,4.589,9.904c1.383,3.819,2.265,7.754,3.179,11.705
			c0.497,2.149,1.049,4.28,1.738,6.376c0.687,2.09,1.461,4.15,2.137,6.243c1.345,4.166,1.981,8.463,2.664,12.774
			c0.646,4.083,1.507,8.091,2.894,11.993c1.301,3.661,2.947,7.196,4.829,10.592c3.835,6.917,8.622,13.254,13.627,19.357
			c0.23,0.28,0.521,0.305,0.765,0.19c0.508,0.481,1.041,0.937,1.569,1.397c0.846,0.738,1.71,1.512,2.351,2.443
			c0.733,1.065,1.213,2.316,1.339,3.606c0.252,2.596-0.961,4.902-2.086,7.151c-1.26,2.52-2.517,5.041-3.775,7.562
			c-2.544,5.097-5.088,10.195-7.633,15.292c-1.215,2.434-2.398,4.89-3.759,7.248c-0.351,0.608-0.709,1.214-1.095,1.8
			c-0.28,0.426-0.594,0.864-1.035,1.137c-1.001,0.622-2.49,0.443-3.614,0.403c-1.374-0.049-2.744-0.194-4.095-0.452
			c-1.007-0.193-2.135-0.449-2.628-1.452c-0.96-1.957,0.021-4.478,1.563-5.815c0.734-0.636-0.336-1.697-1.064-1.065
			c-1.601,1.388-2.56,3.685-2.322,5.828c-0.481-0.201-1.046-0.294-1.512-0.419c-0.682-0.183-1.359-0.393-2.026-0.624
			c-0.648-0.225-1.294-0.468-1.917-0.758c-0.458-0.213-0.831-0.446-0.893-0.985c-0.132-1.151,1.064-2.003,1.905-2.546
			c0.552-0.356,1.137-0.67,1.747-0.914c0.65-0.26,1.28-0.422,1.864-0.827c0.326-0.225,0.346-0.842-0.121-0.928
			c-1.386-0.256-2.852,0.52-4.009,1.225c-0.758,0.462-1.549,1.022-2.111,1.738c-0.449-0.416-0.882-0.858-0.952-1.465
			c-0.102-0.87,0.599-1.686,1.288-2.111c0.915-0.565,2.007-0.756,3.043-0.983c0.626-0.137,1.251-0.275,1.877-0.412
			c0.438-0.096,0.875-0.18,1.301-0.305c0.011,0.124,0.027,0.245,0.032,0.371c0.021,0.562,0.918,0.736,1.021,0.138
			c0.155-0.902,0.132-1.759-0.105-2.646c-1.032-3.869-4.818-6.098-8.427-7.115c-2.046-0.577-4.158-0.871-6.246-1.257
			c-1.933-0.358-3.855-0.772-5.764-1.242c-7.549-1.857-14.881-4.573-21.823-8.069c-6.941-3.496-13.508-7.752-19.506-12.696
			c-3.014-2.484-5.888-5.137-8.6-7.948c-2.721-2.819-5.231-5.821-7.715-8.848c-2.511-3.061-5.017-6.136-7.781-8.974
			c-1.356-1.392-2.773-2.725-4.276-3.958c-1.189-0.975-2.421-1.913-3.736-2.712c-0.133-0.096-0.266-0.192-0.398-0.287
			c-0.842-0.604-1.774-1.072-2.725-1.48c-2.012-0.862-4.11-1.494-6.217-2.079c-8.365-2.32-16.97-3.632-25.582-4.62
			c-4.288-0.492-8.585-0.905-12.882-1.313c-1.11-0.105-2.22-0.21-3.33-0.313c-0.586-0.055-1.172-0.109-1.758-0.163
			c-0.444-0.041-0.909-0.132-1.355-0.091c-0.008,0.001-0.016,0.004-0.024,0.004c-0.042-0.568-0.132-1.134-0.297-1.693
			c-0.526-1.775-1.6-3.333-2.528-4.915c-0.999-1.703-1.969-3.422-2.91-5.158c-0.954-1.76-1.809-3.574-2.9-5.253
			c-0.155-0.239-0.554-0.089-0.469,0.198c0.269,0.916,0.597,1.782,0.992,2.652c1.59,3.497,3.413,6.847,5.279,10.2
			c0.921,1.655,1.521,3.286,1.385,5.209c-0.141,1.971-0.757,3.9-1.246,5.805c-2.019,7.851-4.035,15.704-6.049,23.556
			c-0.498,1.941-0.992,3.882-1.494,5.821c-0.447,1.726-0.917,3.459-1.604,5.108c-0.667,1.601-1.579,3.051-2.717,4.357
			c-1.093,1.255-2.298,2.411-3.328,3.721c-1.051,1.335-1.865,2.795-2.355,4.428c-0.473,1.577-0.648,3.239-0.674,4.881
			c-0.054,3.394,0.509,6.762,0.545,10.153c0.017,1.643-0.041,3.358-0.517,4.942c-0.225,0.749-0.577,1.462-1.166,1.992
			c-0.584,0.525-1.348,0.815-2.088,1.041c-1.807,0.552-3.69,0.886-5.573,1.023c-1.927,0.14-3.846,0.027-5.768-0.125
			c-0.249-0.02-0.426,0.104-0.539,0.276c-1.633,0.199-3.124,1.793-4.338,2.737c-1.699,1.321-3.677,2.244-5.738,2.839
			c-3.843,1.111-7.909,1.163-11.874,0.936c-2.225-0.127-4.444-0.349-6.66-0.579c-2.143-0.222-4.366-0.337-6.459-0.882
			c-1.771-0.461-3.298-1.395-3.812-3.25c-0.271-0.978-0.294-2-0.316-3.009c-0.019-0.901-0.07-1.926,0.395-2.736
			c0.487-0.85,1.501-1.163,2.391-1.4c1.06-0.282,2.142-0.444,3.239-0.483c2.215-0.079,4.452,0.318,6.489,1.201
			c0.374,0.162,0.804,0.115,1.03-0.27c0.188-0.321,0.103-0.868-0.27-1.03c-2.463-1.069-5.144-1.571-7.829-1.376
			c-1.109,0.081-2.236,0.261-3.31,0.58c0.094-0.283,0.197-0.563,0.322-0.834c0.327-0.71,0.734-1.412,1.291-1.967
			c1.104-1.102,2.773-1.111,4.238-1.091c1.355,0.018,2.716,0.193,3.996,0.649c0.607,0.216,1.179,0.521,1.731,0.85
			c0.557,0.332,0.984,0.85,1.542,1.163c0.329,0.185,0.702-0.12,0.62-0.477c-0.146-0.637-0.721-1.202-1.19-1.628
			c-0.505-0.459-1.076-0.808-1.7-1.079c-0.869-0.378-1.806-0.645-2.767-0.81c3.031-1.543,6.948-0.718,9.146,1.86
			c0.484,0.569,1.421-0.039,1.224-0.712c-1.163-3.965-2.081-7.997-2.848-12.056c-1.369-7.241-2.254-14.559-3.332-21.845
			c-1.076-7.272-2.33-14.535-4.365-21.609c-0.125-0.435-0.51-0.569-0.855-0.502c-0.234-0.432-0.478-0.858-0.746-1.269
			c-0.756-1.158-1.627-2.243-2.619-3.206c-2.005-1.947-4.332-3.537-6.653-5.078c-8.451-5.607-17.488-10.476-24.998-17.377
			c-3.432-3.153-6.522-6.704-8.868-10.745c-1.237-2.131-2.175-4.417-3.386-6.562c-1.254-2.223-2.911-4.173-4.741-5.942
			c-0.097-0.094-0.2-0.147-0.305-0.179c-0.178-0.187-0.346-0.384-0.527-0.569c-1.659-1.697-3.429-3.289-5.36-4.671
			c-3.296-2.359-7.076-4.018-11.137-4.392c-2.283-0.21-4.589-0.068-6.872,0.077c-2.304,0.146-4.603,0.351-6.896,0.616
			c-1.063,0.123-2.133,0.253-3.173,0.516c-1.041,0.263-1.987,0.705-2.936,1.198c-0.973,0.506-1.922,0.852-3.033,0.843
			c-1.028-0.008-2.033-0.248-3.01-0.551c-3.054-0.948-6.16-2.77-9.408-2.767c-0.555-0.022-1.108-0.029-1.664-0.006
			c-1.297,0.053-2.587,0.219-3.862,0.458c-2.331,0.437-4.503,1.309-6.739,2.067c-2.199,0.746-4.427,1.07-6.746,1.106
			c-2.022,0.031-4.097-0.232-5.603-1.712c-1.281-1.259-2.005-2.981-2.661-4.629c1.434,0.162,2.893,0.188,4.273,0.225
			c1.795,0.048,3.596,0.015,5.37-0.289c0.866-0.149,1.72-0.369,2.537-0.694c0.431-0.172,0.856-0.361,1.263-0.583
			c0.407-0.222,0.69-0.496,1.012-0.822c0.514-0.519-0.137-1.245-0.741-0.96c-0.412,0.195-0.822,0.376-1.23,0.587
			c-0.386,0.199-0.785,0.366-1.196,0.508c-0.825,0.284-1.686,0.475-2.55,0.59c-1.58,0.211-3.186,0.198-4.776,0.149
			c-1.685-0.053-3.399-0.08-5.058-0.396c-1.55-0.295-3.068-0.851-4.23-1.953C63.542,274.376,62.918,273.292,62.713,272.083z"/>
		<path style="fill:#020B2A;" d="M54.852,262.964c1.563-1.098,3.194-2.094,4.774-3.168c0.589-0.4,1.164-0.822,1.738-1.245
			c0.018,0.048,0.024,0.101,0.056,0.144c1.136,1.529,1.763,3.356,1.961,5.243c0.188,1.789,0.18,3.808-0.551,5.486
			c-0.23,0.528-0.709,1.533-1.387,1.599c-0.352,0.034-0.753-0.311-1.033-0.485c-0.376-0.233-0.748-0.475-1.114-0.723
			c-1.482-1.006-2.872-2.142-4.159-3.387c-0.557-0.539-1.278-1.125-1.554-1.874C53.302,263.789,54.342,263.323,54.852,262.964z"/>
		<path style="fill:#020B2A;" d="M231.114,410.204c0.02-0.004,0.041-0.007,0.062-0.01c0.051-0.008,0.1-0.012,0.152-0.013
			c0.027-0.001,0.054,0,0.081-0.001c0.053-0.039,0.097-0.088,0.116-0.152c0.02-0.069,0.127-0.04,0.108,0.03
			c-0.011,0.044-0.037,0.083-0.063,0.12c0.011,0.001,0.022-0.002,0.033,0c0.047,0.005,0.055,0.063,0.011,0.081
			c-0.056,0.023-0.117,0.035-0.177,0.048c-0.009,0.006-0.016,0.015-0.025,0.02c-0.056,0.029-0.115,0.046-0.177,0.052
			c-0.033,0.003-0.063-0.007-0.094-0.012c-0.001,0-0.001,0-0.002,0c-0.028,0.003-0.053-0.004-0.08-0.011
			c-0.056-0.014-0.064-0.092-0.016-0.12C231.064,410.222,231.086,410.209,231.114,410.204z"/>
	</g>
</g>
</svg>
