<?xml version="1.0" encoding="utf-8"?>
<!-- Generator: Adobe Illustrator 27.5.0, SVG Export Plug-In . SVG Version: 6.00 Build 0)  -->
<svg version="1.1" xmlns="http://www.w3.org/2000/svg" xmlns:xlink="http://www.w3.org/1999/xlink" x="0px" y="0px"
	 viewBox="0 0 500 500" style="enable-background:new 0 0 500 500;" xml:space="preserve">
<g id="BACKGROUND">
	<rect style="fill:#FFFFFF;" width="500" height="500"/>
</g>
<g id="OBJECTS">
	<ellipse style="fill:#EAF7DF;" cx="246.954" cy="433.501" rx="195.37" ry="21.281"/>
	<g>
		<path style="fill:#D2D3FF;" d="M-4.449,158.451c1.994-1.089,4.008-2.138,6.043-3.145L-4.449,158.451z"/>
		<path style="fill:#E6FFD4;" d="M445.756,277.862c-13.531,40.786-44.17,75.337-86.977,88.676
			c-25.219,7.858-51.611,11.065-77.837,14.23l-18.355-0.308c-26.905-4.412-57.859-4.604-84.689-1.041
			c-23.63,3.138-46.486,1.946-68.239-7.242c-2.891-1.213-5.769-2.576-8.619-4.09c-26.48-14.045-47.116-38.744-56.229-67.307
			c-2.035-6.372-3.494-12.894-4.419-19.492c-3.309-23.466,0.123-47.911,8.53-70.171c0.891-2.35,1.829-4.679,2.83-6.981
			c11.017-25.658,28.275-48.432,48.26-68.006c5.872-5.748,12.003-11.243,18.375-16.45c31.29-25.603,68.28-44.328,107.846-52.289
			c33.503-6.742,68.814-5.488,101.481,4.255c7.297,2.165,14.456,4.762,21.438,7.79c6.194,2.679,12.25,5.7,18.129,9.064
			c39.066,22.349,69.575,60.106,81.195,103.468c0.925,3.439,1.727,6.92,2.405,10.428
			C455.772,227.676,453.731,253.848,445.756,277.862z"/>
		<path style="fill:#F7FFF0;" d="M349.153,79.435c-4.214,17.279-13.422,33.606-25.528,46.753
			c-20.218,21.951-47.651,36.024-75.816,45.883c-42.964,15.045-88.608,21.225-134.093,23.157
			c-17.183,0.733-34.763,0.774-51.487,5.296c-3.549,0.959-7.023,2.234-10.476,3.611c11.017-25.658,28.275-48.432,48.26-68.006
			c5.872-5.748,12.003-11.243,18.375-16.45c17.841-1.192,35.859-0.672,53.762-0.288c26.741,0.576,53.817,0.774,79.818-5.529
			c28.44-6.892,54.831-21.773,75.748-42.218C335.012,73.81,342.171,76.407,349.153,79.435z"/>
		<path style="fill:#F7FFF0;" d="M445.756,277.862l-0.76,0.76c-30.913,30.502-74.604,44.499-117.582,50.754
			c-42.971,6.255-86.73,5.783-129.633,12.497c-30.81,4.816-61.936,13.908-88.121,30.303c-2.891-1.213-5.769-2.576-8.619-4.09
			c-26.48-14.045-47.116-38.744-56.229-67.307c-2.035-6.372-3.494-12.894-4.419-19.492c29.584-13.189,72.418-12.449,98.549-10.839
			c48.021,2.953,95.808,13.942,143.774,10.174c64.279-5.049,125.509-38.456,165.76-88.656c0.925,3.439,1.727,6.92,2.405,10.428
			C455.772,227.676,453.731,253.848,445.756,277.862z"/>
		<circle style="fill:#F7FFF0;" cx="351.883" cy="145.022" r="17.318"/>
		<circle style="fill:#F7FFF0;" cx="342.962" cy="188.054" r="12.07"/>
		
			<ellipse transform="matrix(0.7071 -0.7071 0.7071 0.7071 -128.2632 168.7852)" style="fill:#F7FFF0;" cx="139.61" cy="239.22" rx="22.303" ry="22.303"/>
		
			<ellipse transform="matrix(0.925 -0.3799 0.3799 0.925 -83.5391 52.3739)" style="fill:#F7FFF0;" cx="90.919" cy="237.831" rx="11.92" ry="11.921"/>
	</g>
	<g>
		<path style="fill:#020B2A;" d="M198.166,407.775c0.77-0.081,1.532-0.054,2.298,0.056c2.339,0.336,4.729,1.638,6.089,3.626
			c-0.156-1.099-0.642-2.146-1.439-2.937c-0.586-0.583-1.289-1.009-2.069-1.281c-0.408-0.142-0.825-0.264-1.255-0.318
			c-0.42-0.052-0.92,0.03-1.3-0.17c-0.108-0.057-0.17-0.165-0.194-0.28c-0.887-0.337-1.724-0.838-2.46-1.428
			c-1.833-1.467-3.222-3.375-4.643-5.221c-3.062-3.978-6.132-7.951-9.185-11.936c-2.879-3.757-5.714-7.565-8.134-11.64
			c-1.169-1.969-2.423-4.044-2.964-6.291c-0.552-2.293-0.041-4.418,1.143-6.418c1.24-2.095,2.718-4.07,4.087-6.082l2.147-3.154
			c0.246-0.362,0.487-0.737,0.732-1.109c-2.885,1.619-5.838,3.126-8.824,4.567c-4.191,2.022-8.455,3.906-12.789,5.599
			c-1.403,0.548-2.815,1.085-4.236,1.601c0.028,0.034,0.058,0.066,0.081,0.109c0.2,0.37-0.313,0.809-0.603,0.465
			c0.07,0.083,0.072-0.001-0.016,0.098c-0.053,0.06-0.112,0.17-0.151,0.233c-0.075,0.122-0.147,0.247-0.207,0.377
			c-0.131,0.283-0.214,0.592-0.264,0.899c-0.232,1.427,0.303,2.782,1.036,3.978c0.829,1.351,1.896,2.56,2.873,3.803
			c2.081,2.647,4.122,5.326,6.117,8.039c3.987,5.425,7.85,10.94,11.585,16.541c1.849,2.773,3.643,5.58,5.454,8.377
			c0.764,1.18,1.599,2.35,2.78,3.147c0.998,0.673,2.109,1.166,3.069,1.898c0.513,0.391,0.97,0.832,1.326,1.374
			c0.367,0.559,0.515,1.198,0.763,1.809c0.268,0.658,0.738,0.884,1.395,1.067c0.772,0.215,1.558,0.384,2.348,0.52
			c3.218,0.551,6.569,0.429,9.742-0.333c1.179-0.283,2.716-0.611,3.351-1.769c0.591-1.078,0.04-2.429-0.602-3.349
			c-1.539-2.204-4.488-3.211-7.081-2.938c-0.413,0.043-0.764-0.385-0.764-0.764C197.402,408.095,197.756,407.818,198.166,407.775z"
			/>
		<path style="fill:#020B2A;" d="M285.217,409.42c-0.79-0.255-1.601-0.433-2.413-0.602c-0.643-0.134-1.333-0.177-1.978-0.341
			c-0.02,0.258-0.041,0.516-0.061,0.774c0.777,0.227,1.539,0.505,2.266,0.865c1.841,0.913,3.471,2.263,4.732,3.882
			c0.628,0.806,1.172,1.67,1.597,2.6c0.011,0.024,0.021,0.048,0.032,0.072c0.393-1.693,0.201-3.531-0.769-4.988
			C287.838,410.502,286.532,409.843,285.217,409.42z"/>
		<path style="fill:#020B2A;" d="M292.397,313.962c-4.646-0.619-9.247-1.501-13.815-2.536c0.062,1.076,0.122,2.151,0.203,3.226
			c0.189,2.523,0.451,5.043,1.034,7.509c0.283,1.194,0.673,2.367,0.864,3.582c0.194,1.229,0.126,2.433-0.105,3.652
			c-0.482,2.541-1.219,5.051-1.835,7.563c-0.628,2.559-1.255,5.119-1.884,7.678c-2.499,10.165-4.917,20.35-7.255,30.553
			c-2.338,10.203-4.595,20.425-6.772,30.664c-0.429,2.017-1.092,4.44,0.145,6.306c0.98,1.478,2.739,2.252,3.959,3.5
			c0.696,0.711,1.158,1.527,1.469,2.469c0.321,0.972,0.555,1.915,1.548,2.398c0.914,0.444,2.021,0.476,3.015,0.554
			c1.297,0.102,2.597,0.163,3.898,0.182c2.566,0.038,5.134-0.086,7.684-0.37c1.028-0.115,2.244-0.139,3.193-0.597
			c0.529-0.255,0.732-0.656,0.762-1.108c-0.117-0.222-0.146-0.474-0.072-0.717c-0.046-0.197-0.107-0.395-0.178-0.588
			c-1.358-3.657-4.752-6.437-8.5-7.342c-0.306-0.074-0.586-0.414-0.56-0.736c0.076-0.955,0.151-1.909,0.227-2.864
			c0.302-3.818,0.604-7.637,0.907-11.455c0.287-3.629,0.35-7.355,1.684-10.788c0.646-1.662,1.454-3.253,2.167-4.886
			c0.728-1.667,1.378-3.369,1.967-5.09c1.155-3.377,2.065-6.835,2.789-10.329c0.732-3.53,1.167-7.109,1.86-10.646
			c0.696-3.558,1.883-6.888,3.516-10.122c1.49-2.953,3.118-5.846,4.748-8.723c1.567-2.766,3.199-5.498,4.987-8.127
			c3.169-4.659,6.859-8.98,11.355-12.385C307.755,315.264,300.015,314.976,292.397,313.962z"/>
		<path style="fill:#020B2A;" d="M438.691,382.488c-0.243-0.533-0.587-0.823-1.177-0.875c-0.611-0.053-1.251,0.051-1.852,0.152
			c-1.355,0.227-2.68,0.599-4.013,0.928c-0.295,0.073-0.595,0.12-0.893,0.181c0.357,0.063,0.713,0.126,1.063,0.195
			c1.297,0.255,2.593,0.511,3.89,0.766c1.074,0.211,2.335,0.299,3.295,0.87c0.055,0.033,0.1,0.071,0.15,0.106
			c0-0.134-0.001-0.269-0.009-0.402C439.108,383.761,438.962,383.083,438.691,382.488z"/>
		<path style="fill:#020B2A;" d="M436.227,380.288c-0.187-0.212-0.395-0.395-0.668-0.529c-0.85-0.418-1.813-0.326-2.691-0.055
			c-1.128,0.347-2.171,0.954-3.229,1.465c-0.571,0.276-1.143,0.549-1.719,0.812c-0.083,0.038-0.171,0.079-0.258,0.12
			c0.108,0.044,0.22,0.079,0.331,0.118c0.271-0.098,0.54-0.199,0.83-0.259c0.399-0.082,0.798-0.156,1.194-0.25
			c0.739-0.176,1.472-0.375,2.206-0.569C433.538,380.793,434.871,380.45,436.227,380.288z"/>
		<path style="fill:#020B2A;" d="M454.72,216.504c-0.248-1.729-0.599-3.449-1.093-5.126c-0.249-0.846-0.535-1.681-0.87-2.497
			c-0.167-0.406-0.343-0.814-0.55-1.202c-0.144-0.27-0.224-0.464-0.549-0.39c-0.362,0.082-0.723,0.309-1.055,0.47
			c-0.343,0.166-0.685,0.337-1.023,0.512c-0.676,0.35-1.343,0.718-2,1.102c-1.312,0.768-2.585,1.603-3.815,2.496
			c-2.457,1.783-4.735,3.811-6.844,5.994c-2.142,2.218-4.111,4.601-5.907,7.107c-0.895,1.249-1.75,2.527-2.565,3.829
			c-0.407,0.649-0.802,1.305-1.191,1.966c-0.185,0.315-0.387,0.593-0.624,0.818c0.005-0.141,0.013-0.282,0.015-0.423
			c0.002-0.259-0.002-0.518-0.013-0.777c-0.006-0.143-0.02-0.285-0.037-0.427c-0.016-0.131-0.027-0.234-0.09-0.355
			c-0.033-0.063-0.073-0.119-0.103-0.184c-0.143-0.312-0.538-0.319-0.782-0.139c-0.098-0.302-0.431-0.487-0.739-0.402
			c-0.322,0.089-0.511,0.432-0.427,0.752l0.647,2.503c-0.761,0.003-1.554-0.159-2.304-0.22c-0.905-0.073-1.812-0.124-2.719-0.153
			c-1.845-0.058-3.694-0.025-5.535,0.1c-3.214,0.218-6.429,0.73-9.583,1.41c-0.009-0.712-0.004-1.424,0.027-2.136
			c0.017-0.402-0.354-0.744-0.744-0.744c-0.422,0-0.72,0.341-0.743,0.744c-0.037,0.634-0.06,1.267-0.072,1.899
			c-0.151-0.363-0.303-0.726-0.461-1.087c-0.198-0.45-0.354-1.092-0.885-1.236c-0.173-0.047-0.421,0.027-0.501,0.204
			c-0.173,0.383-0.034,0.736,0.135,1.086c-2.333-3.771-4.902-7.385-7.733-10.807c-1.846-2.231-3.775-4.395-5.762-6.501
			c-1.811-1.92-3.732-3.799-6.007-5.165c-1.08-0.648-2.229-1.165-3.456-1.462c-0.617-0.15-1.241-0.24-1.876-0.26
			c-0.27-0.009-0.609-0.04-0.858,0.088c-0.235,0.121-0.343,0.382-0.43,0.618c-0.508,1.384-0.808,2.886-1.104,4.328
			c-0.309,1.507-0.549,3.028-0.709,4.558c-0.32,3.048-0.358,6.125-0.112,9.18c0.248,3.071,0.84,6.066,1.609,9.045
			c0.389,1.505,0.758,3.016,0.922,4.565c0.169,1.594-0.035,3.12-0.305,4.69c-0.222,1.288-0.465,2.713,0.072,3.958
			c0.408,0.947,1.205,1.792,2.301,1.733c0.977-0.053,0.961,1.44,0,1.511c-0.622,0.046-1.232-0.098-1.779-0.397
			c-1.115-0.61-1.879-1.816-2.189-3.024c-0.398-1.551-0.05-3.179,0.214-4.721c0.282-1.643,0.288-3.244-0.01-4.887
			c-0.028-0.155-0.064-0.307-0.095-0.462c-1.621,0.313-3.242,0.622-4.878,0.843c-3.333,0.45-6.557,0.318-9.856-0.315
			c-3.318-0.637-6.606-1.392-9.942-1.943c-6.759-1.118-13.578-1.828-20.384-2.589c-13.76-1.537-27.523-3.057-41.312-4.309
			c-10.061-0.914-20.137-1.683-30.226-2.214c-4.105-0.661-8.219-1.269-12.348-1.77c-8.822-1.07-17.727-1.656-26.612-1.225
			c-7.98,0.387-15.949,1.599-23.591,3.96c-7.318,2.261-14.419,5.543-20.574,10.138c-0.032,0.024-0.062,0.05-0.093,0.075
			c-12.558,5.94-25.048,12.498-35.694,21.53c-10.91,9.255-18.952,21.065-25.769,33.534c-7.07,12.933-12.94,26.501-20.462,39.191
			c-6.91,11.656-15.342,22.572-26.425,30.544c-5.168,3.718-10.876,6.723-16.962,8.628c-2.728,0.854-5.757,1.207-8.252,2.677
			c-0.974,0.574-1.871,1.372-2.153,2.508c-0.406,1.632,0.623,3.268,1.596,4.495c3.733,4.707,10.193,6.224,15.916,6.47
			c7.336,0.315,14.752-0.992,21.592-3.638c13.291-5.14,23.503-15.536,33.2-25.594c5.497-5.702,10.998-11.399,16.483-17.111
			c4.844-5.044,9.66-10.175,13.672-15.923c1.951-2.795,3.707-5.732,5.148-8.824c1.576-3.38,2.689-6.945,3.544-10.571
			c1.694-7.188,2.424-14.569,4.267-21.724c1.688-6.554,4.371-13.101,9.187-17.995c4.333-4.402,10.283-7.448,16.571-7.108
			c0.98,0.053,0.983,1.582,0,1.529c-1.897-0.103-3.78,0.117-5.593,0.614c-0.048,0.077-0.114,0.15-0.2,0.213
			c-0.582,0.429-1.155,0.9-1.685,1.392c-5.037,4.681-5.304,12.157-4.611,18.518c0.436,3.998,1.156,7.957,1.386,11.977
			c0.229,3.997,0.096,8.015-0.395,11.988c-0.483,3.913-1.242,7.84-2.499,11.583c-1.233,3.672-3.153,6.924-5.477,10.005
			c-4.414,5.85-9.443,11.226-14.999,16.005c-2.769,2.382-5.662,4.628-8.667,6.705c-0.866,0.599-1.758,1.18-2.676,1.714
			c-0.191,0.012-0.382,0.022-0.572,0.038c-1.589,0.138-3.102,0.49-4.496,1.287c-0.808,0.462-1.594,1.031-2.286,1.688
			c-0.343,0.093-0.674,0.235-0.989,0.426c-0.633,0.384-1.152,0.935-1.502,1.587c-0.417,0.778-0.459,1.605-0.357,2.468
			c0.124,1.055,0.346,2.068,0.215,3.135c-0.129,1.052-0.466,2.045-0.794,3.048c-1.366,4.172-2.246,8.479-3.053,12.788
			c-1.646,8.785-3.25,17.579-4.874,26.368c-0.783,4.236-1.77,8.513-2.026,12.824c-0.091,1.526-0.056,3.226,0.764,4.571
			c0.423,0.693,1.063,1.039,1.68,1.529c0.803,0.638,0.989,1.5,1.079,2.474c0.382,4.118,5.281,4.432,8.471,4.62
			c3.836,0.226,7.785,0.381,11.535-0.604c0.903-0.237,1.796-0.535,2.646-0.925c0.391-0.179,0.964-0.367,1.271-0.679
			c0.274-0.279,0.062-0.716-0.038-1.044c-0.469-1.547-1.225-2.994-2.181-4.295c-0.961-1.306-2.136-2.475-3.466-3.405
			c-1.356-0.949-2.83-1.668-4.346-2.315c-0.148-0.063-0.209-0.165-0.221-0.273c-0.078-0.08-0.142-0.175-0.163-0.307
			c-0.685-4.153-0.559-8.417,0.013-12.574c1.02-7.405,3.637-14.45,6.665-21.245c1.48-3.322,3.044-6.612,4.664-9.869
			c0.596-1.199,1.241-2.409,1.971-3.561c0.865-0.634,1.663-1.409,2.432-2.109c0.149-0.136,0.29-0.279,0.439-0.415
			c0.785-0.563,1.516-1.198,2.172-1.906c0.004-0.002,0.008-0.003,0.013-0.005c4.237-1.651,8.502-3.21,12.689-4.988
			c4.175-1.773,8.286-3.695,12.322-5.762c7.416-3.798,14.55-8.08,20.817-13.605c5.566-4.907,10.459-10.566,14.533-16.767
			c4.074-6.202,7.342-12.93,9.654-19.983c1.161-3.542,2.084-7.163,2.75-10.831c0.33-1.816,0.597-3.643,0.794-5.479
			c0.235-2.187,0.354-4.396-0.163-6.554c-0.16-0.667,0.849-1.156,1.15-0.485c0.471,1.048,0.696,2.093,0.743,3.241
			c0.086,2.088-0.224,4.202-0.507,6.267c-0.094,0.688-0.207,1.373-0.32,2.059c0.091-0.033,0.194-0.034,0.292,0.024
			c0.749,0.445,1.526,0.837,2.308,1.219c3.306,1.618,6.947,2.561,10.451,3.646c3.795,1.174,7.59,2.351,11.389,3.515
			c7.612,2.333,15.239,4.617,22.942,6.634c7.587,1.987,15.27,3.708,23.066,4.628c7.569,0.894,15.28,1.058,22.841-0.003
			c3.731-0.524,7.424-1.337,11.014-2.486c2.288-0.732,5.846-1.977,6.056-4.84c0.071-0.973,1.594-0.978,1.523,0
			c-0.023,0.313-0.074,0.615-0.147,0.912c0.277,2.19,0.521,4.384,0.812,6.571c0.683,5.126,1.096,10.301,1.612,15.447
			c0.26,2.591,0.518,5.183,0.773,7.775c0.211,2.143,0.296,4.486,1.41,6.393c1.021,1.747,2.845,2.786,4.61,3.649
			c2.083,1.02,4.211,1.957,6.336,2.888c4.421,1.938,8.893,3.755,13.364,5.575c8.838,3.598,17.7,7.206,26.125,11.71
			c2.051,1.097,4.163,2.184,6.037,3.571c1.83,1.354,3.204,3.033,4.263,5.043c1.063,2.015,1.927,4.125,3.02,6.127
			c1.132,2.074,2.396,4.078,3.787,5.987c1.172,1.608,2.539,3.205,4.31,4.168c0.836,0.454,1.742,0.71,2.693,0.735
			c0.984,0.027,2.001-0.042,2.907,0.414c0.931,0.469,1.309,1.393,1.661,2.311c0.311,0.808,0.783,1.434,1.535,1.879
			c1.592,0.941,3.588,0.98,5.382,1.008c2.407,0.037,4.871-0.06,7.246-0.477c1.958-0.344,3.783-1.085,4.722-2.947
			c0.848-1.682,0.854-3.709,0.807-5.548c-0.021-0.802,0.114-2.016-0.675-2.503c-0.437-0.27-1.002-0.336-1.496-0.434
			c-0.614-0.121-1.228-0.242-1.843-0.363c-1.228-0.242-2.457-0.484-3.685-0.726c-1.204-0.237-2.444-0.414-3.617-0.778
			c-2.072-0.644-3.451-2.15-4.539-3.965c-1.069-1.783-2.026-3.629-3.124-5.397c-1.127-1.815-2.323-3.588-3.584-5.313
			c-4.977-6.81-11-12.896-17.764-17.935c-3.471-2.585-7.15-4.816-10.906-6.956c-3.832-2.184-7.689-4.391-11.034-7.293
			c-1.634-1.418-3.152-3.114-4.413-4.987c-0.346-0.679-0.669-1.37-0.956-2.07c-1.358-3.311-2.086-6.918-1.438-10.48
			c0.169-0.93,0.437-1.846,0.765-2.732c0.341-0.923,0.836-1.758,1.253-2.644c0.016-0.033,0.023-0.065,0.028-0.097
			c1.123-1.271,2.368-2.446,3.61-3.55c3.939-3.501,8.522-6.352,13.338-8.474c4.546-2.004,9.333-3.355,14.252-4.021
			c-0.787-1.129-1.574-2.257-2.361-3.385c-0.796-1.141-1.592-2.283-2.388-3.424c-0.825-1.183-1.771-2.338-2.378-3.649
			c-0.284-0.615,0.45-1.276,0.975-0.752c1.086,1.085,1.89,2.456,2.767,3.713c0.869,1.245,1.737,2.49,2.606,3.735
			c1.733,2.483,3.464,4.967,5.198,7.449c1.505,2.155,3.004,4.318,4.581,6.422c1.379,1.839,2.948,3.638,5.029,4.693
			c1.007,0.51,2.134,0.829,3.267,0.823c1.165-0.006,2.222-0.521,3.374-0.612c1.265-0.1,2.339,0.624,3.54,0.871
			c1.028,0.211,2.103,0.114,3.111-0.149c1.101-0.288,2.132-0.77,3.104-1.357c0.877-0.53,1.915-1.156,2.535-1.993
			c0.735-0.991,0.256-2.321,0.012-3.4c-0.291-1.285-0.539-2.581-0.743-3.883c-0.41-2.612-0.642-5.246-0.684-7.89
			c-0.02-1.288-0.012-2.577,0.092-3.861c0.032-0.404,0.066-0.809,0.103-1.213c-0.003-0.005-0.007-0.007-0.009-0.012
			c-0.844-1.746,0.123-3.779,1.225-5.177c1.12-1.423,2.639-2.39,4.031-3.517c1.226-0.992,2.295-2.102,2.77-3.64
			c0.494-1.603,0.576-3.294,1.225-4.854c0.592-1.421,1.449-2.698,2.236-4.015c0.694-1.161,1.434-2.444,1.506-3.828
			c0.082-1.553-0.885-2.76-1.251-4.206c2.012-1.793,2.728-4.512,2.962-7.11c0.121-1.339,0.052-2.681,0.143-4.021
			c0.086-1.268,0.279-2.694,1.119-3.708c0.226-0.272,0.11-0.585-0.114-0.715c0.339-0.946,0.651-1.9,0.908-2.878
			c0.148-0.562,0.29-1.143,0.417-1.733c1.455-4.467,2.521-9.063,2.938-13.739C455.229,223.375,455.207,219.904,454.72,216.504z
			 M209.074,228.279c-5.695,0.669-11.357,1.784-16.812,3.57c-5.419,1.774-10.484,4.333-15.285,7.391
			c-0.042,0.027-0.086,0.04-0.128,0.045c0.351-0.232,0.703-0.465,1.06-0.691c1.582-1.004,3.203-1.947,4.863-2.817
			c3.396-1.781,6.929-3.291,10.558-4.527c7.368-2.51,15.069-3.935,22.824-4.497c8.602-0.623,17.246-0.236,25.814,0.668
			C231.009,227.095,219.956,227.001,209.074,228.279z M405.212,237.531c0.011-0.477-0.065-0.964-0.104-1.437
			c-0.018-0.206-0.029-0.412-0.044-0.618c0.218,0.513,0.431,1.03,0.619,1.558C405.797,237.357,405.485,237.571,405.212,237.531z"/>
	</g>
</g>
</svg>
