<?xml version="1.0" encoding="utf-8"?>
<!-- Generator: Adobe Illustrator 27.5.0, SVG Export Plug-In . SVG Version: 6.00 Build 0)  -->
<svg version="1.1" id="Layer_1" xmlns="http://www.w3.org/2000/svg" xmlns:xlink="http://www.w3.org/1999/xlink" x="0px" y="0px"
	 viewBox="0 0 235.162 373.544" style="enable-background:new 0 0 235.162 373.544;" xml:space="preserve">
<g>
	<g>
		<path style="fill:#F0B23B;" d="M226.597,267.48c-2.866-11.434-1.779-23.424-1.643-35.076c0.139-11.947-1.227-23.911-4.055-35.52
			c-1.147-4.709-2.856-9.17-4.752-13.634c-0.955-2.248-1.992-4.474-3.338-6.517c-0.01-0.016-0.022-0.031-0.033-0.047
			c-0.412-1.005-0.845-2.006-1.359-2.964c-0.852-1.589-2.212-3.523-4.271-3.149c-0.37,0.067-0.824,0.403-0.924,0.786
			c-0.503,1.935-0.584,3.887-0.383,5.826c2.773,4.496,5.299,9.148,7.45,13.974c3.404,7.637,5.653,15.775,6.746,24.062
			c1.136,8.607,0.522,17.298,0.434,25.944c-0.085,8.297-0.07,17.576,3.737,25.15c0.328,0.653,0.69,1.286,1.067,1.911
			C225.642,268.836,226.744,268.066,226.597,267.48z"/>
		<path style="fill:#D19342;" d="M222.74,258.278c-1.001-5.145-1.122-10.41-0.983-15.634c0.15-5.648,0.559-11.285,0.717-16.933
			c0.175-6.256,0.042-12.524-0.481-18.762c-0.322-3.837-0.795-7.664-1.455-11.458c-1.13-4.199-2.682-8.22-4.39-12.241
			c-0.955-2.248-1.992-4.474-3.338-6.517c-0.01-0.016-0.022-0.031-0.033-0.047c-0.412-1.005-0.845-2.006-1.359-2.964
			c-0.852-1.589-2.212-3.523-4.271-3.149c-0.37,0.067-0.824,0.403-0.924,0.786c-0.503,1.935-0.584,3.887-0.383,5.826
			c2.773,4.496,5.299,9.148,7.45,13.974c3.404,7.637,5.653,15.775,6.746,24.062c1.136,8.607,0.523,17.298,0.434,25.944
			c-0.085,8.297-0.07,17.576,3.737,25.15c0.328,0.653,0.69,1.286,1.067,1.911c0.174,0.289,0.513,0.267,0.806,0.103
			C224.538,265.146,223.419,261.767,222.74,258.278z"/>
		<path style="fill:#6C412C;" d="M229.631,266.27c-1.213-2.065-1.836-4.346-2.266-6.687c-0.295-1.606-0.518-3.225-0.865-4.821
			c-0.256-1.174-0.621-2.381-1.53-3.224c-0.809-0.751-1.997-1.001-3.06-0.729c-0.87,0.223-1.598,0.799-2.171,1.479
			c-0.009,0.093-0.02,0.186-0.027,0.279c-0.512,1.076-1.001,2.161-1.37,3.295c-0.512,1.572-0.689,3.204-0.62,4.833
			c0.359,1.604,0.95,3.158,1.718,4.575c0.227-0.146,0.402-0.369,0.391-0.597c-0.028-0.585,0.017-1.2,0.133-1.806
			c0.002,0.533,0.016,1.065,0.063,1.597c0.139,1.572,0.529,3.083,1.034,4.574c0.945,2.79,2.064,5.931,0.804,8.799
			c-0.259,0.59,0.607,0.498,0.862,0.253c0.766-0.737,1.267-1.603,1.626-2.533c-0.063,2.559-0.356,5.085-1.613,7.358
			c0.682,0.083,1.371-0.009,2.018-0.309c1.751-0.813,2.912-2.614,3.729-4.29c0.166-0.341,0.323-0.693,0.472-1.05
			c0.657-3.077,0.429-6.193-0.539-9.196c0.689,0.566,1.497,0.944,2.475,0.999c0.213,0.012,0.527-0.133,0.74-0.341
			C230.808,268.06,230.129,267.119,229.631,266.27z"/>
	</g>
	<g>
		<g>
			<path style="fill:#F0B23B;" d="M196.103,346.851c-0.623-4.117-0.913-8.037-0.777-11.938c-0.378-1.717-0.576-3.493-0.352-5.206
				c0.694-5.292,2.256-10.462,3.355-15.678c0.598-2.839,1.204-5.678,1.932-8.488c0.697-2.69,1.435-5.469,2.567-8.014
				c0.873-1.963,2.325-3.379,3.772-4.914c1.704-1.808,3.093-3.969,2.742-6.557c-0.671-4.949-5.428-7.571-8.27-11.172
				c-2.247-2.847-3.302-6.114-3.601-9.699c-0.424-5.076-0.177-10.265,0.147-15.338c0.369-5.783,1.03-11.544,1.826-17.283
				c0.542-3.913,1.151-7.815,1.778-11.715c0.018-1.89,0.031-3.781,0.053-5.671c0.092-7.648,0.368-15.333-0.273-22.965
				c-0.391-4.651-1.977-9.553-5.367-12.901c-7.725-7.63-18.913-0.206-24.193,6.606c-6.59,8.501-10.314,19.9-10.739,30.586
				c-0.047,1.175-0.066,2.368-0.061,3.568c0.09,0.528,0.182,1.053,0.279,1.574c1.808,9.726,5.031,19.261,9.262,28.197
				c2.622,5.539,6.036,10.63,9.529,15.649c3.486,5.009,7.385,10.001,9.836,15.625c4.779,10.968,3.318,23.118,0.615,34.416
				c-1.53,6.397-3.148,12.762-4.507,19.201c-0.041,0.194-0.08,0.388-0.121,0.583c-0.091,0.885-0.183,1.769-0.273,2.654
				c-0.301,2.943-2.896,14.211-1.063,16.635c0.156,0.207,0.336,0.398,0.549,0.566c4.091,3.229,12.02,0.76,11.407-6.432
				C196.102,348.106,196.089,347.477,196.103,346.851z"/>
			<g>
				<path style="fill:#D19342;" d="M163.704,208.283c0.706,0.292,1.595,0.279,2.321,0.072c1.1-0.315,2.071-0.996,2.909-1.757
					c1.926-1.748,3.39-4.037,4.501-6.373c0.513-1.079,0.924-2.198,1.252-3.347c0.311-1.093,0.551-2.217,0.608-3.355
					c0.068-1.351-0.105-2.95-1.204-3.886c-0.904-0.77-2.188-0.756-3.274-0.457c-0.842,0.233-1.631,0.63-2.36,1.118
					c-2.888,4.786-5.01,10.171-6.302,15.683C162.333,206.949,162.751,207.89,163.704,208.283z"/>
				<path style="fill:#D19342;" d="M180.598,181.031c-0.153,1.169,0.597,2.163,1.44,2.882c0.69,0.588,1.487,1.049,2.296,1.451
					c0.894,0.444,1.825,0.843,2.787,1.114c1.241,0.349,2.6,0.489,3.836,0.046c2.143-0.767,2.948-3.101,2.918-5.202
					c-0.02-1.371-0.347-2.729-0.899-3.99c-2.255-1.215-4.684-1.47-7.109-1.057c-1.252,0.546-2.486,1.213-3.529,2.102
					C181.54,179.057,180.74,179.949,180.598,181.031z"/>
				<path style="fill:#D19342;" d="M196.366,189.583c-1.68,0.852-2.971,2.296-3.905,3.91c-1.043,1.804-1.676,3.832-2.008,5.883
					c-0.336,2.082-0.359,4.239-0.01,6.321c0.358,2.138,1.146,4.265,2.519,5.967c0.969,1.201,2.309,2.13,3.91,2.021
					c1.51-0.102,2.849-1.045,3.883-2.087c0.203-0.204,0.395-0.419,0.583-0.637c0.1-6.252,0.188-12.518-0.336-18.749
					c-0.094-1.12-0.259-2.254-0.5-3.377C199.087,188.715,197.658,188.927,196.366,189.583z"/>
				<path style="fill:#D19342;" d="M184.216,201.676c-0.231-0.182-0.487-0.305-0.754-0.391c-0.063-0.018-0.124-0.041-0.188-0.055
					c-0.011-0.003-0.023-0.004-0.034-0.006c-0.152-0.032-0.305-0.054-0.46-0.064c-0.021-0.001-0.042,0-0.064,0
					c-0.126-0.006-0.251-0.001-0.376,0.004c-0.769,0.063-1.522,0.344-2.227,0.643c-0.204,0.087-0.407,0.178-0.609,0.271
					c-0.426,0.243-0.835,0.511-1.213,0.788c-1.493,1.094-2.806,2.496-3.8,4.057c-0.892,1.402-1.491,2.965-1.302,4.653
					c0.212,1.889,1.326,3.667,2.857,4.775c1.58,1.143,3.591,1.538,5.435,0.816c1.509-0.591,2.368-1.974,3.009-3.396
					c0.749-1.661,1.21-3.479,1.432-5.285c0.181-1.476,0.291-3.158-0.239-4.58C185.38,203.092,184.91,202.223,184.216,201.676z"/>
				<path style="fill:#D19342;" d="M170.35,238.413c0.699-1.428,1.214-2.948,1.564-4.498c0.339-1.499,0.525-3.042,0.471-4.581
					c-0.045-1.285-0.254-2.62-0.855-3.771c-0.471-0.901-1.07-1.774-1.786-2.497c-0.559-0.565-1.229-1.057-2.01-1.257
					c-1.389-0.356-2.668,0.415-3.57,1.419c-0.988,1.099-1.648,2.489-2.067,3.908c1.277,5.285,2.957,10.489,4.971,15.546
					c0.299-0.22,0.583-0.462,0.843-0.719C168.936,240.949,169.718,239.703,170.35,238.413z"/>
				<path style="fill:#D19342;" d="M194.916,221.134c-0.587,0.128-1.107,0.364-1.572,0.751c-1.034,0.858-1.702,2.116-2.199,3.342
					c-0.535,1.319-0.906,2.706-1.167,4.104c-0.242,1.29-0.429,2.625-0.319,3.938c0.118,1.413,0.568,2.792,1.288,4.013
					c1.391,2.359,3.781,4.106,6.487,4.599c0.283,0.052,0.57,0.084,0.856,0.106c0.329-3.148,0.721-6.289,1.156-9.424
					c0.396-2.86,0.834-5.714,1.283-8.566c-1.37-0.749-2.519-1.857-3.925-2.547C196.198,221.153,195.584,220.989,194.916,221.134z"/>
				<path style="fill:#D19342;" d="M197.831,247.008c-1.279-0.138-2.564-0.242-3.851-0.238c-1.254,0.004-2.529,0.105-3.73,0.487
					c-1.028,0.328-1.992,0.899-2.642,1.777c-0.774,1.047-1.044,2.365-1.078,3.643c-0.08,2.965,0.759,6.189,3.073,8.192
					c1.874,1.622,4.463,2.145,6.863,1.652c0.286-0.059,0.566-0.133,0.842-0.217c-0.156-4.147,0.05-8.341,0.312-12.458
					C197.68,248.9,197.755,247.953,197.831,247.008z"/>
				<path style="fill:#D19342;" d="M196.253,271.37c0.312,1.018,0.986,1.914,1.748,2.641c1.173,1.12,2.643,1.871,4.201,2.168
					c-0.398-0.421-0.778-0.85-1.129-1.295c-1.548-1.962-2.53-4.123-3.09-6.45c-0.538,0.103-1.037,0.31-1.408,0.704
					C196.006,269.741,196.025,270.623,196.253,271.37z"/>
				<path style="fill:#D19342;" d="M196.728,290.927c0.836-1.045,1.455-2.263,1.714-3.582c0.288-1.47,0.098-2.986-0.359-4.402
					c-0.302-0.936-0.726-1.832-1.149-2.718c-0.393-0.823-0.82-1.633-1.316-2.398c-0.582-0.897-1.342-1.954-2.389-2.341
					c-1.789-0.661-3.056,1.52-3.713,2.823c-0.228,0.452-0.432,0.916-0.627,1.385c0.228,0.47,0.451,0.943,0.66,1.421
					c1.875,4.303,2.786,8.788,3.042,13.331C194.144,293.481,195.592,292.347,196.728,290.927z"/>
				<path style="fill:#D19342;" d="M187.983,330.516c1.352-1.266,2.433-2.85,3.321-4.468c0.337-0.613,0.661-1.246,0.882-1.911
					c0.245-0.739,0.268-1.536,0.219-2.307c-0.06-0.949-0.251-1.894-0.551-2.796c-0.266-0.797-0.625-1.613-1.187-2.248
					c-0.191-0.216-0.418-0.414-0.672-0.551c-1.235,5.141-2.508,10.268-3.66,15.428C186.954,331.411,187.505,330.964,187.983,330.516
					z"/>
				<path style="fill:#D19342;" d="M202.78,297.423c-0.937-0.169-1.845,0.306-2.557,0.873c-0.915,0.729-1.73,1.643-2.378,2.616
					c-1.172,1.759-1.802,3.828-1.822,5.941c-0.025,2.594,0.827,5.133,2.29,7.256c0.006-0.027,0.012-0.053,0.018-0.08
					c0.598-2.839,1.204-5.678,1.932-8.488c0.697-2.69,1.435-5.469,2.567-8.014c0.012-0.028,0.028-0.053,0.04-0.081
					C202.839,297.44,202.811,297.429,202.78,297.423z"/>
				<path style="fill:#D19342;" d="M179.988,254.711c-0.599-1.292-1.268-2.611-2.181-3.712c-0.643-0.775-1.464-1.523-2.484-1.72
					c-1.813-0.349-3.147,1.389-3.818,2.832c-0.03,0.064-0.053,0.132-0.082,0.198c2.417,4.599,5.323,8.919,8.29,13.183
					c0.032,0.046,0.065,0.092,0.097,0.138c0.854-1.171,1.456-2.504,1.629-4C181.715,259.242,180.982,256.856,179.988,254.711z"/>
				<path style="fill:#D19342;" d="M181.526,227.829c-1.371,0.322-2.552,1.248-3.488,2.265c-1.064,1.157-1.917,2.548-2.433,4.034
					c-0.427,1.231-0.701,2.704-0.179,3.952c0.522,1.247,1.813,1.781,3.093,1.848c1.109,0.059,2.19-0.268,3.013-1.029
					c0.803-0.743,1.298-1.76,1.591-2.801c0.605-2.156,0.516-4.744-0.474-6.777C182.381,228.772,182.014,228.218,181.526,227.829z"/>
			</g>
			<path style="fill:#3B2920;" d="M183.782,350.191c-0.114,0.041-0.227,0.088-0.339,0.139c-0.337,0.536-0.666,1.077-0.975,1.63
				c-1.137,2.034-2.064,4.169-2.869,6.352c0.07,0.1,0.147,0.194,0.238,0.276c1.839,1.669,14.276,0.704,14.221-4.447
				C194.059,354.141,187.073,349.014,183.782,350.191z"/>
			<path style="opacity:0.49;fill:#D19342;" d="M209.343,286.056c-0.671-4.949-5.428-7.571-8.27-11.172
				c-2.247-2.848-3.302-6.114-3.601-9.699c-0.423-5.076-0.177-10.265,0.147-15.339c0.369-5.783,1.03-11.544,1.826-17.283
				c0.542-3.913,1.151-7.815,1.778-11.715c0.018-1.89,0.031-3.781,0.053-5.671c0.092-7.648,0.368-15.333-0.273-22.965
				c-0.391-4.651-1.977-9.553-5.367-12.901c-1.457-1.439-3.037-2.34-4.678-2.812c1.512,1.589,2.367,3.755,2.847,5.881
				c0.679,3.011,0.742,6.133,0.726,9.207c-0.093,18.519-1.971,36.972-2.193,55.488c-0.055,4.591-0.008,9.191,0.1,13.78
				c0.089,3.766,0.551,7.549,2.551,10.826c1.842,3.016,4.45,5.472,6.445,8.377c0.953,1.388,1.757,2.905,2.133,4.556
				c0.374,1.64,0.182,3.313-0.14,4.947c-0.764,3.87-2.4,7.507-3.75,11.193c-1.444,3.94-2.224,8.047-3.038,12.155
				c-0.936,4.725-1.748,9.477-2.365,14.255c-0.272,2.107-0.466,4.126-0.286,6.249c0.17,1.999,0.501,3.98,0.765,5.967
				c0.422,3.172,1.458,12.633-4.351,11.447c-2.035-0.415-4.516-2.093-6.702-2.346c-0.26,2.729-0.242,5.146,0.497,6.124
				c0.156,0.207,0.336,0.398,0.549,0.566c4.091,3.229,12.02,0.76,11.407-6.432c-0.054-0.633-0.067-1.263-0.053-1.888
				c-0.623-4.117-0.913-8.037-0.777-11.938c-0.378-1.717-0.576-3.493-0.352-5.205c0.694-5.292,2.256-10.462,3.355-15.678
				c0.598-2.839,1.204-5.678,1.932-8.488c0.697-2.69,1.435-5.469,2.567-8.014c0.873-1.963,2.325-3.379,3.772-4.914
				C208.305,290.805,209.694,288.644,209.343,286.056z"/>
			<path style="fill:#F0B23B;" d="M170.678,249.645c-2.927-7.263-5.306-14.827-6.355-22.606c-0.243-1.802-0.413-3.614-0.489-5.431
				c-0.083-1.983,0.049-3.996,0.204-5.973c0.314-4.006,0.957-7.995,1.992-11.879c1.693-6.35,4.516-12.483,8.185-17.935
				c1.794-2.666,3.815-5.216,6.178-7.404c0.15-0.139,0.306-0.274,0.459-0.41c-3.735,1.908-7.124,4.965-9.407,7.911
				c-6.59,8.501-10.314,19.9-10.739,30.586c-0.047,1.175-0.066,2.367-0.061,3.568c0.09,0.528,0.182,1.053,0.279,1.574
				c1.808,9.726,5.031,19.261,9.262,28.197c0.902,1.906,1.904,3.757,2.964,5.572C172.288,253.508,171.46,251.586,170.678,249.645z"
				/>
			<path style="opacity:0.49;fill:#D19342;" d="M209.343,286.056c-0.671-4.949-5.428-7.571-8.27-11.172
				c-2.247-2.847-3.302-6.114-3.601-9.699c-0.424-5.076-0.177-10.265,0.147-15.338c0.369-5.783,1.03-11.544,1.826-17.283
				c0.542-3.912,1.151-7.815,1.778-11.715c0.018-1.89,0.031-3.78,0.053-5.671c0.092-7.648,0.368-15.333-0.273-22.965
				c-0.391-4.651-1.977-9.553-5.367-12.901c-7.725-7.63-18.913-0.206-24.193,6.606c-6.59,8.501-10.314,19.9-10.739,30.586
				c-0.047,1.175-0.066,2.367-0.061,3.568c0.089,0.528,0.182,1.053,0.279,1.574c1.808,9.727,5.031,19.261,9.262,28.197
				c2.622,5.539,6.036,10.63,9.529,15.649c3.486,5.009,7.385,10.001,9.836,15.625c4.779,10.968,3.318,23.118,0.615,34.416
				c-1.531,6.397-3.148,12.762-4.507,19.201c-0.041,0.194-0.08,0.389-0.121,0.583c-0.091,0.885-0.183,1.769-0.273,2.654
				c-0.228,2.23-1.771,9.237-1.709,13.557c1.022,0.38,2.04,0.769,3.048,1.184c2.073,0.855,4.103,1.814,6.045,2.936
				c2.2-1.193,3.798-3.529,3.51-6.908c-0.054-0.633-0.067-1.262-0.053-1.888c-0.623-4.117-0.913-8.037-0.777-11.938
				c-0.378-1.717-0.576-3.493-0.352-5.206c0.694-5.292,2.256-10.462,3.355-15.678c0.598-2.839,1.204-5.678,1.932-8.488
				c0.697-2.69,1.435-5.469,2.567-8.014c0.873-1.963,2.325-3.378,3.772-4.914C208.305,290.805,209.694,288.645,209.343,286.056z"/>
		</g>
		<g>
			<path style="fill:#F0B23B;" d="M127.158,339.563c-0.094-1.077-0.551-1.982-1.035-2.833c-0.546-0.96-1.151-1.896-1.573-2.969
				c-0.475-1.206-0.745-2.578-0.95-3.895c-0.443-2.849-0.519-5.76-0.781-8.633c-0.476-5.226-1.144-10.439-1.335-15.687
				c-0.094-2.591-0.077-5.195,0.171-7.747c0.242-2.5,0.8-4.751,1.439-7.075c0.593-2.155,1.071-4.417,1.014-6.783
				c-0.06-2.481-0.642-4.881-1.234-7.241c-1.309-5.212-1.235-10.499-0.954-15.79c2.699-12.66,3.578-25.733,3.926-38.639
				c0.269-9.947-0.6-23.353-8.989-30.127c-3.85-3.109-9.841-5.938-14.842-4.26c-4.594,1.542-7.215,6.616-9.091,10.734
				c-5.1,11.195-3.627,24.599,0.139,35.96c2.42,7.3,6.042,14.108,9.297,21.052c2.417,5.155,5.072,10.215,6.872,15.592
				c0.034,0.158,0.074,0.313,0.107,0.471c0.261,1.282,0.52,2.606,0.541,3.926c0.022,1.376-0.132,2.724-0.281,4.069
				c-0.162,1.461-0.319,2.947-0.165,4.444c0.155,1.5,0.646,2.928,1.259,4.207c1.045,2.181,2.313,4.076,2.821,6.629
				c1.173,5.896,1.436,12.06,1.574,18.068c0.071,3.119,0.086,6.236,0.103,9.352c0.016,2.885,0.087,5.778,0.03,8.658
				c-0.108,5.44-0.701,10.801-1.898,15.923c-0.358,1.534-0.773,3.034-1.226,4.51c-0.031,0.234-0.067,0.467-0.091,0.704
				c-0.218,2.172-0.039,4.441,1.525,5.667c1.995,1.564,4.75,1.884,7.169,1.086c-0.374-1.84-0.448-3.727-0.136-5.585
				c0.569-3.389,2.367-6.387,4.454-9.058c0.472-0.604,0.961-1.192,1.459-1.774c0.176-0.814,0.384-1.615,0.623-2.396
				c0.023-0.076,0.049-0.152,0.075-0.229C127.171,339.783,127.167,339.672,127.158,339.563z"/>
			<g>
				<path style="fill:#D19342;" d="M119.19,198.865c-0.708,0.275-1.267,0.875-1.642,1.567c-0.441,0.813-0.666,1.765-0.765,2.695
					c-0.116,1.087-0.078,2.194,0.077,3.275c0.163,1.138,0.452,2.262,0.874,3.332c0.387,0.981,0.898,1.938,1.574,2.752
					c0.594,0.715,1.337,1.345,2.198,1.671c0.906,0.343,1.866,0.339,2.795,0.055c0.485-0.148,0.944-0.361,1.381-0.616
					c-0.371-5.005-1.328-10.153-3.458-14.521c-0.119-0.047-0.238-0.095-0.36-0.136C120.987,198.643,120.053,198.53,119.19,198.865z"
					/>
				<path style="fill:#D19342;" d="M95.754,206.001c-0.005-1.292-0.23-2.595-0.569-3.84c-0.285-1.045-0.675-2.071-1.234-3.002
					c-0.188-0.312-0.458-0.711-0.783-1.073c-0.082,0.178-0.165,0.357-0.245,0.532c-2.276,4.997-3.241,10.435-3.278,15.935
					c1.395-0.424,2.686-1.15,3.719-2.217C94.999,210.647,95.763,208.326,95.754,206.001z"/>
				<path style="fill:#D19342;" d="M102.792,187.664c-0.038,0.116-0.072,0.236-0.1,0.358c-0.361,1.542,0.145,3.202,1.295,4.288
					c0.711,0.672,1.588,1.014,2.508,1.301c0.964,0.3,2.017,0.48,3.018,0.27c1.597-0.336,2.54-1.675,2.738-3.239
					c0.06-0.475,0.061-0.952,0.015-1.427C109.268,187.749,105.878,186.92,102.792,187.664z"/>
				<path style="fill:#D19342;" d="M106.64,205.832c-0.653-0.685-1.471-1.284-2.388-1.512c-0.432-0.023-0.868-0.004-1.29,0.051
					c-0.082,0.011-0.138-0.021-0.173-0.069c-1.021,0.236-1.885,0.959-2.511,1.778c-1.53,1.998-2.277,5.127-1.176,7.488
					c0.557,1.193,1.634,2.091,2.924,2.389c1.127,0.26,2.259-0.089,3.152-0.796c0.984-0.779,1.696-1.893,2.161-3.047
					c0.482-1.196,0.744-2.502,0.664-3.793c-0.026-0.427-0.096-0.858-0.217-1.271c-0.081,0.013-0.169-0.01-0.229-0.094
					C107.277,206.56,106.975,206.182,106.64,205.832z"/>
				<path style="fill:#D19342;" d="M99.784,231.063c0.579-1.103,0.797-2.337,0.692-3.574c-0.067-0.788-0.268-1.552-0.514-2.301
					c-0.265-0.806-0.579-1.597-0.975-2.349c-0.554-1.054-1.287-2.093-2.325-2.718c-1.759-1.059-3.741-0.32-5.194,0.91
					c-0.469,0.397-0.897,0.837-1.295,1.307c0.578,4.206,1.597,8.344,2.889,12.24c0.217,0.656,0.447,1.306,0.683,1.954
					c1.289-0.849,2.575-1.701,3.74-2.715C98.391,233.029,99.222,232.132,99.784,231.063z"/>
				<path style="fill:#D19342;" d="M119.615,225.017c-0.112,2.064,0.785,4.029,1.982,5.663c1.061,1.449,2.35,2.676,3.722,3.818
					c0.255-4.08,0.418-8.162,0.528-12.227c0.023-0.85,0.033-1.733,0.035-2.627c-1.287,0.015-2.565,0.303-3.676,0.97
					C120.631,221.559,119.714,223.195,119.615,225.017z"/>
				<path style="fill:#D19342;" d="M119.357,240.653c-0.715-0.388-1.51-0.601-2.337-0.537c-0.934,0.073-1.821,0.502-2.528,1.106
					c-1.252,1.072-2.294,2.939-1.831,4.628c0.237,0.864,0.89,1.395,1.663,1.785c0.826,0.417,1.771,0.536,2.66,0.259
					c1.715-0.533,2.844-2.292,3.075-4.009c0.128-0.95-0.015-1.94-0.449-2.798C119.534,240.936,119.448,240.792,119.357,240.653z"/>
				<path style="fill:#D19342;" d="M110.72,263.987c0.632-2.103,0.329-4.536-1.419-6.02c-0.411-0.349-0.942-0.601-1.481-0.42
					c-0.543,0.182-0.94,0.687-1.24,1.149c-0.591,0.91-1.001,1.942-1.328,2.994c0.98,2.069,1.923,4.152,2.77,6.269
					C109.327,267.002,110.279,265.458,110.72,263.987z"/>
				<path style="fill:#D19342;" d="M111.797,274.618c-0.077-0.089-0.158-0.175-0.243-0.256c-0.043-0.041-0.088-0.081-0.133-0.12
					c-0.021-0.018-0.042-0.035-0.063-0.053c-0.01-0.008-0.02-0.015-0.03-0.023c-0.172-0.128-0.352-0.235-0.546-0.325
					c-0.001-0.001,0,0-0.001-0.001c-0.002,0-0.001,0-0.003-0.001c-0.012-0.004-0.023-0.009-0.035-0.014
					c-0.023-0.009-0.046-0.018-0.07-0.026c-0.042-0.015-0.085-0.028-0.128-0.04c-0.05-0.014-0.101-0.026-0.153-0.036
					c-0.023-0.005-0.047-0.008-0.071-0.012c-0.007-0.001-0.006-0.001-0.008-0.002c-0.004,0-0.004,0-0.014-0.001
					c-0.098-0.009-0.195-0.014-0.294-0.008c-0.023,0.001-0.047,0.004-0.07,0.006c-0.01,0.001-0.01,0.001-0.014,0.001
					c-0.003,0.001-0.001,0.001-0.008,0.002c-0.046,0.009-0.093,0.017-0.139,0.028c-0.021,0.005-0.041,0.013-0.061,0.019
					c0.091,0.619,0.156,1.241,0.166,1.862c0.022,1.376-0.132,2.724-0.281,4.069c-0.048,0.432-0.094,0.867-0.134,1.304
					c0.411-0.186,0.81-0.398,1.185-0.65c0.314-0.211,0.589-0.431,0.865-0.71c0.119-0.12,0.233-0.247,0.339-0.379
					c0.004-0.005,0.032-0.041,0.036-0.045c0.01-0.012,0.019-0.025,0.029-0.038c0.024-0.032,0.047-0.064,0.07-0.097
					c0.045-0.064,0.089-0.129,0.13-0.196c0.083-0.133,0.159-0.27,0.226-0.412c0.017-0.036,0.033-0.072,0.049-0.108
					c0.002-0.004,0.005-0.011,0.007-0.017c0.005-0.012,0.01-0.024,0.015-0.037c0.026-0.066,0.051-0.133,0.074-0.2
					c0.046-0.137,0.084-0.276,0.114-0.417c0.015-0.072,0.027-0.144,0.039-0.216c0.001-0.004,0.002-0.016,0.003-0.024
					c0.002-0.011,0.003-0.021,0.004-0.032c0.003-0.028,0.006-0.055,0.009-0.083c0.025-0.271,0.018-0.542-0.014-0.812
					c-0.001-0.005-0.001-0.004-0.001-0.005c-0.001-0.004-0.001-0.005-0.002-0.014c-0.003-0.016-0.005-0.032-0.007-0.047
					c-0.004-0.026-0.008-0.052-0.013-0.078c-0.011-0.062-0.024-0.124-0.038-0.186c-0.029-0.127-0.065-0.252-0.107-0.376
					c-0.022-0.064-0.045-0.126-0.069-0.189c-0.006-0.014-0.012-0.028-0.017-0.043c-0.001-0.003,0-0.001-0.001-0.003
					c-0.01-0.023-0.02-0.046-0.031-0.07c-0.052-0.115-0.109-0.228-0.172-0.337c-0.061-0.108-0.128-0.212-0.199-0.313
					c-0.02-0.028-0.04-0.055-0.06-0.083c-0.007-0.01-0.015-0.02-0.022-0.03C111.867,274.703,111.833,274.66,111.797,274.618z"/>
				<path style="fill:#D19342;" d="M118.436,276.167c-1.225,0.768-1.607,2.262-1.542,3.641c0.08,1.7,0.758,3.373,1.738,4.75
					c1.012,1.423,2.462,2.602,4.187,3.003c0.326,0.076,0.651,0.116,0.974,0.132c0.216-1.22,0.346-2.47,0.315-3.752
					c-0.06-2.481-0.642-4.881-1.234-7.241c-0.07-0.277-0.131-0.554-0.193-0.831C121.247,275.502,119.678,275.388,118.436,276.167z"
					/>
				<path style="fill:#D19342;" d="M117.244,319.303c-0.038-0.634-0.284-1.239-0.771-1.658c-0.375-0.322-0.839-0.499-1.324-0.594
					c0.019,1.779,0.032,3.559,0.041,5.338c0.003,0.494,0.008,0.989,0.013,1.483c0.136-0.134,0.267-0.272,0.391-0.414
					C116.555,322.349,117.334,320.805,117.244,319.303z"/>
				<path style="fill:#D19342;" d="M118.171,302.913c-0.786,0.999-0.939,2.378-0.874,3.606c0.084,1.586,0.57,3.114,1.469,4.428
					c0.867,1.267,2.039,2.233,3.336,3.031c-0.274-2.806-0.515-5.614-0.618-8.432c-0.045-1.246-0.063-2.496-0.043-3.741
					C120.226,301.672,118.976,301.888,118.171,302.913z"/>
				<path style="fill:#D19342;" d="M112.251,290.405c-0.197-0.091-0.402-0.159-0.61-0.203c0.773,1.482,1.513,2.96,1.873,4.766
					c0.06,0.299,0.107,0.601,0.162,0.902c0.116-0.215,0.221-0.436,0.306-0.668C114.633,293.422,114.058,291.243,112.251,290.405z"/>
				<path style="fill:#D19342;" d="M119.783,256.833c-1.188,0.182-2.347,0.68-2.746,1.907c-0.255,0.782-0.216,1.643-0.097,2.447
					c0.12,0.806,0.431,1.549,0.873,2.232c0.966,1.493,2.427,2.649,3.942,3.554c-0.019-2.017,0.058-4.039,0.165-6.062
					c0.297-1.393,0.564-2.792,0.819-4.194C121.748,256.688,120.757,256.684,119.783,256.833z"/>
				<path style="fill:#D19342;" d="M110.955,220.088c-2.252-0.413-4.371,1.155-5.897,2.644c-0.517,0.978-0.767,2.094-0.826,3.194
					c-0.085,1.576,0.179,3.161,0.67,4.657c0.467,1.423,1.154,2.814,2.108,3.976c0.76,0.926,1.747,1.792,2.953,2.038
					c1.203,0.246,2.332-0.323,3.173-1.178c1.45-1.475,2.193-3.58,2.43-5.602c0.246-2.107,0.007-4.349-0.867-6.297
					C113.986,221.931,112.755,220.417,110.955,220.088z"/>
				<path style="fill:#D19342;" d="M107.005,198.256c-0.729,0.278-1.301,0.858-1.519,1.654c-0.19,0.695-0.108,1.572,0.467,2.071
					c0.703,0.611,1.891,0.267,2.485-0.33c0.705-0.708,0.522-1.798-0.061-2.52C108.01,198.676,107.528,198.382,107.005,198.256z"/>
			</g>
			<path style="fill:#3B2920;" d="M112.196,353.704c-0.103,0.039-0.205,0.085-0.306,0.133c-0.297,0.495-0.585,0.995-0.856,1.505
				c-0.996,1.877-1.798,3.841-2.488,5.845c0.066,0.09,0.138,0.174,0.222,0.247c1.709,1.485,13.025,0.358,12.872-4.336
				C121.641,357.099,115.172,352.565,112.196,353.704z"/>
			<path style="opacity:0.49;fill:#D19342;" d="M127.158,339.563c-0.094-1.077-0.551-1.982-1.035-2.833
				c-0.546-0.96-1.151-1.896-1.573-2.969c-0.474-1.206-0.745-2.578-0.95-3.895c-0.443-2.849-0.519-5.761-0.781-8.633
				c-0.476-5.226-1.144-10.439-1.335-15.687c-0.094-2.591-0.077-5.195,0.171-7.747c0.242-2.5,0.8-4.751,1.439-7.075
				c0.593-2.155,1.071-4.417,1.014-6.783c-0.06-2.481-0.642-4.881-1.234-7.241c-1.309-5.213-1.235-10.499-0.954-15.79
				c2.699-12.66,3.578-25.733,3.926-38.639c0.26-9.641-0.548-22.531-8.237-29.483c2.24,3.421,4.024,7.128,5.285,11.047
				c3.444,10.701,3.072,22.19,1.835,33.227c-1.279,11.411-3.602,22.695-4.475,34.152c-0.013,0.169-0.182,0.283-0.339,0.195
				c-1.961-1.103-4.055-1.911-6.219-2.507c1.401,1.956,2.598,4.05,3.43,6.314c2.826,7.686,0.591,15.884-0.108,23.758
				c0.804-0.863,1.816-1.535,2.552-2.47c0.137-0.174,0.363-0.005,0.385,0.16c0.937,7.007,0.618,14.064,0.681,21.11
				c0.028,3.065,0.14,6.133,0.483,9.181c0.184,1.634,0.436,3.26,0.77,4.87c0.32,1.544,0.828,3.051,1.112,4.601
				c0.879,4.802-1.616,9.018-2.839,13.496c-0.3,1.098-0.518,3.077-1.692,3.622c-1.161,0.539-2.712,0.354-3.939,0.239
				c-0.868-0.082-1.738-0.199-2.6-0.357c-0.025,1.755,0.333,3.432,1.599,4.425c1.995,1.564,4.75,1.884,7.169,1.086
				c-0.374-1.84-0.448-3.727-0.136-5.585c0.569-3.389,2.367-6.387,4.454-9.058c0.472-0.604,0.961-1.192,1.459-1.774
				c0.176-0.814,0.384-1.615,0.623-2.396c0.023-0.076,0.049-0.152,0.075-0.229C127.171,339.783,127.167,339.672,127.158,339.563z"/>
			<path style="fill:#F0B23B;" d="M103.629,254.586c-1.753-4.557-3.796-8.994-5.706-13.485c-1.804-4.24-3.532-8.548-4.636-13.031
				c-0.458-1.863-0.628-3.774-0.705-5.687c-0.102-2.508-0.039-5.022,0.126-7.526c0.189-2.851,0.519-5.695,1.006-8.51
				c0.487-2.816,1.13-5.614,2.031-8.328c0.796-2.4,1.79-4.775,3.186-6.894c0.741-1.123,1.617-2.195,2.65-3.07
				c-4.323,1.709-6.841,6.578-8.656,10.563c-5.099,11.195-3.627,24.599,0.139,35.96c2.42,7.3,6.042,14.108,9.297,21.052
				c1.483,3.163,3.054,6.291,4.464,9.478C106.111,261.51,104.942,258,103.629,254.586z"/>
			<path style="opacity:0.49;fill:#D19342;" d="M127.158,339.563c-0.094-1.076-0.551-1.982-1.035-2.833
				c-0.546-0.96-1.151-1.896-1.573-2.969c-0.475-1.206-0.745-2.578-0.95-3.895c-0.443-2.849-0.519-5.76-0.781-8.633
				c-0.476-5.226-1.144-10.439-1.335-15.687c-0.094-2.591-0.076-5.195,0.171-7.747c0.242-2.5,0.8-4.751,1.439-7.076
				c0.593-2.155,1.071-4.417,1.014-6.783c-0.06-2.481-0.642-4.881-1.234-7.241c-1.309-5.212-1.235-10.499-0.954-15.79
				c2.699-12.66,3.578-25.733,3.926-38.639c0.269-9.947-0.6-23.352-8.989-30.127c-3.85-3.109-9.841-5.938-14.842-4.26
				c-4.594,1.542-7.215,6.616-9.091,10.734c-5.1,11.195-3.627,24.599,0.139,35.96c2.42,7.301,6.042,14.107,9.297,21.052
				c2.417,5.155,5.072,10.215,6.872,15.592c0.034,0.158,0.074,0.313,0.107,0.471c0.261,1.282,0.52,2.606,0.541,3.926
				c0.022,1.376-0.132,2.724-0.281,4.069c-0.162,1.461-0.319,2.947-0.165,4.444c0.155,1.5,0.646,2.928,1.259,4.207
				c1.045,2.181,2.313,4.076,2.821,6.629c1.173,5.896,1.437,12.06,1.574,18.068c0.071,3.119,0.087,6.236,0.103,9.352
				c0.015,2.885,0.087,5.778,0.03,8.658c-0.107,5.44-0.701,10.801-1.898,15.923c-0.358,1.534-0.773,3.034-1.226,4.51
				c-0.031,0.234-0.067,0.467-0.09,0.704c-0.09,0.899-0.11,1.813,0.006,2.664c0.475,0.014,0.949,0.071,1.416,0.165
				c2.173,0.439,4.197,1.557,6.005,2.805c0.416,0.287,0.825,0.587,1.227,0.896c-0.335-1.77-0.395-3.579-0.095-5.362
				c0.569-3.389,2.367-6.387,4.454-9.058c0.472-0.604,0.961-1.192,1.459-1.774c0.176-0.814,0.384-1.615,0.623-2.396
				c0.023-0.076,0.049-0.153,0.075-0.229C127.171,339.783,127.167,339.672,127.158,339.563z"/>
		</g>
		<path style="fill:#6C412C;" d="M144.577,162.065c-4.196-8.708-9.833-16.6-14.867-24.823c-5.276-8.619-10.672-17.162-16.062-25.711
			c-5.387-8.545-10.776-17.096-15.888-25.809c-5.034-8.581-9.403-17.524-14.156-26.259c-2.62-4.814-5.62-9.496-7.699-14.584
			c-1.584-3.877-1.497-8.292-3.749-11.909c-0.535-0.859-1.987-0.153-2.341,0.512c-1.222,2.292-1.703,4.963-2.364,7.452
			c-0.205,0.773-0.585,2.94-1.188,4.728c-0.844,0.085-1.788,0.636-2.018,1.488c-0.133,0.493-0.227,0.984-0.29,1.473
			c-0.266,0.305-0.336,0.735-0.078,0.931c-0.131,2.872,0.805,5.667,2.01,8.338c1.653,3.666,3.633,7.21,5.482,10.78
			c4.523,8.728,9.259,17.359,14.564,25.64c5.452,8.51,11.686,16.479,17.77,24.541c6.172,8.179,12.303,16.436,19.024,24.177
			c3.466,3.993,7.116,7.843,10.383,12.003c2.597,3.306,5.238,7.12,9.07,9.09C143.389,164.744,145.226,163.412,144.577,162.065z"/>
		<path style="opacity:0.62;fill:#6C412C;" d="M144.268,161.44c-5.849-6.04-11.205-12.554-16.204-19.31
			c-6.618-8.942-12.631-18.315-18.409-27.815c-5.646-9.284-10.962-18.769-16.633-28.036c-5.486-8.964-12.793-17.074-16.497-27.035
			c-0.945-2.541-1.398-5.008-1.092-7.722c0.222-1.973,0.6-3.918,0.801-5.888c-0.108-0.252-0.224-0.501-0.328-0.755
			c-1.584-3.877-1.497-8.291-3.749-11.909c-0.535-0.859-1.987-0.153-2.341,0.512c-1.222,2.292-1.703,4.963-2.364,7.452
			c-0.205,0.774-0.585,2.94-1.188,4.728c-0.844,0.085-1.788,0.636-2.018,1.488c-0.133,0.493-0.227,0.984-0.29,1.473
			c-0.266,0.305-0.336,0.735-0.078,0.931c-0.131,2.872,0.805,5.667,2.009,8.338c1.653,3.666,3.633,7.21,5.482,10.78
			c4.523,8.728,9.259,17.359,14.564,25.64c5.452,8.51,11.687,16.479,17.77,24.541c6.172,8.179,12.303,16.436,19.024,24.177
			c3.466,3.992,7.116,7.843,10.383,12.003c2.597,3.306,5.238,7.12,9.07,9.089c1.207,0.621,3.045-0.711,2.396-2.057
			C144.476,161.855,144.37,161.648,144.268,161.44z"/>
		<path style="fill:#F0B23B;" d="M212.04,173.699c-7.224-10.31-18.979-12.872-31.499-12.382c-5.769,0.225-11.508,0.91-17.277,1.128
			c-5.813,0.22-11.844,0.04-17.389-1.907c-11.756-4.13-17.477-16.652-24.267-26.089c-8.832-12.276-18.389-23.68-26.395-36.601
			c-12.366-19.956-22.688-40.98-33.048-62.015c-0.054-0.109-0.108-0.218-0.162-0.328c-3.91-7.909-15.23-4.207-22.402,1.935
			c1.058,2.865,2.381,5.634,3.713,8.377c1.71,3.523,3.353,7.07,4.939,10.65c10.804,24.382,19.006,49.938,29.274,74.566
			c6.508,15.611,14.377,32.344,11.633,49.72c-0.676,4.282-1.854,8.471-2.435,12.77c-0.022,0.166-0.043,0.333-0.063,0.5
			c-0.109,2.716-0.087,5.434,0.168,8.12c0.286,1.197,0.694,2.37,1.148,3.499c2.95,7.331,8.444,13.339,13.061,19.636
			c1.932,2.635,3.948,5.203,6.026,7.716c2.487,1.197,5.052,2.245,7.642,3.168c13.017,4.643,25.874,7.948,39.734,7.34
			c4.818-0.212,9.618-0.818,14.354-1.722c9.411-1.796,18.708-4.742,27.265-9.098c7.346-5.484,13.585-12.238,17.717-20.254
			c5.616-10.895,6.021-24.753,0.16-35.644C213.347,175.687,212.713,174.66,212.04,173.699z"/>
		<path style="opacity:0.49;fill:#D19342;" d="M56.266,68.74c4.541,0.427,9.075-1.155,12.869-3.566
			c1.966-1.25,3.813-2.76,5.419-4.486c-4.208-8.24-8.296-16.545-12.388-24.853c-0.054-0.109-0.108-0.218-0.162-0.328
			c-3.91-7.909-15.23-4.207-22.402,1.935c1.058,2.865,2.381,5.634,3.713,8.377c1.71,3.523,3.353,7.07,4.939,10.65
			c1.705,3.848,3.34,7.727,4.933,11.625C54.184,68.418,55.213,68.641,56.266,68.74z"/>
		<path style="fill:#FFEEBB;" d="M194.782,225.118c-5.573-0.449-10.771-2.423-16.001-4.265c-5.142-1.81-10.304-3.626-15.65-4.747
			c-5.495-1.152-11.337-1.631-16.904-0.702c-4.753,0.793-9.142,2.747-13.357,5.015c-4.032,2.17-7.961,4.55-12.229,6.243
			c-4.426,1.756-9.015,2.468-13.749,1.752c-1.445-0.218-2.866-0.555-4.253-0.997c1.438,1.891,2.915,3.749,4.428,5.578
			c2.487,1.197,5.053,2.245,7.642,3.168c13.017,4.643,25.874,7.948,39.734,7.34c4.818-0.212,9.618-0.818,14.354-1.722
			c9.411-1.796,18.708-4.742,27.265-9.098c3.397-2.536,6.553-5.347,9.377-8.425C201.995,225.07,198.438,225.413,194.782,225.118z"/>
		<g>
			<path style="fill:#D19342;" d="M64.666,89.412c1.496-1.985,2.128-4.467,1.848-6.93c-0.167-1.472-0.679-2.882-1.267-4.233
				c-0.564-1.294-1.247-2.568-2.16-3.652c-0.669-0.794-1.486-1.522-2.468-1.897c-0.851-0.325-1.764-0.35-2.633-0.077
				c-0.9,0.283-1.69,0.84-2.374,1.485c2.301,5.812,4.522,11.66,6.719,17.519C63.214,91.013,64.012,90.28,64.666,89.412z"/>
			<path style="fill:#D19342;" d="M73.654,64.086c-0.393,1.237-0.458,2.552-0.409,3.844c0.06,1.547,0.309,3.085,0.67,4.589
				c0.377,1.572,0.878,3.118,1.512,4.606c0.582,1.367,1.273,2.701,2.137,3.912c0.674,0.945,1.482,1.863,2.484,2.43
				c0.803,0.454,1.679,0.604,2.55,0.242c0.442-0.184,0.889-0.531,1.251-0.907c0.502-0.522,0.902-1.135,1.249-1.768
				c0.045-0.082,0.084-0.166,0.128-0.249c-3.468-6.239-6.803-12.549-10.06-18.901C74.41,62.383,73.931,63.211,73.654,64.086z"/>
			<path style="fill:#D19342;" d="M70.46,100.754c0.114-1.146-0.156-2.265-0.679-3.283c-0.435-0.847-0.949-1.771-1.715-2.366
				c-0.395-0.306-0.889-0.489-1.369-0.274c-0.516,0.231-0.865,0.757-1.126,1.235c-0.361,0.663-0.601,1.39-0.786,2.121
				c0.956,2.558,1.912,5.116,2.873,7.671c0.651-0.693,1.252-1.428,1.752-2.238C69.948,102.749,70.358,101.78,70.46,100.754z"/>
			<path style="fill:#D19342;" d="M77.498,89.501c-0.486-0.762-1.182-1.455-2.097-1.641c-1.097-0.223-2.162,0.396-2.969,1.077
				c-0.056,0.047-0.119,0.061-0.177,0.054c-0.284,0.684-0.31,1.474-0.241,2.198c0.101,1.067,0.436,2.125,0.92,3.079
				c0.463,0.911,1.087,1.798,1.927,2.399c0.717,0.513,1.652,0.824,2.526,0.553c0.72-0.223,1.06-1.019,1.219-1.696
				c0.23-0.98,0.183-2.033,0.007-3.017C78.423,91.453,78.075,90.407,77.498,89.501z"/>
			<path style="fill:#D19342;" d="M83.871,90.45c-1.39,2.832-1.95,6.129-1.827,9.268c0.117,2.97,0.908,6.349,3.832,7.758
				c1.893,0.912,4.162,0.828,6.116,0.16c1.013-0.346,1.97-0.848,2.758-1.578c0.696-0.645,1.245-1.426,1.654-2.28
				c0.413-0.862,0.681-1.783,0.851-2.724c-0.689-1.06-1.373-2.126-2.042-3.205c-2.417-3.901-4.752-7.846-7.028-11.822
				C86.242,86.781,84.799,88.56,83.871,90.45z"/>
			<path style="fill:#D19342;" d="M98.916,109.792c-0.739,0.679-0.813,1.846-0.633,2.78c0.177,0.919,0.649,1.749,1.253,2.455
				c1.498,1.747,3.664,2.887,5.762,3.749c1.91,0.784,3.91,1.369,5.939,1.771c-2.902-3.835-5.784-7.68-8.58-11.604
				c-0.138-0.003-0.275-0.012-0.413-0.012C101.144,108.933,99.774,109.004,98.916,109.792z"/>
			<path style="fill:#D19342;" d="M94.716,117.172c-1.352-0.938-2.89-1.879-4.543-2.134c-0.627-0.097-1.316-0.068-1.877,0.259
				c-0.436,0.254-0.716,0.722-0.93,1.164c-0.647,1.34-0.848,2.92-0.926,4.39c-0.084,1.608-0.002,3.269,0.425,4.827
				c0.166,0.607,0.389,1.214,0.753,1.732c0.317,0.451,0.74,0.695,1.267,0.836c1.505,0.405,3.217,0.19,4.713-0.146
				c0.793-0.179,1.583-0.416,2.319-0.765c0.552-0.261,1.153-0.593,1.518-1.1c0.456-0.634,0.546-1.516,0.532-2.273
				c-0.019-0.974-0.234-1.939-0.526-2.865c-0.288-0.912-0.657-1.834-1.112-2.707C95.804,117.965,95.268,117.555,94.716,117.172z"/>
			<path style="fill:#D19342;" d="M84.959,139.261c0.736-0.552,1.36-1.326,1.457-2.269c0.126-1.228-0.573-2.396-1.318-3.311
				c-0.582-0.714-1.348-1.502-2.301-1.661c-0.696-0.116-1.333,0.215-1.826,0.683c-0.657,0.625-1.117,1.444-1.501,2.256
				c-0.053,0.111-0.099,0.226-0.149,0.338c0.76,1.805,1.523,3.624,2.272,5.457c0.127-0.033,0.254-0.063,0.38-0.099
				C83.025,140.349,84.076,139.924,84.959,139.261z"/>
			<path style="fill:#D19342;" d="M93.377,137.414c-0.447-0.011-0.871,0.087-1.267,0.258c-1.01,1.015-1.293,2.645-1.265,4.015
				c0.028,1.378,0.354,3.129,1.48,4.059c1.281,1.058,3.044-0.15,3.781-1.301c1.122-1.752,0.919-4.231-0.421-5.815
				C95.104,137.944,94.295,137.436,93.377,137.414z"/>
			<path style="fill:#D19342;" d="M102.737,128.604c-0.476-0.007-0.948,0.065-1.368,0.278c-0.614,0.31-0.978,0.883-1.117,1.545
				c-0.341,1.613,0.43,3.437,1.411,4.686c0.538,0.684,1.214,1.283,2.015,1.638c0.687,0.304,1.602,0.484,2.297,0.111
				c0.667-0.358,0.968-1.116,1.065-1.831c0.129-0.947-0.046-1.932-0.373-2.822C106.011,130.423,104.592,128.953,102.737,128.604z"/>
			<path style="fill:#D19342;" d="M114.719,129.229c-0.55,2.406,0.058,4.979,0.917,7.237c0.505,1.326,1.145,2.591,1.85,3.822
				c0.839,1.466,1.76,2.908,2.885,4.174c1.486,1.672,3.532,3.133,5.863,2.403c0.979-0.307,1.841-0.906,2.604-1.592
				c-2.49-3.652-4.791-7.436-7.228-10.824c-1.875-2.606-3.783-5.171-5.701-7.722C115.33,127.461,114.928,128.315,114.719,129.229z"
				/>
			<path style="fill:#D19342;" d="M95.498,158.971c0.013-1.355-0.38-2.663-0.943-3.885c-0.472-1.025-1.088-2.015-1.949-2.759
				c-0.63-0.545-1.414-0.936-2.253-0.998c-0.807-0.06-1.597,0.166-2.291,0.571c-0.694,0.405-1.282,0.95-1.78,1.578
				c1.373,4.382,2.453,8.827,3.015,13.326c1.111-0.469,2.159-1.078,3.081-1.841C94.182,163.469,95.476,161.363,95.498,158.971z"/>
			<path style="fill:#D19342;" d="M112.155,143.233c-0.72-0.16-1.446,0.152-2.043,0.531c-0.246,0.156-0.472-0.234-0.228-0.389
				c0.241-0.153,0.503-0.289,0.774-0.397c-1.412,0.273-2.916,1.066-2.999,2.656c-0.065,1.226,0.788,2.306,1.913,2.718
				c0.747,0.273,1.561,0.283,2.334,0.119c0.619-0.131,1.158-0.351,1.525-0.895c0.654-0.968,0.592-2.377,0.003-3.36
				C113.147,143.736,112.709,143.357,112.155,143.233z"/>
			<path style="fill:#D19342;" d="M93.057,185.442c1.181-0.702,2.32-1.519,3.21-2.577c0.819-0.974,1.361-2.161,1.472-3.435
				c0.148-1.698-0.348-3.463-1.215-4.918c-0.7-1.175-1.783-2.07-3.203-2.064c-1.299,0.006-2.534,0.632-3.602,1.337
				c-0.014,2.311-0.187,4.634-0.556,6.969c-0.388,2.456-0.939,4.882-1.45,7.316c0.435-0.197,0.871-0.393,1.306-0.591
				C90.39,186.855,91.759,186.213,93.057,185.442z"/>
			<path style="fill:#D19342;" d="M152.927,165.407c0.082,1.538,0.327,3.116,0.994,4.518c0.649,1.365,1.698,2.454,3.058,3.121
				c1.655,0.812,3.641,1.051,5.461,0.855c1.517-0.163,2.967-0.743,4.141-1.723c2.424-2.025,3.579-5.215,4.544-8.123
				c0.237-0.713,0.459-1.437,0.682-2.163c-2.845,0.224-5.69,0.446-8.543,0.554c-3.408,0.129-6.89,0.118-10.306-0.304
				C152.894,163.228,152.868,164.316,152.927,165.407z"/>
			<path style="fill:#D19342;" d="M180.344,167.234c0.552,1.821,2.129,3.087,3.733,3.976c1.669,0.924,3.566,1.584,5.486,1.642
				c1.511,0.045,2.995-0.314,4.337-1.006c2.905-1.499,5.051-4.186,7.03-6.711c0.119-0.152,0.238-0.306,0.356-0.459
				c-5.845-2.734-12.662-3.575-19.76-3.39c-0.238,0.431-0.46,0.87-0.656,1.321C180.242,164.05,179.876,165.69,180.344,167.234z"/>
			<path style="fill:#D19342;" d="M173.815,175.499c-2.768,0.02-5.157,1.965-6.825,4.014c-1.307,1.606-2.263,3.623-2.179,5.731
				c0.072,1.825,1,3.49,2.468,4.567c1.833,1.345,4.243,1.807,6.479,1.732c1.623-0.054,3.193-0.635,4.402-1.73
				c2.352-2.13,3.115-5.663,2.489-8.694c-0.316-1.528-0.995-2.99-2.06-4.139C177.11,176.136,175.512,175.486,173.815,175.499z"/>
			<path style="fill:#D19342;" d="M171.202,220.535c-1.799,0.013-3.351,1.277-4.435,2.609c-0.849,1.043-1.47,2.354-1.416,3.724
				c0.047,1.186,0.65,2.268,1.604,2.968c1.191,0.874,2.757,1.174,4.21,1.126c1.054-0.035,2.075-0.413,2.86-1.124
				c1.529-1.384,2.024-3.68,1.617-5.649c-0.205-0.993-0.646-1.943-1.338-2.69C173.344,220.949,172.305,220.527,171.202,220.535z"/>
			<path style="fill:#D19342;" d="M171.202,220.535c-1.799,0.013-3.351,1.277-4.435,2.609c-0.849,1.043-1.47,2.354-1.416,3.724
				c0.047,1.186,0.65,2.268,1.604,2.968c1.191,0.874,2.757,1.174,4.21,1.126c1.054-0.035,2.075-0.413,2.86-1.124
				c1.529-1.384,2.024-3.68,1.617-5.649c-0.205-0.993-0.646-1.943-1.338-2.69C173.344,220.949,172.305,220.527,171.202,220.535z"/>
			<path style="fill:#D19342;" d="M141.294,178.719c-1.426-0.479-3.142-0.242-4.494,0.23c-0.914,0.319-1.813,0.794-2.507,1.48
				c-0.543,0.536-0.982,1.261-0.879,2.053c0.129,0.983,1.008,1.775,1.803,2.269c0.832,0.518,1.821,0.749,2.793,0.578
				c1.772-0.313,3.318-1.752,3.858-3.456c0.248-0.782,0.277-1.652-0.072-2.41C141.667,179.184,141.494,178.939,141.294,178.719z"/>
			<path style="fill:#D19342;" d="M134.39,190.366c-0.47-0.588-1.082-1.051-1.79-1.258c-1.022,0.345-1.959,0.909-2.719,1.696
				c-0.928,0.961-1.553,2.194-1.814,3.502c-0.46,2.311,0.36,5.07,2.845,5.771c1.094,0.309,2.413,0.285,3.344-0.436
				c0.818-0.633,1.255-1.641,1.472-2.627c0.254-1.153,0.231-2.376,0.003-3.531C135.513,192.375,135.103,191.256,134.39,190.366z"/>
			<path style="fill:#D19342;" d="M195.805,176.732c-0.84-0.175-1.727-0.002-2.502,0.341c-1.377,0.61-2.67,1.788-3.231,3.207
				c-0.219,0.554-0.333,1.189-0.119,1.763c0.277,0.743,1.097,1.174,1.81,1.395c1.924,0.597,3.737-0.618,4.654-2.267
				c0.67-1.205,0.888-2.638,0.551-3.939C196.619,176.998,196.233,176.821,195.805,176.732z"/>
			<path style="fill:#D19342;" d="M170.259,198.142c-1.784-0.62-3.769-0.646-5.357,0.535c-1.453,1.081-2.198,3.035-1.544,4.769
				c0.367,0.971,1.148,1.718,2.043,2.212c0.585,0.323,1.22,0.545,1.869,0.7c0.721,0.173,1.478,0.321,2.221,0.324
				c1.111,0.004,2.206-0.363,2.955-1.21c0.667-0.754,0.954-1.777,0.927-2.77c-0.03-1.096-0.442-2.178-1.13-3.03
				C171.704,199.004,171.02,198.499,170.259,198.142z"/>
			<path style="fill:#D19342;" d="M162.857,209.486c-0.31-0.036-0.623-0.04-0.938,0.006c-0.804,0.117-1.533,0.537-2.044,1.167
				c-0.846,1.045-1.033,2.599-0.302,3.754c0.425,0.672,1.118,1.119,1.865,1.359c0.728,0.234,1.537,0.347,2.257,0.023
				c1.263-0.569,1.61-2.141,1.361-3.389C164.798,211.108,163.973,210.081,162.857,209.486z"/>
			<path style="fill:#D19342;" d="M151.514,208.555c-0.476-1.115-1.386-2.114-2.39-2.778c-0.364-0.241-0.745-0.44-1.137-0.609
				c-0.025-0.004-0.051-0.01-0.077-0.025c-0.041-0.023-0.085-0.039-0.126-0.061c-1.271-0.509-2.661-0.698-4.047-0.767
				c-1.399,0.136-2.769,0.639-3.917,1.429c-1.575,1.085-2.842,2.894-2.624,4.876c0.193,1.755,0.88,3.493,1.6,5.089
				c0.877,1.944,1.946,3.84,3.291,5.501c1.019,1.258,2.36,2.678,4.029,2.979c1.539,0.278,2.821-0.831,3.619-2.026
				c1.09-1.632,1.66-3.6,2.014-5.512c0.359-1.939,0.501-3.96,0.278-5.924C151.943,209.994,151.805,209.238,151.514,208.555z"/>
			<path style="fill:#D19342;" d="M153.949,179.498c-0.749-0.378-1.541-0.592-2.351-0.678c-0.014-0.001-0.027,0.002-0.043-0.002
				c-0.003-0.001-0.006-0.001-0.009-0.002c-1.021-0.102-2.068-0.002-3.085,0.224c-0.292,0.166-0.563,0.378-0.796,0.652
				c-0.73,0.858-1.018,2.06-1.122,3.164c-0.132,1.412,0.005,2.847,0.291,4.232c0.296,1.433,0.754,2.844,1.402,4.158
				c0.545,1.105,1.231,2.199,2.187,2.995c0.736,0.612,1.648,0.961,2.561,0.696c1.249-0.363,2.128-1.599,2.751-2.679
				c1.289-2.232,2.034-4.97,1.688-7.553C157.131,182.523,155.952,180.509,153.949,179.498z"/>
			<path style="fill:#D19342;" d="M205.709,167.265c-0.546,0.644-1.05,1.318-1.476,2.042c-0.6,1.02-1.071,2.217-0.906,3.421
				c0.081,0.592,0.336,1.153,0.609,1.679c0.263,0.507,0.58,0.986,0.961,1.411c1.421,1.587,3.51,2.148,5.581,2.097
				c1.261-0.031,2.513-0.257,3.734-0.597c-0.092-0.178-0.18-0.357-0.275-0.533c-0.591-1.099-1.225-2.127-1.898-3.087
				C210.203,171.077,208.07,168.961,205.709,167.265z"/>
			<path style="fill:#D19342;" d="M121.866,173.266c-0.695-0.343-1.464-0.487-2.237-0.504c-1.361,0.669-2.403,2.011-2.888,3.463
				c-0.357,1.068-0.454,2.25-0.102,3.332c0.362,1.115,1.244,1.997,2.344,2.396c0.924,0.335,2.042,0.347,2.955-0.029
				c0.775-0.32,1.394-0.925,1.806-1.648c0.869-1.525,0.889-3.547,0.073-5.098C123.381,174.351,122.707,173.68,121.866,173.266z"/>
			<path style="fill:#D19342;" d="M132.37,150.101c-1.792,0.471-3.507,1.242-4.92,2.447c-1.779,1.517-2.898,3.607-3.309,5.899
				c-0.492,2.751-0.012,5.607,0.849,8.235c0.706,2.154,1.647,4.355,3.447,5.826c1.303,1.065,2.95,1.534,4.62,1.437
				c1.829-0.106,3.587-0.819,5.149-1.741c1.802-1.064,3.408-2.449,4.813-3.996c1.46-1.608,2.713-3.414,3.672-5.365
				c0.287-0.584,0.546-1.188,0.774-1.803c-0.533-0.154-1.064-0.318-1.589-0.502C140.251,158.562,136.01,154.663,132.37,150.101z"/>
			<path style="fill:#D19342;" d="M93.213,212.728c1.136-3.691,2.201-7.705,1.519-11.588c-0.293-1.67-0.923-3.381-2.045-4.679
				c-0.72-0.834-1.683-1.413-2.815-1.306c-1.111,0.105-2.117,0.787-2.933,1.503c-0.115,0.1-0.22,0.211-0.33,0.316
				c0,1.73,0.06,3.457,0.222,5.17c0.286,1.197,0.694,2.37,1.148,3.499c1.227,3.049,2.897,5.867,4.758,8.574
				C92.9,213.722,93.06,213.226,93.213,212.728z"/>
			<path style="fill:#D19342;" d="M105.978,181.613c-1.351,0.05-2.499,0.789-3.368,1.784c-0.593,0.679-1.071,1.456-1.476,2.268
				c-0.048,0.2-0.098,0.4-0.142,0.601c-0.31,1.4-0.551,2.848-0.47,4.287c0.069,1.214,0.428,2.543,1.534,3.212
				c0.555,0.336,1.228,0.48,1.872,0.495c0.566,0.013,1.135-0.183,1.654-0.391c1.415-0.568,2.743-1.452,3.901-2.437
				c0.494-0.421,0.98-0.873,1.374-1.391c0.368-0.484,0.572-1.04,0.691-1.636c0.328-1.649-0.222-3.393-1.285-4.671
				C109.209,182.467,107.66,181.551,105.978,181.613z"/>
			<path style="fill:#D19342;" d="M110.767,155.309c-1.082-0.605-2.347-0.565-3.5-0.194c-1.069,0.344-2.047,0.925-2.952,1.606
				c-1.21,1.598-2.19,3.415-2.558,5.398c-0.417,2.251,0.09,4.53,1.25,6.487c0.901,1.521,2.127,3.136,3.797,3.86
				c1.264,0.548,2.602,0.3,3.625-0.609c1.372-1.22,2.041-3.057,2.568-4.764c0.485-1.572,0.736-3.219,0.721-4.865
				c-0.013-1.428-0.223-2.879-0.762-4.209C112.516,156.931,111.81,155.891,110.767,155.309z"/>
			<path style="fill:#D19342;" d="M81.089,111.663c-0.366-1.212-0.898-2.366-1.543-3.453c-0.53-0.894-1.122-1.767-1.837-2.526
				c-0.685-0.727-1.622-1.507-2.691-1.405c-0.9,0.085-1.605,0.806-2.101,1.504c-0.745,1.048-1.242,2.265-1.654,3.475
				c-0.396,1.163-0.707,2.354-0.97,3.554c1.89,4.946,3.825,9.872,5.824,14.77c2.416-2.672,4.438-5.76,5.22-9.278
				C81.825,116.104,81.74,113.819,81.089,111.663z"/>
		</g>
		<path style="opacity:0.49;fill:#D19342;" d="M216.931,184.438c0.071,0.726,0.129,1.454,0.159,2.185
			c0.377,9.161-2.003,18.892-8.423,25.685c-2.075,2.196-4.306,4.257-6.652,6.161c-2.735,2.219-5.681,4.309-8.947,5.67
			c-2.588,1.079-5.716,1.766-8.318,0.348c-2.531-1.378-3.166-4.283-2.918-6.95c0.314-3.376,1.635-6.633,3.039-9.686
			c1.069-2.325,2.303-4.561,3.474-6.832c-0.828,0.68-1.638,1.382-2.404,2.132c-4.117,4.031-7.189,9.066-8.692,14.64
			c-1.287,4.772-1.26,10.502-5.027,14.171c-3.638,3.543-8.958,5.187-13.886,5.761c-2.574,0.3-5.19,0.307-7.76-0.043
			c-2.385-0.324-4.794-0.933-6.867-2.195c-8.285-5.045-5.951-15.983-7.57-24.054c-1.073-5.347-4.696-9.786-9.228-12.677
			c-4.459-2.844-10.141-4.538-15.436-3.618c-9.179,1.596-11.93,11.755-16.252,18.608c-0.084,0.133-0.24,0.138-0.354,0.046
			c-1.969-1.592-3.551-3.596-4.766-5.811c-1.806-3.293-2.845-6.95-3.492-10.647c0.008,1.61,0.07,3.217,0.221,4.813
			c0.286,1.197,0.694,2.37,1.148,3.499c2.95,7.331,8.444,13.339,13.061,19.636c1.932,2.635,3.948,5.203,6.026,7.716
			c2.487,1.197,5.053,2.245,7.642,3.168c13.017,4.643,25.874,7.948,39.734,7.34c4.818-0.212,9.618-0.818,14.354-1.722
			c9.411-1.796,18.708-4.742,27.265-9.098c7.346-5.484,13.585-12.238,17.717-20.254
			C218.143,203.961,219.358,193.703,216.931,184.438z"/>
		<g>
			<path style="fill:#F0B23B;" d="M136.588,345.455c-0.094-1.077-0.551-1.982-1.035-2.833c-0.546-0.96-1.151-1.896-1.573-2.969
				c-0.474-1.206-0.745-2.578-0.95-3.895c-0.443-2.849-0.519-5.76-0.781-8.633c-0.476-5.226-1.144-10.439-1.335-15.687
				c-0.094-2.591-0.077-5.195,0.171-7.747c0.242-2.5,0.8-4.75,1.439-7.075c0.593-2.155,1.071-4.417,1.014-6.783
				c-0.06-2.481-0.642-4.881-1.234-7.241c-1.309-5.212-1.235-10.499-0.954-15.79c2.699-12.66,3.578-25.733,3.926-38.639
				c0.268-9.947-0.6-23.353-8.989-30.127c-3.85-3.109-9.841-5.938-14.842-4.26c-4.594,1.542-7.215,6.616-9.091,10.734
				c-5.1,11.195-3.627,24.599,0.138,35.96c2.42,7.3,6.042,14.108,9.297,21.052c2.417,5.155,5.072,10.215,6.872,15.592
				c0.034,0.158,0.074,0.313,0.106,0.471c0.261,1.282,0.52,2.606,0.541,3.926c0.022,1.376-0.132,2.724-0.281,4.069
				c-0.162,1.461-0.319,2.946-0.165,4.444c0.155,1.5,0.646,2.928,1.259,4.207c1.045,2.181,2.313,4.076,2.821,6.629
				c1.173,5.896,1.436,12.06,1.574,18.068c0.071,3.119,0.086,6.236,0.103,9.352c0.015,2.885,0.087,5.778,0.03,8.658
				c-0.108,5.44-0.701,10.801-1.898,15.923c-0.358,1.534-0.773,3.034-1.226,4.51c-0.031,0.234-0.067,0.467-0.091,0.704
				c-0.218,2.172-0.039,4.441,1.525,5.667c1.995,1.564,4.75,1.884,7.169,1.086c-0.374-1.84-0.448-3.727-0.135-5.585
				c0.569-3.389,2.367-6.387,4.454-9.058c0.472-0.604,0.961-1.192,1.459-1.774c0.176-0.814,0.384-1.615,0.623-2.396
				c0.023-0.076,0.049-0.153,0.075-0.229C136.601,345.676,136.598,345.565,136.588,345.455z"/>
			<g>
				<path style="fill:#D19342;" d="M128.621,204.758c-0.708,0.275-1.266,0.875-1.642,1.567c-0.441,0.813-0.666,1.765-0.765,2.695
					c-0.116,1.087-0.078,2.194,0.077,3.275c0.164,1.138,0.452,2.262,0.874,3.333c0.387,0.982,0.898,1.938,1.574,2.752
					c0.594,0.715,1.337,1.345,2.199,1.671c0.906,0.343,1.866,0.339,2.795,0.055c0.484-0.148,0.944-0.361,1.381-0.616
					c-0.371-5.005-1.328-10.153-3.458-14.521c-0.119-0.047-0.238-0.095-0.36-0.136C130.418,204.536,129.484,204.423,128.621,204.758
					z"/>
				<path style="fill:#D19342;" d="M105.185,211.894c-0.005-1.292-0.23-2.595-0.569-3.84c-0.285-1.045-0.675-2.071-1.234-3.002
					c-0.188-0.312-0.458-0.711-0.783-1.073c-0.082,0.178-0.165,0.357-0.245,0.532c-2.277,4.997-3.241,10.435-3.278,15.935
					c1.395-0.424,2.686-1.15,3.719-2.217C104.429,216.539,105.193,214.219,105.185,211.894z"/>
				<path style="fill:#D19342;" d="M112.222,193.557c-0.038,0.116-0.071,0.236-0.1,0.358c-0.361,1.542,0.146,3.202,1.295,4.288
					c0.712,0.672,1.588,1.015,2.508,1.301c0.964,0.3,2.017,0.48,3.018,0.269c1.596-0.336,2.539-1.675,2.738-3.239
					c0.06-0.475,0.061-0.952,0.015-1.426C118.698,193.641,115.308,192.813,112.222,193.557z"/>
				<path style="fill:#D19342;" d="M116.071,211.725c-0.654-0.685-1.472-1.283-2.388-1.512c-0.432-0.023-0.868-0.004-1.29,0.051
					c-0.082,0.011-0.138-0.021-0.173-0.069c-1.021,0.236-1.885,0.959-2.511,1.778c-1.53,1.999-2.277,5.127-1.176,7.488
					c0.557,1.193,1.634,2.091,2.924,2.388c1.127,0.26,2.259-0.089,3.152-0.796c0.984-0.779,1.696-1.892,2.161-3.047
					c0.482-1.196,0.743-2.502,0.664-3.793c-0.026-0.426-0.096-0.858-0.217-1.271c-0.081,0.013-0.169-0.01-0.229-0.094
					C116.708,212.453,116.405,212.075,116.071,211.725z"/>
				<path style="fill:#D19342;" d="M109.214,236.955c0.579-1.102,0.797-2.337,0.692-3.574c-0.067-0.788-0.268-1.552-0.514-2.301
					c-0.265-0.806-0.579-1.597-0.974-2.349c-0.555-1.054-1.287-2.093-2.325-2.718c-1.759-1.059-3.741-0.32-5.194,0.91
					c-0.468,0.397-0.897,0.837-1.295,1.307c0.578,4.206,1.597,8.344,2.889,12.24c0.217,0.656,0.447,1.306,0.683,1.954
					c1.289-0.849,2.575-1.701,3.74-2.715C107.821,238.922,108.652,238.025,109.214,236.955z"/>
				<path style="fill:#D19342;" d="M129.045,230.909c-0.112,2.064,0.785,4.029,1.982,5.663c1.061,1.449,2.35,2.677,3.722,3.818
					c0.255-4.08,0.418-8.162,0.528-12.227c0.023-0.85,0.033-1.733,0.035-2.627c-1.287,0.015-2.565,0.303-3.676,0.97
					C130.061,227.451,129.144,229.087,129.045,230.909z"/>
				<path style="fill:#D19342;" d="M128.787,246.545c-0.715-0.388-1.51-0.601-2.337-0.537c-0.934,0.073-1.821,0.502-2.528,1.106
					c-1.252,1.072-2.294,2.939-1.831,4.629c0.236,0.864,0.89,1.395,1.663,1.785c0.826,0.417,1.771,0.536,2.66,0.259
					c1.715-0.533,2.844-2.292,3.075-4.009c0.128-0.95-0.015-1.94-0.449-2.798C128.965,246.829,128.878,246.685,128.787,246.545z"/>
				<path style="fill:#D19342;" d="M120.151,269.88c0.632-2.103,0.329-4.536-1.419-6.02c-0.411-0.349-0.942-0.601-1.481-0.42
					c-0.543,0.182-0.94,0.687-1.24,1.149c-0.591,0.91-1,1.942-1.328,2.994c0.98,2.069,1.923,4.152,2.77,6.269
					C118.757,272.895,119.709,271.35,120.151,269.88z"/>
				<path style="fill:#D19342;" d="M121.227,280.511c-0.077-0.089-0.158-0.175-0.243-0.256c-0.043-0.041-0.088-0.081-0.133-0.12
					c-0.021-0.018-0.042-0.035-0.063-0.052c-0.01-0.008-0.02-0.015-0.03-0.023c-0.172-0.128-0.352-0.235-0.546-0.324
					c-0.001-0.001,0,0-0.001-0.001c-0.002,0-0.001,0-0.003-0.001c-0.012-0.005-0.023-0.009-0.035-0.014
					c-0.023-0.009-0.046-0.018-0.07-0.026c-0.042-0.015-0.085-0.028-0.129-0.04c-0.05-0.014-0.101-0.026-0.153-0.036
					c-0.023-0.005-0.047-0.008-0.071-0.013c-0.007-0.001-0.006-0.001-0.008-0.002c-0.004,0-0.005,0-0.014-0.001
					c-0.098-0.009-0.195-0.014-0.294-0.008c-0.024,0.002-0.047,0.004-0.07,0.006c-0.01,0.001-0.01,0-0.014,0.001
					c-0.003,0.001-0.001,0.001-0.008,0.002c-0.046,0.009-0.093,0.017-0.139,0.028c-0.021,0.005-0.041,0.013-0.061,0.018
					c0.091,0.619,0.157,1.241,0.166,1.862c0.022,1.376-0.132,2.724-0.281,4.069c-0.048,0.432-0.095,0.867-0.134,1.304
					c0.411-0.186,0.81-0.398,1.185-0.65c0.314-0.211,0.589-0.431,0.865-0.71c0.119-0.12,0.233-0.246,0.339-0.378
					c0.004-0.005,0.032-0.041,0.036-0.045c0.01-0.013,0.019-0.025,0.029-0.038c0.024-0.032,0.047-0.064,0.07-0.097
					c0.045-0.064,0.089-0.129,0.13-0.196c0.083-0.133,0.159-0.27,0.226-0.412c0.017-0.036,0.033-0.072,0.049-0.108
					c0.002-0.004,0.005-0.011,0.007-0.017c0.005-0.012,0.01-0.025,0.015-0.037c0.026-0.066,0.051-0.133,0.074-0.2
					c0.046-0.137,0.084-0.276,0.114-0.417c0.015-0.072,0.027-0.144,0.039-0.216c0.001-0.004,0.002-0.016,0.003-0.024
					c0.001-0.011,0.003-0.021,0.004-0.032c0.003-0.028,0.006-0.055,0.009-0.083c0.025-0.271,0.018-0.542-0.014-0.812
					c-0.001-0.005,0-0.004,0-0.006c-0.001-0.004-0.001-0.005-0.002-0.014c-0.002-0.016-0.005-0.031-0.007-0.047
					c-0.004-0.026-0.009-0.052-0.013-0.078c-0.011-0.062-0.024-0.124-0.038-0.186c-0.03-0.127-0.065-0.252-0.107-0.376
					c-0.022-0.064-0.045-0.126-0.069-0.189c-0.006-0.014-0.012-0.028-0.017-0.043c-0.001-0.003-0.001-0.001-0.001-0.003
					c-0.01-0.023-0.02-0.046-0.031-0.07c-0.052-0.115-0.109-0.228-0.172-0.337c-0.061-0.108-0.128-0.212-0.199-0.313
					c-0.02-0.028-0.04-0.055-0.06-0.083c-0.007-0.01-0.015-0.02-0.022-0.03C121.298,280.595,121.263,280.553,121.227,280.511z"/>
				<path style="fill:#D19342;" d="M127.867,282.059c-1.226,0.768-1.607,2.262-1.542,3.641c0.08,1.7,0.758,3.373,1.738,4.75
					c1.012,1.423,2.462,2.602,4.187,3.003c0.326,0.076,0.651,0.117,0.974,0.132c0.216-1.22,0.346-2.47,0.315-3.752
					c-0.06-2.481-0.642-4.881-1.234-7.241c-0.07-0.277-0.131-0.554-0.193-0.831C130.677,281.395,129.108,281.281,127.867,282.059z"
					/>
				<path style="fill:#D19342;" d="M126.674,325.195c-0.038-0.634-0.284-1.238-0.771-1.658c-0.375-0.322-0.839-0.499-1.324-0.594
					c0.019,1.779,0.032,3.559,0.041,5.338c0.003,0.494,0.008,0.989,0.013,1.483c0.136-0.134,0.267-0.272,0.391-0.414
					C125.986,328.242,126.765,326.697,126.674,325.195z"/>
				<path style="fill:#D19342;" d="M127.602,308.805c-0.785,0.999-0.939,2.378-0.874,3.606c0.084,1.586,0.569,3.114,1.469,4.428
					c0.867,1.267,2.039,2.233,3.336,3.031c-0.274-2.806-0.515-5.614-0.618-8.432c-0.045-1.246-0.063-2.495-0.043-3.741
					C129.657,307.564,128.407,307.781,127.602,308.805z"/>
				<path style="fill:#D19342;" d="M121.681,296.297c-0.197-0.091-0.401-0.159-0.61-0.203c0.773,1.482,1.514,2.96,1.873,4.766
					c0.059,0.299,0.107,0.601,0.162,0.902c0.116-0.215,0.221-0.436,0.306-0.668C124.063,299.315,123.488,297.136,121.681,296.297z"
					/>
				<path style="fill:#D19342;" d="M129.213,262.725c-1.188,0.182-2.347,0.68-2.746,1.907c-0.255,0.782-0.216,1.643-0.097,2.447
					c0.12,0.806,0.431,1.55,0.873,2.232c0.966,1.493,2.427,2.649,3.942,3.554c-0.019-2.017,0.058-4.039,0.165-6.062
					c0.297-1.393,0.564-2.793,0.819-4.195C131.179,262.58,130.187,262.577,129.213,262.725z"/>
				<path style="fill:#D19342;" d="M120.386,225.98c-2.252-0.413-4.371,1.155-5.897,2.644c-0.517,0.978-0.767,2.094-0.826,3.194
					c-0.085,1.576,0.179,3.161,0.67,4.657c0.467,1.424,1.154,2.814,2.108,3.976c0.76,0.926,1.747,1.792,2.953,2.038
					c1.203,0.246,2.332-0.323,3.173-1.178c1.45-1.475,2.194-3.58,2.43-5.602c0.246-2.107,0.007-4.349-0.867-6.297
					C123.417,227.823,122.185,226.31,120.386,225.98z"/>
				<path style="fill:#D19342;" d="M116.435,204.149c-0.729,0.278-1.301,0.859-1.518,1.655c-0.19,0.695-0.108,1.571,0.467,2.071
					c0.703,0.611,1.891,0.267,2.485-0.33c0.705-0.708,0.522-1.798-0.061-2.52C117.44,204.568,116.959,204.275,116.435,204.149z"/>
			</g>
			<path style="fill:#3B2920;" d="M121.627,359.597c-0.103,0.039-0.205,0.085-0.306,0.133c-0.297,0.495-0.585,0.995-0.856,1.505
				c-0.996,1.877-1.798,3.841-2.488,5.846c0.066,0.09,0.138,0.174,0.222,0.247c1.709,1.485,13.025,0.358,12.872-4.336
				C131.071,362.992,124.602,358.458,121.627,359.597z"/>
			<path style="opacity:0.49;fill:#D19342;" d="M136.588,345.455c-0.094-1.076-0.551-1.982-1.035-2.832
				c-0.546-0.96-1.151-1.896-1.573-2.969c-0.474-1.206-0.745-2.578-0.95-3.895c-0.443-2.849-0.519-5.761-0.781-8.633
				c-0.476-5.226-1.144-10.439-1.335-15.687c-0.094-2.591-0.076-5.195,0.171-7.747c0.242-2.5,0.8-4.751,1.439-7.075
				c0.593-2.155,1.071-4.417,1.014-6.783c-0.06-2.481-0.642-4.881-1.234-7.241c-1.309-5.212-1.235-10.499-0.954-15.79
				c2.7-12.66,3.578-25.733,3.926-38.639c0.26-9.641-0.548-22.531-8.237-29.483c2.24,3.421,4.024,7.128,5.285,11.047
				c3.444,10.701,3.072,22.19,1.835,33.227c-1.279,11.411-3.601,22.695-4.475,34.152c-0.013,0.169-0.182,0.283-0.339,0.195
				c-1.961-1.103-4.055-1.911-6.219-2.507c1.401,1.955,2.598,4.05,3.43,6.314c2.826,7.686,0.591,15.884-0.108,23.758
				c0.804-0.863,1.816-1.535,2.552-2.47c0.137-0.174,0.363-0.005,0.385,0.159c0.937,7.007,0.618,14.064,0.681,21.11
				c0.028,3.065,0.14,6.133,0.483,9.181c0.184,1.634,0.436,3.26,0.77,4.87c0.32,1.545,0.828,3.051,1.112,4.601
				c0.879,4.802-1.616,9.018-2.839,13.496c-0.3,1.098-0.518,3.077-1.692,3.622c-1.161,0.539-2.712,0.354-3.939,0.239
				c-0.868-0.082-1.738-0.199-2.6-0.357c-0.025,1.755,0.333,3.432,1.599,4.425c1.995,1.564,4.75,1.884,7.169,1.086
				c-0.374-1.84-0.448-3.727-0.136-5.585c0.569-3.389,2.367-6.386,4.454-9.057c0.472-0.604,0.961-1.192,1.459-1.774
				c0.176-0.814,0.384-1.615,0.623-2.396c0.024-0.076,0.049-0.152,0.075-0.229C136.601,345.676,136.598,345.565,136.588,345.455z"/>
			<path style="fill:#F0B23B;" d="M113.059,260.478c-1.753-4.557-3.796-8.994-5.707-13.485c-1.804-4.24-3.532-8.548-4.636-13.031
				c-0.458-1.863-0.628-3.774-0.706-5.687c-0.102-2.508-0.039-5.022,0.127-7.525c0.189-2.851,0.519-5.695,1.006-8.511
				c0.487-2.816,1.131-5.614,2.031-8.328c0.796-2.401,1.79-4.775,3.186-6.894c0.741-1.123,1.616-2.195,2.65-3.07
				c-4.323,1.709-6.841,6.578-8.656,10.563c-5.1,11.195-3.627,24.599,0.138,35.96c2.42,7.3,6.042,14.108,9.297,21.052
				c1.483,3.163,3.054,6.291,4.464,9.478C115.542,267.402,114.373,263.892,113.059,260.478z"/>
		</g>
		<g>
			<path style="fill:#F0B23B;" d="M213.915,352.744c-0.623-4.117-0.913-8.037-0.777-11.938c-0.378-1.717-0.576-3.493-0.352-5.206
				c0.694-5.292,2.256-10.462,3.356-15.678c0.598-2.839,1.204-5.678,1.932-8.488c0.697-2.69,1.435-5.469,2.567-8.014
				c0.873-1.963,2.325-3.379,3.772-4.914c1.704-1.808,3.093-3.969,2.742-6.557c-0.671-4.949-5.428-7.571-8.27-11.172
				c-2.247-2.847-3.302-6.114-3.601-9.699c-0.424-5.076-0.177-10.265,0.147-15.338c0.369-5.783,1.03-11.544,1.826-17.283
				c0.542-3.913,1.151-7.815,1.778-11.715c0.018-1.89,0.031-3.781,0.054-5.671c0.092-7.648,0.368-15.332-0.273-22.965
				c-0.391-4.651-1.977-9.553-5.367-12.901c-7.725-7.63-18.913-0.206-24.193,6.606c-6.59,8.501-10.314,19.9-10.739,30.586
				c-0.047,1.175-0.066,2.367-0.061,3.568c0.09,0.528,0.182,1.053,0.279,1.574c1.808,9.727,5.031,19.261,9.261,28.197
				c2.622,5.539,6.036,10.63,9.529,15.648c3.486,5.009,7.385,10.001,9.836,15.625c4.779,10.968,3.318,23.118,0.615,34.416
				c-1.531,6.397-3.148,12.762-4.507,19.201c-0.041,0.194-0.08,0.389-0.121,0.583c-0.091,0.885-0.183,1.769-0.273,2.654
				c-0.301,2.943-2.896,14.211-1.063,16.635c0.156,0.206,0.336,0.398,0.549,0.566c4.091,3.229,12.02,0.76,11.407-6.432
				C213.914,353.999,213.901,353.369,213.915,352.744z"/>
			<g>
				<path style="fill:#D19342;" d="M181.516,214.176c0.706,0.292,1.595,0.279,2.321,0.072c1.1-0.315,2.07-0.996,2.909-1.757
					c1.926-1.748,3.39-4.037,4.501-6.373c0.514-1.079,0.925-2.198,1.252-3.347c0.311-1.093,0.551-2.217,0.609-3.355
					c0.068-1.351-0.105-2.95-1.204-3.886c-0.904-0.77-2.188-0.756-3.275-0.456c-0.842,0.233-1.631,0.63-2.36,1.118
					c-2.888,4.786-5.01,10.171-6.301,15.683C180.145,212.842,180.563,213.782,181.516,214.176z"/>
				<path style="fill:#D19342;" d="M198.41,186.924c-0.153,1.169,0.597,2.163,1.44,2.882c0.69,0.588,1.487,1.049,2.296,1.451
					c0.894,0.444,1.825,0.844,2.787,1.114c1.241,0.349,2.6,0.489,3.836,0.046c2.143-0.767,2.948-3.101,2.918-5.202
					c-0.02-1.371-0.347-2.729-0.899-3.99c-2.255-1.215-4.684-1.47-7.109-1.057c-1.252,0.546-2.486,1.213-3.529,2.102
					C199.352,184.95,198.551,185.842,198.41,186.924z"/>
				<path style="fill:#D19342;" d="M214.178,195.475c-1.68,0.852-2.971,2.297-3.905,3.91c-1.043,1.804-1.677,3.832-2.008,5.883
					c-0.336,2.082-0.359,4.24-0.01,6.321c0.358,2.138,1.146,4.265,2.52,5.967c0.969,1.201,2.309,2.13,3.91,2.021
					c1.51-0.102,2.849-1.045,3.882-2.087c0.203-0.204,0.396-0.419,0.583-0.637c0.1-6.252,0.188-12.518-0.335-18.749
					c-0.094-1.12-0.259-2.254-0.501-3.377C216.898,194.607,215.47,194.82,214.178,195.475z"/>
				<path style="fill:#D19342;" d="M202.028,207.568c-0.231-0.182-0.487-0.305-0.754-0.391c-0.063-0.018-0.124-0.041-0.188-0.056
					c-0.011-0.003-0.023-0.004-0.034-0.006c-0.152-0.032-0.305-0.055-0.46-0.064c-0.021-0.001-0.043,0-0.064,0
					c-0.126-0.006-0.251-0.001-0.376,0.004c-0.77,0.063-1.522,0.344-2.227,0.643c-0.204,0.087-0.407,0.178-0.609,0.271
					c-0.426,0.243-0.835,0.511-1.213,0.788c-1.493,1.094-2.806,2.496-3.8,4.057c-0.892,1.402-1.491,2.965-1.301,4.653
					c0.212,1.889,1.326,3.667,2.857,4.775c1.58,1.143,3.591,1.538,5.435,0.816c1.509-0.591,2.368-1.974,3.009-3.396
					c0.749-1.661,1.21-3.479,1.432-5.285c0.181-1.476,0.291-3.158-0.239-4.58C203.192,208.985,202.721,208.115,202.028,207.568z"/>
				<path style="fill:#D19342;" d="M188.162,244.306c0.699-1.428,1.214-2.948,1.564-4.498c0.339-1.499,0.525-3.043,0.471-4.581
					c-0.045-1.285-0.254-2.62-0.855-3.771c-0.47-0.901-1.07-1.774-1.786-2.497c-0.56-0.565-1.23-1.057-2.01-1.256
					c-1.389-0.356-2.668,0.415-3.57,1.419c-0.988,1.099-1.648,2.489-2.067,3.909c1.277,5.285,2.957,10.489,4.971,15.546
					c0.3-0.22,0.583-0.462,0.843-0.719C186.749,246.841,187.53,245.596,188.162,244.306z"/>
				<path style="fill:#D19342;" d="M212.728,227.027c-0.587,0.128-1.107,0.364-1.572,0.751c-1.034,0.858-1.702,2.116-2.199,3.342
					c-0.535,1.319-0.906,2.706-1.167,4.104c-0.242,1.29-0.429,2.625-0.319,3.938c0.118,1.413,0.569,2.792,1.288,4.013
					c1.391,2.359,3.781,4.106,6.487,4.599c0.283,0.052,0.569,0.084,0.856,0.106c0.329-3.148,0.721-6.289,1.155-9.424
					c0.397-2.86,0.834-5.714,1.283-8.566c-1.37-0.749-2.518-1.857-3.925-2.547C214.01,227.045,213.395,226.881,212.728,227.027z"/>
				<path style="fill:#D19342;" d="M215.643,252.9c-1.279-0.138-2.564-0.242-3.851-0.238c-1.254,0.004-2.529,0.105-3.73,0.487
					c-1.028,0.328-1.992,0.899-2.642,1.777c-0.774,1.047-1.044,2.365-1.078,3.643c-0.081,2.965,0.759,6.189,3.073,8.192
					c1.874,1.623,4.463,2.144,6.863,1.652c0.285-0.059,0.566-0.133,0.842-0.217c-0.156-4.147,0.05-8.341,0.312-12.458
					C215.491,254.792,215.567,253.846,215.643,252.9z"/>
				<path style="fill:#D19342;" d="M214.065,277.263c0.312,1.018,0.986,1.914,1.748,2.641c1.173,1.12,2.643,1.871,4.201,2.168
					c-0.398-0.421-0.778-0.85-1.129-1.295c-1.548-1.962-2.53-4.123-3.09-6.45c-0.538,0.103-1.037,0.31-1.409,0.704
					C213.818,275.634,213.837,276.516,214.065,277.263z"/>
				<path style="fill:#D19342;" d="M214.54,296.82c0.836-1.045,1.455-2.263,1.714-3.582c0.288-1.47,0.098-2.986-0.358-4.402
					c-0.302-0.936-0.726-1.832-1.149-2.718c-0.393-0.823-0.82-1.632-1.316-2.398c-0.582-0.897-1.342-1.954-2.389-2.341
					c-1.788-0.661-3.056,1.52-3.713,2.823c-0.228,0.452-0.433,0.916-0.627,1.385c0.228,0.47,0.451,0.943,0.659,1.421
					c1.875,4.303,2.786,8.788,3.042,13.331C211.956,299.374,213.404,298.24,214.54,296.82z"/>
				<path style="fill:#D19342;" d="M205.794,336.409c1.352-1.267,2.433-2.85,3.321-4.468c0.336-0.613,0.661-1.246,0.882-1.911
					c0.245-0.739,0.268-1.536,0.219-2.307c-0.06-0.949-0.251-1.894-0.551-2.796c-0.266-0.797-0.625-1.613-1.187-2.248
					c-0.191-0.216-0.418-0.414-0.672-0.551c-1.235,5.142-2.508,10.268-3.66,15.428C204.766,337.304,205.317,336.856,205.794,336.409
					z"/>
				<path style="fill:#D19342;" d="M220.592,303.316c-0.937-0.169-1.845,0.306-2.557,0.873c-0.916,0.729-1.73,1.643-2.378,2.616
					c-1.172,1.759-1.802,3.828-1.822,5.941c-0.025,2.594,0.827,5.133,2.29,7.256c0.005-0.027,0.012-0.053,0.018-0.08
					c0.598-2.839,1.204-5.678,1.932-8.488c0.697-2.69,1.435-5.469,2.567-8.014c0.012-0.028,0.027-0.053,0.04-0.081
					C220.651,303.332,220.622,303.321,220.592,303.316z"/>
				<path style="fill:#D19342;" d="M197.8,260.603c-0.599-1.293-1.268-2.611-2.181-3.712c-0.643-0.775-1.463-1.523-2.484-1.72
					c-1.813-0.349-3.147,1.389-3.818,2.832c-0.03,0.064-0.053,0.132-0.082,0.198c2.417,4.599,5.323,8.919,8.29,13.183
					c0.032,0.046,0.065,0.092,0.097,0.138c0.854-1.171,1.456-2.504,1.629-4C199.527,265.134,198.794,262.748,197.8,260.603z"/>
				<path style="fill:#D19342;" d="M199.338,233.722c-1.371,0.322-2.552,1.248-3.488,2.265c-1.064,1.157-1.917,2.548-2.433,4.034
					c-0.428,1.231-0.701,2.704-0.179,3.952c0.522,1.247,1.813,1.781,3.093,1.848c1.109,0.059,2.19-0.268,3.013-1.029
					c0.803-0.743,1.298-1.76,1.591-2.801c0.605-2.156,0.516-4.744-0.474-6.777C200.193,234.665,199.826,234.11,199.338,233.722z"/>
			</g>
			<path style="fill:#3B2920;" d="M201.594,356.084c-0.114,0.041-0.227,0.088-0.339,0.139c-0.337,0.536-0.666,1.077-0.975,1.63
				c-1.137,2.034-2.064,4.169-2.869,6.352c0.07,0.1,0.147,0.194,0.238,0.276c1.839,1.67,14.276,0.704,14.221-4.447
				C211.871,360.034,204.885,354.906,201.594,356.084z"/>
			<path style="opacity:0.49;fill:#D19342;" d="M227.155,291.949c-0.671-4.949-5.428-7.571-8.27-11.172
				c-2.247-2.848-3.302-6.114-3.601-9.699c-0.424-5.076-0.177-10.265,0.147-15.339c0.369-5.783,1.031-11.544,1.826-17.283
				c0.543-3.913,1.151-7.815,1.778-11.715c0.018-1.89,0.031-3.781,0.053-5.671c0.092-7.648,0.368-15.332-0.273-22.965
				c-0.391-4.651-1.977-9.553-5.367-12.901c-1.457-1.439-3.037-2.34-4.677-2.812c1.511,1.589,2.367,3.755,2.847,5.881
				c0.679,3.011,0.741,6.133,0.726,9.207c-0.093,18.519-1.971,36.972-2.193,55.488c-0.055,4.591-0.008,9.191,0.1,13.78
				c0.089,3.766,0.551,7.549,2.551,10.826c1.841,3.016,4.45,5.472,6.445,8.377c0.953,1.388,1.757,2.905,2.133,4.556
				c0.374,1.64,0.182,3.313-0.14,4.947c-0.764,3.87-2.4,7.507-3.751,11.193c-1.444,3.94-2.224,8.047-3.038,12.155
				c-0.936,4.725-1.748,9.477-2.365,14.255c-0.272,2.107-0.466,4.126-0.285,6.249c0.17,1.999,0.501,3.98,0.765,5.967
				c0.422,3.173,1.458,12.633-4.351,11.448c-2.035-0.415-4.516-2.093-6.702-2.346c-0.26,2.729-0.242,5.146,0.498,6.123
				c0.156,0.207,0.336,0.398,0.549,0.566c4.091,3.229,12.02,0.76,11.407-6.432c-0.054-0.633-0.067-1.263-0.053-1.888
				c-0.623-4.117-0.913-8.037-0.777-11.938c-0.378-1.717-0.576-3.493-0.352-5.205c0.694-5.292,2.256-10.462,3.356-15.678
				c0.598-2.839,1.204-5.678,1.932-8.488c0.697-2.69,1.435-5.469,2.567-8.014c0.873-1.963,2.325-3.379,3.772-4.914
				C226.117,296.698,227.506,294.537,227.155,291.949z"/>
			<path style="fill:#F0B23B;" d="M188.49,255.537c-2.927-7.263-5.306-14.827-6.355-22.606c-0.243-1.802-0.412-3.614-0.489-5.43
				c-0.083-1.983,0.049-3.996,0.204-5.973c0.314-4.006,0.957-7.995,1.992-11.879c1.694-6.35,4.516-12.483,8.185-17.935
				c1.794-2.666,3.815-5.216,6.178-7.404c0.15-0.139,0.306-0.274,0.459-0.41c-3.735,1.908-7.124,4.966-9.407,7.911
				c-6.59,8.501-10.314,19.9-10.739,30.586c-0.047,1.175-0.066,2.367-0.061,3.568c0.09,0.528,0.182,1.053,0.279,1.574
				c1.808,9.726,5.031,19.261,9.262,28.197c0.903,1.906,1.904,3.757,2.965,5.572C190.1,259.4,189.272,257.478,188.49,255.537z"/>
		</g>
	</g>
	<g>
		<g>
			<path style="fill:#FBB04E;" d="M55.357,10.184c0.262-0.504,0.881-0.727,1.393-0.875c0.112-0.032,0.227-0.061,0.342-0.09
				c-0.432-0.482-0.809-1.009-1.232-1.498c-0.067-0.077-0.09-0.193,0.024-0.238c0.637-0.247,1.402-0.256,2.072-0.185
				c0.056,0.006,0.115,0.014,0.174,0.022c-0.143-0.405-0.277-0.814-0.421-1.219c-0.033-0.093,0.029-0.164,0.12-0.172
				c0.602-0.052,1.251,0.107,1.822,0.28c0.389,0.118,0.794,0.264,1.163,0.467c0.07-0.351,0.167-0.696,0.32-1.021
				c0.043-0.091,0.2-0.047,0.256-0.005c0.549,0.409,1.101,0.828,1.57,1.329c0.294,0.314,0.571,0.672,0.755,1.068
				c0.922-0.608,2.301-0.316,3.254,0.052c0.091,0.035,0.154,0.128,0.143,0.225c-0.034,0.289-0.198,0.562-0.358,0.798
				c-0.159,0.234-0.343,0.448-0.537,0.655c0.412,0.077,0.862,0.212,1.149,0.511c0.402,0.418,0.037,0.901-0.293,1.23
				c-0.445,0.444-0.978,0.798-1.506,1.136c-0.149,0.096-0.302,0.185-0.456,0.272c0.023,0.014,0.047,0.026,0.069,0.04
				c0.32,0.197,0.766,0.51,0.812,0.919c0.015,0.131-0.024,0.273-0.137,0.351c-0.121,0.083-0.283,0.076-0.421,0.058
				c-0.295-0.037-0.585-0.155-0.86-0.279c-0.014,0.113-0.029,0.227-0.043,0.338c-0.048,0.385-0.108,0.768-0.167,1.151
				c-0.222,0.659-0.357,1.344-0.455,2.032c-0.101,0.706-0.169,1.415-0.259,2.122c-0.096,0.752-0.231,1.499-0.341,2.249
				c-0.145,0.997-0.285,1.995-0.428,2.992c-0.922-0.219-1.824-0.541-2.669-0.948c-1.223-0.59-2.49-1.432-3.083-2.702
				c-0.127-0.272-0.201-0.546-0.239-0.823c0.25-1.619,0.5-3.238,0.75-4.857c0.128-0.54,0.27-1.078,0.377-1.623
				c0.048-0.245,0.091-0.493,0.121-0.742c-0.036,0.003-0.073,0.008-0.109,0.01c-0.415,0.02-0.872,0.013-1.274-0.106
				c-0.103-0.031-0.254-0.152-0.174-0.275c0.2-0.306,0.476-0.561,0.774-0.77c0.092-0.064,0.191-0.127,0.294-0.183
				c-0.118-0.06-0.236-0.119-0.353-0.182c-0.33-0.177-0.629-0.381-0.92-0.616c-0.284-0.228-0.565-0.474-0.894-0.636
				C55.388,10.399,55.3,10.295,55.357,10.184z"/>
			<path style="fill:#6C412C;" d="M55.485,10.447c0.329,0.162,0.61,0.408,0.894,0.636c0.292,0.235,0.59,0.438,0.92,0.616
				c0.035,0.019,0.07,0.036,0.105,0.054c-0.193,0.156-0.39,0.306-0.576,0.469c-0.359,0.316-0.87,0.893-0.442,1.36
				c0.204,0.222,0.523,0.318,0.808,0.379c0.23,0.049,0.455,0.072,0.689,0.047c0.536-0.058,1.104-0.234,1.552-0.539
				c0.087-0.059,0.171-0.125,0.25-0.197c0.124,0.263,0.262,0.519,0.404,0.774c0.157,0.283,0.433,0.88,0.855,0.757
				c0.201-0.059,0.319-0.274,0.408-0.448c0.107-0.211,0.187-0.433,0.233-0.665c0.01-0.053,0.019-0.107,0.026-0.16
				c0.095,0.128,0.19,0.256,0.287,0.383c0.303,0.57,0.681,1.109,1.228,1.468c0.074,0.049,0.163,0.062,0.228-0.004
				c0.158-0.162,0.197-0.437,0.223-0.651c0.017-0.141,0.025-0.283,0.027-0.425c0.204,0.188,0.428,0.354,0.671,0.488
				c0.393,0.217,2.258,1.157,2.301,0.194c0.011-0.24-0.096-0.484-0.198-0.695c-0.111-0.231-0.243-0.451-0.387-0.663
				c-0.138-0.203-0.301-0.384-0.482-0.549c0.029-0.004,0.059-0.007,0.087-0.012c0.641-0.107,1.241-0.38,1.758-0.772
				c0.24-0.182,0.493-0.349,0.73-0.535c0.184-0.144,0.382-0.322,0.373-0.575c-0.016-0.499-0.647-0.847-1.02-1.063
				c-0.238-0.138-0.467-0.271-0.737-0.337c-0.131-0.032-0.278-0.047-0.426-0.066c0.173-0.187,0.338-0.381,0.481-0.591
				c0.16-0.236,0.324-0.51,0.358-0.798c0.011-0.097-0.052-0.19-0.143-0.225c-0.953-0.368-2.332-0.66-3.254-0.052
				c-0.185-0.396-0.461-0.754-0.755-1.068c-0.469-0.501-1.021-0.92-1.57-1.329c-0.056-0.042-0.214-0.086-0.256,0.005
				c-0.153,0.325-0.251,0.67-0.32,1.021c-0.369-0.202-0.774-0.349-1.163-0.467c-0.571-0.173-1.22-0.332-1.822-0.28
				c-0.092,0.008-0.153,0.079-0.12,0.172c0.144,0.405,0.278,0.813,0.421,1.219c-0.059-0.008-0.119-0.016-0.174-0.022
				c-0.67-0.072-1.435-0.062-2.072,0.185c-0.114,0.044-0.091,0.161-0.024,0.238c0.424,0.489,0.801,1.016,1.232,1.498
				c-0.115,0.028-0.23,0.057-0.342,0.09c-0.512,0.148-1.131,0.37-1.393,0.875C55.3,10.295,55.388,10.399,55.485,10.447z"/>
		</g>
		<path style="fill:#FEC34E;" d="M34.109,32.934c-0.546,0.352-1.104,0.675-1.668,0.986c-0.865,0.615-1.746,1.208-2.648,1.768
			c-1.945,1.209-3.991,2.322-6.131,3.147c-1.932,0.744-3.941,1.265-5.933,1.817c-2.047,0.568-4.104,1.155-6.048,2.024
			c-1.675,0.748-3.341,1.699-4.576,3.08c-1.192,1.332-2.09,2.953-2.711,4.624c-0.632,1.701-1.017,3.556-0.811,5.374
			c0.093,0.82,0.318,1.684,0.752,2.394c0.399,0.652,1.016,1.184,1.648,1.602c1.424,0.941,3.109,1.443,4.765,1.792
			c1.631,0.344,3.293,0.524,4.955,0.636c1.055,0.071,2.107,0.113,3.164,0.062c1.251-0.06,2.495-0.21,3.739-0.352
			c1.279-0.146,2.556-0.278,3.844-0.289c1.257-0.011,2.514,0.048,3.766,0.156c2.539,0.22,5.058,0.641,7.554,1.15
			c4.421,0.9,8.834,1.837,13.325,2.319c3.263,0.35,6.573,0.47,9.844,0.16c2.851-0.618,5.648-1.623,8.358-3.166
			c8.073-4.597,11.553-13.144,9.692-22.066c-0.928-4.452-2.703-9.219-5.201-12.756c-3.183-4.507-6.996-5.311-11.995-6.388
			c-0.867-0.187-1.75-0.298-2.635-0.347c-3.595-0.199-7.224,0.662-10.465,2.196c-3.586,1.697-6.69,4.191-9.805,6.61
			C37.334,30.674,35.764,31.866,34.109,32.934z"/>
		<path style="fill:#B67E5C;" d="M53.715,39.309c-1.401,0.169-2.905,0.592-4.033,1.473c-0.848,0.663-1.624,1.426-2.354,2.215
			c-0.76,0.822-1.505,1.699-2.043,2.686c-0.116,0.214-0.277,0.527-0.356,0.833c0.67-0.627,1.369-1.221,2.101-1.776
			c3.514-2.663,7.838-4.491,12.287-4.457C57.569,39.47,55.653,39.075,53.715,39.309z"/>
		<path style="fill:#D19342;" d="M61.473,46.402c-0.959-0.86-2.182-1.35-3.475-1.303c-1.21,0.045-2.369,0.529-3.354,1.215
			c-1,0.697-1.853,1.63-2.443,2.698c-0.511,0.925-0.855,2.028-0.681,3.092c0.416,2.539,3.637,3.508,5.838,2.931
			c2.398-0.629,4.302-2.843,4.835-5.228c0.225-1.01,0.182-2.115-0.335-3.029C61.734,46.648,61.607,46.522,61.473,46.402z"/>
		<path style="fill:#D19342;" d="M45.809,62.111c-0.037-1.798-0.436-3.758-1.606-5.18c-1.107-1.344-3.099-2.136-4.805-1.562
			c-1.598,0.537-2.268,2.305-2.457,3.841c-0.143,1.164-0.084,2.403,0.197,3.571c0.211,0.042,0.422,0.08,0.633,0.122
			c2.627,0.535,5.251,1.081,7.89,1.538C45.78,63.663,45.825,62.874,45.809,62.111z"/>
		<path style="fill:#D19342;" d="M34.941,44.325c-0.22-0.084-0.452-0.165-0.691-0.239c-0.224-0.034-0.448-0.066-0.675-0.081
			c-2.185-0.15-5.929,0.441-5.712,3.37c0.17,2.3,3.014,3.108,4.916,3.189c1.034,0.044,2.154-0.059,3.095-0.522
			c0.869-0.428,1.933-1.09,2.241-2.074c0.238-0.763-0.128-1.5-0.646-2.052C36.785,45.186,35.866,44.679,34.941,44.325z"/>
		<path style="fill:#D19342;" d="M30.888,43.732c-0.584,0.084-1.141,0.267-1.634,0.581c0.365-0.193,0.753-0.348,1.142-0.458
			C30.558,43.809,30.722,43.769,30.888,43.732z"/>
		<path style="fill:#D19342;" d="M47.291,24.333c0.534,0.805,1.392,1.328,2.36,1.366c0.881,0.035,1.643-0.36,2.292-0.933
			c0.744-0.656,1.333-1.477,1.827-2.333c0.27-0.468,0.512-0.954,0.721-1.454c-2.005,0.367-3.964,1.009-5.797,1.876
			c-0.581,0.275-1.145,0.577-1.703,0.89C47.07,23.948,47.167,24.146,47.291,24.333z"/>
		<path style="fill:#D19342;" d="M32.503,38.039c3.742,0.359,4.625-4.482,5.314-7.198c0.058-0.23,0.12-0.461,0.184-0.691
			c-1.266,0.971-2.551,1.919-3.892,2.784c-0.546,0.352-1.104,0.675-1.668,0.986c-0.865,0.615-1.746,1.208-2.648,1.768
			c-0.217,0.135-0.435,0.268-0.654,0.4C29.994,37.118,31.163,37.91,32.503,38.039z"/>
		<path style="fill:#D19342;" d="M61.08,22.182c-1.481,1.368-2.876,2.983-3.819,4.775c-0.516,0.982-0.835,2.173-0.862,3.283
			c-0.021,0.898,0.212,1.767,0.759,2.488c0.52,0.685,1.244,1.191,1.972,1.631c0.841,0.508,1.723,0.944,2.579,1.426
			c0.908,0.512,1.815,1.077,2.591,1.779c0.767,0.694,1.323,1.571,1.721,2.52c0.778,1.854,0.956,3.915,1.839,5.729
			c0.942,1.936,2.856,3.366,5.026,3.561c2.124,0.191,4.276-0.447,6.296-1.023c0.449-2.622,0.393-5.392-0.192-8.2
			c-0.928-4.452-2.703-9.219-5.201-12.756c-3.066-4.34-6.719-5.247-11.449-6.269C61.901,21.454,61.482,21.811,61.08,22.182z"/>
		<path style="fill:#FDC792;" d="M27.853,57.203c-0.328-2.416-0.918-4.799-1.694-7.109c-0.664-1.977-1.462-3.867-2.618-5.609
			C22.5,42.914,21.109,41.3,19.47,40.17c-0.58,0.162-1.161,0.321-1.74,0.482c-2.047,0.568-4.104,1.155-6.048,2.024
			c-1.675,0.748-3.341,1.699-4.576,3.08c-1.192,1.332-2.09,2.953-2.711,4.624c-0.632,1.701-1.017,3.556-0.811,5.374
			c0.093,0.82,0.318,1.684,0.752,2.394c0.399,0.652,1.016,1.184,1.648,1.602c1.424,0.941,3.109,1.443,4.765,1.792
			c1.631,0.344,3.293,0.524,4.955,0.636c1.055,0.071,2.107,0.113,3.164,0.062c1.251-0.06,2.495-0.21,3.739-0.352
			c1.279-0.146,2.556-0.278,3.844-0.289c0.553-0.005,1.106,0.006,1.659,0.027C28.153,60.146,28.051,58.66,27.853,57.203z"/>
		<path style="fill:#8D92A6;" d="M4.646,53.408c0.39-1.928,1.179-3.802,2.34-5.393c1.227-1.681,2.894-3,4.698-4.017
			c2.665-1.501,5.6-2.351,8.497-3.291c-0.232-0.188-0.468-0.369-0.712-0.537c-0.58,0.162-1.16,0.324-1.74,0.482
			c-1.529,0.416-3.892,1.093-6.048,2.024c-1.685,0.727-3.341,1.699-4.576,3.08c-1.192,1.332-2.09,2.953-2.711,4.624
			c-0.632,1.701-1.017,3.556-0.811,5.374c0.093,0.82,0.318,1.684,0.752,2.394c0.089,0.145,0.191,0.282,0.299,0.415
			C4.267,56.872,4.305,55.1,4.646,53.408z"/>
		<g>
			<path style="fill:#FFFFFF;" d="M53.125,36.45c0,3.113-2.523,5.636-5.636,5.636c-3.112,0-5.636-2.523-5.636-5.636
				c0-3.113,2.523-5.636,5.636-5.636C50.602,30.814,53.125,33.337,53.125,36.45z"/>
			<g>
				<path style="fill:#62493E;" d="M51.698,36.45c0,2.325-1.884,4.209-4.209,4.209c-2.325,0-4.209-1.884-4.209-4.209
					s1.884-4.209,4.209-4.209C49.814,32.241,51.698,34.125,51.698,36.45z"/>
				<g>
					<path style="fill:#312017;" d="M50.201,36.45c0,1.498-1.214,2.712-2.712,2.712c-1.497,0-2.711-1.214-2.711-2.712
						s1.214-2.712,2.711-2.712C48.987,33.738,50.201,34.952,50.201,36.45z"/>
					<path style="fill:#FFFFFF;" d="M46.759,34.729c0,0.547-0.443,0.991-0.991,0.991s-0.991-0.443-0.991-0.991
						c0-0.547,0.444-0.991,0.991-0.991S46.759,34.182,46.759,34.729z"/>
				</g>
			</g>
		</g>
		<g>
			<g>
				<g>
					<path style="fill:#6C412C;" d="M9.869,50.867c0,0-0.732-2.168,0.855-2.894C12.311,47.246,10.496,52.642,9.869,50.867z"/>
				</g>
			</g>
			<path style="opacity:0.33;fill:#6C412C;" d="M7.512,50.125c0.222-0.935,0.565-1.857,0.998-2.715
				c0.446-0.882,1.043-1.816,1.939-2.297c0.753-0.404,1.836-0.478,2.45,0.212c0.582,0.655,0.649,1.661,0.6,2.494
				c-0.054,0.915-0.244,1.884-0.741,2.669c-0.026,0.041-0.107-0.015-0.083-0.058c0.171-0.29,0.251-0.636,0.321-0.962
				c0.092-0.432,0.161-0.868,0.193-1.309c0.059-0.806,0.056-1.766-0.38-2.479c-0.169-0.277-0.416-0.472-0.739-0.529
				c-0.43-0.076-0.888,0.001-1.278,0.194c-0.844,0.417-1.415,1.256-1.848,2.062c-0.485,0.904-0.799,1.877-1.208,2.814
				C7.683,50.343,7.485,50.238,7.512,50.125z"/>
		</g>
		<path style="fill:#FBB04E;" d="M59.798,33.092c-0.133,0.471,0.218,0.743,0.667,0.666c0.352-0.06,0.674-0.189,0.976-0.36
			c-0.305,0.465-0.593,0.941-0.881,1.414c-0.013,0.021-0.021,0.045-0.032,0.067c3.47-0.509,6.967-1.073,10.48-0.977
			c3.216,0.087,6.476,0.206,9.646-0.448c2.846-0.587,5.625-1.656,8.002-3.346c1.137-0.808,2.225-1.766,3.063-2.888
			c0.832-1.114,1.421-2.383,1.783-3.723c0.352-1.301,0.498-2.637,0.538-3.982c-0.826-1.983-2.754-3.041-4.778-3.584
			c-5.524-1.482-11.564,0.062-16.641,2.358c-1.747,0.79-3.429,1.716-5.001,2.803c-1.122,0.825-2.195,1.715-3.198,2.681
			c-0.926,0.892-1.787,1.855-2.557,2.882c-0.16,0.223-0.322,0.445-0.472,0.675c0,0.001-0.001,0.002-0.001,0.002
			c-0.026,0.029-0.05,0.059-0.076,0.087c-1.061,1.555-1.904,3.249-2.434,5.07c0.171,0.042,0.375,0.023,0.51-0.034
			c0.303-0.127,0.583-0.288,0.854-0.462C60.065,32.347,59.906,32.709,59.798,33.092z"/>
		<path style="fill:#6C412C;" d="M78.245,32.329c2.258-0.299,4.523-0.757,6.646-1.6c1.942-0.771,3.814-1.926,5.057-3.641
			c0.636-0.877,1.09-1.868,1.354-2.917c0.264-1.05,0.419-2.208,0.079-3.258c-0.6-1.853-2.629-2.518-4.386-2.696
			c-2.006-0.204-4.081,0.046-6.026,0.553c-3.099,0.807-5.918,2.417-8.388,4.432c-2.447,1.997-4.544,4.358-6.542,6.794
			c-1.218,1.484-2.531,3.095-4.14,4.22c0.045-0.014,0.088-0.033,0.133-0.047c3.176-1.014,6.495-1.123,9.795-1.308
			C73.971,32.741,76.116,32.611,78.245,32.329z"/>
		<path style="fill:#B67E5C;" d="M34.594,55.254c-0.791-0.148-1.623-0.432-2.302-0.902c-0.042,0.074-0.062,0.153-0.044,0.227
			c0.097,0.396,0.356,0.716,0.691,0.947c0.061,0.196,0.089,0.397,0.076,0.568c-0.044,0.559-0.441,0.767-0.951,0.806
			c-1.011,0.078-2.064-0.203-3.047-0.403c-2.029-0.412-3.951-0.672-5.958-0.008c-1.832,0.606-3.455,1.681-5.242,2.393
			c-2.065,0.823-4.274,1.291-6.499,1.307c-1.182,0.008-2.413-0.044-3.561-0.346c-0.543-0.143-1.07-0.323-1.527-0.657
			c-0.464-0.339-0.901-0.716-1.357-1.066c-0.081-0.062-0.267,0.079-0.19,0.163c0.333,0.365,0.6,0.789,0.943,1.145
			c0.375,0.389,0.826,0.658,1.322,0.865c0.99,0.413,2.143,0.531,3.205,0.587c2.397,0.128,4.797-0.279,7.058-1.066
			c2.168-0.755,4.085-2.128,6.29-2.771c2.543-0.741,4.953,0.254,7.483,0.492c0.834,0.078,1.801,0.061,2.383-0.639
			c0.238-0.286,0.358-0.652,0.368-1.021c0.689,0.16,1.445,0.027,1.887-0.482c0.008-0.009,0.01-0.018,0.017-0.027
			C35.285,55.358,34.93,55.317,34.594,55.254z"/>
	</g>
	<g>
		<path style="fill:#5DAF77;" d="M19.027,69.983c0.254,0.203,0.516,0.396,0.785,0.573c0.748,0.49,1.542,0.92,2.338,1.327
			c0.816,0.418,1.677,0.712,2.56,0.926c-0.073-2.745-1.186-5.451-2.707-7.699c-0.608-0.898-1.301-1.766-2.113-2.495
			c0.442,0.064,0.884,0.116,1.325,0.143c1.365,0.084,2.715-0.067,4.077-0.109c1.003-0.031,2.047-0.044,2.784-0.829
			c0.079-0.084,0.139-0.184,0.165-0.289c-0.31-0.182-0.627-0.352-0.951-0.509c-2.358-1.143-5.017-1.647-7.627-1.643
			c-1.307,0.002-2.627,0.135-3.911,0.416c-0.184,0.062-0.374,0.134-0.554,0.222c-0.041-0.02-0.083-0.039-0.123-0.059
			c-0.293,0.077-0.583,0.164-0.87,0.259c-0.573,0.921-0.958,1.942-1.231,2.991c-0.274,1.049-0.451,2.121-0.609,3.193
			c-0.174,1.186-0.323,2.369-0.333,3.569c-0.016,1.864,0.271,3.718,0.911,5.457c0.214-0.03,0.423-0.18,0.555-0.36
			c1.606-2.202,2.551-5.041,2.812-7.741c0.038-0.389,0.044-0.777,0.036-1.163c0.658,1.173,1.38,2.316,2.251,3.345
			C18.736,69.671,18.883,69.826,19.027,69.983z"/>
		<path style="opacity:0.6;fill:#628E6C;" d="M19.891,62.615c0.091,0.013,0.182,0.023,0.272,0.035
			c-0.87-0.529-1.595-1.285-1.727-2.344c-0.02-0.161,0.159-0.237,0.286-0.217c3.031,0.457,6.129,1.935,9.192,1.266
			c-0.207-0.114-0.412-0.231-0.624-0.334c-2.358-1.143-5.017-1.647-7.627-1.643c-1.307,0.002-2.627,0.135-3.911,0.416
			c-0.184,0.062-0.374,0.134-0.554,0.222c-0.041-0.02-0.083-0.039-0.123-0.059c-0.293,0.077-0.583,0.164-0.87,0.259
			c-0.005,0.009-0.01,0.018-0.015,0.027c0.113,1.127,0.125,2.26,0.057,3.391c-0.238,3.907-1.303,7.745-1.348,11.659
			c0.016,0.044,0.029,0.089,0.045,0.133c0.214-0.03,0.423-0.18,0.555-0.36c1.606-2.202,2.551-5.041,2.812-7.741
			c0.029-0.299,0.036-0.597,0.036-0.894c-0.372-1.334-0.65-2.684-0.605-4.08c0.008-0.241,0.29-0.285,0.42-0.114
			c0.731,0.956,1.446,1.924,2.158,2.895c1.249,1.704,2.505,3.402,3.77,5.094c0.657,0.879,1.353,1.743,2.172,2.462
			c0.149,0.041,0.299,0.084,0.45,0.12c-0.073-2.745-1.186-5.451-2.707-7.699C21.396,64.212,20.702,63.345,19.891,62.615z"/>
	</g>
</g>
</svg>
