<?xml version="1.0" encoding="utf-8"?>
<!-- Generator: Adobe Illustrator 27.5.0, SVG Export Plug-In . SVG Version: 6.00 Build 0)  -->
<svg version="1.1" xmlns="http://www.w3.org/2000/svg" xmlns:xlink="http://www.w3.org/1999/xlink" x="0px" y="0px"
	 viewBox="0 0 500 500" style="enable-background:new 0 0 500 500;" xml:space="preserve">
<g id="BACKGROUND">
	<g id="background">
		<rect style="fill:#FFFFFF;" width="500" height="500"/>
	</g>
</g>
<g id="OBJECTS">
	<g>
		<path style="fill:#1D3557;" d="M109.672,110.776c-3.497-2.22-10.247-1.512-13.156,2.738c-2.405,3.512-1.883,8.861,1.679,11.396
			c2.04,1.451,0.328,2.655,1.294,5.368c1.003,2.818,3.541,2.319,2.487,2.016c-4.022-1.156-0.434-5.492-3.694-7.989
			c-5.787-4.432-2.223-17.466,11.201-13.079C109.756,111.315,109.901,110.921,109.672,110.776z"/>
		<path style="fill:#1D3557;" d="M177.792,103.601c2.365-1.079,5.044-1.224,7.547-0.376c2.55,0.863-5.263-6.854-15.91-5.326
			c3.112-3.067,7.046-2.375,5.537-3.177c-2.874-1.529-6.152-1.87-9.259-1.029c1.206-1.245,2.887-1.848,4.672-1.598
			c2.859,0.4-6.678-5.734-13.76,1.055c2.157-5.25,7.075-6.808,5.102-6.728c-4.732,0.193-9.154,2.565-11.957,6.334
			c0.689-2.761,2.111-5.264,4.18-7.266c1.723-1.667-9.087,0.916-12.308,10.93c-2.142-7.684-9.524-11.369-8.43-9.743
			c1.658,2.463,2.644,5.227,2.926,8.157c-2.753-4.041-7.038-6.841-11.882-7.67c-1.802-0.308,2.775,1.523,3.779,6.277
			c-5.959-5.2-13.768-4.754-11.979-3.925c2.089,0.967,3.837,2.399,5.179,4.23c-4.717-2.43-10.322-2.721-15.279-0.745
			c-2.019,0.804,4.454-0.186,10.829,4.739c-8.45-1.827-20.969,3.353-17.776,2.909c3.117-0.434,6.218-0.046,9.1,1.118
			c-7.663-0.591-13.742,3.321-11.279,2.769c1.857-0.417,3.717-0.387,5.527,0.076c-4.315,0.492-8.287,2.73-10.897,6.249
			c-1.054,1.421,2.582-1.43,8.008-0.907c-6.846,2.499-8.449,5.41-7.361,4.665c1.357-0.928,2.843-1.392,4.486-1.396
			c0.42-0.001,0.314-0.866-2.545-0.005c2.02-1.338,4.2-2.397,6.526-3.143c1.517-0.486-3.396-1.452-8.055,0.323
			c5.506-6.418,13.391-5.104,11.356-5.872c-1.718-0.648-3.477-0.91-5.257-0.788c3.519-1.401,7.337-1.837,11.11-1.244
			c1.937,0.305-2.541-2.63-8.465-2.546c12.954-3.985,18.259-0.606,16.832-1.848c-3.105-2.702-6.872-4.395-10.92-4.967
			c4.913-1.609,10.317-1.031,14.79,1.63c1.261,0.75-0.769-2.987-4.584-5.167c8.328,0.532,11.555,6.274,11.327,4.537
			c-0.321-2.454-1.505-4.604-3.351-6.168c4.536,1.112,8.475,3.967,10.899,7.999c0.81,1.347,0.759-3.938-1.983-8.61
			c7.155,4.522,7.092,12.145,7.625,10.101c1.415-5.439,5.588-9.804,10.865-11.59c-2.081,2.325-3.429,5.157-3.896,8.277
			c-0.355,2.377,2.764-5.93,11.738-7.014c-4.74,3.43-5.713,9.017-4.516,7.499c3.039-3.85,8.612-5.143,13.044-3.165
			c-1.816,0.139-3.476,1.064-4.538,2.625c-0.999,1.47,3.399-1.749,9.226,0.777c-3.905,0.833-6.48,4.041-5.188,3.797
			c5.439-1.026,11.058,0.301,15.463,3.583c-2.725-0.526-5.514-0.013-7.916,1.493c-1.918,1.203,5.354-1.214,11.64,4.086
			c-7.311-3.001-9.72-1.58-8.142-1.271c2.99,0.587,5.699,1.995,7.906,4.039c-3.747-1.767-7.831-2.649-12.003-2.555
			c-0.467,0.011-0.486,0.738-0.018,0.726c7.959-0.202,11.693,3.762,11.594,10.051c-0.127,8.024-5.964,7.717-5.771,8.55
			c0.87,3.757-1.086,8.437-0.262,7.012c1.177-2.03,1.274-4.616,0.847-6.887c6.598-1.393,8.176-12.655,2.441-17.421
			c1.613,0.533,3.179,1.221,4.679,2.071c1.811,1.027-0.675-2.741-5.263-4.913c1.895,0.461,3.735,1.125,5.505,1.999
			C191.434,110.265,186.364,103.494,177.792,103.601z"/>
		<path style="fill:#1D3557;" d="M206.554,176.321c2.669,1.776,4.807,4.229,6.183,7.156c1.993,4.238-0.592-13.782-13.068-29.765
			c2.714,1.098,4.987,3.025,6.55,5.538c0.407,0.654,3.98,1.848-12.582-20.32c1.66,1.096,3.069,2.534,4.119,4.253
			c0.31,0.508,1.097,0.149,0.843-0.41c-6.899-15.22-18.145-18.018-14.83-15.979c5.145,3.167,8.904,7.489,11.991,12.638
			c-1.055-0.93-2.241-1.711-3.562-2.328c-2.696-1.26,2.695,3.926,11.52,18.075c-3.107-2.527-6.584-3.311-5.589-2.087
			c6.581,8.096,11.333,17.531,13.94,27.615c-1.64-2.438-3.838-4.446-6.451-5.881c-3.498-1.921,8.268,9.965,9.434,33.434
			c-3.327-7.765-9.849-13.307-9.053-11.133c3.005,8.214,4.905,16.776,5.664,25.478c-1.663-4.293-4.529-8.031-8.308-10.743
			c-1.953-1.402,2.76,6.375,3.078,20.819c-2.672-7.262-9.676-12.45-9.299-10.537c5.724,29.03,6.901,16.494-9.444,7.692
			c-1.84-0.991,1.815,7.68,5.612,12.508c-12.835-5.996-13.898-6.726-13.474-5.664c9.204,23.07,11.858,15.065-0.269,10.529
			c-1.499-0.561,4.169,21.373,4.606,22.99c-2.803-4.705-8.735-8.491-8.283-6.966c2.521,8.485,2.402,17.563-0.293,25.973
			c-0.266-4.935-2.14-9.635-5.382-13.406c-1.078-1.255,0.764,6.238-2.971,17.575c0.154-9.18-5.242-17.297-5.634-15.851
			c-7.687,28.33-1.068,17.796-12.325,3.849c-1.03-1.273-3.083,8.099,1.147,15.427c-11.889-7.611-13.457-17.313-14.14-15.633
			c-2.679,6.594-1.234,14.397,3.457,19.662c-6.376-4.22-10.844-10.988-12.162-18.56c-0.406-2.34-2.759,7.403,0.364,17.077
			c-9.691-14.503-8.311-27.495-9.344-24.589c-11.105,31.267-3.854,15.966-8.639-2.237c-0.503-1.914-1.089,5.087-6.441,14.395
			c-0.012-18.608-4.769-34.28-4.514-30.236c0.281,4.498-0.798,8.934-3.083,12.795c2.742-40.266,4.175-23.318-9.276-10.66
			c6.56-17.082,6.185-30.366,5.52-26.98c-0.81,4.134-2.907,7.862-5.987,10.709c2.286-9.146,3.054-18.606,2.246-28.002
			c-0.231-2.687-2.473,7.738-3.502,11.943c-5.419-29.159,5.535-42.692-4.944-26.623c0.031-10.18,3.277-20.196,9.26-28.446
			c0.972-1.338-3.253,0.459-5.896,2.834c1.386-15.014,12.627-22.604,10.095-21.609c-1.996,0.784-3.834,1.842-5.524,3.147
			c1.288-5.461,4.277-10.392,8.579-14.017c1.295-1.09-4.273-0.425-7.743,3.672c4.009-10.159,10.114-13.154,8.51-13.19
			c-2.316-0.052-4.462,0.889-5.982,2.558c1.504-4.021,4.057-7.542,7.464-10.192c2.128-1.651-5.396,2.057-8.321,11.305
			c-0.488,1.539,1.681-2.951,6.237-3.178c-7.968,7.694-10.29,17.34-8.587,14.543c1.642-2.7,4.29-4.585,7.341-5.282
			c-6.967,6.344-9.135,15.829-7.808,14.728c1.421-1.179,2.959-2.156,4.612-2.942c-5.54,5.643-8.948,13.174-9.5,21.084
			c-0.097,1.4,1.249-1.313,5.536-3.034c-9.604,13.808-9.604,31.095-8.344,29.166c9.663-14.818-1.245-2.539,4.683,26.889
			c0.367,1.826,1.178-2.449,3.379-11.438c1.182,18.576-3.923,28.685-2.126,27.173c2.736-2.305,4.79-5.248,6.009-8.558
			c-0.951,8.466-3.024,16.769-6.188,24.691c-0.81,2.026,6.774-4.722,11.291-13.988c-1.482,21.833-2.072,26.396-1.177,25.044
			c2.337-3.529,3.636-7.578,3.812-11.765c2.307,9.466,3.446,19.179,3.37,28.928c-0.018,2.356,4.728-7.194,6.711-14.249
			c3.122,12.759,0.916,23.656,2.001,20.939c13.365-33.443,0.441-16.311,16.908,6.5c1.566,2.168-3.081-6.715-1.234-17.438
			c3.303,14.727,16.919,20.544,14.339,18.289c-5.595-4.887-7.67-13.097-5.115-20.055c3.207,6.635,8.269,12.199,14.61,15.977
			c1.977,1.178-4.943-5.649-2.022-15.807c10.868,13.861,4.769,25.819,12.825-3.905c6.478,9.084,4.165,19.8,5.167,17.07
			c0.101,0,3.307-8.544,3.154-18.514c3.163,3.943,4.866,8.859,4.796,13.927c-0.037,2.673,5.885-11.313,1.509-26.999
			c12.004,6.494,10.248,24.746,3.238-15.721c4.584,1.847,8.459,5.045,11.123,9.222c0.237,0.336,0.714-0.05,0.498-0.388
			c-4.301-6.128-7.888-12.702-10.715-19.631c23.414,10.962,11.378,7.159,7.323-6.36c15.718,8.882,16.009,23.093,9.957-7.945
			c4.23,3.003,7.228,7.432,8.43,12.496c0.921,3.886,1.776-8.778-2.55-22.132c3.987,3.186,6.811,7.619,7.997,12.601
			c1.133,4.756,1.232-10.526-4.698-27.54c6.943,6.585,8.742,15.37,8.687,12.169C215.692,198.514,212.457,186.728,206.554,176.321z"
			/>
		<path style="fill:#1D3557;" d="M112.412,124.179c-5.642-0.564-8.424,6.192-9.875,7.987c-2.635,3.261-7.108,4.219-9.851,7.392
			c-0.108,0.124,0.07,0.302,0.185,0.18c2.771-2.949,7.036-3.867,9.77-6.865c3.051-3.345,2.194-6.546,9.827-8.209
			C112.757,124.601,112.677,124.206,112.412,124.179z"/>
		<path style="fill:#1D3557;" d="M188.403,137.008c-7.038,0.964-5.243-2.491-10.269-5.887c-3.844-2.598-5.244-1.194-9.078-8.041
			c-0.629-1.123-1.051,1.904,2.957,5.301c2.644,2.241,5.651,2.243,8.696,6.069c1.726,2.168,1.994,4.114,7.753,2.952
			C188.712,137.352,188.659,136.973,188.403,137.008z"/>
		<path style="fill:#1D3557;" d="M119.298,112.799c-7.016-5.63-16.647,1.843-14.157,1.061c1.804-0.565,3.763-0.088,8.097,0.926
			c6.616,1.547-5.022-0.705-8.694,2.517c-1.448,1.269,5.815-1.504,9.86,1.788c-9.37-0.192-9.909,2.484-8.887,1.982
			c2.844-1.394,6.377-0.996,8.853,0.97c0.895,0.711-0.285-1.951-4.712-2.253c1.785-0.249,3.627-0.225,5.421-0.181
			c1.095,0.027-1.321-3.442-9.463-2.49c3.445-2.216,11.397-0.358,10.22-1.607c-1.413-1.501-8.236-2.464-9.631-2.339
			c7.526-4.409,11.551-0.834,12.912-0.076C119.294,113.195,119.45,112.921,119.298,112.799z"/>
		<path style="fill:#1D3557;" d="M183.552,113.154c-3.99,3.067-6.011-1.737-13.849-0.199c2.5-1.973,5.798-2.663,8.908-1.807
			c1.561,0.43-2.611-3.805-7.135-3.431c-2.78,0.229-5.281,1.706-7.582,3.212c1.295-2.824,3.893-4.844,6.984-5.383
			c1.896-0.33-7.011-5.932-14.916,1.366c-0.413-3.885,3.968-5.537,7.141-5.98c1.775-0.248-5.092-2.453-9.391,0.264
			c-5.186,3.277-2.776,8.453-3.02,6.673c-0.603-4.399,3.641-8.808,11.215-7.2c-8.011,1.729-6.721,7.657-5.96,6.907
			c4.646-4.572,11.416-4.86,14.336-2.394c-5.862,1.319-8.074,7.458-6.827,6.632c5.302-3.512,9.32-5.34,14.287-1.37
			c-6.147-1.079-10.661,3.717-8.963,3.271c5.625-1.479,9.205,1.018,12.12,1.023c-2.841,1.281-6.083,1.552-9.135,0.682
			c-0.422-0.12-0.639,0.507-0.218,0.651c2.47,0.845,4.621,2.265,6.359,4.153c-2.599-1.41-5.442-2.263-8.419-2.491
			c-1.874-0.143,2.58,1.656,5.68,5.173c-5.947-3.279-8.908-2.203-7.527-1.797c2.113,0.62,4.002,1.67,5.617,3.108
			c-7.103-2.982-6.626-1.334-6.101-1.217c2.613,0.582,5.126,1.451,7.54,2.607c1.261,0.603-0.047-1.758-3.591-3.751
			c3.241,0.992,6.797,3.541,5.702,2.062c-1.619-2.185-3.626-3.979-5.926-5.387c2.971,0.449,5.773,1.527,8.295,3.212
			c1.592,1.065-0.487-2.781-4.877-5.192c5.275,0.416,9.74-2.77,9.587-2.923C184.225,113.309,183.793,112.969,183.552,113.154z"/>
		<path style="fill:#1D3557;" d="M188.178,137.35c-3.406,3.718-8.384,1.639-8.767,1.572c-2.321-0.407,4.453,4.327,8.996-1.371
			C188.529,137.4,188.312,137.205,188.178,137.35z"/>
		<path style="fill:#1D3557;" d="M108.904,130.711c-3.532,7.44-8.911,6.303-12.87,8.647c-0.195,0.115,0.016,0.395,0.21,0.283
			c2.565-1.494,5.672-1.596,8.22-3.147C109.241,133.585,109.544,129.364,108.904,130.711z"/>
		<path style="fill:#1D3557;" d="M148.14,163.85c-1.983,3.448-5.606-0.321-7.568,3.141c-0.529,0.933-0.367,1.53,0.024,2.1
			c0.691,1.009,2.278-1.16,3.062-1.455c0.591-0.223,4.477-0.197,4.959-3.599C148.655,163.759,148.294,163.581,148.14,163.85z"/>
		<path style="fill:#1D3557;" d="M154.136,184.032c-5.716,3.933-10.382-3.695-15.946-4.847c-0.121-7.077,3.67-7.221,2.837-10.639
			c-0.096-0.393-0.724-0.311-0.627,0.085c0.526,2.15-1.456,3.846-2.166,5.702c-0.332,0.869-0.337,1.423-0.3,0.76
			c0.348-6.23-0.625-7.297-0.555-6.555c0.242,2.597,0.224,5.389,0.067,7.293c-1.582-6.611-3.213-3.709-3.305-5.647
			c-0.04-0.844,1.125-0.917,0.187-2.426c-2.091-3.432-4.38-1.503-5.391-1.665c0.946-2.157,3.581-3.356,6.19-1.243
			c2.363,1.914,7.31-4.829,9.196,1.311c0.832,2.706,1.676-6.452-7.018-1.702c-0.755,0.413-1.399,0.311-2.063-0.231
			c-2.669-2.18-6.132-0.441-6.617,1.777c-1.3-0.449-2.924-3.585-2.695-2.318c1.008,5.577,5.031,3.623,5.602,3.915
			c0.916,0.469,1.168,2.017,2.157,2.149c-0.312,3.104,1.6-0.605,3.264,6.714c0.765,3.367,0.537,2.46-0.428,2.891
			c-1.578,0.704-4.091,3.266-7.067,4.677c-4.846,2.298-6.574-0.992-8.902-1.658c-1.545-0.442-1.679,1.891,3.288,3.665
			c5.275,1.883,8.967-2.542,12.667-4.462c3.379-1.753,14.354,11.297,18.169,2.824C154.834,184.058,154.381,183.864,154.136,184.032z
			"/>
		<path style="fill:#1D3557;" d="M116.449,172.442c-4.54-5.549-7.022-7.97-7.371-17.979c-0.195-5.602,1.07-13.79,0.627-11.85
			c-5.626,24.691,6.645,26.962,9.322,36.639C119.347,180.41,121.343,178.423,116.449,172.442z"/>
		<path style="fill:#1D3557;" d="M170.151,143.554c-0.262-1.844,1.363,10.249-4.317,20.866c-2.422,4.528-9.159,11.199-7.972,15.933
			c0.553,2.206,1.331-3.126,2.064-4.736C162.596,169.757,172.567,160.499,170.151,143.554z"/>
		<path style="fill:#1D3557;" d="M146.394,192.353c-2.626,2.197-4.366,3.433-9.1,3.356c-3.275-0.054-8.114,0.053-9.977-3.211
			c-0.097-0.17-0.394-0.009-0.305,0.168c2.434,4.848,17.284,5.897,19.954,0.053C147.121,192.38,146.636,192.15,146.394,192.353z"/>
		<path style="fill:#1D3557;" d="M122.472,173.77c0.004-0.033-0.004-0.046-0.003-0.051c0-0.007-0.001-0.015-0.001-0.022
			c0,0.005,0,0.01,0,0.015c0.059-1.215-1.566-0.228-0.691,0.401C122.008,174.282,122.695,174.534,122.472,173.77z"/>
		<g>
			<path style="fill:#1D3557;" d="M125.709,174.823c-0.282-0.787-0.616-1.491-0.962-0.472
				C124.337,175.55,126.023,175.699,125.709,174.823z"/>
			<path style="fill:#1D3557;" d="M125.058,173.923l0.016-0.007C125.074,173.917,125.076,173.916,125.058,173.923z"/>
			<path style="fill:#1D3557;" d="M125.074,173.917c0.026-0.009,0.039-0.016,0.045-0.018L125.074,173.917z"/>
		</g>
		<path style="fill:#1D3557;" d="M129.008,173.393c0.323,0.108-0.579-0.374-0.287,0.469
			C129.029,174.75,130.14,173.77,129.008,173.393z"/>
		<path style="fill:#1D3557;" d="M123.729,178.842c-0.086-0.518-0.704-0.785-0.97-0.539
			C121.538,179.021,124.043,180.786,123.729,178.842z"/>
		<path style="fill:#1D3557;" d="M127.81,179.469c-0.597-0.943-1.479-0.274-0.967,0.493
			C127.354,180.721,128.169,180.176,127.81,179.469z"/>
		<path style="fill:#1D3557;" d="M129.796,177.423c-0.536,0.346,0.836,1.313,0.79,0.317
			C130.676,177.847,130.434,177.119,129.796,177.423z"/>
		<path style="fill:#1D3557;" d="M147.406,172.79c0.116,0.509,0.08-1.058-0.866-0.257
			C145.507,174.101,147.926,174.131,147.406,172.79z"/>
		<path style="fill:#1D3557;" d="M151.286,174.601c-0.149-0.386-0.687-0.907-1.098-0.73c-0.464,0.114-0.426,0.806-0.43,0.623
			C149.802,176.375,151.666,176.155,151.286,174.601z"/>
		<path style="fill:#1D3557;" d="M153.775,173.327c-0.691,0.165-0.75,1.508,0.481,1.336
			C155.263,174.243,154.375,173.086,153.775,173.327z"/>
		<path style="fill:#1D3557;" d="M157.003,170.877c-1.108,0-1.171,1.723-0.06,1.723
			C158.051,172.599,158.114,170.877,157.003,170.877z"/>
		<path style="fill:#1D3557;" d="M146.247,177.67c-0.078-0.533-0.853-0.627-1.016-0.251
			C144.601,178.416,146.455,178.897,146.247,177.67z"/>
		<path style="fill:#1D3557;" d="M150.785,179.941c0.015-0.762-1.368-1.381-1.676-0.394
			C149.224,181.532,150.844,180.907,150.785,179.941z"/>
		<path style="fill:#1D3557;" d="M153.637,178.867c0.045,0.482,0.887,0.721,1.145,0.283
			C155.413,178.274,153.625,177.594,153.637,178.867z"/>
		<path style="fill:#1D3557;" d="M140.169,116.928c0.274-1.231-1.579,0.575-1.668,3.428c-0.045,1.429,0.66,2.759,0.524,4.192
			c-0.126,1.336-0.648,2.601-0.777,3.944c-0.37,3.859,0.873,4.817,0.694,4.018c-0.942-4.229,0.508-5.869,0.661-8.167
			c0.089-1.332-0.53-2.582-0.478-3.908C139.176,119.155,139.901,118.137,140.169,116.928z"/>
		<path style="fill:#1D3557;" d="M128.707,123.118c-0.374-1.503-3.434-0.009-4.729,2.667c-0.971,2.006-0.835,5.79,0.771,6.056
			C127.269,132.259,128.74,123.248,128.707,123.118z M128.223,123.929c-0.677,2.507-2.445,10.381-4.189,6.914
			C122.056,125.105,129.041,120.91,128.223,123.929z"/>
		<path style="fill:#1D3557;" d="M153.496,128.785c-0.71-8.757-7.283-6.224-3.966-0.841c3.186,5.169,1.823,5.068,2.354,5.087
			C151.609,134.151,153.781,132.314,153.496,128.785z M152.047,132.742c0.094-3.621-5.054-7.208-2.332-9.023
			C151.953,122.226,154.408,129.469,152.047,132.742z"/>
		<path style="fill:#1D3557;" d="M123.337,135.372c-2.169-1.157-5.001-0.693-7.351,2.646c-0.576,0.818,0.849,1.849,1.439,1.025
			c3.488-4.87,7.301-2.431,9.702,3.712C127.962,144.888,127.536,137.613,123.337,135.372z"/>
		<path style="fill:#1D3557;" d="M160.827,137.921c-6.858-1.745-6.931-5.786-11.565,5.554c-0.094,0.231,0.279,0.415,0.398,0.191
			c2.157-4.061,2.801-6.066,4.932-6.344c2.32-0.303,3.977,2.671,6.345,1.719C161.431,138.844,161.312,138.045,160.827,137.921z"/>
		<path style="fill:#1D3557;" d="M125.709,139.059c-1.895,3.139-6.626,2.019-6.451-1.882c0.038-0.856-1.203-1.082-1.345-0.2
			c-0.75,4.676,6.328,7.104,8.193,2.273C126.198,139.015,125.839,138.843,125.709,139.059z"/>
		<path style="fill:#1D3557;" d="M158.824,138.326c-0.693-0.064-0.57,1.021-1.658,1.946c-2.583,2.199-5.116-0.239-5.415-0.342
			c-1.536-0.529,2.465,4.519,6.26,1.066C158.988,140.108,159.867,138.422,158.824,138.326z"/>
		<path style="fill:#1D3557;" d="M123.547,136.867c-0.204-0.757-0.922-1.529-1.755-1.178c-0.1,0.042-0.061-0.218-0.351-0.173
			c-0.691,0.107-0.944,0.662-1.038,1.358C119.949,140.232,124.369,139.911,123.547,136.867z"/>
		<path style="fill:#1D3557;" d="M156.188,137.61c-0.326-1.069-1.528-1.25-2.02-0.538c-0.344,0.506-0.231,0.086-0.564,0.305
			c-0.788,0.516-0.83,1.759,0.233,2.426C155.044,140.562,156.682,139.228,156.188,137.61z"/>
		<path style="fill:#1D3557;" d="M122.714,144.44c-0.104,0-3.644,0.868-5.085-2.385c-0.326-0.734-0.417,1.255,2.002,2.422
			C122.039,145.637,123.554,144.438,122.714,144.44z"/>
		<path style="fill:#1D3557;" d="M159.246,142.539c-1.344,2.056-3.267,2.787-5.052,2.498c-0.193-0.031-0.257,0.259-0.063,0.298
			C159.073,146.332,160.198,141.082,159.246,142.539z"/>
		<path style="fill:#1D3557;" d="M124.657,156.335c-0.65,2.918,0.24,2.829,0.28,2.441c0.607-5.94,1.092-4.309,3.517-9.742
			C129.144,147.49,125.4,152.993,124.657,156.335z"/>
		<path style="fill:#1D3557;" d="M146.451,147.061c1.056,3.154,3.063,5.753,3.586,8.825c0.258,1.519-0.29,4.31,0.141,3.435
			C152.131,155.342,146.417,146.961,146.451,147.061z"/>
		<path style="fill:#1D3557;" d="M114.092,151.818c-0.554,0.304-0.975,1.038-1.14,1.65c-0.05,0.183,0.255,0.297,0.323,0.061
			C113.488,152.779,114.769,151.445,114.092,151.818z"/>
		<path style="fill:#1D3557;" d="M115.124,152.517c-0.191-0.177-0.521,0.283-0.659,0.504c-0.464,0.74-0.224,1.154,0.129,0.433
			C114.873,152.884,115.323,152.701,115.124,152.517z"/>
		<path style="fill:#1D3557;" d="M116.152,153.041c-0.441-0.249-1.662,3.23,0.049,0.176
			C116.235,153.156,116.213,153.075,116.152,153.041z"/>
		<path style="fill:#1D3557;" d="M162.989,154.698c-0.501-1.245-1.376-1.017-0.996-0.766c0.617,0.408,0.687,1.033,0.744,1.157
			C163.02,155.702,163.167,155.137,162.989,154.698z"/>
		<g>
			<path style="fill:#1D3557;" d="M163.784,153.922C163.784,153.922,163.785,153.922,163.784,153.922
				c0-0.007-0.001-0.015-0.001-0.023C163.787,153.906,163.781,153.914,163.784,153.922z"/>
			<path style="fill:#1D3557;" d="M163.792,154.029c0.001-0.005,0.002-0.009,0.003-0.014
				C163.81,153.95,163.779,153.847,163.792,154.029z"/>
			<path style="fill:#1D3557;" d="M163.669,153.735c-1.339-1.79-0.473,0.72,0.035,0.41
				C163.88,154.037,163.76,153.858,163.669,153.735z"/>
		</g>
		<path style="fill:#1D3557;" d="M164.418,153.08c-0.911-1.576-0.966-1.046-0.238,0.15
			C164.275,153.386,164.513,153.244,164.418,153.08z"/>
		<path style="fill:#1D3557;" d="M106.134,161.952c-12.942,2.623-10.358,16.901-17.625,22.82c-0.478,0.389,1.33,2.356,6.944-11.635
			c1.656-4.126,3.261-6.786,7.015-8.923C102.569,164.156,107.958,161.583,106.134,161.952z"/>
		<path style="fill:#1D3557;" d="M94.282,165.132c-3.3,4.997-2.565,9.122-5.176,12.269c-0.402,0.485,1.043,0.579,2.578-4.673
			c2.124-7.269,4.817-12.205,12.375-13.268C106.013,159.186,99.769,156.824,94.282,165.132z"/>
		<path style="fill:#1D3557;" d="M102.387,148.263c-1.086-0.767-3.597-0.75-4.99-0.442c-4.183,0.924-4.797,3.465-4.056,2.711
			C97.75,146.035,104.212,149.551,102.387,148.263z"/>
		<path style="fill:#1D3557;" d="M106.438,141.518c-0.585-0.408-2.562-0.375-3.27-0.305c-3.519,0.346-3.671,1.573-3.079,1.294
			C103.687,140.814,107.716,142.412,106.438,141.518z"/>
		<path style="fill:#1D3557;" d="M102.734,139.409c-0.293,0.073-0.191,0.525,0.103,0.457c1.655-0.38,2.58,0.109,3.74,0.554
			C107.732,140.863,106.091,138.57,102.734,139.409z"/>
		<path style="fill:#1D3557;" d="M106.606,137.473c-0.308-0.167-0.615,0.326-0.243,0.533c1.006,0.561,1.467,1.178,2.024,1.67
			C108.947,140.172,109.122,138.835,106.606,137.473z"/>
		<path style="fill:#1D3557;" d="M174.979,134.539c-0.738,1.854-3.74,2.28-5.804-1.662c-0.849-1.622-1.341-3.448-2.328-5.01
			c-1.174-1.86-1.536-1.197-1.405-0.939c0.231,0.454,0.581,0.616,1.21,1.768c0.97,1.775,1.476,3.977,2.702,5.629
			c2.149,2.895,5.211,2.278,5.886,0.313C175.291,134.489,175.038,134.391,174.979,134.539z"/>
		<path style="fill:#1D3557;" d="M174.101,137.846c-3.283,0.212-6.005-0.215-6.659-3.429c-0.223-1.096-1.394,1.698,1.709,3.296
			C171.92,139.14,175.479,137.757,174.101,137.846z"/>
		<path style="fill:#1D3557;" d="M172.029,140.804c-2.44-0.196-3.561-2.364-3.688-2.494c-0.983-1.01-0.115,2.889,3.677,2.842
			C172.216,141.15,172.227,140.82,172.029,140.804z"/>
		<path style="fill:#1D3557;" d="M127.702,111.157c-2.136-5.853-8.036-6.577-6.287-5.899c4.721,1.83,5.778,5.618,6.503,8.764
			C128.022,114.475,128.837,114.267,127.702,111.157z"/>
		<path style="fill:#1D3557;" d="M129.297,109.588c-2.322-3.58-2.516-2.474-2.341-2.296c1.916,1.963,2.598,3.45,3.497,5.223
			C130.58,112.767,131.356,112.764,129.297,109.588z"/>
		<path style="fill:#1D3557;" d="M132.11,111.725c-0.862-4.254-3.177-4.94-2.56-4.242c2.11,2.389,2.083,4.656,2.255,5.026
			C131.858,112.624,132.356,112.936,132.11,111.725z"/>
		<path style="fill:#1D3557;" d="M150.99,100.074c-4.209,2.243-6.507,7.012-6.135,10.442c0.272,2.518-0.505-6.428,6.262-10.114
			C151.312,100.296,151.191,99.968,150.99,100.074z"/>
		<path style="fill:#1D3557;" d="M145.252,103.546c-3.246,3.872-2.189,7.009-2,5.765c0.311-2.036,0.991-3.924,2.299-5.538
			C145.703,103.585,145.407,103.362,145.252,103.546z"/>
		<path style="fill:#1D3557;" d="M141.122,105.282c0.761-1.354-2.554,2.011-1.252,5.798
			C140.372,112.543,139.455,108.253,141.122,105.282z"/>
		<path style="fill:#1D3557;" d="M195.589,169.32c-6.797,2.003-4.735-21.346-19.521-24.176c-2.278-0.436,4.445,1.798,7.727,5.472
			c4.094,4.585,4.297,10.365,6.966,15.157C194.247,172.033,196.727,168.985,195.589,169.32z"/>
		<path style="fill:#1D3557;" d="M194.16,162.445c-5.636-4.542-4.472-17.135-12.071-18.015c-0.238-0.027-0.352,0.364-0.127,0.459
			c8.65,3.642,5.659,12.908,11.971,17.854C194.124,162.893,194.348,162.596,194.16,162.445z"/>
		<path style="fill:#1D3557;" d="M110.444,173.501c-13.381,7.278-8.227,27.658-13.082,36.435c-0.03,0.054,0.054,0.089,0.085,0.039
			c6.269-10.102-1.789-22.667,13.315-36.075C110.988,173.699,110.689,173.367,110.444,173.501z"/>
		<path style="fill:#1D3557;" d="M106.576,171.353c-13.558,7.659-7.956,22.535-9.822,30.192c-0.043,0.177,0.225,0.239,0.274,0.065
			c2.493-8.964-3.93-20.318,9.756-29.921C106.965,171.562,106.773,171.242,106.576,171.353z"/>
		<path style="fill:#1D3557;" d="M115.391,185.467c-15.777,11.048-2.147,26.392-15.87,39.87c-1.754,1.722,7.34-2.256,7.656-19.933
			c0.133-7.49,2.674-14.63,8.63-19.43C116.14,185.706,115.733,185.227,115.391,185.467z"/>
		<path style="fill:#1D3557;" d="M103.651,196.558c-1.072,7.019,1.197,14.962-3.159,21.192c-0.129,0.184,0.142,0.404,0.275,0.219
			c7.775-10.79-3.94-20.22,12.123-36.051C115.212,179.63,105.484,184.553,103.651,196.558z"/>
		<path style="fill:#1D3557;" d="M208.046,194.04c-34.905-25.388-8.683-28.07-31.382-38.335c-0.329-0.149-0.574,0.348-0.246,0.506
			c15.518,7.449,8.455,11.851,12.92,20.257C195.293,187.678,211.32,196.423,208.046,194.04z"/>
		<path style="fill:#1D3557;" d="M198.726,191.033c-11.206-3.049-10.151-18.25-17.081-26.312c-4.599-5.351-8.713-4.47-7.477-4.027
			c16.399,5.889,9.649,26.836,24.416,30.736C198.844,191.499,198.989,191.104,198.726,191.033z"/>
		<path style="fill:#1D3557;" d="M189.587,215.743c-3.982-6.599-5.249-8.324-5.509-10.669c-0.335-3.02,1.579-5.235,0.042-10.213
			c-3.732-12.089-11.652-2.375-15.054-28.082c-0.471-3.585-1.443,12.485,7.105,19.434c15.084,12.262,3.197,13.753,9.366,23.725
			c1.244,2.012,2.512,4.009,3.768,6.014C189.425,216.145,189.703,215.935,189.587,215.743z"/>
		<path style="fill:#1D3557;" d="M186.501,195.988c-2.176-9.481-5.01-10.025-7.958-12.772c-4.628-4.313-3.015-10.375-2.938-14.828
			c0.031-1.932-1.829,3.102-0.647,9.237c1.548,8.034,12.99,7.991,12.123,29.326C187.012,208.667,188.353,204.056,186.501,195.988z"
			/>
		<path style="fill:#1D3557;" d="M126.144,223.977c-4.813-9.03-1.85-12.498,0.877-22.171c0.636-2.254-3.412,6.121-3.95,12.363
			c-0.861,10.004,9.556,16.343,8.884,25.834c-0.012,0.171,0.286,0.196,0.301,0.024C132.775,234.014,128.821,229.001,126.144,223.977
			z"/>
		<path style="fill:#1D3557;" d="M125.931,235.255c-11.514-17.376-15.675-17.985-5.497-32.66c0.709-1.023-2.04,0.145-4.819,6.836
			c-3.422,8.236-0.257,10.792,3.958,16.997C126.07,235.992,126.307,235.822,125.931,235.255z"/>
		<path style="fill:#1D3557;" d="M157.712,212.029c-1.281-2.987-3.194-5.924-2.721-9.315c0.038-0.274-0.369-0.298-0.42-0.037
			c-1.166,5.934,5.378,9.668,3.537,18.946c-1.369,6.9-5.882,12.61-7.838,19.312c-0.055,0.19,0.277,0.291,0.334,0.099
			C153.366,231.796,162.225,222.557,157.712,212.029z"/>
		<path style="fill:#1D3557;" d="M162.458,216.02c-0.695-8.63-4.712-17.197-3.988-14.157c1.115,4.691,6.677,16.85,1.251,27.086
			C158.689,230.899,163.262,226.026,162.458,216.02z"/>
		<path style="fill:#1D3557;" d="M172.626,207.808c-3.451-4.3-11.034-8.032-9.279-19.421c0.293-1.908-2.318,3.08,0.495,9.673
			c3.146,7.369,16.138,12.359,12.678,28.416C176.112,228.375,180.41,217.509,172.626,207.808z"/>
		<path style="fill:#1D3557;" d="M175.591,202.361c-4.946-6.697-6.132-5.553-5.825-15.411c0.049-1.573-1.641,1.737-0.269,6.968
			c1.74,6.639,10.412,9.949,10.551,23.25C180.082,220.247,182.06,211.12,175.591,202.361z"/>
		<path style="fill:#1D3557;" d="M143.359,218.887c1.212-6.316-5.693-18.601-4.717-15.615c0.977,2.981,2.382,5.799,3.474,8.739
			c2.537,6.829-1.219,10.297-1.386,16.532c-0.159,5.885,2.111,8.559,1.647,7.335C139.425,228.1,142.476,223.488,143.359,218.887z"/>
		<path style="fill:#1D3557;" d="M143.587,203.633c-1.062-2.205,2.095,7.324,2.565,12.525c0.598,6.621-1.111,15.348-0.678,13.586
			C147.519,221.406,147.373,211.498,143.587,203.633z"/>
		<path style="fill:#1D3557;" d="M105.898,230.906c0.152-0.228-0.18-0.449-0.348-0.238c-13.803,17.258,3.928,26.51-0.511,37.737
			c-0.066,0.166,0.179,0.301,0.248,0.133C110.105,256.717,92.722,250.649,105.898,230.906z"/>
		<path style="fill:#1D3557;" d="M112.463,234.789c-6.718,7.545-7.412,19.401-2.502,28.059c0.104,0.184,0.369-0.006,0.269-0.189
			C101.416,246.665,115.432,231.453,112.463,234.789z"/>
		<path style="fill:#1D3557;" d="M119.599,263.321c-4.255-9.183,3.954-22.271,2.252-19.635
			c-12.377,19.189,6.269,24.994,2.292,34.477c-0.063,0.15,0.156,0.28,0.224,0.127C126.835,272.736,121.753,267.969,119.599,263.321z
			"/>
		<path style="fill:#1D3557;" d="M129.544,272.145c-4.434-6.732-4.365-12.515-3.344-19.076c0.519-3.318-4.81,8.165,3.19,19.181
			C129.452,272.334,129.603,272.233,129.544,272.145z"/>
		<path style="fill:#1D3557;" d="M144.109,263.823c3.608-9.422-2.832-18.193-1.985-15.673c0.997,2.962,2.399,5.695,2.677,8.865
			c0.566,6.445-5.549,11.521-3.263,24.605C141.869,283.51,139.908,274.797,144.109,263.823z"/>
		<path style="fill:#1D3557;" d="M138.785,262.017c-0.698-7.933-1.766-7.69-1.677-6.992c0.157,1.233,1.562,5.717,1.548,12.989
			C138.654,268.768,139.229,267.071,138.785,262.017z"/>
		<path style="fill:#1D3557;" d="M158.79,246.112c-0.149-0.241-0.517-0.065-0.398,0.2c8.549,18.978-5.727,25.142-0.812,33.934
			c0.116,0.207,0.463,0.069,0.347-0.143C153.467,271.944,168.307,261.459,158.79,246.112z"/>
		<path style="fill:#1D3557;" d="M152.283,250.726c-0.083-0.148-0.343-0.025-0.271,0.132c2.292,5.005,5.276,10.793,2.46,16.229
			C154.29,267.438,159.281,263.216,152.283,250.726z"/>
		<path style="fill:#1D3557;" d="M174.93,272.749c-10.534-7.574,2.796-20.187-11.111-33.529c-1.289-1.235,3.262,4.471,4.836,8.636
			c3.639,9.628,0.143,13.814,1.685,19.047C171.859,272.055,176.158,273.634,174.93,272.749z"/>
		<path style="fill:#1D3557;" d="M168.497,238.231c-1.094-1.632,5.221,8.929,7.165,19.034
			C176.164,259.875,175.76,249.063,168.497,238.231z"/>
		<path style="fill:#1D3557;" d="M131.317,153.536c0.059,0.325,0.416,0.355,0.364-0.103c-0.031-0.242,0.06-0.49,0.035-0.411
			C132.06,151.991,131.186,152.805,131.317,153.536z"/>
		<path style="fill:#1D3557;" d="M132.664,151.807c-0.233,0.034-0.155,0.282-0.135,1.115c0.005,0.196,0.299,0.195,0.304-0.015
			C132.852,152.151,132.93,151.768,132.664,151.807z"/>
		<path style="fill:#1D3557;" d="M134.023,151.425c-0.379-1.379-0.28,0.315-0.337,0.515
			C133.595,152.254,134.228,152.171,134.023,151.425z"/>
		<path style="fill:#1D3557;" d="M135.228,150.176c-0.568,0.082,0.192,2.953,0.192,0.752
			C135.42,150.482,135.484,150.139,135.228,150.176z"/>
		<path style="fill:#1D3557;" d="M136.885,150.35c-0.753,0.004,0.225,2.477,0.225,0.673
			C137.11,150.432,137.094,150.349,136.885,150.35z"/>
		<path style="fill:#1D3557;" d="M138.656,151.301c-0.368-1.104-0.725-0.85-0.454-0.037
			C138.433,151.958,138.783,151.687,138.656,151.301z"/>
		<path style="fill:#1D3557;" d="M139.796,151.016c-0.115-0.793-0.584,1.188-0.112,1.13
			C139.966,152.112,139.837,151.297,139.796,151.016z"/>
		<path style="fill:#1D3557;" d="M141.018,151.485c-0.051-0.285-0.463-0.19-0.416,0.073
			C140.896,153.177,141.476,154.005,141.018,151.485z"/>
		<path style="fill:#1D3557;" d="M142.163,152.069c-0.231,0.124,0.05,0.27,0.133,0.865
			C142.64,155.395,142.902,151.673,142.163,152.069z"/>
		<path style="fill:#1D3557;" d="M143.992,153.959c-0.418-1.282-0.673-0.83-0.368,0.148
			C143.705,154.372,144.102,154.297,143.992,153.959z"/>
		<path style="fill:#1D3557;" d="M104.096,127.756c-2.114-1.005,0.823-4.046-1.536-6.02c-1.758-1.471-4.518-3.44-2.499-6.209
			c0.635-0.871-1.838-0.269-1.204,2.637c0.634,2.907,3.604,3.52,4.104,4.937c0.478,1.356-1.036,4.103,0.991,5.002
			C104.174,128.201,104.313,127.859,104.096,127.756z"/>
		<path style="fill:#1D3557;" d="M183.621,115.846c-0.079,0.543,0.151,1.142,0.157,1.7c0.073,6.706-6.225,4.038-5.221,11.141
			c0.03,0.211,0.324,0.186,0.327-0.024c0.116-7.232,4.196-3.729,5.507-9.818C185.092,115.594,183.746,114.986,183.621,115.846z"/>
		<path style="fill:#1D3557;" d="M134.022,297.345c-5.477,17.518-21.849,28.93-28.165,45.854c-1.876,5.026-2.372,11.63-6.517,14.588
			c-3.829,2.732-4.296,1.116-7.247,8.022c-2.424,5.671-6.051,10.982-12.035,12.487c-4.434,1.116-20.808-0.231-23.474-1.16
			c-7.019-2.446-6.424-12.11,5.078-14.682c20.981-4.693,23.283-22.795,38.889-80.052c7.543-27.679-9.93,33.72-15.207,50.943
			c-11.381,37.141-26.116,22.214-33.077,33.867c-2.985,4.998-1.025,10.865,8.683,11.692c0.105,0.009,12.031,0.758,12.139,0.764
			c18.767,0.925,18.181-15.176,23.152-19.088c2.334-1.837,5.72-1.604,8.177-9.856c7.717-25.919,20.167-29.529,28.564-48.335
			C136.057,295.506,134.106,297.077,134.022,297.345z"/>
		<path style="fill:#1D3557;" d="M139.401,286.972c-0.425,2.571-1.364,5.026-2.761,7.226c-0.786,1.239,2.143-0.578,3.364-7.136
			C140.075,286.676,139.465,286.584,139.401,286.972z"/>
		<path style="fill:#1D3557;" d="M61.701,368.168c-4.503,0.469-6.111,7.295-1.452,9.561c0.189,0.092,0.365-0.207,0.185-0.323
			c-3.553-2.277-3.06-7.304,1.41-8.651C62.181,368.654,62.037,368.133,61.701,368.168z"/>
		<path style="fill:#1D3557;" d="M105.401,298.399c-9.424,22.9-8.079,23.767,0.347,0.144
			C105.828,298.316,105.493,298.174,105.401,298.399z"/>
		<path style="fill:#1D3557;" d="M116.642,311.457c-0.133-0.305-0.494-0.233,1.849,5.021
			C118.537,316.581,119.353,317.661,116.642,311.457z"/>
		<path style="fill:#1D3557;" d="M118.581,311.736c-0.089-0.207-0.415-0.084-0.328,0.126
			C120.119,316.38,120.546,316.298,118.581,311.736z"/>
		<path style="fill:#1D3557;" d="M121.627,312.785c-0.633-0.872-1.09-1.504-1.368-2.762c-0.049-0.219-0.758-0.359,0.197,1.608
			C121.389,313.555,121.777,312.992,121.627,312.785z"/>
		<path style="fill:#1D3557;" d="M95.798,344.988c-1.411,6.511-0.705,8.158,0.254,0.033
			C96.069,344.875,95.828,344.846,95.798,344.988z"/>
		<path style="fill:#1D3557;" d="M97.152,343.948c-0.242-1.377-0.261,2.966-0.681,4.885
			C96.212,350.026,97.774,347.501,97.152,343.948z"/>
		<path style="fill:#1D3557;" d="M98.975,341.814c-0.092-0.187-0.368-0.096-0.309,0.111c0.419,1.476,0.532,2.641-0.031,4.091
			C98.148,347.273,100.398,344.7,98.975,341.814z"/>
		<path style="fill:#1D3557;" d="M222.153,262.679c-8.139,5.379-6.642,19.977-6.702,30.901c-0.391,70.187,2.664,56.039,0.77,61.684
			c-0.939,2.8-2.958,3.439-4.028,7.412c-2.082,7.731,2.929,19.282-16.466,22.155c-22.382,3.315-23.737-11.774-11.895-17.065
			c5.999-2.68,10.189-0.714,11.826,2.88c0.483,1.06-0.07-3.297-4.985-4.537c2.271-4.056,1.411-6.543-1.283-31.836
			c-1.924-18.065-2.025-18.355-6.913-33.949c-3.879-12.375-4.342-21.547-4.332-19.257c0.053,16.131,7.178,20.586,10.185,49.087
			c2.943,27.886,4.092,31.718,1.638,35.828c-14.192-2.272-23.739,22.064,1.848,20.111c28.182-2.151,16.543-18.45,23.287-27.212
			c4.212-5.472,2.012-10.447,1.455-17.938c-0.496-6.667-0.244-12.405-0.071-35.508c0.19-25.341-1.173-35.928,6.278-42.045
			C223.246,262.994,222.639,262.358,222.153,262.679z"/>
		<path style="fill:#1D3557;" d="M225.272,256.548c-2.595,1.558-6.082,1.4-8.354-0.668c-0.168-0.153-0.384,0.122-0.219,0.275
			C221.762,260.874,227.254,255.361,225.272,256.548z"/>
		<path style="fill:#1D3557;" d="M223.466,258.917c-3.093,2.346-7.782,1.465-6.606,1.764
			C221.882,261.96,224.732,257.956,223.466,258.917z"/>
		<path style="fill:#1D3557;" d="M218.353,252.727c-3.465-5.107,2.272-14.454-3.026-24.548c-0.139-0.265-0.536-0.073-0.47,0.202
			c4.496,18.565-0.288,19.667,3.275,24.479C218.229,252.99,218.448,252.867,218.353,252.727z"/>
		<path style="fill:#1D3557;" d="M192.106,372.439c-4-0.891-8.066,3.767-6.22,9.315c0.357,1.072,1.77,3.86,2.899,3.889
			c1.644,0.042-3.312-2.669-2.423-7.94C187.37,371.73,194.158,372.896,192.106,372.439z"/>
		<path style="fill:#1D3557;" d="M200.644,292.083c-3.786,5.968-1.862,16.032-1.922,13.454c-0.159-7.232,1.992-11.605,2.437-13.218
			C201.234,292.046,200.799,291.838,200.644,292.083z"/>
		<path style="fill:#1D3557;" d="M212.324,346.266c-0.935,0.228-1.959,0.011-2.667-0.651c-0.176-0.164-0.404,0.136-0.227,0.299
			C211.265,347.594,213.182,346.057,212.324,346.266z"/>
		<path style="fill:#1D3557;" d="M211.962,343.564c-0.935,0.277-1.75,0.06-2.276-0.39c-0.348-0.297-0.257,0.585,1.048,0.839
			C212.283,344.315,212.38,343.44,211.962,343.564z"/>
		<path style="fill:#1D3557;" d="M212.594,339.981c-0.214,0.194-1.031,1.331-2.677,1.435c-0.794,0.05,0.734,0.923,2.376-0.52
			C213.246,340.059,212.742,339.846,212.594,339.981z"/>
		<path style="fill:#1D3557;" d="M197.876,270.804c-1.35,1.609-2.951,2.639-5.084,2.837c-1.525,0.142,2.939,1.054,5.359-2.618
			C198.274,270.837,198.025,270.628,197.876,270.804z"/>
		<path style="fill:#1D3557;" d="M199.685,271.219c-1.044,1.778-3.513,3.955-2.604,3.354
			C199.66,272.864,200.122,270.475,199.685,271.219z"/>
		<path style="fill:#1D3557;" d="M200.705,271.916c-2.232,3.901-1.127,3.09-1.076,2.986
			C201.402,271.306,200.797,271.754,200.705,271.916z"/>
		<path style="fill:#1D3557;" d="M194.576,344.192c-0.869-0.105-1.599-0.513-1.923-1.341c-0.088-0.225-0.432-0.082-0.346,0.143
			C193.17,345.267,195.617,344.319,194.576,344.192z"/>
		<path style="fill:#1D3557;" d="M195.891,341.092c-0.803,0.441-1.959,0.379-2.64-0.365c-0.614-0.672,0.056,1.443,2.017,0.95
			C196.32,341.413,196.081,340.988,195.891,341.092z"/>
		<path style="fill:#1D3557;" d="M195.922,338.187c-1.391,0.235-2.482-0.319-3.052-1.242c-0.095-0.154-0.329-0.006-0.238,0.15
			C194.229,339.851,197.252,337.962,195.922,338.187z"/>
		<path style="fill:#1D3557;" d="M485.207,286.652c-10.209-3.225-21.058-0.942-30.597,8.893c-4.933,5.087-8.918,7.131-18.358,2.723
			c-30.271-14.135-28.389-59.316-35.04-83.868c-9.09-33.552-39.155-57.731-71.901-60.906c-37.606-3.646-73.476,22.423-132.493-10.68
			c-0.233-0.131-0.474,0.206-0.238,0.348c49.941,30.169,93.686,11.66,121.828,10.765c37.361-1.188,69.378,23.507,80.187,54.607
			c9.557,27.499,4.679,67.505,31.211,86.84c28.23,20.57,23.257-17.506,54.844-8.029c-2.647,12.847-12.465,22.485-18.952,24.522
			c-5.05,1.585-9.001-1.289-13.463-2.535c-12.818-3.58-36.037,5.524-60.259-57.687c-0.242-0.633-1.245-0.305-1.001,0.331
			c24,62.633,42.087,52.478,67.376,60.638C475.26,318.07,487.712,287.444,485.207,286.652z"/>
		<path style="fill:#1D3557;" d="M481.538,289.528c-11.161-1.22-18.956,4.116-16.08,3.248c1.91-0.576,7.089-3.446,16.02-2.925
			C481.683,289.862,481.752,289.551,481.538,289.528z"/>
		<path style="fill:#1D3557;" d="M480.127,291.672c-11.651-0.563-18.654,5.742-15.99,4.319c4.913-2.627,10.347-4.076,15.938-3.948
			C480.313,292.049,480.37,291.684,480.127,291.672z"/>
		<path style="fill:#1D3557;" d="M478.573,294.388c-8.289,3.681-14.349,2.66-15.953,2.856c-1.426,0.174,0.758,1.455,8.114,0.051
			C477.576,295.989,479.648,293.911,478.573,294.388z"/>
		<path style="fill:#1D3557;" d="M477.575,297.722c-5.495,2.508-9.325,2.558-14.993,2.565c-1.894,0.002,5.213,2.607,15.143-2.327
			C477.889,297.878,477.736,297.648,477.575,297.722z"/>
		<path style="fill:#1D3557;" d="M473.086,302.699c-7.981,4.102-14.645,1.06-15.985,0.753c-1.967-0.45,1.397,2.495,8.158,2.003
			C471.016,305.035,474.463,301.991,473.086,302.699z"/>
		<path style="fill:#1D3557;" d="M468.865,307.69c-5.479,1.396-8.896,2.318-13.91-0.203c-1.301-0.654,0.266,2.551,6.231,2.285
			C465.484,309.58,470.129,307.37,468.865,307.69z"/>
		<path style="fill:#1D3557;" d="M408.775,309.671c-2.094-6.42-9.651-7.289-14.682-12.419
			c-23.137-23.588,12.939-59.072-1.066-87.008c-0.093-0.185-0.401-0.081-0.309,0.111c13.855,28.764-27.866,72.563,7.312,92.005
			c12.628,6.979,9.816,6.653,0.226,58.28c-1.359,7.316-2.525,16.923-9.119,21.598c-2.629,1.865-6.087,2.442-9.088,1.108
			c-7.809-3.472-1.467-13.53,0.469-20.165c4.626-15.856,3.266-34.158-6.209-47.686c-13.892-19.835-29.348-14.215-55.4-55.385
			c-19.853-31.381-32.449,21.791-103.221,10.418c-0.668-0.108-0.88,0.926-0.207,1.034c51.408,8.263,78.121-20.746,89.565-20.517
			c11.648,0.233,12.022,13.488,29.04,31.389c14.126,14.859,26.61,19.039,36.16,29.633c11.671,12.948,14.26,32.367,9.651,49.591
			c-2.299,8.593-7.361,15.458-2.985,20.496c3.699,4.258,14.468,5.376,19.541-9.84C399.694,368.593,410.664,315.465,408.775,309.671z
			"/>
		<path style="fill:#1D3557;" d="M322.129,197.977c0.716-1.796-3.113,0.732-4.183,9.312c-1.356,10.874,8.679,22.004-1.608,33.049
			c-1.875,2.014,8.027-4.791,5.013-18.21C319.515,213.95,316.403,212.34,322.129,197.977z"/>
		<path style="fill:#1D3557;" d="M377.436,239.738c-1.81,6.229-5.445,11.832-10.697,15.686c-0.219,0.161,0.056,0.476,0.275,0.32
			C377.814,248.031,378.351,236.586,377.436,239.738z"/>
		<path style="fill:#1D3557;" d="M390.362,383.111c-6.225-1.236-7.381-6.859-4.529-10.402c0.163-0.202-0.157-0.424-0.323-0.233
			c-2.595,2.98-2.271,7.797,1.229,10.206C390.106,385,391.36,383.31,390.362,383.111z"/>
		<path style="fill:#1D3557;" d="M384.024,348.717c-4.083,6.924-18.564,29.772-22.297,32.264c-2.574,1.719-16.617,1.654-17.106,1.41
			c-5.119-2.534-4.542-10.112,1.65-11.88c2.099-0.599-5.163-0.865-5.956,5.475c-0.307,2.452,0.808,4.871,2.685,6.395
			c-15.086-1.581-11.392-17.799,4.517-17.311c5.184,0.159,7.622,1.137,12.15-8.797c9.922-21.769-0.932-35.147-21.63-72.849
			c-1.29-2.349,3.651,7.617,10.279,19.974c8.698,16.215,20.816,32.844,10.011,53.959c-4.279,8.361-5.781,7.11-10.819,6.952
			c-9.413-0.295-14.238,4.575-14.741,9.694c-1.295,13.173,26.825,9.432,29.476,7.674c2.199-1.459,7.007-8.502,10.085-12.94
			C388.461,345.48,384.239,348.353,384.024,348.717z"/>
		<path style="fill:#1D3557;" d="M400.87,314.76c-0.98-5.125-3.256-6.529-2.809-5.305c0.396,1.088,2.991,5.039,2.463,11.077
			C400.427,321.637,401.791,319.572,400.87,314.76z"/>
		<path style="fill:#1D3557;" d="M397.386,246.126c-0.052,1.385-0.713,2.705-1.87,3.488c-0.162,0.11,0.005,0.362,0.169,0.254
			C398.544,247.986,397.429,245.001,397.386,246.126z"/>
		<path style="fill:#1D3557;" d="M398.825,249.577c-0.364,1.238-0.72,2.103-1.961,2.689c-0.811,0.383,1.094,0.639,2.047-1.73
			C399.427,249.253,398.88,249.391,398.825,249.577z"/>
		<path style="fill:#1D3557;" d="M399.693,253.756c-0.204,0.247-2.885,6.212-0.041,0.851
			C400.22,253.535,399.777,253.654,399.693,253.756z"/>
		<path style="fill:#1D3557;" d="M351.443,297.1c-2.083,2.786-1.235,2.447-1.139,2.303
			C352.196,296.572,351.543,296.967,351.443,297.1z"/>
		<path style="fill:#1D3557;" d="M353.562,299.226c-1.319,2.713-0.621,3.203,0.04,1.189
			C354.193,298.61,353.61,299.126,353.562,299.226z"/>
		<path style="fill:#1D3557;" d="M356.306,301.227c-1.291,1.075-2.516,4.322-0.093,0.765
			C356.778,301.162,356.418,301.134,356.306,301.227z"/>
		<path style="fill:#1D3557;" d="M227.194,173.947c-5.174-4.583-4.547-3.335-4.416-3.225
			C228.051,175.148,227.3,174.04,227.194,173.947z"/>
		<path style="fill:#1D3557;" d="M228.981,170.424c-0.277,0.016-1.381,0.374-2.48-0.632c-0.67-0.613-0.482,1.254,2,1.123
			C229.576,170.857,229.359,170.402,228.981,170.424z"/>
		<path style="fill:#1D3557;" d="M230.427,166.228c-1.256,0.619-2.758,0.689-4.022,0.063c-0.217-0.107-0.359,0.24-0.144,0.346
			C229.268,168.128,231.406,165.746,230.427,166.228z"/>
		<path style="fill:#1D3557;" d="M284.224,238.993c-2.973,3.336-7.754,3.833-6.842,3.815
			C282.784,242.709,285.214,237.883,284.224,238.993z"/>
		<path style="fill:#1D3557;" d="M282.145,236.919c-0.869,1.073-2.02,1.833-3.406,2.015c-0.284,0.037-0.196,0.479,0.087,0.437
			C282.114,238.878,282.774,236.142,282.145,236.919z"/>
		<path style="fill:#1D3557;" d="M283.03,234.315c-5.146,1.89-6.083,3.653,0.116,0.253
			C283.284,234.493,283.18,234.26,283.03,234.315z"/>
		<path style="fill:#1D3557;" d="M354.999,192.729c-0.255-0.013-0.302,0.379-0.044,0.396c1.726,0.114,3.103,1.684,3.14,3.388
			c0.005,0.225,0.384,0.217,0.395-0.007C358.586,194.581,356.908,192.824,354.999,192.729z"/>
		<path style="fill:#1D3557;" d="M360.009,192.179c-1.576-1.462-2.108-0.389-1.618-0.301c1.03,0.185,1.78,0.997,2.02,1.837
			C360.578,194.304,361.45,193.517,360.009,192.179z"/>
		<path style="fill:#1D3557;" d="M362.027,189.338c-2.211-1.305-1.868-0.334-1.617-0.207
			C362.769,190.314,362.128,189.398,362.027,189.338z"/>
		<path style="fill:#1D3557;" d="M337.653,271.218c-2.069-3.93-1.39-8.587-1.612-7.646
			C334.702,269.271,338.463,272.759,337.653,271.218z"/>
		<path style="fill:#1D3557;" d="M339.622,269.533c-1.695-3.862-0.922-0.454,0.451,1.875
			C340.131,271.508,340.718,272.031,339.622,269.533z"/>
		<path style="fill:#1D3557;" d="M343.876,270.525c-2.495-3.535-3.81-4.148-0.268,0.189C343.74,270.875,344,270.7,343.876,270.525z"
			/>
		<path style="fill:#1D3557;" d="M369.757,364.174c-1.435-2.242-1.407-2.328-1.643-2.175c-0.256,0.166-0.065,0.286,1.36,2.384
			C369.602,364.572,369.878,364.364,369.757,364.174z"/>
		<path style="fill:#1D3557;" d="M371.261,359.875c-0.07-0.361,0.158-0.563-0.069-0.657c-0.757-0.312-0.151,2.34,1.278,1.56
			C373.035,360.469,371.261,360.766,371.261,359.875z"/>
		<path style="fill:#1D3557;" d="M373.948,357.849c-1.627-1.22-1.916-0.584-1.571-0.411
			C374.318,358.407,374.049,357.924,373.948,357.849z"/>
		<path style="fill:#1D3557;" d="M396.684,336.931c-0.48,1.39-1.734,2.553-3.286,2.731c-0.681,0.079,0.36,1.056,2.281-0.589
			C397.29,337.693,396.911,336.271,396.684,336.931z"/>
		<path style="fill:#1D3557;" d="M397.54,339.728c-3.058,2.986-2.754,3.205,0.229,0.201
			C397.908,339.79,397.68,339.592,397.54,339.728z"/>
		<path style="fill:#1D3557;" d="M398.955,342.539c-3.025,2.852-2.581,3.162-0.266,0.763
			C399.547,342.413,399.057,342.443,398.955,342.539z"/>
		<path style="fill:#1D3557;" d="M377.388,264.989c-0.061-0.104-2.106-2.391-2.368-2.166
			C374.7,263.098,378.131,266.261,377.388,264.989z"/>
		<path style="fill:#1D3557;" d="M379.374,259.912c-0.912,0.226-1.936,0.021-2.653-0.592c-0.125-0.107-0.302,0.069-0.18,0.185
			C378.49,261.351,380.463,259.643,379.374,259.912z"/>
		<path style="fill:#1D3557;" d="M380.298,256.466c-0.115-0.131-1.585-1.039-1.771-0.685
			C378.269,256.275,380.975,257.26,380.298,256.466z"/>
		<path style="fill:#1D3557;" d="M72.714,378.721c-2.499-2.441-2.774-6.684-0.703-9.471c0.153-0.206-0.166-0.435-0.323-0.233
			c-2.294,2.95-2.028,7.484,0.588,10.152C72.594,379.495,73.045,379.044,72.714,378.721z"/>
		<path style="fill:#1D3557;" d="M291.4,181.179c-2.06,0.684-4.377,0.343-6.038-1.092c-0.137-0.118-0.327,0.085-0.191,0.206
			C288.884,183.585,292.88,180.686,291.4,181.179z"/>
		<path style="fill:#1D3557;" d="M292.693,177.502c-1.164,0.849-2.862,0.876-3.993-0.044c-0.152-0.123-0.354,0.103-0.202,0.229
			C291.285,179.983,293.714,176.756,292.693,177.502z"/>
		<path style="fill:#1D3557;" d="M294.163,174.732c-0.107,0.002-3.014,0.61-2.971,0.921
			C291.252,176.086,295.738,174.708,294.163,174.732z"/>
		<path style="fill:#1D3557;" d="M224.934,226.462c-1.363,0.134-2.801-0.734-3.176-2.118c-0.183-0.674-0.901,0.714,1.002,1.916
			C224.393,227.29,225.583,226.399,224.934,226.462z"/>
		<path style="fill:#1D3557;" d="M224.952,221.554c-1.052,0.031-2.068-0.524-2.614-1.422c-0.109-0.18-0.381,0.01-0.268,0.189
			C223.532,222.652,226.092,221.52,224.952,221.554z"/>
		<path style="fill:#1D3557;" d="M227.053,218.77c-1.048,0.006-2.072-0.528-2.625-1.424c-0.103-0.167-0.357,0.002-0.254,0.169
			C225.606,219.832,228.168,218.763,227.053,218.77z"/>
		<path style="fill:#1D3557;" d="M223.524,254.436c-1.856,0.56-3.038-0.699-3.36-0.859c-0.488-0.242-0.466,0.917,1.517,1.318
			C223.865,255.336,224.018,254.286,223.524,254.436z"/>
	</g>
</g>
</svg>
