<?xml version="1.0" encoding="utf-8"?>
<!-- Generator: Adobe Illustrator 27.5.0, SVG Export Plug-In . SVG Version: 6.00 Build 0)  -->
<svg version="1.1" xmlns="http://www.w3.org/2000/svg" xmlns:xlink="http://www.w3.org/1999/xlink" x="0px" y="0px"
	 viewBox="0 0 500 500" style="enable-background:new 0 0 500 500;" xml:space="preserve">
<g id="BACKGROUND">
	<rect style="fill:#FFFFFF;" width="500" height="500"/>
</g>
<g id="OBJECTS">
	<g>
		<path style="fill:#F2E9DB;" d="M370.491,337.072c-41.799,21.211-85.37,40.814-131.866,46.746
			c-46.496,5.931-96.841-3.447-131.958-34.495c-37.035-32.743-52.012-84.923-50.773-134.342
			c0.619-24.668,5.349-50.452,20.911-69.602c17.943-22.08,46.95-31.538,74.701-37.811c41.51-9.382,84.069-14.11,126.625-14.066
			c35.278,0.037,72.752,4.169,100.59,25.838c26.316,20.483,39.788,53.649,45.668,86.474c4.443,24.807,5.111,50.869-2.956,74.746
			C413.367,304.44,394.986,324.642,370.491,337.072z"/>
		<g>
			<path style="fill:#F2DEBF;" d="M360.47,108.116c-12.772-6.139-26.741-9.819-41.11-11.948
				c-17.378,45.117-41.167,88.988-80.334,116.65c-27.463,19.398-60.691,29.354-94.052,33.54c-29.282,3.674-58.884,3.13-87.316,2.612
				c4.989,38.225,20.423,75.08,49.009,100.353c11.62,10.273,24.913,18.16,39.176,23.918c7.351-3.03,14.533-6.535,21.501-10.24
				C264.481,311.357,336.803,215.471,360.47,108.116z"/>
			<path style="fill:#F2DEBF;" d="M154.081,175.217c24.825-16.152,39.814-45.948,39.08-75.436
				c-13.975,2.084-27.874,4.675-41.656,7.789c-27.751,6.272-56.758,15.73-74.701,37.811c-7.6,9.352-12.612,20.289-15.828,31.904
				C90.448,193.182,127.231,192.686,154.081,175.217z"/>
		</g>
	</g>
	<path style="opacity:0.15;fill:#2D3038;" d="M136.559,403.39c0-11.538,53.196-13.74,122.295-13.74s126.265,4.748,126.265,16.286
		c0,11.538-55.756,28.966-124.855,28.966C191.165,434.902,136.559,414.928,136.559,403.39z"/>
	<g>
		<path style="fill:#2D3038;" d="M381.769,356.459c4.286,1.144,8.992,0.869,13.225-0.56c6.043-2.041,11.188-6.223,15.282-11.113
			c2.395-2.859,4.519-6.083,5.287-9.733c0.182-0.863,0.26-1.848-0.276-2.55c-0.739-0.965-2.23-0.881-3.367-0.452
			c-1.138,0.43-2.242,1.118-3.456,1.06c2.257-3.389,4.729-6.332,6.414-9.738c0.234-0.472,0.455-0.964,0.495-1.488
			c0.042-0.524-0.128-1.094-0.551-1.407c-0.472-0.352-1.122-0.308-1.703-0.214c-2.067,0.334-4.061,1.11-5.811,2.262
			c5.124-10.836,7.51-22.359,7.252-33.829c-0.057-2.54-0.435-5.439-2.531-6.878c-2.064-1.415-4.882-0.763-7.174,0.237
			c-4.267,1.859-8.064,4.773-10.992,8.389c-0.335-3.4-0.833-6.788-1.502-10.152c-5.229-26.274-22.235-49.477-48.596-61.384
			c-22.064-9.967-46.704-14.885-70.567-10.797c-19.313,3.309-37.694,11.802-52.825,24.241c-2.155-3.876-4.642-7.566-7.43-11.015
			c3.708-9.718,8.483-20.063,16.006-28.228c3.783-4.106,8.208-7.605,11.792-11.887c8.734-10.438,11.694-24.598,12.042-38.205
			c0.127-4.988-0.058-10.016-1.137-14.888c-0.595-2.689-1.462-5.324-1.83-8.053c-0.385-2.836-0.227-5.715-0.347-8.574
			c-0.212-5.02-1.283-9.959-2.349-14.869c-0.272-1.25-0.687-2.681-1.87-3.169c-1.028-0.424-2.184,0.066-3.183,0.556
			c-17.08,8.359-33.671,19.018-44.602,34.579c-4.508,6.417-7.948,13.525-10.899,20.79c-6.313,15.542-10.489,32.164-10.145,48.934
			c-5.359,2.645-10.91,3.983-16.203,5.575l-0.001,0c-1.951-5.305-2.118-11.388-2.463-17.142c-0.639-10.659-2.367-21.616-8.07-30.644
			c-8.288-13.118-23.399-19.963-37.676-26.042c-14.277-6.079-29.414-12.781-37.905-25.768c-0.822-1.255-1.819-2.713-3.318-2.76
			c-2.252-0.073-3.146,2.915-3.007,5.164c0.395,6.358,3.227,12.29,6.269,17.887c3.779,6.951,7.961,13.674,12.139,20.393
			c7.299,11.735,14.72,23.62,24.835,33.037c4.7,4.376,9.951,8.187,14.189,13.012c6.519,7.421,10.243,16.747,13.408,26.175
			c-0.094,0.092-0.188,0.184-0.282,0.276c-4.462,4.367-8.992,8.823-11.964,14.312c-1.606,2.963-2.72,6.166-3.698,9.391
			c-2.686,8.866-4.38,18.032-5.151,27.66c-2.186,9.653-3.885,19.416-5.088,29.241c-0.299,2.451-0.569,4.934-0.247,7.383
			c0.261,1.985,0.913,3.916,1.907,5.654c1.371,2.395,3.517,4.478,6.193,5.146c2.676,0.668,5.718-0.399,7.288-3.733
			c2.335,3.43,5.696,6.308,9.505,7.951c3.809,1.645,8.22,1.997,12.151,0.67c0.827-0.279,1.611-0.657,2.366-1.105
			c2.223,11.767,7.855,22.827,15.732,31.893l0.003,0.004l-3.051,21.376c-0.355,2.485-0.818,5.184-2.682,6.864
			c-1.938,1.748-4.786,1.866-7.369,2.239c-3.62,0.522-7.141,1.726-10.321,3.529c-2.333,1.323-4.533,3.019-5.927,5.309
			c-1.394,2.291-1.87,5.256-0.745,7.689c1.07,2.312,3.445,3.845,5.941,4.351c2.218,0.449,4.521,0.176,6.712-0.426
			c0.023,0.029,0.046,0.057,0.069,0.086c1.792,2.171,5.073,2.127,7.879,1.896c6.276-0.517,12.551-1.035,18.827-1.551
			c3.005-0.248,6.167-0.549,8.641-2.273c3.686-2.567,4.757-7.416,6.415-11.589c2.318-5.833,6.312-10.985,11.355-14.719
			c0.81,0.245,1.626,0.478,2.448,0.699c-0.94,3.659-1.88,7.317-2.819,10.975c-1.687,6.567-3.479,13.35-7.704,18.652
			c-2.229,2.798-5.079,5.101-6.99,8.127c-1.91,3.025-2.673,7.223-0.494,10.062c2.311,3.011,8.213,3.973,12.769,2.875l-0.001-0.005
			c0.287,0.889,0.756,1.706,1.429,2.382c1.382,1.387,3.363,1.965,5.271,2.406c2.351,0.545,4.759,0.963,7.167,0.813
			c2.408-0.15,4.837-0.91,6.659-2.492c0.569-0.495,1.066-1.059,1.495-1.674c2.978,1.076,6.51,0.539,9.004-1.427
			c2.697-2.126,4.053-5.821,3.873-9.777c5.105-11.801,11.572-23.01,19.224-33.342c25.772,1.613,52.407-0.492,75.112-8.139
			c2.184,1.347,4.432,2.531,6.719,3.533c-11.652,4.179-23.387,8.397-34.032,14.715c-3.606,2.142-7.364,4.931-8.195,9.041
			c-0.969,4.791,3.385,9.831,8.216,9.774c0.405,0.811,0.954,1.545,1.655,2.151c1.732,1.501,4.09,2.058,6.374,2.261
			c4.953,0.438,10.021-0.597,14.421-2.908c1.215,1.172,2.764,1.987,4.445,2.198c3.379,0.424,6.608-1.292,9.686-2.751
			c5.583-2.644,11.495-4.597,17.555-5.797c5.547-1.098,11.259-1.581,16.566-3.53c5.308-1.949,10.338-5.722,11.998-11.127
			c1.629-5.304-0.243-10.967-1.854-16.275c-1.611-5.309-2.915-11.295-2.233-17.704C381.155,357.788,381.464,357.125,381.769,356.459
			z"/>
		<path style="fill:none;stroke:#FFFFFF;stroke-linecap:round;stroke-linejoin:round;stroke-miterlimit:10;" d="M153.019,319.117
			c4.114-2.991,7.568-7.643,12.881-8.619c9.442-1.734,19.376,0.156,28.427-3.044c9.051-3.2,17.319-9.202,22.057-17.551
			c3.284-5.786,4.759-12.398,5.989-19.595c2.162,0.116,4.355-0.43,6.21-1.545c0.462-0.279,0.955-0.684,0.94-1.223
			c-0.014-0.48-0.426-0.846-0.833-1.098c-1.315-0.816-2.944-1.111-4.345-1.25c2.305-1.143,4.687-2.348,6.29-4.36
			c0.27-0.339,0.527-0.747,0.46-1.175c-0.1-0.634-0.842-0.944-1.484-0.985c-1.667-0.106-3.216,0.783-4.815,1.845
			c-0.089-1.497-0.297-2.988-0.621-4.452"/>
		<path style="fill:none;stroke:#FFFFFF;stroke-linecap:round;stroke-linejoin:round;stroke-miterlimit:10;" d="M226.537,246.67
			c-1.293-4.107-2.933-8.103-4.893-11.936"/>
		<path style="fill:none;stroke:#FFFFFF;stroke-linecap:round;stroke-linejoin:round;stroke-miterlimit:10;" d="M230.327,106.509
			c-10.249,6.75-19.404,15.159-26.999,24.798c-3.994,5.07-7.626,10.625-9.13,16.903c-1.853,7.732-0.33,15.827,1.196,23.63
			c2.263,11.574,4.525,23.147,7.442,34.666c4.328-11.198,12.831-20.337,22.301-27.716c4.545-3.541,9.451-6.845,12.725-11.587
			c3.784-5.483,4.979-12.291,6.08-18.862"/>
		<g>
			<path style="fill:none;stroke:#FFFFFF;stroke-linecap:round;stroke-linejoin:round;stroke-miterlimit:10;" d="M158.373,204.471
				c-3.137,1.004-6.162,2.165-8.976,3.82c-3.391,1.995-6.339,4.632-9.181,7.368"/>
			<path style="fill:none;stroke:#FFFFFF;stroke-linecap:round;stroke-linejoin:round;stroke-miterlimit:10;" d="M142.265,213.732
				c-5.097-16.036-5.608-33.741-14.114-48.256c-4.19-7.152-10.118-13.125-16.313-18.633c-10.266-9.126-21.455-17.214-33.082-24.132
				c7.131,16.069,17.04,30.901,29.157,43.64"/>
		</g>
		<path style="fill:none;stroke:#FFFFFF;stroke-linecap:round;stroke-linejoin:round;stroke-miterlimit:10;" d="M156.961,390.665
			c-3.505,0.536-6.608,3.164-7.712,6.534c-0.42,1.285-0.536,2.733-0.183,4.018"/>
		<path style="fill:none;stroke:#FFFFFF;stroke-linecap:round;stroke-linejoin:round;stroke-miterlimit:10;" d="M208.751,362.875
			c-0.964,3.751-1.927,7.503-2.891,11.254"/>
		<g>
			<path style="fill:none;stroke:#FFFFFF;stroke-linecap:round;stroke-linejoin:round;stroke-miterlimit:10;" d="M116.677,303.352
				c1.727,0.609,3.118,1.885,4.592,2.971c1.473,1.087,3.217,2.043,5.038,1.841c2.29-0.255,3.962-2.224,5.295-4.105
				c1.332-1.88,2.752-3.954,4.957-4.621"/>
			<path style="fill:none;stroke:#FFFFFF;stroke-linecap:round;stroke-linejoin:round;stroke-miterlimit:10;" d="M126.886,308.059
				c0.258,0.927,0.463,1.832,0.581,2.755"/>
		</g>
		<path style="fill:none;stroke:#FFFFFF;stroke-linecap:round;stroke-linejoin:round;stroke-miterlimit:10;" d="M165.375,270.171
			c-0.829-5.597,0.062-11.435,2.523-16.529c2.461-5.095,6.48-9.422,11.284-12.277c2.214,3.638,3.415,7.885,3.435,12.144
			c0.01,2.314-0.332,4.664-1.31,6.761c-0.979,2.098-2.636,3.931-4.766,4.834c-3.066,1.301-6.726,0.506-9.486-1.358"/>
		<path style="fill:none;stroke:#FFFFFF;stroke-linecap:round;stroke-linejoin:round;stroke-miterlimit:10;" d="M223.142,426.12
			c0.527-1.089,0.882-2.271,1.074-3.465c0.399-2.486,0.145-5.035-0.321-7.509"/>
		<path style="fill:none;stroke:#FFFFFF;stroke-linecap:round;stroke-linejoin:round;stroke-miterlimit:10;" d="M206.565,412.953
			c-2.247,2.065-4.551,4.212-5.805,6.995c-0.604,1.338-0.904,2.867-0.814,4.334"/>
		<path style="fill:none;stroke:#FFFFFF;stroke-linecap:round;stroke-linejoin:round;stroke-miterlimit:10;" d="M255.454,381.609
			c1.768-2.335,3.596-4.624,5.484-6.864c4.072-4.832,8.455-9.486,11.539-15.003c3.084-5.517,4.772-12.155,2.978-18.215"/>
		<path style="fill:none;stroke:#FFFFFF;stroke-linecap:round;stroke-linejoin:round;stroke-miterlimit:10;" d="M312.173,292.639
			c-10.226,13.834-13.487,32.561-8.543,49.038c3.987,13.289,13.238,24.86,24.344,32.204"/>
		<path style="fill:none;stroke:#FFFFFF;stroke-linecap:round;stroke-linejoin:round;stroke-miterlimit:10;" d="M310.849,396.747
			c-3.495,1.362-6.804,3.645-8.484,6.998c-0.959,1.914-1.252,4.211-0.8,6.288"/>
		<path style="fill:none;stroke:#FFFFFF;stroke-linecap:round;stroke-linejoin:round;stroke-miterlimit:10;" d="M168.885,353.682
			c0.639,0.689,1.291,1.365,1.955,2.028c8.398,8.372,18.749,14.654,30.52,18.486"/>
		<path style="fill:none;stroke:#FFFFFF;stroke-linecap:round;stroke-linejoin:round;stroke-miterlimit:10;" d="M394.042,292.453
			c1.685,21.16-2.85,42.738-11.488,62.262"/>
		<path style="fill:none;stroke:#FFFFFF;stroke-linecap:round;stroke-linejoin:round;stroke-miterlimit:10;" d="M330.212,399.609
			c-4.059-0.044-7.838,3.448-8.113,7.498c-0.125,1.841,0.483,3.667,1.562,5.158"/>
	</g>
</g>
</svg>
