<?xml version="1.0" encoding="utf-8"?>
<!-- Generator: Adobe Illustrator 27.5.0, SVG Export Plug-In . SVG Version: 6.00 Build 0)  -->
<svg version="1.1" xmlns="http://www.w3.org/2000/svg" xmlns:xlink="http://www.w3.org/1999/xlink" x="0px" y="0px"
	 viewBox="0 0 500 500" style="enable-background:new 0 0 500 500;" xml:space="preserve">
<g id="BACKGROUND">
	<rect style="fill:#FAF9FA;" width="500" height="500"/>
</g>
<g id="OBJECTS">
	<path style="fill:#DCDDDF;" d="M409.667,348.667c0,3.13-82.23,5.667-183.667,5.667s-183.667-2.537-183.667-5.667
		c0-3.13,82.23-5.667,183.667-5.667S409.667,345.537,409.667,348.667z"/>
	<g>
		<path style="fill:#C8A052;" d="M331.174,188.358c0,0,10.425,3.669,22.114,14.031s14.45,17.849,28.86,34.437
			c14.41,16.588,16.62,26.618,28.78,31.915c12.16,5.297,16.083,9.592,29.345,9.805c13.262,0.213,20.119-2.528,24.374-7.712
			s11.251-3.511,11.351-0.358c0.099,3.153-4.707,10.879-12.785,14.921c-8.078,4.042-16.787,8.104-32.08,3.537
			c-15.293-4.567-25.482-7.402-35.279-17.823c-9.797-10.421-21.804-30.873-32.231-41.274
			c-10.427-10.402-13.268-20.411-25.428-25.709c-12.16-5.297-20.368-5.354-20.368-5.354L331.174,188.358z"/>
		<g>
			<path style="fill:#DCDDDF;" d="M462.438,285.781c-2.775,0.851-11.187,0.624-11.187,0.624s-10.68,1.599-12.572,1.659
				c-1.892,0.06-10.859-4.076-12.771-4.647s-10.919-5.968-13.481-7.149c-2.562-1.182-10.248-4.726-14.111-7.129
				c-3.863-2.403-6.604-9.26-12.538-17.278c-5.934-8.018-5.403-11.191-9.365-16.747c-3.962-5.556-13.109-15.367-19.633-22.104
				c-6.525-6.737-21.977-16.349-21.977-16.349s-4.54-2.093-9.146-3.996l-7.83,6.11c0,0,8.208,0.057,20.368,5.354
				c12.16,5.297,15.001,15.307,25.428,25.709c10.427,10.401,22.434,30.853,32.231,41.274c9.797,10.422,19.986,13.256,35.279,17.823
				C445.94,293.356,454.572,289.687,462.438,285.781z"/>
			<path style="fill:#DCDDDF;" d="M463.574,285.201c-0.154,0.047-0.281,0.109-0.362,0.196
				C463.336,285.335,463.452,285.264,463.574,285.201z"/>
		</g>
		<path style="fill:#21292F;" d="M463.212,285.397c8.078-4.042,12.884-11.768,12.785-14.921c-0.1-3.153-7.096-4.826-11.351,0.358
			s-11.112,7.925-24.374,7.712c-2.081-0.033-3.912-0.178-5.601-0.4l-2.577,1.289l6.425,3.585l-10.149-1.573l-9.538-2.224
			l-12.406,0.391c6.938,4.088,14.733,6.342,24.705,9.32C446.425,293.501,455.134,289.439,463.212,285.397z"/>
		<path style="fill:#C48A52;" d="M340.48,203.214c0,0,8.703,22.449,11.084,31.211c2.38,8.762-1.66,27.405,0.247,34.498
			c1.907,7.094,3.354,12.939,4.695,15.422c1.341,2.482,4.403,6.173,7.452,9.443c3.049,3.27,3.301,11.258,4.354,17.957
			c1.053,6.7-1.098,18.55,0.283,22.294c1.381,3.744-1.549,4.257-2.284,7.647c-0.735,3.39-2.39,4.283-4.031,5.598
			c-1.642,1.314-6.24,2.301-7.554,0.659c-1.314-1.642-5.058-0.261-5.058-0.261s-3.744,1.38-5.872,0.606
			c-2.129-0.774-2.695-5.385,0.549-9.275c3.244-3.89,8.695-4.482,8.222-6.151c-0.474-1.668,1.863-7.633,0.509-10.536
			c-1.354-2.903-1.774-2.89-3.102-4.952c-1.327-2.062-2.854-10.43-4.602-12.479c-1.748-2.049-9.107-8.55-12.996-11.793
			c-3.89-3.244-9.881-6.421-12.102-10.138c-2.221-3.717-8.66-7.722-13.403-11.36c-4.744-3.638-11.394-14.369-11.394-14.369
			s10.723-33.582,11.498-35.71C307.747,219.395,340.48,203.214,340.48,203.214z"/>
		<path style="fill:#CCC9D0;" d="M365.478,308.678c0,0-3.923-4.295-5.854-5.496c-1.931-1.201-4.673-8.058-4.673-8.058l-5.084-1.102
			l-6.485-5.476l5.064,0.471l-1.971-2.463l-3.272-3.684l-3.332-5.576l3.525-8.317c0,0,0.372-8.217-1.659-12.572
			c-2.031-4.354-1.725-34.662-1.725-34.662c-1.751-5.533-3.558-10.8-5.306-15.643c-9.43,4.753-27.166,13.862-27.734,15.422
			c-0.774,2.128-11.498,35.71-11.498,35.71s6.651,10.731,11.394,14.369c4.744,3.638,11.182,7.643,13.403,11.36
			c2.221,3.717,8.213,6.895,12.102,10.138c3.89,3.244,11.248,9.745,12.996,11.793c1.748,2.049,3.274,10.417,4.602,12.479
			c1.327,2.062,1.748,2.049,3.102,4.952c1.354,2.903-0.983,8.868-0.509,10.536c0.473,1.668-4.978,2.261-8.222,6.151
			c-3.056,3.665-2.729,7.967-0.901,9.1l3.582-4.135l4.965-2.682c0,0,6.465,4.846,6.385,2.323c-0.08-2.522,2.343-5.755,2.874-8.928
			c0.531-3.173,0.412-6.956,2.085-13.952C365.007,313.743,365.478,308.678,365.478,308.678z"/>
		<g>
			<defs>
				<path id="SVGID_1_" d="M340.48,203.214c0,0,8.703,22.449,11.084,31.211c2.38,8.762-1.66,27.405,0.247,34.498
					c1.907,7.094,3.354,12.939,4.695,15.422c1.341,2.482,4.403,6.173,7.452,9.443c3.049,3.27,3.301,11.258,4.354,17.957
					c1.053,6.7-1.098,18.55,0.283,22.294c1.381,3.744-1.549,4.257-2.284,7.647c-0.735,3.39-2.39,4.283-4.031,5.598
					c-1.642,1.314-6.24,2.301-7.554,0.659c-1.314-1.642-5.058-0.261-5.058-0.261s-3.744,1.38-5.872,0.606
					c-2.129-0.774-2.695-5.385,0.549-9.275c3.244-3.89,8.695-4.482,8.222-6.151c-0.474-1.668,1.863-7.633,0.509-10.536
					c-1.354-2.903-1.774-2.89-3.102-4.952c-1.327-2.062-2.854-10.43-4.602-12.479c-1.748-2.049-9.107-8.55-12.996-11.793
					c-3.89-3.244-9.881-6.421-12.102-10.138c-2.221-3.717-8.66-7.722-13.403-11.36c-4.744-3.638-11.394-14.369-11.394-14.369
					s10.723-33.582,11.498-35.71C307.747,219.395,340.48,203.214,340.48,203.214z"/>
			</defs>
			<clipPath id="SVGID_00000126294889059453819990000017341779413561886642_">
				<use xlink:href="#SVGID_1_"  style="overflow:visible;"/>
			</clipPath>
			<g style="clip-path:url(#SVGID_00000126294889059453819990000017341779413561886642_);">
				<path style="fill:#21292F;" d="M353.378,238.575c0,0-0.562,8.855-3.7,16.107c-3.138,7.253-5.815,15.753-5.749,17.855
					c0.066,2.102-2.178,11.01-2.178,11.01l-2.31,6.806c0,0,4.952-3.102,6.895-8.213c1.943-5.111,2.992-11.877,3.359-13.572
					c0.367-1.695,0.655-5.912,1.824-8.894c1.168-2.983,3.872-10.642,5.054-13.204c1.182-2.562,3.598-6.005,4.359-8.554
					c0.761-2.549,3.531-8.107,3.531-8.107L353.378,238.575z"/>
				<path style="fill:#21292F;" d="M344.388,313.762c0,0,1.717-12.258,2.098-13.532c0.381-1.275,1.456-7.2,1.39-9.302
					c-0.066-2.102,0.668-5.491,1.009-8.027c0.341-2.536,1.93-5.531,1.93-5.531s0.699,8.815,0.805,12.178
					c0.106,3.363-0.288,4.217-1.403,8.881c-1.115,4.664-2.677,8.5-2.638,9.762c0.04,1.261,0.172,5.465,0.172,5.465
					s-0.301,3.797-0.261,5.058c0.04,1.261,0.093,2.943,0.093,2.943L344.388,313.762z"/>
				<path style="fill:#21292F;" d="M361.589,285.446l-3.151,6.832l0.093,2.943l-1.089,5.505l-1.943,5.111l-0.314,3.376l4.439-6.031
					c0,0,2.036-2.168,1.996-3.429c-0.04-1.261,1.168-2.982,1.168-2.982l0.606,5.872l-0.261,5.058l-1.168,2.983
					c0,0-1.129,4.244-2.363,5.124c-0.449,0.32-0.726,0.801-0.915,1.346c-0.331,0.953-0.392,2.1-0.634,2.911
					c-0.381,1.274-0.013-0.42-0.761,2.549c-0.748,2.969-1.089,5.505-1.089,5.505l7.536-14.545c0,0,0.735-3.39,1.739-4.894
					c1.004-1.504,3.053-3.252,2.987-5.354c-0.066-2.102-0.066-2.102-0.172-5.465c-0.106-3.363-0.172-5.465-0.239-7.567
					c-0.066-2.102,1.129-4.244,1.009-8.027c-0.119-3.784,1.022-7.607,0.983-8.868c-0.04-1.261,0.327-2.956-0.04-1.261
					c-0.367,1.695-4.554,15.713-4.554,15.713s-1.443,7.62-1.496,5.938C363.904,292.106,361.589,285.446,361.589,285.446z"/>
				<path style="fill:#21292F;" d="M371.534,330.579l-5.26,3.322c0,0-1.852,1.321-2.798,1.351c-0.946,0.03-3.369,3.262-3.369,3.262
					l-0.571,1.912l4.995-1.736c0,0,1.211-1.616,2.167-1.331c0.956,0.285,4.434,0.491,4.434,0.491l4.364-1.716L371.534,330.579z"/>
			</g>
		</g>
		<path style="fill:#CCC9D0;" d="M108.347,241.32c0,0,7.271,10.437,8.744,17.123c1.473,6.686-1.138,17.289-1.859,21.099
			s-4.213,13.178-9.244,13.757c-5.031,0.579-15.395,5.535-18.325,6.049c-2.929,0.513-5.226,7.739-6.014,9.447
			c-0.788,1.708-1.089,5.505-0.182,7.58c0.907,2.075,3.496,4.098,5.177,4.045c1.682-0.053,7.133-0.646,9.129-4.075
			c1.996-3.429,2.257-8.487,4.359-8.554c2.102-0.066-1.642,1.314,5.098,1.522c6.74,0.208,13.019-0.831,17.209-1.384
			c4.191-0.553,7.421-4.863,9.417-8.292c1.996-3.429,14.98-32.033,17.33-37.578c2.35-5.545-4.066-22.174-4.539-23.843
			c-0.473-1.668-2.88-11.271-4.996-11.625c-2.115-0.354-27.6,5.499-27.6,5.499L108.347,241.32z"/>
		<g>
			<path style="fill:#C48A52;" d="M126.697,289.49c-0.44-0.617,0.544-2.753,0.505-4.014c-0.04-1.261-1.801-3.73-3.108-5.162
				c-1.308-1.432-2.208-3.297-2.248-4.558c-0.04-1.261,0.819-7.39,0.786-8.441c-0.033-1.051,3.912-9.381,3.912-9.381l-10.025-4.313
				l-1.002,0.26c0.696,1.598,1.266,3.162,1.575,4.562c1.473,6.686-1.138,17.289-1.859,21.099s-4.213,13.178-9.245,13.757
				c-4.11,0.473-11.775,3.865-16.043,5.372c0.753,0.082,3.451,0.433,3.84,1.325c0.453,1.038,0.94,3.126,0.94,3.126
				s-0.144,2.109,1.538,2.055c1.682-0.053,2.359,1.398,4.604-0.776c2.246-2.175,3.941-1.808,5.195-2.057
				c1.255-0.25,2.135,0.985,4.02,0.715c1.885-0.27,4.611-0.566,5.242-0.586c0.631-0.02,4.033,1.135,4.033,1.135l-1.965-2.252
				c0,0,2.325,0.347,3.593,0.518c1.268,0.17,4.191-0.553,4.191-0.553l1.024-0.874l-3.159-0.111c0,0,1.819-2.372,2.429-3.022
				c0.611-0.65,1.418-1.728,3.04-3.673C130.133,291.696,127.138,290.107,126.697,289.49z"/>
			<path style="fill:#DCDDDF;" d="M89.207,298.922l0.565,0.569l-0.024-0.753C89.562,298.802,89.378,298.866,89.207,298.922z"/>
		</g>
		<path style="fill:#C8A052;" d="M347.984,224.333c-0.929-9.439-0.574-8.188-3.76-19.133c-3.186-10.946-8.409-16.462-15.16-20.352
			c-6.75-3.89-37.058-4.196-40.861-4.707c-3.803-0.511-17.942,1.513-32.661,5.133c-14.719,3.62-42.11,5.747-53.599,1.691
			c-11.49-4.056-28.034-8.268-37.542-9.546c-8.991-1.209-49.18,9.848-62.861,11.351c-9.508-0.854-12.937-0.599-12.937-0.599
			c-0.126-4.008-1.607-12.787-7.492-8.59c-5.885,4.198-8.075,11.087-8.075,11.087s-15.251,12.517-17.968,15.411
			c-2.717,2.894-1.625,12.087-1.625,12.087s-7.662,11.475-7.586,13.88c0,0-1.84,5.274-1,6.451c0.84,1.177,8.505,2.54,12.926,2.802
			c4.421,0.262,8.965-8.307,11.319-9.986c2.354-1.679,9.518-3.51,9.518-3.51s0.353,1.513,0.812,3.546
			c1.372-0.658,2.743-1.136,4.048-1.383c5.512-1.04,15.503,1.851,14.854,8.191c2.521,0.679,4.943,1.458,6.787,3.223
			c1.141-0.186,2.201-0.153,3.226-0.059c1.686,1.247,4.252,3.225,5.509,4.601c1.961,2.147,0.484,5.35,1.224,8.798
			c0.74,3.448,3.571,13.143,5.622,18.128c2.051,4.985,9.511,11.377,9.511,11.377s3.886,13.133,3.67,16.296
			c-0.216,3.163-3.867,17.48-4.714,20.663c-0.846,3.183-8.686,14.792-9.287,15.758c-0.601,0.966-8.463,1.845-10.956,2.87
			s-6.167,4.613-6.087,7.135c0.08,2.522,3.558,2.728,5.755,2.343c2.197-0.385,3.133-0.73,3.133-0.73s1.941,1.517,3.833,1.457
			c1.892-0.06,5.981-0.504,8.808-0.909c2.828-0.405,3.734-1.696,6.591-1.155c2.857,0.541,5.075,0.787,6.001,0.126
			c0.926-0.66,2.118-2.907,1.753-4.474c-0.365-1.566-0.08-2.522,1.467-3.518s5.141-7.105,7.514-11.914
			c2.373-4.809,1.743-4.789,5.642-11.224c3.9-6.435,5.593-12.801,6.164-14.712c0.571-1.912,2.921-17.45,4.448-19.077l4.178,2.393
			l-1.656-2.473l2.237,0.876l0.266-1.586l2.572,1.497l2.227,0.561l-0.71-2.502l4.464,1.437l0.906-1.291l2.867,0.856l1.271,0.276
			l4.434,0.491l-0.355-1.251l2.552,0.866l1.201-1.932l2.877,1.172c0,0,1.281,0.591,1.251-0.355c-0.03-0.946,0.876-2.237,0.876-2.237
			l3.538,2.098l2.542,0.551l4.009-2.967c0,0-2.207,0.07,1.231-0.986c3.438-1.055,3.714-2.326,5.931-2.081
			c2.217,0.246,5.015-1.105,7.527-1.5c2.512-0.395,7.547-0.869,12.947,0.223c5.4,1.092,6.365,1.693,8.898,1.928
			c2.532,0.236,6.651,0.737,8.227,0.687c1.576-0.05,11.321-1.304,13.813-2.329s7.537-1.185,9.704-2.515
			c2.167-1.331,9.429-1.244,9.429-1.244s5.068,10.571,8.36,14.885c3.292,4.315,2.17,8.768,6.143,14.64
			c3.973,5.871,9.276,13.91,10.242,14.51c0.966,0.601,0.76,4.079,0.524,6.611c-0.236,2.532-0.146,5.37-0.983,8.868
			c-0.836,3.498-5.496,5.854-6.057,8.081c-0.561,2.227-4.64,2.987-4.64,2.987s-6.611,0.524-8.178,0.889
			c-1.566,0.365-6.512,3.677-7.112,4.643c-0.601,0.966-1.172,2.877-0.787,5.075c0.385,2.197,9.824,1.268,9.824,1.268l4.68-1.726
			c0,0,4.759,0.797,6.336,0.747c1.576-0.05,4.7-1.095,4.7-1.095s1.547-0.996,3.133-0.73c1.586,0.266,3.823,1.142,4.424,0.176
			c0.601-0.966,1.052-6.661,1.052-6.661s4.235-5.815,5.436-7.746s3.21-8.307,4.361-11.815c1.152-3.508,2.884-8.612,4.627-13.401
			c1.743-4.789,2.529-9.864-0.063-11.991c-2.592-2.127-4.397-9.329-4.211-13.438s4.126-9.283,8.882-18.585
			c4.756-9.303,11.786-26.567,13.174-32.607C348.459,229.367,348.913,233.771,347.984,224.333z"/>
		<g>
			<g>
				<path style="fill:#A87433;" d="M84.512,204.748c0,0-5.015,3.167-8.876,4.793c-3.86,1.626-3.193,3.711-4.949,5.271
					c-1.756,1.56-3.784,4.031-3.784,4.031l5.945-2.294l-2.61,3.091l-4.17,1.335l-2.357,1.579l-2.038,2.171l1.949-0.212
					c0,0-1.315,1.245-1.699,3.363c-0.385,2.118-0.304,4.673-1.492,5.162c-1.188,0.489-3.099,1.903-4.316,1.49
					c-1.217-0.413-3.359-1.549-3.373-2c-0.014-0.451-2.414-0.225-2.414-0.225l0.794,1.329c0,0-2.405,0.076-2.856,0.09
					c-0.451,0.014-2.221,1.123-2.221,1.123l-0.351,3.171l3.208,1.554c0,0,4.368,0.163,4.969,0.144
					c0.601-0.019,4.363,0.013,4.363,0.013s4.4-3.599,4.681-4.21c0.282-0.611,5.395-5.436,5.677-6.046
					c0.282-0.611,3.837-2.378,3.837-2.378l6.566-1.712c0,0,1.592-2.006,1.577-2.457c-0.014-0.451,1.99-3.674,1.948-5.026
					c-0.043-1.353,0.261-6.026,0.082-6.923c-0.179-0.897,1.112-2.894,1.093-3.495C83.677,206.88,84.512,204.748,84.512,204.748z"/>
				<path style="fill:#DCDDDF;" d="M105.454,228.37c0.194-0.207-1.272-2.166-4.535-3.869c-1.124-0.586-2.957-4.721-2.358-11.159
					c-0.35,1.616-3.569,1.316-3.569,1.316l-0.65,4.835l-2.704,3.295l-1.666-1.953l-2.329,2.481l1.013-6.05l-0.928-3.983
					l-1.865,4.472l-0.54-4.396l0.101-0.834c-4.483,3.6-8.84,7.368-13.395,10.844c0.579,2.628,1.163,5.392,1.387,6.814
					c0.502,3.194-8.101,10.285-8.539,9.096c-0.201-0.545-1.998-0.87-3.884-1.064c-0.236,2.063-0.581,4.114-0.781,6.194
					c-0.015,0.212-0.027,0.411-0.042,0.62c0.23,0.134,0.46,0.267,0.688,0.394c2.042,1.139,3.714,3.293,6.007,6.029
					c0,0,4.421,0.262,7.096,2.384c2.649,1.32-0.74-4.39-0.74-4.39s3.632,0.688,5.436,0.631c-0.432-0.989-1.285-2.567-1.285-2.567
					s4.727-2.757,5.504-3.584c0.776-0.827,7.881-10.88,11.838-12.61c3.957-1.73,6.814-0.215,10.014-0.516
					c0,0-3.489-2.498-3.308-3.105C101.602,227.088,105.26,228.577,105.454,228.37z"/>
				<path style="fill:#DCDDDF;" d="M69.102,231.311c2.354-1.679,9.518-3.51,9.518-3.51s0.387,1.66,0.879,3.841
					c4.662-3.985,9.447-7.962,14.37-11.79l0.117-0.96c0,0-0.152-4.809-1.379-5.573c-1.228-0.764-2.055-1.54-3.683-2.291
					c-1.629-0.751-2.67-8.341-2.67-8.341l-5.885,4.197l-1.84,5.274l-3.118,2.907c0,0,4.345-2.143,3.206-0.101
					c-1.139,2.042-1.489,3.658-5.459,4.986c-3.97,1.329-6.261,5.012-7.813,6.666c-1.553,1.654-2.89,10.121-2.89,10.121l-4.043,4.534
					C62.629,240.758,66.859,232.911,69.102,231.311z"/>
				<path style="fill:#21292F;" d="M45.461,238.576c0,0-1.296,0.242-1.037-1.071c0.159-1.309,1.277-0.843,1.575-0.952
					c0.297-0.11,1.365-1.247,1.365-1.247s0.482-0.617,0.877-0.83c0.394-0.213,0.73,0.88,0.868,2.079
					c0.138,1.199-1.243,1.945-1.243,1.945l-0.789,0.426L45.461,238.576z"/>
				<path style="fill:#DCDDDF;" d="M73.036,190.667c0,0,0.098,1.501-0.17,2.563c-0.267,1.062-1.422,2.603-1.422,2.603l-2.498,1.884
					l1.512,0.253l1.319-1.095l1.334-0.644c0,0-0.995,1.837-1.267,2.748c-0.272,0.911-1.577,2.457-1.577,2.457l-3.701,1.922
					l-2.409,1.53l-0.926,2.436l-1.252,1.644l-1.972,1.065l0.344-1.816l-1.053-1.572l0.04-1.907c0,0,0.247-1.713,0.237-2.013
					c-0.01-0.301-0.032-1.002-0.032-1.002L73.036,190.667z"/>
				<path style="fill:#A87433;" d="M78.948,193.69l2.141-2.074l1.108-3.044l0.888-3.639l1.321-2.649l0.627,0.783l0.521,3.795
					l0.289,2.799l1.441,1.158l-1.553,1.654l-0.175,0.808l1.584-0.652l-0.175,0.808l1.027,0.77l-1.985,0.664l-0.57,1.021
					c0,0-2.555,1.685-3.181,0.903c-0.626-0.783-2.449-1.327-2.449-1.327l-0.802,0.025l-1.39,0.445c0,0-1.422-0.557-0.827-0.776
					C77.383,194.943,78.948,193.69,78.948,193.69z"/>
				<path style="fill:#DCDDDF;" d="M59.843,214.402c0,0,1.569-0.35,2.088-0.592c0.519-0.242,1.693-1.182,1.693-1.182l1.016-1.16
					l0.345-0.989l0.559-1.372l-3.55,1.917l-2.088,0.592l-0.352,0.763L59.843,214.402z"/>
				<path style="fill:#21292F;" d="M54.178,219.245l4.464-4.755c0,0,0.128-2.311,0.513-2.825c0.385-0.514,3.243-2.108,3.932-2.531
					c0.689-0.423,1.957-1.566,2.454-1.682c0.498-0.116,3.35-1.911,3.644-2.121c0.294-0.21,2.38-0.878,3.466-1.413
					c1.086-0.536,2.583-0.784,2.583-0.784s-2.733,2.393-3.127,2.606c-0.394,0.213-2.968,1.297-3.954,1.83
					c-0.986,0.533-2.354,1.679-2.749,1.892c-0.394,0.213-1.168,1.14-1.866,1.262c-0.698,0.122-1.08,0.736-1.575,0.952
					c-0.495,0.216-1.387,0.545-1.681,0.755c-0.294,0.21-0.034,2.107-0.034,2.107l-0.679,0.724L54.178,219.245z"/>
				<path style="fill:#21292F;" d="M65.543,209.107l-0.688,2.053c0,0-1.221,1.844-3.522,2.819c1.644-0.353,2.834-0.766,3.346-1.234
					c0.512-0.467,1.017-1.16,1.017-1.16l0.566-1.146l0.716-1.151l1.432-2.302L65.543,209.107z"/>
				<path style="fill:#21292F;" d="M68.938,207.044l0.824,0.676l-0.861,1.331l-0.134,2.11l-0.341,1.916l-1.249,1.744l-3.544,2.118
					l-2.189,0.57l-2.386,0.677l-1.271,1.043l-1.443,1.951c0,0,2.257-1.576,2.749-1.892c0.492-0.316,1.879-0.862,2.273-1.075
					c0.394-0.213,1.998-0.264,3.09-0.599c1.093-0.335,2.364-1.378,2.364-1.378l2.342-2.08l1.252-1.644c0,0-0.232-0.996-0.07-2.204
					c0.162-1.209,0.532-2.223,0.719-2.63c0.188-0.407,0.676-0.824,0.667-1.124c-0.009-0.301,0.657-1.425,0.657-1.425L68.938,207.044
					z"/>
				<path style="fill:#21292F;" d="M63.657,220.851c-0.022,0.001-0.049,0.005-0.081,0.012c-0.535,0.128-2.332,1.211-3.066,1.992
					c-0.776,0.827-2.016,2.872-2.016,2.872l-0.829,2.333l-2.044,1.97c0,0,2.376-0.978,3.25-1.908c0.873-0.93,0.551-1.622,1.02-2.64
					c0.469-1.018,1.446-1.851,1.637-2.158c0.191-0.307,4.505-3.452,4.505-3.452l-1.703,0.054L63.657,220.851z"/>
				<path style="fill:#DCDDDF;" d="M77.288,195.121c0,0,1.77-1.109,3.531-2.519c1.761-1.41,1.895-1.94,2.104-2.473
					c0.209-0.533,0.598-2.501,0.642-3.48c0.044-0.979,0.455-2.271,0.596-2.576c0.141-0.305,0.186,1.122,0.297,2.247
					c0.111,1.125-0.07,2.56-0.07,2.56s-0.277,0.761-0.345,0.989c-0.068,0.228,0.655-0.698,0.655-0.698s0.535,0.284-0.035,1.28
					c-0.57,0.996-0.57,0.996-0.57,0.996l1.275-0.115l-1.101,0.862l1.069,0.493l-2.015,0.515l1.097,1.395
					c0,0-1.656-0.023-2.198-0.532c-0.46-0.286,0.482,0.963,0.482,0.963s-1.454-0.782-1.752-0.697
					c-0.298,0.085-0.89,0.404-1.111,0.562c-0.221,0.158-0.404,0.715-0.833,0.603c-0.43-0.112-1.705,0.004-1.705,0.004
					L77.288,195.121z"/>
				<path style="fill:#21292F;" d="M87.568,182.385c0,0,1.58,7.171,1.172,8.538c-0.408,1.367-0.139,5.12-0.139,5.12l-0.375,2.419
					l-1.732,2.311c0,0,2.362-1.429,3.235-2.359c0.873-0.93,0.953-3.189,0.891-5.143c-0.062-1.954-0.231-2.55-0.569-3.743
					s-0.532-2.541-0.71-3.438C89.161,185.193,87.568,182.385,87.568,182.385z"/>
				<path style="fill:#21292F;" d="M95.791,206.197c0,0,0.652,1.584,1.911,3.35c1.259,1.766,1.517,3.563,1.949,4.552
					c0.113,0.258,0.243,0.653,0.378,1.103c0.532-0.388,1.068-0.77,1.603-1.153c-1.016-4.552-1.654-6.689-2.434-7.96
					c-0.846-1.377-3.132-3.913-3.565-4.902c-0.432-0.989-1.498-2.962-2.343-4.339c-0.846-1.378-3.934-3.888-3.934-3.888l-0.274,4.02
					c0,0,1.536,4.164,2.576,5.335C92.697,203.486,95.791,206.197,95.791,206.197z"/>
				<path style="fill:#21292F;" d="M94.205,206.028c-0.496,0.334-0.995,0.662-1.487,1.003c0.108,0.399,0.198,0.718,0.255,0.872
					c0.219,0.595,1.58,5.567,1.58,5.567s0.358,5.004,0.384,5.805c0.025,0.802-0.116-10.026-0.116-10.026
					S94.992,209.708,94.205,206.028z"/>
				<path style="fill:#21292F;" d="M89.229,206.404c0.315,0.441,0.78,0.878,1.419,2.061c0.639,1.183,1.278,2.367,1.278,2.367
					s-1.33-4.02-1.5-4.617c-0.169-0.596-0.494-1.338-0.494-1.338l1.87,2.047c0,0,0.357,1.794,1.302,3.118
					c0.944,1.324,1.715,1.902,2.359,3.235c0.644,1.334,1.283,2.517,1.598,2.958c0.105,0.148,0.234,0.503,0.358,0.902
					c0.084-0.063,0.168-0.125,0.251-0.188c-0.122-0.872-0.295-1.877-0.521-2.673c-0.508-1.789-1.152-3.123-1.946-4.452
					c-0.794-1.329-1.748-2.954-2.223-3.691c-0.475-0.737-1.419-2.062-1.419-2.062s1.846,1.296,2.941,2.615
					c1.095,1.32,2.053,3.095,1.729,2.353c-0.324-0.742-1.753-3.104-2.087-4.147c-0.334-1.043-1.128-2.371-1.443-2.813
					c-0.315-0.441-1.541-1.155-1.541-1.155l-0.916-0.423l-1.503,0.048l1.565,1.906l-2.255,0.071c0,0-1.647,0.253-1.8,0.157
					c-0.153-0.095-0.919-0.523-1.37-0.508c-0.451,0.014-1.799,0.207-2.25,0.221c-0.451,0.014-1.343,0.343-1.343,0.343
					s3.49,0.943,4.862,1.501C87.523,204.803,88.914,205.963,89.229,206.404z"/>
				<path style="fill:#21292F;" d="M94.345,219.484c0.353-0.273,0.706-0.547,1.061-0.819c-0.077-0.087-0.155-0.174-0.233-0.262
					c-0.78-0.878-3.072-2.009-3.072-2.009s1.565,1.906,1.884,2.498C94.076,219.059,94.205,219.263,94.345,219.484z"/>
				<path style="fill:#21292F;" d="M94.921,225.142c-0.169-0.596-0.493-1.338-0.658-1.785c-0.165-0.446-1.245-1.315-1.71-1.751
					c-0.465-0.437-0.658-1.785-0.677-2.386c-0.019-0.601-0.513-1.94-1.001-3.128c-0.489-1.188-1.382-5.673-1.382-5.673l-0.515-0.675
					c-0.548,0.415-1.087,0.841-1.628,1.264c0.138,0.676,0.274,1.488,0.378,2.274c0.025,0.186,0.041,0.383,0.058,0.58l-0.38,1.475
					c0,0-0.029,0.224-0.069,0.591c-0.125,1.14-0.362,3.66-0.202,5.134c0.096,0.88,0.225,1.849,0.369,2.745
					c0.061,1.995,0.295,3.978,0.585,5.959c0.091,0.624,1.006,0.42,1.044-0.141c0.143-2.151,0.344-4.297,0.526-6.445
					c0.04-0.033,0.08-0.066,0.121-0.098c-0.028-0.139-0.054-0.274-0.078-0.402c0.024-0.285,0.05-0.569,0.073-0.854
					c0.028-0.356,0.075-0.716,0.125-1.079c0.381,0.974,0.712,1.792,1.74,2.04c1.465,0.355,3.453,2.95,3.453,2.95
					S95.09,225.739,94.921,225.142z"/>
				<path style="fill:#21292F;" d="M75.061,200.833c0,0,2.611,0.118,2.922,0.409c0.31,0.291-0.525,2.424-0.525,2.424l-0.548,1.722
					l0.154,1.7l-0.522,2.524l1.766-1.259l0.545,1.387l-0.25,1.613c0,0,0.032,1.002-0.159,1.309c-0.191,0.307-0.673,0.924-0.732,2.23
					c-0.059,1.306-0.047,1.706-0.034,2.107c0.013,0.401,0.423,0.689,0.151,1.6c-0.272,0.911-0.309,2.918-0.5,3.225
					c-0.191,0.307,1.324-2.549,1.68-3.965c0.357-1.415-0.092-2.906-0.004-3.31c0.088-0.404,0.829-2.333,0.904-3.138
					c0.075-0.805,0.166-1.109,0.428-2.32c0.263-1.212,0.25-1.613,0.635-2.126c0.385-0.514,0.767-1.128,0.767-1.128l-2.88,0.893
					l0.212-2.815c0,0,0.447-1.719,0.435-2.12c-0.013-0.401,0.46-1.318,0.45-1.619c-0.009-0.3,0.385-0.514-0.025-0.801
					c-0.41-0.288-2.74-1.017-2.74-1.017l-2.163,1.372c0,0-0.961,1.334-1.75,1.76C72.488,201.917,75.061,200.833,75.061,200.833z"/>
				<path style="fill:#21292F;" d="M86.832,214.094c-0.398-2.544-0.42-5.189-0.627-7.758c-0.066-0.828-1.406-1.16-1.565-0.212
					c-0.4,2.383-0.678,4.816-1.196,7.178c-1.686,0.805-2.551,1.621-2.957,3.263c-0.041,0.034-0.082,0.068-0.123,0.102
					c0.017,0.049,0.037,0.101,0.054,0.151c-0.067,0.325-0.121,0.679-0.159,1.073c-0.193,1.973-2.427,3.502-4.212,5.183
					c-0.177,0.066-3.603,1.353-5.506,2.976c-1.953,1.666-4.715,3.158-5.854,5.199c-1.139,2.042-4.632,5.763-6.592,7.229
					c-1.96,1.466-13.239,0.016-13.239,0.016c0.84,1.177,8.505,2.54,12.926,2.802c1.324,0.078,2.657-0.643,3.94-1.725
					c-0.096,0.979-0.042,1.974,0.38,2.653c1.216,1.954,3.57,1.314,5.02,0.074c3.977-3.402,8.504-8.083,9.75-13.292
					c0.063-0.262,0.068-0.507,0.034-0.735c1.022-0.294,1.714-0.47,1.714-0.47s0.256,1.098,0.614,2.673
					c-0.197,1.563-0.599,3.212-0.279,4.769c0.07,0.338,0.551,0.369,0.714,0.093c0.821-1.39,0.964-3.128,1.294-4.691
					c0.021-0.102,0.047-0.203,0.07-0.305c0.161-0.137,0.323-0.274,0.484-0.411c0.117,1.02,0.262,2.024,0.416,2.995
					c0.029,0.882,0.059,1.747,0.073,1.943c0.031,0.431-0.064,1.585-0.24,1.98c-0.175,0.395-0.697,0.942-1.097,1.404
					c-0.4,0.462-0.743,2.424-0.743,2.424l1.388-1.247l0.661-0.736l1.82-1.278c0,0-0.294-1.967-0.078-3.206
					c0.116-0.662,0.058-1.197-0.044-1.608c0.734-2.814,1.59-6.163,1.225-9.089c0.046-0.616,0.087-1.229,0.156-1.823
					c0.205-1.769,0.367-3.542,0.499-5.318c0.15-0.069,0.295-0.133,0.431-0.194C86.782,215.821,86.95,214.846,86.832,214.094z"/>
				<line style="fill:#21292F;" x1="59.705" y1="243.855" x2="60.931" y2="244.569"/>
				<path style="fill:#21292F;" d="M64.412,209.814c0,0-0.171,1.606-0.497,1.808c-0.326,0.202-1.633,0.948-1.633,0.948l-0.941,0.03
					c0,0,0.979-0.607,1.192-0.87c0.213-0.263,0.814-0.538,0.814-0.538l0.084-0.835l0.417-0.845L64.412,209.814z"/>
				<polygon style="fill:#21292F;" points="61.45,211.292 61.482,212.294 61.641,212.59 62.437,212.365 62.676,212.006 
					62.494,211.009 62.538,210.807 				"/>
			</g>
			<path style="fill:#21292F;" d="M48.52,235.421l1.023,0.62l0.227,0.845l0.071,0.65l-0.472,0.918c0,0,1.376-0.896,1.828-0.86
				c0.452,0.036,1.713,0.247,1.861,0.192c0.149-0.055,1.505,0.003,2.35-0.225c0.845-0.227,1.946-0.312,1.99-0.514
				c0.044-0.202,1.676-0.905,1.62-1.104c-0.056-0.199,1.362-1.347,1.407-1.499c0.045-0.152,0.916-1.182,0.916-1.182
				s-1.57,1.103-2.312,1.427c-0.742,0.324-2.42,1.18-2.567,1.285c-0.147,0.105,0.661,0.28,0.661,0.28l-0.789,0.426
				c0,0-0.052-0.049-1.605,0c-1.553,0.049-2.996,0.395-3.202,0.251c-0.205-0.144-1.01-0.219-1.01-0.219l-0.702-1.583
				c0,0-0.157-0.196-0.31-0.291c-0.153-0.096-1.191,0.389-1.191,0.389l-0.379,0.714L48.52,235.421z"/>
			<path style="fill:#21292F;" d="M65.635,197.721l3.212-3.11l2.154-1.673c0,0,0.951-1.635,1.249-1.744
				c0.297-0.11,1.246-1.845,1.246-1.845l2.147-5.083l2.407-3.185l4.039-2.334c0,0-3.897,3.633-4.173,4.444
				c-0.275,0.811-1.286,3.751-1.286,3.751l-0.694,3.432l-1.34,2.048l0.339,1.193l0.658,1.785l-1.434-0.958l-1.807-0.043l0.539,1.187
				l-1.419-0.457l-2.464,1.382l-1.443,1.951l-1.869,1.162c0,0-0.989,0.432-1.669,1.156c-0.679,0.723-1.681,0.755-1.681,0.755
				l2.711-3.094L65.635,197.721z"/>
			<path style="fill:#DCDDDF;" d="M70.355,231.68c-2.09,1.917-4.593,3.946-7.227,5.269c0.508,0.592,1.253,0.992,1.969,1.333
				c0.91,0.433,1.881,0.796,2.82,1.163c0.146,0.057,0.275,0.045,0.389,0.001c-0.485-0.539-0.899-1.165-1.324-1.746
				c-0.218-0.298-0.17-0.63,0.008-0.89c-0.024-0.042-0.051-0.078-0.075-0.122c1.071-0.847,2.032-2.006,2.814-2.828
				c1.381-1.451,3.431-3.363,3.999-5.328c0.023-0.08,0.021-0.157,0.009-0.232C72.653,229.516,71.478,230.65,70.355,231.68z"/>
			<path style="fill:#DCDDDF;" d="M65.498,236.347c0.161-0.169,0.333-0.346,0.51-0.529c-0.961,0.484-1.964,0.848-2.997,1.158
				c-1.05,0.785-2.157,1.505-3.292,2.075c0.445,0.518,1.097,0.868,1.724,1.167c0.797,0.38,1.646,0.697,2.468,1.018
				c0.128,0.05,0.241,0.039,0.34,0.001c-0.425-0.472-0.787-1.02-1.159-1.529c-0.191-0.261-0.149-0.552,0.007-0.779
				c-0.021-0.037-0.045-0.068-0.066-0.107C63.972,238.082,64.813,237.067,65.498,236.347z"/>
			<path style="fill:#21292F;" d="M67.786,230.809c-0.026-0.148-0.211-0.236-0.346-0.196c-1.832,0.541-3.183,3.31-4.387,4.7
				c-0.836,0.965-1.723,1.872-2.645,2.754c-0.735,0.703-1.426,1.193-1.764,2.162c-0.095,0.274,0.163,0.648,0.467,0.613
				c2.129-0.246,4.192-2.885,5.528-4.392C65.884,235.046,68.131,232.811,67.786,230.809z"/>
			<path style="fill:#21292F;" d="M47.761,233.222c-0.401-0.072-0.756-0.161-1.157-0.021c-0.405,0.142-0.819,0.428-1.129,0.722
				c-0.296,0.281-0.526,0.639-0.605,1.042c-0.065,0.329-0.056,0.868,0.118,1.171c0.36,0.627,1.201-0.026,1.56-0.341
				c0.286-0.252,0.479-0.585,0.753-0.848c0.28-0.269,0.493-0.607,0.694-0.837C48.235,233.837,48.183,233.298,47.761,233.222z"/>
		</g>
		<path style="fill:#DCDDDF;" d="M123.786,240.558c0.591-1.281,1.457-3.833,1.378-6.355c-0.08-2.522-1.105-5.015-1.324-11.951
			c-0.219-6.936,0.471-5.064-0.74-3.448c-0.79,1.054-1.588,1.843-2.381,2.797c-2.69-1.654-5.511-3.127-8.035-5.012
			c-0.945-0.706-2.029,0.281-2.12,1.217c-0.289,2.988-5.504-1.794-5.954-2.095c-1.149-0.772-2.19-1.487-3.599-1.65
			c-1.562-0.18-3.171,0.165-4.23,1.416c-2.334,2.756-0.334,6.95,1.871,10.312c-0.747,0.04-1.146,1.031-0.406,1.49
			c0.649,0.402,1.292,0.815,1.935,1.226c-4.522-0.19-9.091,1.602-12.295,5.314c-0.819,0.949-0.792,2.079-0.169,2.904
			c-2.092,0.23-3.971,1.545-4.841,4.103c-0.217,0.637,0.684,0.929,1.028,0.434c1.837-3.092,4.421-3.278,7.751-0.557
			c0.439,0.613,1.141,0.842,1.837,0.482c1.992,1.077,3.983,2.154,5.975,3.23c-0.177,1.33,1.735,2.404,2.789,1.601
			c2.402-1.829,4.983-3.054,8.075-2.304c0.711,0.172,1.458,0.58,2.223,0.959c0.501,0.444,0.954,0.872,1.301,1.252
			c1.961,2.147,0.484,5.35,1.224,8.798c0.264,1.228,0.795,3.254,1.459,5.571c0.318-0.643,0.571-1.249,0.552-1.847
			c-0.05-1.576,1.772-3.843,6.313-9.983C127.945,242.32,123.195,241.839,123.786,240.558z"/>
		<path style="fill:#DCDDDF;" d="M264.072,275.583c2.492-1.025,7.537-1.185,9.704-2.515c2.167-1.331,9.429-1.244,9.429-1.244
			s5.068,10.571,8.36,14.885c3.292,4.315,2.17,8.768,6.143,14.64c0.49,0.724,1,1.481,1.52,2.253
			c0.626-3.183,0.597-6.249-0.858-7.955c-3.496-4.098-2-10.036-2.106-13.399c-0.106-3.363-3.522-4.939-7.938-11.532
			c-4.416-6.594-1.814-4.151-5.31-8.249c-3.496-4.098-2.026-10.877-2.026-10.877s-1.761-2.469-5.045,0.159
			c-3.284,2.628-5.098-1.522-7.62-1.443c-2.522,0.08-3.496-4.098-9.354-3.071c-5.859,1.026-10.904,1.186-21.834,1.53
			c-10.93,0.345-25.931,5.026-35.941,7.867s-12.452,5.443-22.489,7.442c-10.036,2-16.054-2.018-16.054-2.018
			s2.629,3.284,2.761,7.487c0.133,4.204,2.681,4.965,0.292,9.249c-2.39,4.283-9.811,9.146-13.054,13.036
			c-3.244,3.889-0.983,8.868-0.903,11.39c0.079,2.522-1.536,4.677-1.469,6.779c0.066,2.102-0.735,3.39-0.682,5.071
			c0.053,1.682,0.133,4.204,0.133,4.204l-2.248-4.558c0,0-0.735,3.39-0.695,4.651c0.04,1.261-1.115,4.664-1.496,5.938
			c-0.381,1.274-2.403,3.863-3.558,7.266c-0.707,2.082-0.307,4.283,0.11,5.68c1.76-2.406,4.128-6.581,5.853-10.077
			c2.373-4.809,1.743-4.789,5.642-11.224c3.9-6.435,5.593-12.801,6.164-14.712c0.571-1.912,2.921-17.45,4.448-19.077l4.178,2.393
			l-1.656-2.473l2.237,0.876l0.266-1.586l2.572,1.497l2.227,0.561l-0.71-2.502l4.464,1.437l0.906-1.291l2.867,0.856l1.271,0.276
			l4.434,0.491l-0.355-1.251l2.552,0.866l1.201-1.932l2.877,1.172c0,0,1.281,0.591,1.251-0.355c-0.03-0.946,0.876-2.237,0.876-2.237
			l3.538,2.098l2.542,0.551l4.009-2.967c0,0-2.207,0.07,1.231-0.986c3.438-1.055,3.714-2.326,5.931-2.081
			c2.217,0.246,5.015-1.105,7.527-1.5c2.512-0.395,7.547-0.869,12.947,0.223c5.4,1.092,6.365,1.693,8.898,1.928
			c2.532,0.236,6.651,0.737,8.227,0.687C251.836,277.862,261.58,276.608,264.072,275.583z"/>
		<path style="fill:#A87433;" d="M99.597,194.085c0,0,4.585-1.407,7.527-1.5c2.943-0.093,4.257,1.549,12.257,1.717
			c8.001,0.169,4.611-0.566,9.603-2.407c4.992-1.841,5.346-3.956,11.204-4.982c5.859-1.026,10.943,0.076,14.106,0.291
			s-1.822,2.267-3.684,3.272c-1.862,1.006-5.566,3.647-7.673,6.87s-3.654,4.218-7.102,4.958c-3.448,0.74-4.779-1.427-8.918-2.559
			c-4.139-1.132-6.641-0.422-6.641-0.422s7.056,3.565,7.706,4.175c0.651,0.611-2.512,0.395-5.685-0.136
			c-3.173-0.531-2.127,2.592-7.607-1.023c-5.479-3.614-2.652-4.019-7.371-3.555c-4.719,0.465-7.232,0.859-8.513,0.269
			c-1.281-0.591-1.025-2.493-2.602-2.443C94.628,196.662,99.597,194.085,99.597,194.085z"/>
		<path style="fill:#A87433;" d="M165.413,269.542c0,0-1.44-5.635-2.9-11.901c-1.46-6.266-2.27-11.921-4.872-14.364
			c-2.602-2.443-9.797-10.422-9.797-10.422s8.257,1.633,10.819,2.815c2.562,1.182,7.587,0.392,11.37,0.273
			c3.783-0.119,9.439-0.929,13.123-4.201c3.684-3.272,6.797-4.633,14.955-6.153c8.158-1.52,18.798-4.38,18.798-4.38
			s-3.034,3.883-7.348,7.175c-4.315,3.292-7.368,6.545-14.836,9.936c-7.467,3.392-16.057,11.237-18.48,14.47
			c-2.423,3.232-7.547,0.869-7.547,0.869l1.48,6.897L165.413,269.542z"/>
		<path style="fill:#21292F;" d="M131.527,295.86c0,0-3.527,1.584-7.31,1.703c-3.784,0.119-6.943,0.009-8.448-0.996
			c-1.505-1.005-4.047-1.556-4.887-1.529c-0.841,0.027-3.974,0.757-4.821,0.573c-0.847-0.184-3.606-0.938-4.441-0.702
			c-0.834,0.237-2.292,0.704-2.292,0.704s2.522-0.079,5.275,0.465c2.752,0.544,4.854,0.478,6.332,0.642
			c1.478,0.164,2.556,0.971,4.677,1.536c2.122,0.564,1.721,1.208,4.447,0.912c2.726-0.296,6.346,1.062,7.18,0.826
			c0.834-0.237,3.954-1.387,3.954-1.387L131.527,295.86z"/>
		<path style="fill:#A87433;" d="M245.982,242.384c0,0,5.543-4.383,6.777-5.264c1.235-0.88,5.425-1.434,7.08-2.327
			c1.655-0.894,4.071-4.336,5.963-4.396c1.892-0.06,6.476-1.467,8.118-2.781c1.642-1.314,5.412-1.854,5.779-3.549
			c0.367-1.695-2.221-3.717,0.655-5.912c2.876-2.195,6.527-6.518,6.527-6.518s-0.642,6.332-1.416,8.461
			c-0.775,2.128-2.35,5.545-2.704,7.66c-0.354,2.115,0.328-2.956-1.022,7.607c-1.35,10.563-4.912,4.363-2.492,14.386
			c2.42,10.023,3.767,12.716,3.767,12.716s-8.06-2.06-9.888-6.631c-1.827-4.571-2.721-6.226-4.022-7.448
			c-1.301-1.221-5.571-3.191-6.432-3.795c-0.861-0.604-6.746-0.418-6.746-0.418l-7.961,1.093l-6.266,1.46L245.982,242.384z"/>
		<path style="fill:#A87433;" d="M325.225,193.175c0,0-2.244,8.908,1.878,19.508c4.122,10.6,2.619,16.329,4.19,19.435
			c1.571,3.106,3.234,9.156,2.907,12.112c-0.328,2.956,1.093,7.961,1.093,7.961l-2.124,12.691c0,0,1.693-6.366,4.428-19.707
			c2.735-13.342,8.375-1.316,3.68-16.738c-4.695-15.422-5.701-20.65-5.407-24.657c0.294-4.007,1.575-3.416-1.066-7.12
			c-2.642-3.704-1.261,0.04-2.642-3.704c-1.381-3.744-3.096-8.108-3.096-8.108L325.225,193.175z"/>
		<path style="fill:#D5B780;" d="M303.493,351.346l-1.918-0.781c0,0-2.108-0.144-2.417,0.076c-0.309,0.22-2.43-0.344-2.43-0.344
			s-1.793-0.154-2.217-0.246c-0.424-0.092-1.977,0.694-2.492,1.026c-0.516,0.332-1.573,0.155-2.315-0.032
			c-0.742-0.187-0.752-0.502-0.477-1.773c0.276-1.271,0.489-1.173,0.489-1.173l4.233-0.87l0.123-1.108l1.374-1.464l1.561-0.523
			l-0.793-0.133l-1.897-0.098l-1.729,0.212l-1.089,0.508l-2.182,0.858l1.532-1.469l0.768-0.655l1.896-0.665
			c-1.904,0.18-4.082,0.412-4.897,0.602c-1.566,0.365-6.512,3.677-7.112,4.643c-0.601,0.966-1.172,2.877-0.787,5.075
			c0.385,2.197,9.824,1.268,9.824,1.268l4.68-1.726c0,0,4.759,0.797,6.336,0.747c0.508-0.016,1.176-0.136,1.849-0.29l1.779-1.402
			L303.493,351.346z"/>
		<path style="fill:#D5B780;" d="M138.714,343.605c-0.19-0.815-0.198-1.463,0.05-2.039l-0.14-0.799c0,0,0.114,0.265,0.261,0.565
			c0.12-0.207,0.279-0.407,0.479-0.602c-0.105-0.539-0.26-1.236-0.494-2.18c-1.628-6.576-0.758,0.971-0.758,0.971
			s-1.552,0.838-2.33,1.178c-0.778,0.34-2.177,1.016-3.098,1.834c-0.921,0.818-1.379,1.306-1.842,1.636
			c-0.463,0.33-2.177,1.016-2.635,1.503c-0.458,0.488-2.68,0.085-3.158-0.058c-0.478-0.143-2.685-0.073-3.779,0.277
			c-1.094,0.35-2.345,0.705-2.345,0.705s0.586-1.439,1.044-1.927c0.458-0.488,1.389-0.991,1.389-0.991l2.433-2.917
			c0,0-0.631,0.02-1.104,0.035c-0.473,0.015-1.566,0.365-2.182,0.858c-0.616,0.493-1.094,0.35-2.355,0.39
			c-1.261,0.04-2.355,0.39-2.355,0.39l-2.975,0.725l1.827-2.109l3.153-0.1l1.862-1.005c0,0,1.226-1.143,0.758-0.971
			c-0.468,0.173-2.375-0.241-3.015-0.536c-0.354-0.163-0.947-0.221-1.54-0.237c-2.529,0.518-5.557,1.041-6.938,1.609
			c-0.756,0.311-1.62,0.86-2.456,1.541c-0.444,0.41-0.913,0.846-1.346,1.249c-1.322,1.391-2.327,3.015-2.285,4.345
			c0.08,2.522,3.558,2.728,5.755,2.343c2.197-0.385,3.133-0.73,3.133-0.73s1.941,1.517,3.833,1.457
			c1.892-0.06,5.981-0.504,8.808-0.909c2.828-0.405,3.734-1.696,6.591-1.155c2.857,0.541,5.075,0.787,6.001,0.126
			C137.888,347.418,139.079,345.171,138.714,343.605z"/>
		<path style="fill:#A87433;" d="M324.013,294.837c-0.275,1.271-0.126,6,0.534,6.926c0.66,0.926,2.071,5.616,2.071,5.616
			s-0.817,4.129-2.294,7.331c-1.477,3.203-3.82,8.957-4.371,11.5c-0.551,2.542-2.559,8.918-3.455,10.524
			c-0.896,1.606-2.373,4.809-3.624,5.164c-1.251,0.355-2.798,1.351-4.049,1.706s-2.808,1.035-2.808,1.035l1.676,3.103l-1.537,1.311
			l-3.163-0.216l-2.197,0.385c0,0-0.194,0.532-1.639,1.419c-0.814,0.5-1.739,1.431-2.399,2.154c1.534,0.23,3.801,0.537,4.797,0.505
			c1.576-0.05,4.7-1.095,4.7-1.095s1.547-0.996,3.133-0.73c1.586,0.266,3.823,1.142,4.424,0.176
			c0.601-0.966,1.052-6.661,1.052-6.661s4.235-5.815,5.436-7.746s3.21-8.307,4.361-11.815c1.152-3.508,2.884-8.612,4.627-13.401
			c1.743-4.789,2.529-9.864-0.063-11.991c-2.592-2.127-4.397-9.329-4.211-13.438C325.016,286.6,324.289,293.566,324.013,294.837z"/>
		<g>
			<defs>
				<path id="SVGID_00000128449140618009620580000016312706750197245865_" d="M347.984,224.333
					c-0.929-9.439-0.574-8.188-3.76-19.133c-3.186-10.946-8.409-16.462-15.16-20.352c-6.75-3.89-37.058-4.196-40.861-4.707
					c-3.803-0.511-17.942,1.513-32.661,5.133c-14.719,3.62-42.11,5.747-53.599,1.691c-11.49-4.056-28.034-8.268-37.542-9.546
					c-8.991-1.209-49.18,9.848-62.861,11.351c-9.508-0.854-12.937-0.599-12.937-0.599c-0.126-4.008-1.607-12.787-7.492-8.59
					c-5.885,4.198-8.075,11.087-8.075,11.087s-15.251,12.517-17.968,15.411c-2.717,2.894-1.625,12.087-1.625,12.087
					s-7.662,11.475-7.586,13.88c0,0-1.84,5.274-1,6.451c0.84,1.177,8.505,2.54,12.926,2.802c4.421,0.262,8.965-8.307,11.319-9.986
					c2.354-1.679,9.518-3.51,9.518-3.51s2.32,9.956,2.822,13.15c0.502,3.194-8.101,10.285-8.539,9.095
					c-0.439-1.19-8.467-1.338-8.467-1.338l-1.928,2.468l2.08,2.341c0,0,2.255,1.534,4.297,2.673
					c2.042,1.139,3.715,3.293,6.007,6.029c0,0,4.421,0.262,7.096,2.384c2.649,1.321-0.74-4.39-0.74-4.39s3.632,0.688,5.436,0.631
					c-0.432-0.989-1.285-2.567-1.285-2.567s4.727-2.757,5.504-3.584c0.776-0.827,7.881-10.88,11.839-12.61
					c2.109-0.922,3.904-0.921,5.606-0.765c1.686,1.247,4.252,3.225,5.509,4.601c1.961,2.147,0.484,5.35,1.224,8.798
					c0.74,3.448,3.571,13.143,5.622,18.128c2.051,4.985,9.511,11.377,9.511,11.377s3.886,13.133,3.67,16.296
					c-0.216,3.163-3.867,17.48-4.714,20.663c-0.846,3.183-8.686,14.792-9.287,15.758c-0.601,0.966-8.463,1.845-10.956,2.87
					s-6.167,4.613-6.087,7.135c0.08,2.522,3.558,2.728,5.755,2.343c2.197-0.385,3.133-0.73,3.133-0.73s1.941,1.517,3.833,1.457
					c1.892-0.06,5.981-0.504,8.808-0.909c2.828-0.405,3.734-1.696,6.591-1.155c2.857,0.541,5.075,0.787,6.001,0.126
					c0.926-0.66,2.118-2.907,1.753-4.474c-0.365-1.566-0.08-2.522,1.467-3.518s5.141-7.105,7.514-11.914
					c2.373-4.809,1.743-4.789,5.642-11.224c3.9-6.435,5.593-12.801,6.164-14.712c0.571-1.912,2.921-17.45,4.448-19.077l4.178,2.393
					l-1.656-2.473l2.237,0.876l0.266-1.586l2.572,1.497l2.227,0.561l-0.71-2.502l4.464,1.437l0.906-1.291l2.867,0.856l1.271,0.276
					l4.434,0.491l-0.355-1.251l2.552,0.866l1.201-1.932l2.877,1.172c0,0,1.281,0.591,1.251-0.355
					c-0.03-0.946,0.876-2.237,0.876-2.237l3.538,2.098l2.542,0.551l4.009-2.967c0,0-2.207,0.07,1.231-0.986
					c3.438-1.055,3.714-2.326,5.931-2.081c2.217,0.246,5.015-1.105,7.527-1.5c2.512-0.395,7.547-0.869,12.947,0.223
					c5.4,1.092,6.365,1.693,8.898,1.928c2.532,0.236,6.651,0.737,8.227,0.687c1.576-0.05,11.321-1.304,13.813-2.329
					s7.537-1.185,9.704-2.515c2.167-1.331,9.429-1.244,9.429-1.244s5.068,10.571,8.36,14.885c3.292,4.315,2.17,8.768,6.143,14.64
					c3.973,5.871,9.276,13.91,10.242,14.51c0.966,0.601,0.76,4.079,0.524,6.611c-0.236,2.532-0.146,5.37-0.983,8.868
					c-0.836,3.498-5.496,5.854-6.057,8.081c-0.561,2.227-4.64,2.987-4.64,2.987s-6.611,0.524-8.178,0.889
					c-1.566,0.365-6.512,3.677-7.112,4.643c-0.601,0.966-1.172,2.877-0.787,5.075c0.385,2.197,9.824,1.268,9.824,1.268l4.68-1.726
					c0,0,4.759,0.797,6.336,0.747c1.576-0.05,4.7-1.095,4.7-1.095s1.547-0.996,3.133-0.73c1.586,0.266,3.823,1.142,4.424,0.176
					c0.601-0.966,1.052-6.661,1.052-6.661s4.235-5.815,5.436-7.746s3.21-8.307,4.361-11.815c1.152-3.508,2.884-8.612,4.627-13.401
					c1.743-4.789,2.529-9.864-0.063-11.991c-2.592-2.127-4.397-9.329-4.211-13.438s4.126-9.283,8.882-18.585
					c4.756-9.303,11.786-26.567,13.174-32.607C348.459,229.367,348.913,233.771,347.984,224.333z"/>
			</defs>
			<clipPath id="SVGID_00000097464228337006780370000015772625687917600937_">
				<use xlink:href="#SVGID_00000128449140618009620580000016312706750197245865_"  style="overflow:visible;"/>
			</clipPath>
			<g style="clip-path:url(#SVGID_00000097464228337006780370000015772625687917600937_);">
				<path style="fill:#21292F;" d="M99.003,195.261c0,0,0.435,3.773,3.617,4.62c3.183,0.847,5.775,2.974,7.696,3.86
					s4.879,4.58,7.746,5.436c2.868,0.856,2.247,1.192,3.972,5.871c1.726,4.68,2.051,4.985,3.856,12.187
					c1.805,7.202,0.929,9.439,1.954,11.931c1.026,2.492-1.772,3.843-2.284,7.646c-0.511,3.803-0.146,5.37-0.146,5.37
					s0.521-3.488,1.683-6.681c1.162-3.193,1.772-3.843,2.639-6.395c0.866-2.552,0.236-2.532-0.919-9.124
					c-1.155-6.591-1.52-8.158-3.601-14.089c-2.081-5.931-2.535-10.335-5.077-10.886c-2.542-0.551-1.231,0.986-6.365-1.693
					c-5.134-2.678-6.15-4.856-8.692-5.407c-2.542-0.551-3.823-1.142-3.823-1.142L99.003,195.261z"/>
				<path style="fill:#21292F;" d="M113.397,191.336c0.966,0.601,1.676,3.103,5.529,5.191c3.853,2.088,6.366,1.693,8.977,4.451
					c2.612,2.758,2.967,4.009,4.918,5.841c1.951,1.832,3.282,3.999,3.943,4.925c0.66,0.926-1.361-3.113-3.362-6.522
					c-2.001-3.409-1.756-5.626-4.998-8.364c-3.242-2.738-3.518-1.467-6.405-2.954c-2.887-1.487-3.558-2.728-5.154-3.309
					c-1.596-0.581-5.104-1.733-5.104-1.733L113.397,191.336z"/>
				<path style="fill:#21292F;" d="M133.508,218.579c0,0-0.177,0.742-0.135,2.107c0.063,2.057,0.625,5.528,3.042,10.004
					c4.022,7.448,6.35,14.528,7.717,17.851c1.367,3.323,2.341,7.501,2.013,10.457c-0.327,2.956-3.058,9.775-3.779,13.585
					c-0.721,3.81-0.642,6.332-0.956,9.709c-0.314,3.376-0.983,8.868-0.983,8.868s1.837-8.474,4.081-17.382
					c2.244-8.908,3.952-8.12,4.554-15.713c0.602-7.594,3.085-8.934-1.318-15.107c-4.403-6.173-6.584-8.629-8.372-11.939
					c-1.788-3.31-3.115-5.372-3.615-7.881c-0.5-2.509-1.053-6.7-1.947-8.355"/>
				<path style="fill:#21292F;" d="M133.721,185.329c0,0,2.011,3.724,5.934,8.019c3.923,4.295,5.775,2.974,6.976,1.042
					c1.201-1.932,4.454,1.122,5.814,4.235c1.361,3.113-0.04-1.261,2.781,8.118c2.821,9.379,0.239,7.567,4.852,13.734
					c4.613,6.167,4.653,7.428,6.664,11.152c2.011,3.724,6.604,9.26,7.294,11.132c0.69,1.872,7.374,13.654,7.374,13.654
					s-8.874-21.181-11.595-27.407c-2.721-6.226-3.392-7.467-6.783-14.935s-2.13-7.507-4.141-11.231
					c-2.011-3.724-1.46-6.266-3.451-9.359c-1.991-3.093-1.241,0.67-4.829-3.004c-3.588-3.674-9.65-2.431-10.422-3.564
					C139.416,185.781,133.721,185.329,133.721,185.329z"/>
				<path style="fill:#21292F;" d="M168.7,253.659c0,0,5.531,1.93,4.77,4.478c-0.761,2.549-1.076,5.925,1.053,6.7
					c2.129,0.775,2.628,3.284,2.628,3.284l-2.416,3.443c0,0-0.801,1.288-1.602,2.575c-0.801,1.288-0.735,3.39-0.735,3.39
					l-0.748,2.969c0,0,3.283-2.628,4.939-3.522c1.655-0.894,4.571-1.827,4.571-1.827l2.85-3.036c0,0,4.151-1.814,2.89-1.774
					s-5.939-1.496-5.939-1.496l1.142-3.823l-3.396-0.945l-0.914-2.286c0,0,0.934,2.916-0.907-2.075s-1.841-4.992-1.841-4.992
					l-1.748-2.049l-1.695-0.367c-2.549-0.761-4.27-1.969-4.27-1.969l-2.168-2.036L168.7,253.659z"/>
				<path style="fill:#21292F;" d="M155.657,173.696c0,0,1.88,6.253,4.469,8.275c2.589,2.022,2.589,2.022,3.916,4.084
					c1.327,2.062,2.261,4.978,3.562,6.2c1.301,1.221,3.075,4.111,3.956,5.346c0.88,1.235,2.274,5.399,2.274,5.399l4.221,13.753
					l1.381,3.744c0,0-0.783-4.814-1.303-7.954c-0.52-3.14-1.907-7.093-2.624-9.806c-0.717-2.713-0.329-3.777-1.44-5.635
					c-1.111-1.859-1.538-2.055-2.859-3.907c-1.321-1.852-2.622-3.073-3.082-4.321c-0.46-1.248-0.69-1.872-1.788-3.31
					c-1.097-1.438-1.984-2.883-2.648-3.914c-0.664-1.031-1.084-1.018-1.951-1.832c-0.867-0.814-0.861-0.604-1.104-1.648
					c-0.243-1.044-0.31-3.146-0.757-3.974c-0.447-0.827-0.52-3.14-0.52-3.14l-0.243-1.044L155.657,173.696z"/>
				<path style="fill:#21292F;" d="M183.921,215.937c0,0-0.511,3.803,0.849,6.917s2.071,5.615,2.071,5.615s0.77,4.394,1.115,5.33
					c0.345,0.936,2.376,5.29,2.376,5.29l1.085,4.384c0,0-1.214-8.483-1.599-10.68c-0.385-2.197-0.445-4.089-0.81-5.655
					c-0.365-1.566-0.77-4.394-1.125-5.645c-0.355-1.251-1.371-3.428-1.736-4.995c-0.365-1.566-0.365-1.566-0.73-3.133
					s-1.706-4.049-1.706-4.049L183.921,215.937z"/>
				<path style="fill:#21292F;" d="M187.133,247.712l1.745,5.31l0.72,2.818l0.551-2.542l1.331,2.167l0.415,3.143
					c0,0,0.06,1.892,0.09,2.838c0.03,0.946,0.079,2.522,0.119,3.783c0.04,1.261,0.099,3.153,0.099,3.153s0.641,0.295,1.132-4.139
					c0.491-4.434,1.102-5.084,0.382-7.902c-0.72-2.818-0.385-2.197-1.075-4.069c-0.69-1.872,0.641,0.295-0.69-1.872
					c-1.331-2.167-2.632-3.389-2.632-3.389s-0.65-0.611-0.996-1.547c-0.345-0.936-1.371-3.428-1.371-3.428s-2.306-3.083-2.652-4.019
					c-0.345-0.936-1.301-1.221-1.961-2.147s-1.626-1.527-1.626-1.527l3.076,7.477l1.341,2.482L187.133,247.712z"/>
				<path style="fill:#21292F;" d="M181.397,175.935l0.544,7.242l0.119,3.783l1.361,3.113l0.415,3.143l2.167-1.331l0.375,1.882
					l1.045,3.123c0,0,1.941,1.517,1.981,2.778c0.04,1.261,1.095,4.7,1.775,6.256c0.68,1.557,1.46,6.266,1.46,6.266l1.43,5.32
					c0,0-0.514-6.296-0.564-7.872c-0.05-1.576-1.775-6.256-2.16-8.453s-0.445-4.089-0.81-5.655
					c-0.365-1.567-1.035-2.808-1.716-4.364c-0.68-1.557-0.996-1.547-1.351-2.798c-0.355-1.251-0.355-1.251-0.355-1.251l-1.557,0.68
					c0,0-1.006-1.862-1.035-2.808c-0.03-0.946-0.01-0.315-0.06-1.892c-0.05-1.577-0.03-0.946-0.08-2.522
					c-0.05-1.576,1.132-4.139,1.132-4.139l-0.06-1.892L181.397,175.935z"/>
				<path style="fill:#21292F;" d="M198.663,223.047l0.494,5.665c0,0,0.445,4.089,0.79,5.025c0.345,0.936,1.43,5.32,1.43,5.32
					l1.085,4.384l1.726,4.68l1.065,3.754l0.425,3.458l0.72,2.818c0,0-0.279-8.828-0.999-11.646c-0.72-2.818-1.45-5.951-1.815-7.517
					c-0.365-1.566-0.415-3.143-0.79-5.025c-0.375-1.882-0.435-3.773-0.8-5.34c-0.365-1.567,0.176-4.424-0.179-5.675
					c-0.355-1.251-0.72-2.818-1.065-3.754c-0.345-0.936-1.4-4.374-1.4-4.374s-0.395-2.512-0.74-3.448
					C198.265,210.435,198.663,223.047,198.663,223.047z"/>
				<path style="fill:#21292F;" d="M204.086,281.578c0,0,0.695-4.651,1.496-5.938s3.73-1.801,3.73-1.801l2.482-1.341l2.443-2.602
					l-5.045,0.159l3.691-3.062c0.761-2.549,0.708-4.23,1.062-6.345c0.354-2.115,3.217-4.73,2.744-6.399
					c-0.473-1.668-1.381-3.744-1.447-5.846c-0.066-2.102-0.119-3.784-0.172-5.465c-0.053-1.682-0.54-3.77-1.079-7.54
					c-0.54-3.77,0.854,0.394-0.54-3.77c-1.394-4.164-2.301-6.24-2.787-8.328c-0.487-2.089-0.46-1.248-0.566-4.611
					c-0.106-3.363-0.513-2.929-0.566-4.611c-0.053-1.682-1.04-6.279-1.04-6.279s2.026,10.877,3.38,13.78
					c1.354,2.903,2.748,7.067,3.628,8.302c0.881,1.235,0.92,2.496,1.867,5.832c0.947,3.337,1.407,4.585,2.314,6.66
					c0.907,2.075,1.894,6.673,1.894,6.673s-0.301,3.797-1.102,5.084c-0.801,1.288-0.261,5.058-0.261,5.058l-1.049,6.766l3.257-3.469
					l3.757-0.96c0,0-2.496,0.92-3.23,4.31c-0.735,3.39-0.735,3.39-0.735,3.39l-2.009,3.009c0,0-0.42,0.013-2.009,3.009
					c-1.589,2.996-1.522,5.098-2.77,5.558c-1.248,0.46-5.279,6.058-5.279,6.058l-2.416,3.443l-3.691,3.062l-6.319-0.221
					L204.086,281.578z"/>
				<path style="fill:#21292F;" d="M197.881,194.296l3.278,7.003c0,0,1.019,3.742,1.919,4.962c0.9,1.221,2.279,3.682,2.279,3.682
					s-1.177-7.102-1.697-9.183c-0.519-2.081-0.92-1.641-1.879-4.122c-0.959-2.481,0.44,0.4-0.959-2.481
					c-1.399-2.881-3.599-4.883-3.599-4.883S197.862,193.876,197.881,194.296z"/>
				<path style="fill:#21292F;" d="M212.189,181.592l0.358,11.35l-0.146,5.37c0,0,0.129,4.099,0.8,5.34
					c0.67,1.241,2.031,4.354,2.031,4.354s1.726,4.68,2.386,5.606c0.66,0.926,1.736,4.995,1.736,4.995l0.405,2.828
					c0,0,0.983-8.868,0.618-10.434c-0.365-1.566-3.017-5.586-3.066-7.162c-0.05-1.576,0.531-3.173,0.491-4.434
					c-0.04-1.261,0.846-3.183,0.807-4.444c-0.04-1.261-0.04-1.261-0.04-1.261l1.41,4.69l0.72,2.818l0.827-3.813
					c0,0,2.316,3.398,3.667,6.196c1.351,2.798,2.346,4.344,1.49,7.212c-0.856,2.867-1.397,5.725-1.623,8.572
					c-0.226,2.848-0.077,7.577,0.288,9.143s1.765,5.941,1.765,5.941s1.085,4.384,1.125,5.645c0.04,1.261,1.795,6.887,1.795,6.887
					s-0.541,2.857-0.481,4.749c0.06,1.892,0.474,5.035,0.524,6.611c0.05,1.576,0.189,5.991-0.096,6.946
					c-0.285,0.956,1.743-4.789,1.978-7.321c0.236-2.532,0.727-6.966,0.697-7.912c-0.03-0.946,1.291,0.906,0.126-6
					c-1.165-6.907-2.15-8.138-2.23-10.66c-0.08-2.522-0.454-4.404-0.534-6.926c-0.08-2.522-0.69-1.872-0.465-4.719
					c0.226-2.848,0.561-2.227,0.471-5.065c-0.09-2.838,0.481-4.749,0.382-7.902c-0.1-3.153,1.172-2.877,0.126-6
					c-1.045-3.123-0.7-2.187-1.4-4.374c-0.7-2.187-1.125-5.645-1.125-5.645l-0.886,1.922l-0.551,2.542c0,0-1.261,0.04-1.941-1.517
					c-0.68-1.557-1.951-1.832-2.622-3.073c-0.67-1.241-0.355-1.251-1.981-2.778s-2.562-1.182-2.917-2.433
					c-0.355-1.251-0.986-1.231-1.37-3.428c-0.385-2.197-0.72-2.818-1.44-5.635c-0.72-2.818-2.101-6.562-2.101-6.562L212.189,181.592
					z"/>
				<path style="fill:#21292F;" d="M238.675,220.838c0,0-1.288,9.193-0.913,11.075c0.375,1.882,0.78,4.709,1.135,5.961
					c0.355,1.251,0.839,6.601,0.839,6.601s0.79,5.025,0.839,6.601c0.05,1.576,1.065,3.754,1.065,3.754l2.356,4.66l1.971,2.463
					c0,0-1.726-4.68-2.486-8.758c-0.76-4.079-0.494-5.665-0.574-8.188c-0.08-2.522,0.196-3.793,0.136-5.685
					c-0.06-1.892,0.216-3.163,1.102-5.084c0.886-1.922,2.058-4.799,2.058-4.799l0.524,6.611l-0.541,2.857
					c0,0-0.896,1.606-0.206,3.478c0.69,1.872,1.46,6.266,1.46,6.266l-0.116,6.316c0,0,0.109,3.468,0.465,4.719
					c0.355,1.251,1.331,2.167,1.065,3.754c-0.266,1.586-1.142,3.823-1.092,5.4c0.05,1.576,0.07,2.207,0.109,3.468
					c0.04,1.261,0.365,1.566,0.1,3.153c-0.266,1.586-0.156,5.055-1.052,6.661c-0.896,1.606-1.328,7.932-1.328,7.932
					s3.09-12.09,3.532-18.101c0.442-6.01,0.777-5.39,1.613-8.888c0.837-3.498,1.427-4.779,1.387-6.04
					c-0.04-1.261-0.06-1.892-0.464-4.719c-0.405-2.828-1.155-6.591-1.214-8.483c-0.06-1.892-0.829-6.286-0.879-7.862
					c-0.05-1.576-0.455-4.404-0.514-6.296c-0.06-1.892-0.464-4.719-0.524-6.611c-0.06-1.892-0.109-3.468-0.81-5.655
					c-0.7-2.187-1.075-4.069-1.115-5.33c-0.04-1.261,0.491-4.434,0.442-6.01c-0.05-1.577-2.336-4.029-2.336-4.029
					s-0.618,10.435-0.893,11.706c-0.276,1.271-0.491,4.434-0.491,4.434l-1.457,3.833l-0.551,2.542c0,0-0.156,5.055-0.531,3.173
					c-0.375-1.882-0.504-5.98-0.534-6.926c-0.03-0.946,0.236-2.532,0.196-3.793c-0.04-1.261-0.099-3.153-0.099-3.153
					L238.675,220.838z"/>
				<path style="fill:#21292F;" d="M231.724,183.921l2.748,7.067l0.934,2.916l2.695,5.385l2.695,5.385c0,0,0.182-7.58-1.119-8.802
					c-1.301-1.221-1.381-3.744-1.381-3.744l5.111,1.943l1.761,2.469l4.323,3.651l6.903,18.719c0,0,1.026,5.859,1.487,7.107
					c0.46,1.248,1.433,5.425,1.433,5.425l1.434,5.425l0.513,2.93c0,0,0.615-7.173,0.102-10.103c-0.513-2.93-1.013-5.438-1.526-8.368
					c-0.513-2.929-1.066-7.12-1.146-9.642c-0.079-2.522-0.159-5.045-0.239-7.567c-0.079-2.522-1.013-5.438-2.774-7.908
					c-1.761-2.469,0.027,0.841-1.761-2.469c-1.788-3.31-2.195-2.876-3.089-4.531c-0.894-1.655-2.168-2.036-2.642-3.704
					c-0.473-1.668-2.668-4.545-3.562-6.2c-0.894-1.655-1.327-2.062-3.509-4.518c-2.181-2.456-3.496-4.098-3.496-4.098
					L231.724,183.921z"/>
				<path style="fill:#21292F;" d="M260.763,180.69l0.83,6.286c0,0,0.365,1.566,1.351,2.798c0.986,1.231,0.936-0.345,1.646,2.157
					c0.71,2.502,1.765,5.941,2.12,7.192c0.355,1.251,1.39,4.059,1.42,5.005c0.03,0.946,0.504,5.98,0.219,6.936
					c-0.285,0.956,0.179,5.675,0.179,5.675c0.906-1.291,2.008-6.376,1.633-8.257c-0.375-1.882-0.375-1.882-0.435-3.773
					c-0.06-1.892,0.166-4.739,0.136-5.685c-0.03-0.946,0.265-1.586-0.119-3.783c-0.385-2.197,1.321,1.852-0.445-4.089
					c-1.765-5.941-2.111-6.877-2.456-7.813c-0.345-0.936-0.72-2.818-0.76-4.079c-0.04-1.261,0.186-4.109,0.186-4.109l0.226-2.848
					L260.763,180.69z"/>
				<path style="fill:#21292F;" d="M264.891,234.844c0,0,0.166,5.255-0.235,5.899c-0.4,0.644-1.799,3.002-1.982,3.85
					c-0.184,0.847,0.079,2.522,0.126,3.994c0.046,1.471,0.952-3.186-0.321,3.166c-1.272,6.352-1.226,7.824-1.226,7.824
					s-0.374,1.485-1.005,1.505c-0.63,0.02-0.546-3.98-0.808,1.077c-0.261,5.058-0.261,5.058-0.241,5.688
					c0.02,0.631,1.491,0.584,1.491,0.584l1.668-0.473l1.478,0.164c0,0,1.071,0.598,2.102-0.066c1.031-0.664,0.427,0.197,1.662-0.684
					c1.235-0.881,3.58,0.098,3.58,0.098s0.867,0.814,1.051-0.033c0.184-0.847,0.571-1.912,0.761-2.549
					c0.19-0.637,0.401-0.644,0.788-1.708c0.387-1.064,0.374-1.485,0.768-2.339c0.394-0.854,0.394-0.854,0.394-0.854
					s-1.609,2.365-2.666,2.188c-1.058-0.177-1.254,0.25-1.892,0.06c-0.637-0.19,0.427,0.197-0.637-0.19
					c-1.064-0.387-1.064-0.387-1.064-0.387s-0.487-2.089-0.533-3.56c-0.046-1.471-0.073-2.312,0.117-2.949
					c0.19-0.637,0.584-1.491,0.347-2.325c-0.237-0.834-1.341-2.483-1.341-2.483s-0.701,4.441-0.697-2.082
					c0.005-6.523,0.412-6.956,0.385-7.797c-0.027-0.841,0.144-2.109,0.111-3.16c-0.033-1.051,0.177-1.058-0.31-3.146
					c-0.487-2.089-0.927-2.706-0.96-3.757c-0.033-1.051,0.407-0.434-0.283-2.306c-0.69-1.872-2.038-4.565-2.038-4.565l0.336,3.987
					c0,0-0.164,1.478,0.099,3.153C264.181,232.342,264.891,234.844,264.891,234.844z"/>
				<path style="fill:#21292F;" d="M140.182,196.697c0,0,3.017,5.586,3.687,6.827c0.67,1.241,3.627,4.935,3.627,4.935
					s1.696,3.734,2.396,5.921c0.7,2.187,1.775,6.256,2.446,7.497c0.67,1.241,1.766,5.941,1.835,8.148
					c0.07,2.207,0.454,4.404,0.82,5.971c0.365,1.566,1.075,4.069,1.42,5.005c0.345,0.936,3.913,3.979,3.913,3.979l1.341,2.482
					c0,0,1.755,5.626,1.785,6.571c0.03,0.946,0.83,6.286,0.83,6.286s-3.066-7.162-3.411-8.098c-0.345-0.936-2.011-3.724-2.356-4.66
					c-0.345-0.936-2.326-3.714-3.292-4.315c-0.966-0.601-3.518-1.467-3.883-3.034c-0.365-1.566-0.395-2.512-1.095-4.699
					c-0.7-2.187,1.006,1.862-1.49-7.212c-2.495-9.074-1.855-8.778-2.565-11.281c-0.71-2.502-0.109-3.468-0.79-5.025
					c-0.68-1.557-1.016-2.177-2.326-3.714c-1.311-1.537-1.341-2.483-2.346-4.345c-1.005-1.862-1.961-2.147-2.021-4.039
					c-0.06-1.892,2.602,2.443-0.415-3.143c-3.017-5.586-3.677-6.512-3.677-6.512L140.182,196.697z"/>
				<path style="fill:#21292F;" d="M283.547,172.608c0,0-4.766,8.987-4.686,11.509c0.079,2.522,0.225,7.147-0.549,9.275
					c-0.774,2.128-2.323,6.385-1.416,8.461c0.907,2.075,3.168,7.054,3.168,7.054s0.212,6.726,0.292,9.249
					c0.08,2.522-0.129,9.262-0.076,10.943c0.053,1.682-1.129,4.244-1.876,7.213c-0.748,2.969-1.522,5.098-1.85,8.054
					c-0.328,2.956,0.513,2.929-0.609,7.383c-1.122,4.454-1.122,4.454-1.122,4.454s3.611-5.584,4.226-12.758
					c0.615-7.173,1.863-7.633,2.939-13.559c0,0,1.306-5.301,1.496-5.938s0.327-2.956,0.288-4.217
					c-0.04-1.261,0.064-4.631,0.255-5.268c0.19-0.637,0.682-5.071,0.682-5.071s-0.073-2.312-0.546-3.98
					c-0.473-1.668-0.48-1.878-0.526-3.35c-0.047-1.471-0.967-3.967-0.967-3.967l-0.268,4.848c0,0-0.17,1.268-0.137,2.319
					c0.033,1.051,0.5,2.509,0.06,1.892c-0.44-0.617-1.42-5.005-1.42-5.005l-0.106-3.363l-0.33-3.777c0,0,0.925-4.027,0.892-5.078
					c-0.033-1.051,0.248-5.478,0.248-5.478s1.332-4.46,1.516-5.308c0.184-0.847,1.365-3.41,1.542-4.467
					c0.177-1.058,1.339-4.25,1.693-6.365c0.354-2.115,0.932-3.817,0.932-3.817L283.547,172.608z"/>
				<path style="fill:#21292F;" d="M307.267,174.174c0,0-3.11,11.46-4.016,12.751c-0.906,1.291-2.038,5.429-1.653,7.627
					c0.385,2.197,0.504,5.981,0.219,6.936c-0.285,0.956-1.022,7.607-1.583,9.834c-0.561,2.227-1.789,13.312-2.39,14.277
					c-0.601,0.966-1.663,7.311-2.894,8.297c-1.231,0.986-1.978,7.321-1.948,8.267c0.03,0.946-2.854,9.558-2.854,9.558
					s-4.58,4.879-4.866,5.834c-0.285,0.956-5.022,10.889-5.022,10.889l-3.9,6.435c0,0-0.892,1.225-1.933,2.615
					c-0.563,0.752-1.169,1.552-1.702,2.234c-1.517,1.941-4.647,12.771-4.677,11.825s11.819-15.522,12.41-16.803
					c0.591-1.281,0.896-1.606,1.762-4.158c0.866-2.552-0.621,0.335,0.866-2.552c1.487-2.887,0.305-0.325,1.487-2.887
					c1.182-2.562,0.866-2.552,2.994-5.144c2.128-2.592,2.463-1.971,3.359-3.578c0.896-1.606,1.507-2.257,2.088-3.853
					c0.581-1.596,0.551-2.542,0.817-4.129c0.266-1.586,0.787-5.074,0.787-5.074s2.088-3.853,2.363-5.124s1.142-3.823,1.427-4.779
					c0.285-0.956,1.477-3.203,1.477-3.203s0.886-1.922,1.152-3.508s1.132-4.139,1.092-5.4s0.836-3.498,1.092-5.4
					c0.256-1.902,1.427-4.779,1.713-5.735c0.285-0.956,0.727-6.966,0.727-6.966l-0.604-9.133c0,0,0.846-3.183,1.132-4.138
					c0.285-0.956,0.876-2.237,1.142-3.823c0.265-1.586,1.447-4.148,1.723-5.42c0.275-1.271,0.511-3.803,1.723-5.42
					s4.501-7.401,4.501-7.401l1.832-1.951c0,0-0.126,6-0.096,6.946c0.03,0.946-0.146,5.37-0.116,6.316
					c0.03,0.946,1.045,3.123,0.109,3.468c-0.936,0.345-0.641-0.295-2.128,2.592c-1.487,2.887-1.703,6.05-1.899,9.844
					c-0.196,3.793-0.116,6.316-0.067,7.892c0.05,1.576,0.199,6.306,0.199,6.306l-0.491,4.434c0,0-1.182,2.562-1.447,4.148
					c-0.265,1.586,0.129,4.099-0.727,6.966c-0.856,2.867-0.186,4.109-0.787,5.075c-0.601,0.966-0.305,0.325-1.191,2.247
					s-2.924,7.351-2.924,7.351l-1.457,3.833c0,0-2.363,5.124-3.269,6.415s-2.649,6.08-2.649,6.08l-1.192,2.247l-2.393,4.178
					l-2.038,5.43c0,0,3.319-4.839,4.53-6.455c1.211-1.616,3.024-4.198,4.521-6.77c1.497-2.572,2.453-2.287,4.52-6.77
					c2.068-4.484-0.02-0.631,3.555-7.371c3.575-6.74,3.741-11.48,3.691-13.056c-0.05-1.576,0.176-4.424,0.176-4.424
					s0.551-2.542,0.521-3.488c-0.03-0.946,0.551-2.542,0.797-4.759c0.246-2.217,0.816-4.129,1.082-5.715
					c0.266-1.586,0.196-3.793,0.777-5.39c0.581-1.596,0.846-3.183,1.112-4.769c0.266-1.586,1.182-2.562,1.102-5.084
					c-0.08-2.522-0.73-3.133,0.146-5.37c0.876-2.237,4.195-7.076,4.471-8.347c0.276-1.271,2.118-2.907,2.008-6.375
					s0.402-7.272,2.085-13.952c1.683-6.681,3.455-10.524,3.455-10.524s-6.482,4.623-8.649,5.954
					c-2.167,1.331-8.994,5.018-8.994,5.018s-1.882,0.375-2.483,1.341C310.367,162.399,307.267,174.174,307.267,174.174z"/>
				<path style="fill:#21292F;" d="M321.929,222.104c0,0-0.405,7.166-0.766,9.071c-0.361,1.905-0.268,4.848-0.668,5.492
					c-0.401,0.644-1.556,4.047-1.936,5.321c-0.381,1.275-1.259,6.773-1.87,7.423c-0.611,0.65-2.52,6.812-3.335,7.68
					c-0.814,0.867-3.02,4.303-3.02,4.303s-1.983,3.85-2.606,4.08s-3.053,3.252-3.244,3.89c-0.19,0.637-2.383,4.494-2.383,4.494
					l-0.971,2.556c0,0-1.398,2.358-1.379,2.989c0.02,0.631-0.721,3.81-0.721,3.81s2.777-5.348,3.578-6.635
					c0.801-1.288,2.423-3.232,3.421-4.947c0.998-1.715,1.792-3.213,2.396-4.073c0.604-0.861,1.622-1.945,2.626-3.449
					c1.005-1.504,2.042-1.958,3.034-3.883c0.991-1.925,2.199-3.646,2.797-4.717c0.597-1.071,2.443-2.602,2.817-4.087
					c0.374-1.485,2.173-4.487,2.1-6.799c-0.073-2.312,0.281-4.427,0.248-5.478c-0.033-1.051,1.398-2.359,1.162-3.193
					c-0.237-0.834,0.361-1.905,0.098-3.58c-0.263-1.675-0.316-3.357-0.376-5.248c-0.06-1.892,0.144-2.109,0.104-3.37
					c-0.04-1.261,0.558-2.332,0.314-3.376c-0.243-1.044-0.106-3.363-0.35-4.407c-0.243-1.044-1.17-3.75-1.21-5.012
					s0.15-1.898-0.04-1.261c-0.19,0.637-0.129,9.262-0.129,9.262L321.929,222.104z"/>
				<path style="fill:#21292F;" d="M293.018,302.758c0.275-1.271,2.934-7.036,4.461-8.662c1.527-1.626,2.738-3.242,3.024-4.198
					c0.285-0.956,3.684-3.272,4.255-5.184s3.93-5.489,4.836-6.78c0.906-1.291,4.905-4.573,5.486-6.17
					c0.581-1.596,3.329-4.523,3.614-5.479c0.285-0.956,3.359-3.578,4.265-4.869c0.906-1.291,2.728-3.558,3.329-4.523
					c0.601-0.966,2.413-3.548,2.413-3.548l-1.919,9.213l-1.487,2.887c0,0-2.137,2.277-2.413,3.548
					c-0.275,1.271-0.896,1.606-1.477,3.203c-0.581,1.596-6.412,6.83-7.634,8.131c-1.221,1.301-2.552-0.866-5.792,6.495
					c-3.239,7.361-3.81,9.273-3.81,9.273s0.099,3.153,0.129,4.099c0.03,0.946-1.447,4.148-1.733,5.104
					c-0.285,0.956,0.04,1.261-0.196,3.793c-0.236,2.532,0.189,5.991-0.697,7.912c-0.886,1.921-1.062,6.345-1.062,6.345
					s-3.183-0.846-4.504-2.698c-1.321-1.852-4.337-7.438-5.018-8.994c-0.68-1.557-1.676-3.103-1.706-4.049
					C289.354,306.661,293.018,302.758,293.018,302.758z"/>
				<path style="fill:#21292F;" d="M305.555,316.67c0,0,3.02-4.303,3.211-4.94s1.201-1.932,1.201-1.932s1.989-3.639,1.963-4.48
					c-0.026-0.841,0.518-3.593,0.498-4.224c-0.02-0.631,1.509-5.518,1.699-6.155c0.19-0.637,1.996-3.429,1.969-4.27
					c-0.027-0.841,2.587-4.711,2.567-5.341c-0.02-0.631,3.264-3.259,3.23-4.31c-0.033-1.051,2.396-4.073,2.396-4.073
					s2.633-3.239,2.81-4.297c0.177-1.058,2.403-3.863,2.587-4.71c0.184-0.847,0.998-1.715,0.998-1.715l-0.314,3.376l0.31,3.146
					l1.551,2.476c0,0,0.053,1.682,0.079,2.522c0.027,0.841,0.336,3.987,0.152,4.835c-0.184,0.847-0.668,5.492-0.832,6.97
					s0.526,3.35,0.066,2.102c-0.46-1.248-1.296-7.744-1.296-7.744l-0.276-2.095c0,0,0.394-0.854,0.367-1.695
					c-0.027-0.841,0.591-1.281-0.066-2.102c-0.657-0.821-1.077-0.808-1.314-1.642c-0.237-0.834-0.066-2.102-0.066-2.102
					s-1.792,3.213-2.593,4.5c-0.801,1.288-1.379,2.989-1.379,2.989s-1.825,2.162-2.226,2.805c-0.401,0.644-2.607,4.08-2.607,4.08
					l-1.142,3.823c0,0-0.63,0.02-0.814,0.867c-0.184,0.847-1.963,4.48-1.943,5.111c0.02,0.631-0.367,1.695-0.538,2.963
					c-0.17,1.268-0.735,3.39-0.735,3.39s0.033,1.051-0.775,2.128c-0.808,1.078-1.195,2.142-1.983,3.85
					c-0.788,1.708-1.956,4.69-2.797,4.717c-0.841,0.027-3.073,2.622-3.691,3.062c-0.617,0.44-1.228,1.091-2.403,3.863
					C302.247,325.191,305.555,316.67,305.555,316.67z"/>
				<path style="fill:#21292F;" d="M304.514,327.013c0,0,3.043-3.568,3.959-4.543c0.916-0.976,2.453-2.287,2.738-3.242
					c0.285-0.956,2.137-2.277,2.738-3.242c0.601-0.966,1.842-1.636,1.842-1.636l-0.466,1.999l-0.646,2.77
					c0,0,3.674-3.588,4.275-4.553c0.601-0.966,2.117-2.907,2.117-2.907s2.818-0.72,3.103-1.676c0.285-0.956,3.113-1.361,3.113-1.361
					l3.468-0.109l4.995-1.736l-3.09,12.09c0,0,0.129,4.099-0.787,5.074c-0.916,0.976-4.61,3.933-4.875,5.519
					c-0.266,1.586-1.387,6.04-1.387,6.04l0.372-8.217c0,0,1.772-3.843,1.742-4.789c-0.03-0.946,0.236-2.532,0.206-3.478
					c-0.03-0.946,1.162-3.193,0.216-3.163c-0.946,0.03-2.237-0.876-2.237-0.876l-3.329,4.523l-3.083,2.306l-3.063,2.937
					c0,0-1.842,1.636-3.428,1.371c-1.586-0.266,0.571-1.912-1.586-0.266c-2.157,1.646-6.827,3.687-7.753,4.347
					c-0.926,0.66-2.748,2.927-4.009,2.967c-1.261,0.04-6.837,3.372-6.837,3.372L304.514,327.013z"/>
				<path style="fill:#21292F;" d="M330.068,179.977l-1.797,9.735c0,0-0.195,7.16-0.129,9.262
					c0.066,2.102,0.778,11.337,0.778,11.337l1.186,10.904l-0.996,8.447c0,0-0.261,5.058-0.221,6.319
					c0.04,1.261,0.566,4.611,0.566,4.611l1.837-8.474c0,0,0.341-2.536,0.288-4.217c-0.053-1.682,1.443-7.62,1.443-7.62
					s0.774-2.129,0.288-4.217c-0.487-2.089-0.186-5.885-0.186-5.885l0.275-4.638l1.129-4.244l1.341,2.482
					c0,0,0.553,4.191,0.606,5.872c0.053,1.682,0.672,7.974,0.672,7.974s-0.195,7.16-0.155,8.421c0.04,1.261-0.221,6.319-0.562,8.855
					c-0.341,2.536-2.23,9.328-2.23,9.328l1.093,7.961l-0.275,4.637l-0.314,3.376l0.947,3.336l0.973,4.177
					c0,0,0.735-3.39,0.682-5.071c-0.053-1.681,1.823-8.894,1.337-10.983c-0.487-2.089,0.576-8.434,0.523-10.116
					c-0.053-1.681,1.562-3.836,1.076-5.925c-0.487-2.089,0.301-3.797,1.036-7.186c0.735-3.39,1.128-4.244,1.456-7.2
					c0.328-2.956,1.195-2.142,0.629-6.753c-0.566-4.611-0.54-3.77-0.712-9.235c-0.172-5.465,0.261-5.058-0.252-7.987
					c-0.513-2.93,0.274-4.638-0.659-7.554c-0.934-2.916-1.301-1.221-2.261-4.978c-0.96-3.757-3.602-7.461-3.602-7.461
					s-1.013-5.439-1.487-7.107c-0.473-1.668-0.473-1.668-0.473-1.668l-0.257,18.523l-0.695,4.651c0,0-0.275,4.637-0.221,6.319
					c0.053,1.682-0.735,3.39-0.735,3.39l-0.712-9.235l-0.119-3.784c0,0,0.328-2.956,0.275-4.637
					c-0.053-1.682-0.332-10.51-0.332-10.51L330.068,179.977z"/>
				<path style="fill:#21292F;" d="M288.107,177.093c0,0,0.422,6.719,1.283,7.324c0.861,0.604,2.398,2.66,1.998,3.303
					c-0.4,0.644-0.202,6.95,0.035,7.784c0.237,0.834,1.184,4.171,1.42,5.005c0.237,0.834,0.92,2.496,0.75,3.764
					c-0.17,1.268-0.018,6.102-0.188,7.37c-0.17,1.268,0.015,7.153,0.015,7.153s2-9.952,1.981-10.583
					c-0.02-0.631-0.079-2.522-0.133-4.204c-0.053-1.682,0.531-3.173,0.465-5.275c-0.066-2.102-0.079-2.522-0.336-3.987
					c-0.257-1.465-0.934-2.916-0.96-3.757c-0.027-0.841-0.954-3.547-0.98-4.388c-0.027-0.841,0.104-3.37-0.343-4.197
					s-2.602-2.443-2.628-3.284c-0.026-0.841,0.518-3.593,0.051-5.051s-0.96-3.757-1.223-5.432c-0.263-1.675-0.329-3.777-0.329-3.777
					L288.107,177.093z"/>
				<path style="fill:#21292F;" d="M126.486,329.473l8.89-11.642c0,0,1.629-1.735,2.81-4.297c1.182-2.562,1.536-4.677,2.717-7.239
					c1.182-2.562,3.571-6.845,4.359-8.554c0.788-1.708,2.77-5.558,2.717-7.239c-0.053-1.682,1.115-4.664,1.036-7.186
					c-0.079-2.522,0.288-4.217,0.668-5.492c0.381-1.274,6.298-27.13,3.806-12.744c-2.492,14.386-2.492,14.386-2.492,14.386
					l-0.629,6.753l-0.248,5.478l-0.668,5.492c0,0-1.956,4.691-1.916,5.952c0.04,1.261-0.695,4.651-1.496,5.939
					c-0.801,1.288-2.403,3.863-3.204,5.151c-0.801,1.288-4.071,4.336-4.071,4.336s-1.996,3.429-2.797,4.717
					c-0.801,1.288-2.823,3.876-4.505,3.929c-1.681,0.053-2.036,2.168-3.257,3.469c-1.221,1.301-3.217,4.73-4.452,5.611
					c-1.235,0.881-1.235,0.881-1.235,0.881L126.486,329.473z"/>
				<path style="fill:#21292F;" d="M125.534,285.949c0,0,0.629-6.753,0.772-8.861c0.144-2.109,1.509-5.518,1.89-6.793
					c0.381-1.274,2.613-3.87,2.77-5.558s1.332-4.46,1.299-5.511c-0.033-1.051,1.305-5.301,1.266-6.562
					c-0.04-1.261,0.925-4.027,0.668-5.492c-0.257-1.465-0.396-5.879-0.396-5.879s-2.08,7.43-2.244,8.908
					c-0.164,1.478,0.113,3.573-1.009,8.027c-1.122,4.454-0.478,4.854-1.489,6.149c-1.011,1.294-2.219,3.016-3.034,3.883
					c-0.814,0.867-1.609,2.365-2.009,3.009c-0.4,0.644-0.728,3.6-1.345,4.04c-0.617,0.44-1.622,1.945-2.199,3.646
					c-0.578,1.701-2.861,9.348-2.808,11.029c0.053,1.682-0.385,7.797-0.385,7.797L125.534,285.949z"/>
			</g>
		</g>
		<path style="fill:#21292F;" d="M317.989,290.609c0.801-1.288,9.97-4.102,9.97-4.102s3.363-0.106,4.151-1.814
			c0.788-1.708,3.284-2.628,3.23-4.31c-0.053-1.681-0.133-4.204,0.221-6.319s1.076-5.925,1.036-7.186s1.195-2.142,1.195-2.142
			s-0.536,9.695-0.076,10.943s1.04,6.279,1.04,6.279l-0.708,4.23l-2.43,3.022l-3.323,1.367l-4.531,3.089
			c0,0-4.965,2.681-6.226,2.721c-1.261,0.04-5.018,1-5.018,1l-1.425,1.518L317.989,290.609z"/>
		<path style="fill:#CCC9D0;" d="M286.002,350.478l-2.497,0.868c0,0-1.389,0.991-1.852,1.321c-0.463,0.33-0.586,1.439-0.881,2.079
			c-0.295,0.641,3.281-1.05,3.281-1.05l1.897,0.098l1.561-0.523L286.002,350.478z"/>
		<path style="fill:#CCC9D0;" d="M283.13,349.464c0,0-2.37-0.083-2.512,0.395c-0.143,0.478-0.901,1.449-0.901,1.449l-1.191,2.247
			l2.33-1.178l1.714-0.685l1.581,0.108l1.034-2.242l0.133-0.793L283.13,349.464z"/>
		<path style="fill:#CCC9D0;" d="M113.536,345.819l-2.182,0.858l-1.837,1.794l-1.044,1.927c0,0-0.581,1.596,0.03,0.946
			c0.611-0.65,2.778-1.981,2.778-1.981l2.365-0.075l2.345-0.705L113.536,345.819z"/>
		<path style="fill:#CCC9D0;" d="M106.885,345.082l0.449,0.25l0.355,0.198l-3.286,0.893l-1.562,0.523l-0.571,1.912l-0.881,2.079
			l3.113-1.361l2.03-0.695l1.714-0.685l0.911-1.133c0,0,1.251-0.355,0.773-0.498"/>
		<polyline style="fill:#CCC9D0;" points="105.126,342.601 102.889,343.472 101.988,344.921 100.634,347.015 102.648,345.847 
			104.047,345.172 104.958,344.038 105.401,343.078 		"/>
		<g>
			<defs>
				<path id="SVGID_00000177471690740090937730000003726461000261757570_" d="M331.174,188.358c0,0,10.425,3.669,22.114,14.031
					s14.45,17.849,28.86,34.437c14.41,16.588,16.62,26.618,28.78,31.915c12.16,5.297,16.083,9.592,29.345,9.805
					c13.262,0.213,20.119-2.528,24.374-7.712s11.251-3.511,11.351-0.358c0.099,3.153-4.707,10.879-12.785,14.921
					c-8.078,4.042-16.787,8.104-32.08,3.537c-15.293-4.567-25.482-7.402-35.279-17.823c-9.797-10.421-21.804-30.873-32.231-41.274
					c-10.427-10.402-13.268-20.411-25.428-25.709c-12.16-5.297-20.368-5.354-20.368-5.354L331.174,188.358z"/>
			</defs>
			<clipPath id="SVGID_00000005957190415255157840000014237827516536656779_">
				<use xlink:href="#SVGID_00000177471690740090937730000003726461000261757570_"  style="overflow:visible;"/>
			</clipPath>
			<g style="clip-path:url(#SVGID_00000005957190415255157840000014237827516536656779_);">
				<path style="fill:#21292F;" d="M344.162,193.208l6.319,10.216c0,0,1.155,6.591,2.456,7.813c1.301,1.221,1.135,5.961,1.49,7.212
					c0.355,1.251,1.934,11.301,1.934,11.301s-0.713-12.602-0.743-13.548c-0.03-0.946-0.259-8.197-0.259-8.197
					s-1.045-3.123-2.071-5.616c-1.025-2.493-1.095-4.7-2.12-7.192c-1.025-2.493-3.657-5.881-4.318-6.807
					c-0.66-0.926-4.859-3.95-5.204-4.885c-0.345-0.936-0.345-0.936-0.345-0.936l2.791,8.433L344.162,193.208z"/>
				<path style="fill:#21292F;" d="M359.199,199.677l2.2,9.714l0.1,3.153l2.101,6.561l1.095,4.7l0.76,4.079l0.382-7.902
					c0,0,0.186-4.109-0.179-5.675c-0.365-1.566-0.129-4.099-0.544-7.242c-0.415-3.143-0.76-4.079-1.165-6.907
					c-0.405-2.828-0.395-2.512-1.41-4.69c-1.015-2.177-2.937-3.063-3.302-4.63c-0.365-1.566-0.365-1.566-0.365-1.566l1.195,7.852
					L359.199,199.677z"/>
				<path style="fill:#21292F;" d="M373.422,250.357l-2.545-10.65c0,0-0.129-4.099-0.524-6.611c-0.395-2.512-1.065-3.754-1.42-5.005
					c-0.355-1.251-1.095-4.7-1.095-4.7l4.663,7.743l1.4,4.374c0,0,1.371,3.428,1.716,4.364c0.345,0.936,1.42,5.005,1.42,5.005
					l1.42,5.005c0,0,0.169,5.36,0.534,6.926c0.218,0.935,0.412,4.685,0.533,7.555c0.082,1.936,0.13,3.47,0.13,3.47L373.422,250.357z
					"/>
				<path style="fill:#21292F;" d="M377.021,224.363l1.274,10.375c0,0,2.967,4.009,3.322,5.26c0.355,1.251,2.681,4.965,2.681,4.965
					l-0.116,6.316c0,0,3.302,4.63,3.647,5.566c0.345,0.936,1.696,3.734,2.041,4.67c0.345,0.936,1.666,2.788,1.666,2.788
					s-1.855-8.778-1.885-9.724c-0.03-0.946-2.051-4.985-2.051-4.985s-0.415-3.143-0.445-4.089c-0.03-0.946,0.216-3.163-0.139-4.414
					c-0.355-1.251,0.236-2.532-0.81-5.655c-1.045-3.123-1.115-5.33-1.825-7.833c-0.71-2.503-1.579-10.049-1.579-10.049l-1.202,1.932
					l-0.777,5.39l-0.186,4.109L377.021,224.363z"/>
				<path style="fill:#21292F;" d="M396.92,244.881l2.091,6.246l0.574,8.188l0.129,4.099l1.696,3.734l1.686,3.419
					c0,0,1.37,3.428,1.341,2.482c-0.03-0.946-0.524-6.611-0.554-7.557c-0.03-0.946-0.129-4.099-0.494-5.665
					c-0.365-1.566-0.455-4.404-0.514-6.296c-0.06-1.892,0.126-6-0.564-7.872c-0.553-1.499-3.698-8.178-4.929-10.78
					c-0.306-0.647-0.494-1.042-0.494-1.042L396.92,244.881z"/>
				<path style="fill:#21292F;" d="M392.804,254.479c0,0,1.53,8.473,1.895,10.04c0.365,1.566,2.751,7.172,2.751,7.172l3.362,6.522
					l3.677,6.512c0,0-4.842-13.418-5.187-14.354c-0.345-0.936-1.105-5.015-1.765-5.941c-0.66-0.926-1.41-4.69-2.111-6.877
					c-0.7-2.187-0.385-2.197-1.391-4.059c-1.006-1.862-2.947-3.379-3.322-5.26c-0.375-1.882-0.375-1.882-0.375-1.882
					S392.469,253.859,392.804,254.479z"/>
				<path style="fill:#21292F;" d="M409.969,258.356l0.959,10.385c0,0,3.312,4.945,4.898,5.211s3.578,3.359,4.543,3.96
					c0.966,0.601,5.559,6.137,6.86,7.358c1.301,1.221,6.84,6.728,6.84,6.728l5.214,5.201c0,0-6.388-12.423-7.374-13.654
					c-0.986-1.231-0.7-2.187-2.967-4.009c-2.267-1.822-3.853-2.088-5.499-4.245c-1.646-2.157-3.252-3.053-4.228-3.969
					c-0.976-0.916-1.666-2.788-2.977-4.325c-1.311-1.537-1.981-2.778-1.981-2.778s-0.02-0.631-1.351-2.798
					C411.575,259.252,410.019,259.933,409.969,258.356z"/>
			</g>
		</g>
	</g>
	<g>
		<path style="fill:#C8A052;" d="M125.197,223.8c-0.165-0.225-0.328-0.441-0.493-0.648c0.244-0.337,0.414-0.766,0.461-1.295
			c0.109-1.23-0.297-2.036-0.962-2.612c-1.21-2.468-2.938-4.682-5.968-4.882c-0.714-0.047-1.366,0.021-1.953,0.185
			c-0.31-0.302-0.62-0.604-0.931-0.906c-0.594-0.698-1.327-0.894-2.027-0.781c-0.262-0.199-0.524-0.397-0.778-0.576
			c-1.415-0.992-2.749-0.344-3.392,0.8c-0.386-0.168-0.774-0.327-1.167-0.474c-0.712-0.267-1.403-0.133-1.981,0.221
			c-0.5-0.964-1.519-1.321-2.517-1.182c-1.845-1.053-3.997-1.347-6.031-0.149c-1.006,0.593-1.309,1.617-1.087,2.545
			c-0.382,0.114-0.652,0.57-0.592,0.996c0.063,0.449,0.309,0.847,0.646,1.162c-0.111,0.363-0.176,0.757-0.201,1.173
			c-1.774-2.767-3.685-5.411-5.893-7.945c-0.529-0.607-1.61,0.205-1.129,0.871c2.912,4.031,5.591,8.312,7.466,12.934
			c0.432,1.065,2.373,1.482,2.603,0c0.118-0.76,0.117-1.375,0.206-2.072c-0.101-0.46-0.201-0.92-0.302-1.38
			c0.468-2.291,1.059-2.761,1.772-1.411c1.982,0.871,4.601,5.882,5.969,7.565c0.992,1.219,2.526-0.06,2.458-1.283
			c-0.107-0.365-0.939-4.289-1.139-2.884c0.272-1.904,1.342-0.968,2.76-0.464c3.367,1.197,6.848,4.018,9.985,5.792
			c0.989,0.559,2.391-0.307,2.167-1.456C124.293,226.417,126.143,225.096,125.197,223.8z"/>
		<path style="fill:#C8A052;" d="M109.364,224.515c0.007,0.047,0.008,0.094,0.01,0.142
			C109.392,224.717,109.392,224.691,109.364,224.515z"/>
	</g>
	<path style="fill:#CCC9D0;" d="M67.029,245.377c-0.753-0.69-2.09-1.274-3.02-0.656c-0.202,0.135-0.263,0.502,0,0.621
		c0.681,0.307,1.443,0.341,1.991,0.913c0.584,0.609,0.599,1.398,0.58,2.182c-0.019,0.845,1.198,0.971,1.44,0.195
		C68.382,247.474,67.898,246.173,67.029,245.377z"/>
	<path style="fill:#21292F;" d="M99.887,206.943c-0.432-1.043-2.139-1.033-2.118,0.287c0.147,9.154,3.503,18.61,4.757,27.71
		c0.105,0.762,1.411,0.588,1.35-0.183C103.177,225.899,103.319,215.235,99.887,206.943z"/>
	<path style="fill:#21292F;" d="M117.725,231.177c-0.591-2.197-0.591-4.41-1.072-6.593c-0.579-2.629-1.881-5.025-3.361-7.332
		c-3.618-5.641-7.603-11.465-12.666-15.906c-0.477-0.418-1.335,0.13-0.933,0.72c4.07,5.963,7.888,11.498,10.675,18.207
		c0.885,2.129,1.786,4.099,2.972,5.939c1.996,3.096,2.997,6.047,4.52,9.356c0.135,0.293,0.636,0.151,0.611-0.166
		C118.355,233.91,118.116,232.63,117.725,231.177z"/>
	<path style="fill:#21292F;" d="M127.278,226.218c-3.936-5.453-9.115-9.436-12.684-15.326c-0.464-0.766-1.569-0.096-1.187,0.694
		c2.045,4.235,4.367,8.322,6.905,12.282c2.764,4.312,7.966,6.999,7.65,12.772c-0.03,0.551,0.796,0.775,1.048,0.284
		C130.768,233.504,129.399,229.157,127.278,226.218z"/>
</g>
<g id="DESIGNED_BY_FREEPIK">
	<g>
		<g id="XMLID_319_">
			<g id="XMLID_338_">
				<path id="XMLID_346_" style="fill:#FAF9FA;" d="M258.889,463.924c-0.49,0.502-0.91,1.054-1.255,1.646l-0.527-0.273
					c-0.076-0.337-0.396-0.569-0.746-0.528c-0.375,0.044-0.643,0.384-0.599,0.758c0.044,0.375,0.384,0.643,0.758,0.599
					c0.074-0.009,0.144-0.029,0.208-0.059l0.511,0.265c-0.284,0.627-0.49,1.289-0.611,1.975l0.845,0.149
					c0.26-1.479,0.962-2.839,2.029-3.932L258.889,463.924z"/>
				<path id="XMLID_345_" style="fill:#FAF9FA;" d="M265.103,461.317c-0.194,0-0.386,0.007-0.577,0.019l-0.083-0.709
					c0.212-0.169,0.335-0.44,0.301-0.73c-0.052-0.445-0.456-0.764-0.901-0.711c-0.445,0.052-0.763,0.456-0.711,0.901
					c0.034,0.288,0.214,0.522,0.458,0.638l0.083,0.707c-0.808,0.132-1.589,0.376-2.332,0.732l0.37,0.774
					c1.058-0.506,2.199-0.762,3.392-0.762c0.562,0,1.124,0.06,1.67,0.178l0.182-0.839
					C266.349,461.384,265.726,461.317,265.103,461.317z"/>
				<path id="XMLID_344_" style="fill:#FAF9FA;" d="M272.58,464.202c0.375-0.046,0.641-0.387,0.595-0.761
					c-0.046-0.375-0.387-0.641-0.761-0.595c-0.35,0.043-0.606,0.344-0.6,0.689l-0.471,0.411c-0.473-0.487-1.007-0.92-1.594-1.29
					l-0.458,0.726c1.284,0.809,2.288,1.955,2.903,3.313l0.782-0.354c-0.284-0.627-0.643-1.214-1.067-1.75l0.455-0.397
					C272.433,464.207,272.506,464.211,272.58,464.202z"/>
				<path id="XMLID_343_" style="fill:#FAF9FA;" d="M264.483,472.877c-0.437,0.026-0.878,0.039-1.31,0.039
					c-0.997,0-1.962-0.069-2.807-0.203c-0.442-0.07-0.958-0.176-1.438-0.331c1.185,2.107,3.476,3.539,6.102,3.539
					c3.233,0,5.959-2.17,6.737-5.1c-0.772,0.509-1.705,0.935-2.784,1.271C267.647,472.509,266.09,472.78,264.483,472.877z"/>
				<path id="XMLID_339_" style="fill:#FAF9FA;" d="M265.103,463.034c-3.796,0-6.884,3.019-6.884,6.73
					c0,0.482,0.052,0.962,0.155,1.428c0.763,0.547,3.064,1.008,6.055,0.828c3.261-0.196,5.998-1.084,7.556-2.444
					c-0.006-0.221-0.023-0.442-0.051-0.659C271.503,465.563,268.567,463.034,265.103,463.034z M262.658,470.411
					c-1.155,0-2.095-0.94-2.095-2.095c0-1.155,0.94-2.095,2.095-2.095c1.155,0,2.095,0.94,2.095,2.095
					C264.753,469.472,263.813,470.411,262.658,470.411z M268.022,469.383c-0.849,0-1.54-0.691-1.54-1.54
					c0-0.849,0.691-1.541,1.54-1.541c0.849,0,1.541,0.691,1.541,1.541C269.563,468.692,268.872,469.383,268.022,469.383z"/>
			</g>
			<path id="XMLID_336_" style="fill:#FAF9FA;" d="M283.225,465.148c-0.334-0.131-0.912-0.35-1.565-0.269
				c-0.624,0.078-0.956,0.386-0.956,1.14V467h2.523v1.944h-2.523v6.177h-2.188v-6.177H277V467h1.517v-1.006
				c0-1.902,1.014-3.151,2.908-3.151c0.728,0,1.31,0.138,1.8,0.349L283.225,465.148z"/>
			<path id="XMLID_334_" style="fill:#FAF9FA;" d="M288.551,468.921c-0.2-0.034-0.405-0.052-0.596-0.052
				c-1.014,0-1.71,0.62-1.71,1.827v4.425h-2.188V467h2.121v0.888c0.511-0.763,1.291-1.106,2.288-1.106
				c0.469,0,0.96,0.144,1.239,0.381L288.551,468.921z"/>
			<path id="XMLID_331_" style="fill:#FAF9FA;" d="M297.233,471.048c0,0.252-0.017,0.553-0.042,0.738h-5.758
				c0.235,1.173,1.056,1.685,2.087,1.685c0.704,0,1.467-0.285,2.053-0.779l1.282,1.408c-0.922,0.846-2.095,1.232-3.461,1.232
				c-2.489,0-4.216-1.693-4.216-4.249c0-2.556,1.676-4.3,4.107-4.3C295.624,466.782,297.225,468.517,297.233,471.048z
				 M291.441,470.294h3.595c-0.201-1.039-0.83-1.626-1.768-1.626C292.238,468.668,291.634,469.288,291.441,470.294z"/>
			<path id="XMLID_328_" style="fill:#FAF9FA;" d="M305.9,471.048c0,0.252-0.017,0.553-0.042,0.738H300.1
				c0.235,1.173,1.056,1.685,2.087,1.685c0.704,0,1.467-0.285,2.053-0.779l1.282,1.408c-0.922,0.846-2.095,1.232-3.462,1.232
				c-2.489,0-4.216-1.693-4.216-4.249c0-2.556,1.676-4.3,4.107-4.3C304.29,466.782,305.891,468.517,305.9,471.048z M300.108,470.294
				h3.596c-0.201-1.039-0.83-1.626-1.768-1.626C300.904,468.668,300.301,469.288,300.108,470.294z"/>
			<path id="XMLID_325_" style="fill:#FAF9FA;" d="M315.35,471.057c0,2.439-1.693,4.274-3.931,4.274
				c-1.09,0-1.861-0.427-2.389-1.056v4.199h-2.179V467h2.137v0.897c0.528-0.662,1.308-1.115,2.422-1.115
				C313.657,466.782,315.35,468.618,315.35,471.057z M308.922,471.057c0,1.282,0.846,2.238,2.087,2.238
				c1.291,0,2.095-0.997,2.095-2.238c0-1.24-0.805-2.238-2.095-2.238C309.768,468.819,308.922,469.774,308.922,471.057z"/>
			<path id="XMLID_322_" style="fill:#FAF9FA;" d="M318.865,464.343c0,0.788-0.612,1.391-1.4,1.391
				c-0.788,0-1.391-0.603-1.391-1.391c0-0.788,0.604-1.408,1.391-1.408C318.253,462.935,318.865,463.555,318.865,464.343z
				 M318.571,475.121h-2.188V467h2.188V475.121z"/>
			<path id="XMLID_320_" style="fill:#FAF9FA;" d="M322.222,469.892l3.059-2.892h2.682l-3.939,3.822l3.964,4.3h-2.69l-3.076-3.285
				v3.285h-2.188v-12.069h2.188V469.892z"/>
		</g>
		<g>
			<path style="fill:#FAF9FA;" d="M173.176,475.048v-1.194c-0.597,0.813-1.576,1.393-2.704,1.393c-2.09,0-3.566-1.592-3.566-4.196
				c0-2.555,1.46-4.213,3.566-4.213c1.078,0,2.057,0.531,2.704,1.41v-4.263h1.244v11.064H173.176z M173.176,472.875v-3.633
				c-0.448-0.697-1.41-1.294-2.405-1.294c-1.609,0-2.571,1.327-2.571,3.102c0,1.775,0.962,3.085,2.571,3.085
				C171.766,474.136,172.728,473.572,173.176,472.875z"/>
			<path style="fill:#FAF9FA;" d="M176.029,471.034c0-2.322,1.659-4.197,3.948-4.197c2.422,0,3.848,1.891,3.848,4.296v0.315h-6.486
				c0.1,1.509,1.161,2.77,2.886,2.77c0.912,0,1.841-0.365,2.471-1.012l0.597,0.813c-0.796,0.796-1.874,1.227-3.185,1.227
				C177.737,475.247,176.029,473.539,176.029,471.034z M179.96,467.866c-1.709,0-2.555,1.443-2.621,2.67h5.258
				C182.58,469.342,181.784,467.866,179.96,467.866z"/>
			<path style="fill:#FAF9FA;" d="M184.72,473.986l0.647-0.896c0.531,0.614,1.543,1.145,2.637,1.145
				c1.228,0,1.891-0.581,1.891-1.377c0-1.94-4.96-0.746-4.96-3.716c0-1.244,1.078-2.305,2.985-2.305c1.36,0,2.323,0.514,2.969,1.161
				l-0.581,0.863c-0.481-0.581-1.36-1.012-2.389-1.012c-1.095,0-1.775,0.547-1.775,1.261c0,1.758,4.96,0.597,4.96,3.716
				c0,1.344-1.078,2.422-3.151,2.422C186.644,475.247,185.532,474.849,184.72,473.986z"/>
			<path style="fill:#FAF9FA;" d="M192.499,465.063c0-0.464,0.382-0.846,0.829-0.846c0.465,0,0.846,0.381,0.846,0.846
				c0,0.465-0.381,0.829-0.846,0.829C192.881,465.892,192.499,465.527,192.499,465.063z M192.715,475.048v-8.012h1.244v8.012
				H192.715z"/>
			<path style="fill:#FAF9FA;" d="M196.016,477.105l0.63-0.929c0.663,0.796,1.46,1.095,2.604,1.095c1.327,0,2.571-0.647,2.571-2.405
				v-1.145c-0.581,0.813-1.559,1.427-2.687,1.427c-2.09,0-3.566-1.559-3.566-4.147c0-2.571,1.46-4.163,3.566-4.163
				c1.078,0,2.04,0.531,2.687,1.41v-1.211h1.244v7.779c0,2.654-1.858,3.483-3.815,3.483
				C197.89,478.299,196.961,478.034,196.016,477.105z M201.821,472.742v-3.5c-0.432-0.697-1.393-1.294-2.389-1.294
				c-1.609,0-2.571,1.277-2.571,3.052c0,1.758,0.962,3.052,2.571,3.052C200.428,474.053,201.39,473.439,201.821,472.742z"/>
			<path style="fill:#FAF9FA;" d="M210.546,475.048v-5.242c0-1.41-0.713-1.858-1.791-1.858c-0.979,0-1.908,0.597-2.372,1.244v5.855
				h-1.244v-8.012h1.244v1.161c0.564-0.663,1.658-1.36,2.853-1.36c1.675,0,2.555,0.846,2.555,2.588v5.623H210.546z"/>
			<path style="fill:#FAF9FA;" d="M213.398,471.034c0-2.322,1.659-4.197,3.948-4.197c2.422,0,3.848,1.891,3.848,4.296v0.315h-6.486
				c0.099,1.509,1.161,2.77,2.886,2.77c0.912,0,1.841-0.365,2.472-1.012l0.597,0.813c-0.796,0.796-1.874,1.227-3.185,1.227
				C215.107,475.247,213.398,473.539,213.398,471.034z M217.33,467.866c-1.708,0-2.555,1.443-2.621,2.67h5.258
				C219.95,469.342,219.154,467.866,217.33,467.866z"/>
			<path style="fill:#FAF9FA;" d="M228.592,475.048v-1.194c-0.597,0.813-1.576,1.393-2.704,1.393c-2.09,0-3.566-1.592-3.566-4.196
				c0-2.555,1.46-4.213,3.566-4.213c1.078,0,2.057,0.531,2.704,1.41v-4.263h1.244v11.064H228.592z M228.592,472.875v-3.633
				c-0.448-0.697-1.41-1.294-2.405-1.294c-1.609,0-2.571,1.327-2.571,3.102c0,1.775,0.962,3.085,2.571,3.085
				C227.182,474.136,228.144,473.572,228.592,472.875z"/>
			<path style="fill:#FAF9FA;" d="M235.774,475.048v-11.064h1.244v4.263c0.647-0.879,1.609-1.41,2.704-1.41
				c2.09,0,3.566,1.659,3.566,4.213c0,2.604-1.476,4.196-3.566,4.196c-1.128,0-2.107-0.581-2.704-1.393v1.194H235.774z
				 M239.407,474.136c1.626,0,2.588-1.31,2.588-3.085c0-1.775-0.962-3.102-2.588-3.102c-0.979,0-1.957,0.597-2.388,1.294v3.633
				C237.449,473.572,238.428,474.136,239.407,474.136z"/>
			<path style="fill:#FAF9FA;" d="M244.648,477.055c0.182,0.083,0.481,0.133,0.68,0.133c0.547,0,0.912-0.182,1.194-0.846
				l0.531-1.211l-3.351-8.095h1.344l2.671,6.568l2.654-6.568h1.36l-4.014,9.637c-0.481,1.161-1.294,1.609-2.356,1.625
				c-0.265,0-0.68-0.05-0.912-0.116L244.648,477.055z"/>
		</g>
	</g>
</g>
</svg>
